<?xml version="1.0" encoding="utf-8"?>
<!-- Generator: Adobe Illustrator 25.4.1, SVG Export Plug-In . SVG Version: 6.00 Build 0)  -->
<svg version="1.1" id="Layer_1" xmlns="http://www.w3.org/2000/svg" xmlns:xlink="http://www.w3.org/1999/xlink" x="0px" y="0px"
	 viewBox="0 0 128 128" style="enable-background:new 0 0 128 128;" xml:space="preserve">
<g>
	<g>
		<linearGradient id="SVGID_1_" gradientUnits="userSpaceOnUse" x1="8.1479" y1="76.1573" x2="96.0469" y2="79.0631">
			<stop  offset="0" style="stop-color:#4EC7F4"/>
			<stop  offset="0.1301" style="stop-color:#45B1E9"/>
			<stop  offset="0.3884" style="stop-color:#348CD7"/>
			<stop  offset="0.6278" style="stop-color:#2970CA"/>
			<stop  offset="0.8392" style="stop-color:#2260C2"/>
			<stop  offset="1" style="stop-color:#1F5ABF"/>
		</linearGradient>
		<path style="fill:url(#SVGID_1_);" d="M7.829,25.783v89.294l15.758,11.954V34.658L7.829,25.783L7.829,25.783z"/>
		
			<linearGradient id="SVGID_00000024705279486346585180000001320181366074215857_" gradientUnits="userSpaceOnUse" x1="88.5476" y1="15.6779" x2="86.0388" y2="34.3795">
			<stop  offset="0" style="stop-color:#4EC7F4"/>
			<stop  offset="0.2711" style="stop-color:#46B2EE"/>
			<stop  offset="0.7398" style="stop-color:#3A92E5"/>
			<stop  offset="1" style="stop-color:#3586E2"/>
		</linearGradient>
		<polygon style="fill:url(#SVGID_00000024705279486346585180000001320181366074215857_);" points="96.761,25.782 96.761,65.63 
			73.395,65.63 73.395,17.452 		"/>
		<polygon style="fill:none;" points="96.76,25.783 23.587,34.658 23.587,127.031 96.76,109.825 		"/>
		<polygon style="fill:none;" points="96.76,25.783 23.587,34.658 23.587,127.031 96.76,109.825 		"/>
		
			<linearGradient id="SVGID_00000142147758589564912200000006578599180352288647_" gradientUnits="userSpaceOnUse" x1="3.1339" y1="17.3277" x2="82.9239" y2="7.1457">
			<stop  offset="0" style="stop-color:#4EC7F4"/>
			<stop  offset="0.2711" style="stop-color:#46B2EE"/>
			<stop  offset="0.7398" style="stop-color:#3A92E5"/>
			<stop  offset="1" style="stop-color:#3586E2"/>
		</linearGradient>
		<polygon style="fill:url(#SVGID_00000142147758589564912200000006578599180352288647_);" points="73.395,17.452 20.228,24.582 
			11.271,25.782 7.469,12.985 5.837,7.49 70.678,0.969 		"/>
		<polygon style="fill:none;" points="96.76,25.783 23.587,34.658 23.587,127.031 96.76,109.825 		"/>
		
			<linearGradient id="SVGID_00000178910932637077324840000016660455868778109872_" gradientUnits="userSpaceOnUse" x1="48.7049" y1="40.2684" x2="47.2284" y2="25.2577">
			<stop  offset="0" style="stop-color:#4EC7F4"/>
			<stop  offset="0.2711" style="stop-color:#46B2EE"/>
			<stop  offset="0.7398" style="stop-color:#3A92E5"/>
			<stop  offset="1" style="stop-color:#3586E2"/>
		</linearGradient>
		<polygon style="fill:url(#SVGID_00000178910932637077324840000016660455868778109872_);" points="73.395,17.452 73.395,28.617 
			23.588,34.658 20.228,24.582 		"/>
		
			<linearGradient id="SVGID_00000021091104254890983460000015657917467380213889_" gradientUnits="userSpaceOnUse" x1="96.7045" y1="28.1025" x2="81.9791" y2="-2.3432">
			<stop  offset="0" style="stop-color:#4EC7F4"/>
			<stop  offset="0.2711" style="stop-color:#46B2EE"/>
			<stop  offset="0.7398" style="stop-color:#3A92E5"/>
			<stop  offset="1" style="stop-color:#3586E2"/>
		</linearGradient>
		<polygon style="fill:url(#SVGID_00000021091104254890983460000015657917467380213889_);" points="82.633,0.969 104.368,6.403 
			96.754,25.783 73.395,17.452 		"/>
		
			<linearGradient id="SVGID_00000103226080348994238930000010411131504950467490_" gradientUnits="userSpaceOnUse" x1="0.32" y1="9.9066" x2="83.9375" y2="9.0948">
			<stop  offset="0" style="stop-color:#FFFFFF;stop-opacity:0.6"/>
			<stop  offset="0.0949" style="stop-color:#D0E3F8;stop-opacity:0.543"/>
			<stop  offset="0.1932" style="stop-color:#A7CAF2;stop-opacity:0.4841"/>
			<stop  offset="0.2977" style="stop-color:#84B5ED;stop-opacity:0.4214"/>
			<stop  offset="0.4073" style="stop-color:#67A4E9;stop-opacity:0.3556"/>
			<stop  offset="0.5241" style="stop-color:#5197E6;stop-opacity:0.2856"/>
			<stop  offset="0.6512" style="stop-color:#418DE4;stop-opacity:0.2093"/>
			<stop  offset="0.7964" style="stop-color:#3888E2;stop-opacity:0.1221"/>
			<stop  offset="1" style="stop-color:#3586E2;stop-opacity:0"/>
		</linearGradient>
		<polygon style="fill:url(#SVGID_00000103226080348994238930000010411131504950467490_);" points="8.56,16.658 7.469,12.985 
			5.837,7.49 70.678,0.969 73.395,17.452 		"/>
		<polyline style="fill:none;stroke:#6493D4;stroke-width:0.1115;stroke-miterlimit:10;" points="28.861,37.625 27.82,36.346 
			26.189,34.342 		"/>
		
			<linearGradient id="SVGID_00000129895313202445858260000000587482858793971328_" gradientUnits="userSpaceOnUse" x1="29.4337" y1="35.0125" x2="-9.5022" y2="2.9641">
			<stop  offset="0" style="stop-color:#4EC7F4"/>
			<stop  offset="0.2711" style="stop-color:#46B2EE"/>
			<stop  offset="0.7398" style="stop-color:#3A92E5"/>
			<stop  offset="1" style="stop-color:#3586E2"/>
		</linearGradient>
		<polygon style="fill:url(#SVGID_00000129895313202445858260000000587482858793971328_);" points="23.588,34.658 7.829,25.782 
			2.396,11.113 7.469,12.985 17.609,16.727 20.228,24.582 		"/>
		<polygon style="fill:none;" points="96.76,25.783 23.587,34.658 23.587,127.031 96.76,109.825 		"/>
		
			<linearGradient id="SVGID_00000083089299399263621430000005502281982879533210_" gradientUnits="userSpaceOnUse" x1="40.0735" y1="40.9155" x2="80.3908" y2="112.1064">
			<stop  offset="0" style="stop-color:#4EC7F4"/>
			<stop  offset="0.1301" style="stop-color:#45B1E9"/>
			<stop  offset="0.3884" style="stop-color:#348CD7"/>
			<stop  offset="0.6278" style="stop-color:#2970CA"/>
			<stop  offset="0.8392" style="stop-color:#2260C2"/>
			<stop  offset="1" style="stop-color:#1F5ABF"/>
		</linearGradient>
		<polygon style="fill:url(#SVGID_00000083089299399263621430000005502281982879533210_);" points="96.76,25.783 23.587,34.658 
			23.587,127.031 96.76,109.825 		"/>
		<polygon style="fill:none;" points="96.76,25.783 23.587,34.658 23.587,127.031 96.76,109.825 		"/>
		
			<linearGradient id="SVGID_00000072255582694406142030000009609807025641335734_" gradientUnits="userSpaceOnUse" x1="87.0343" y1="17.9473" x2="-2.7841" y2="103.0902">
			<stop  offset="0" style="stop-color:#FFFFFF;stop-opacity:0.6"/>
			<stop  offset="0.0465" style="stop-color:#DCEAFA;stop-opacity:0.5721"/>
			<stop  offset="0.1086" style="stop-color:#B5D3F4;stop-opacity:0.5348"/>
			<stop  offset="0.1772" style="stop-color:#93BEEF;stop-opacity:0.4937"/>
			<stop  offset="0.2518" style="stop-color:#75ADEB;stop-opacity:0.4489"/>
			<stop  offset="0.334" style="stop-color:#5E9EE8;stop-opacity:0.3996"/>
			<stop  offset="0.4274" style="stop-color:#4B93E5;stop-opacity:0.3436"/>
			<stop  offset="0.5384" style="stop-color:#3F8CE3;stop-opacity:0.277"/>
			<stop  offset="0.6843" style="stop-color:#3787E2;stop-opacity:0.1894"/>
			<stop  offset="1" style="stop-color:#3586E2;stop-opacity:0"/>
		</linearGradient>
		<path style="fill:url(#SVGID_00000072255582694406142030000009609807025641335734_);" d="M96.76,25.783l-73.174,8.875v63.533
			l36.769-16.362C82.495,71.978,96.76,50.016,96.76,25.783L96.76,25.783z"/>
		
			<linearGradient id="SVGID_00000075882937748366099750000015005837548400582845_" gradientUnits="userSpaceOnUse" x1="2.8025" y1="12.1363" x2="23.6906" y2="41.4047">
			<stop  offset="0" style="stop-color:#FFFFFF;stop-opacity:0.6"/>
			<stop  offset="0.0949" style="stop-color:#D0E3F8;stop-opacity:0.543"/>
			<stop  offset="0.1932" style="stop-color:#A7CAF2;stop-opacity:0.4841"/>
			<stop  offset="0.2977" style="stop-color:#84B5ED;stop-opacity:0.4214"/>
			<stop  offset="0.4073" style="stop-color:#67A4E9;stop-opacity:0.3556"/>
			<stop  offset="0.5241" style="stop-color:#5197E6;stop-opacity:0.2856"/>
			<stop  offset="0.6512" style="stop-color:#418DE4;stop-opacity:0.2093"/>
			<stop  offset="0.7964" style="stop-color:#3888E2;stop-opacity:0.1221"/>
			<stop  offset="1" style="stop-color:#3586E2;stop-opacity:0"/>
		</linearGradient>
		<polygon style="fill:url(#SVGID_00000075882937748366099750000015005837548400582845_);" points="23.588,34.658 7.829,25.782 
			2.396,11.113 		"/>
		
			<linearGradient id="SVGID_00000177479036315597256170000008799993927677262726_" gradientUnits="userSpaceOnUse" x1="104.2261" y1="4.8444" x2="73.3463" y2="10.7878">
			<stop  offset="0" style="stop-color:#FFFFFF;stop-opacity:0.6"/>
			<stop  offset="0.0949" style="stop-color:#D0E3F8;stop-opacity:0.543"/>
			<stop  offset="0.1932" style="stop-color:#A7CAF2;stop-opacity:0.4841"/>
			<stop  offset="0.2977" style="stop-color:#84B5ED;stop-opacity:0.4214"/>
			<stop  offset="0.4073" style="stop-color:#67A4E9;stop-opacity:0.3556"/>
			<stop  offset="0.5241" style="stop-color:#5197E6;stop-opacity:0.2856"/>
			<stop  offset="0.6512" style="stop-color:#418DE4;stop-opacity:0.2093"/>
			<stop  offset="0.7964" style="stop-color:#3888E2;stop-opacity:0.1221"/>
			<stop  offset="1" style="stop-color:#3586E2;stop-opacity:0"/>
		</linearGradient>
		<polygon style="fill:url(#SVGID_00000177479036315597256170000008799993927677262726_);" points="82.633,0.969 104.368,6.403 
			101.628,13.376 76.406,12.079 		"/>
		
			<linearGradient id="SVGID_00000060714353416005263840000014631676580170341761_" gradientUnits="userSpaceOnUse" x1="16.1885" y1="43.648" x2="114.0546" y2="28.0736">
			<stop  offset="0" style="stop-color:#4EC7F4"/>
			<stop  offset="0.2711" style="stop-color:#46B2EE"/>
			<stop  offset="0.7398" style="stop-color:#3A92E5"/>
			<stop  offset="1" style="stop-color:#3586E2"/>
		</linearGradient>
		<polygon style="fill:url(#SVGID_00000060714353416005263840000014631676580170341761_);" points="109.258,36.65 96.761,38.359 
			73.395,41.552 33.73,46.974 23.588,34.658 73.395,28.617 96.761,25.782 		"/>
		
			<linearGradient id="SVGID_00000034809128275603978350000001460853144833745296_" gradientUnits="userSpaceOnUse" x1="22.5935" y1="34.5363" x2="106.148" y2="32.2212">
			<stop  offset="0" style="stop-color:#FFFFFF;stop-opacity:0.6"/>
			<stop  offset="0.0514" style="stop-color:#E9F2FC;stop-opacity:0.5692"/>
			<stop  offset="0.1747" style="stop-color:#BAD5F5;stop-opacity:0.4952"/>
			<stop  offset="0.302" style="stop-color:#91BDEF;stop-opacity:0.4188"/>
			<stop  offset="0.4314" style="stop-color:#70A9EA;stop-opacity:0.3412"/>
			<stop  offset="0.5635" style="stop-color:#569AE7;stop-opacity:0.2619"/>
			<stop  offset="0.6995" style="stop-color:#438FE4;stop-opacity:0.1803"/>
			<stop  offset="0.8416" style="stop-color:#3988E3;stop-opacity:0.0951"/>
			<stop  offset="1" style="stop-color:#3586E2;stop-opacity:0"/>
		</linearGradient>
		<polygon style="fill:url(#SVGID_00000034809128275603978350000001460853144833745296_);" points="28.861,41.062 23.588,34.658 
			73.395,28.617 96.761,25.782 106.967,34.658 		"/>
		
			<linearGradient id="SVGID_00000145042903094536643050000015879314339955575982_" gradientUnits="userSpaceOnUse" x1="-3.8255" y1="18.1258" x2="37.0234" y2="201.4537">
			<stop  offset="0" style="stop-color:#FFFFFF;stop-opacity:0.6"/>
			<stop  offset="0.0403" style="stop-color:#E4EFFB;stop-opacity:0.5758"/>
			<stop  offset="0.1095" style="stop-color:#BBD6F5;stop-opacity:0.5343"/>
			<stop  offset="0.1851" style="stop-color:#97C0F0;stop-opacity:0.489"/>
			<stop  offset="0.2663" style="stop-color:#78AEEC;stop-opacity:0.4402"/>
			<stop  offset="0.3551" style="stop-color:#609FE8;stop-opacity:0.3869"/>
			<stop  offset="0.4543" style="stop-color:#4C94E5;stop-opacity:0.3274"/>
			<stop  offset="0.5699" style="stop-color:#3F8CE3;stop-opacity:0.2581"/>
			<stop  offset="0.7167" style="stop-color:#3787E2;stop-opacity:0.17"/>
			<stop  offset="1" style="stop-color:#3586E2;stop-opacity:0"/>
		</linearGradient>
		<path style="fill:url(#SVGID_00000145042903094536643050000015879314339955575982_);" d="M7.829,25.783L7.829,25.783v89.294
			l15.758,11.954"/>
	</g>
	<g>
		<defs>
			<path id="SVGID_00000158709341657348402530000008073620025653406878_" d="M114.849,64.085c-14.342-14.342-37.594-14.342-51.936,0
				c-14.34,14.34-14.34,37.592,0,51.934c14.342,14.342,37.594,14.342,51.936,0C129.189,101.678,129.189,78.425,114.849,64.085z
				 M91.903,93.073c-1.667,1.665-4.376,1.665-6.044,0c-1.665-1.667-1.665-4.376,0-6.041c1.667-1.667,4.376-1.667,6.044,0
				C93.568,88.697,93.568,91.406,91.903,93.073z"/>
		</defs>
		<clipPath id="SVGID_00000090277699060891433620000007901437047538730911_">
			<use xlink:href="#SVGID_00000158709341657348402530000008073620025653406878_"  style="overflow:visible;"/>
		</clipPath>
		
			<linearGradient id="SVGID_00000138533323989776482690000002298398262620218772_" gradientUnits="userSpaceOnUse" x1="50.8373" y1="54.0233" x2="129.8283" y2="128.8309">
			<stop  offset="0" style="stop-color:#E6E6E6"/>
			<stop  offset="0.2074" style="stop-color:#E9E9E9"/>
			<stop  offset="0.3682" style="stop-color:#F3F3F3"/>
			<stop  offset="0.4814" style="stop-color:#FFFFFF"/>
			<stop  offset="0.6048" style="stop-color:#F2F2F2"/>
			<stop  offset="0.7639" style="stop-color:#E9E9E9"/>
			<stop  offset="1" style="stop-color:#E6E6E6"/>
		</linearGradient>
		
			<circle style="clip-path:url(#SVGID_00000090277699060891433620000007901437047538730911_);fill:url(#SVGID_00000138533323989776482690000002298398262620218772_);" cx="88.881" cy="90.052" r="36.724"/>
		
			<linearGradient id="SVGID_00000102503990976630149990000015935410611394189221_" gradientUnits="userSpaceOnUse" x1="-4496.0249" y1="8776.0635" x2="-4372.9858" y2="8776.0635" gradientTransform="matrix(-0.7071 0.7071 -0.7071 -0.7071 3158.1504 9431.335)">
			<stop  offset="0" style="stop-color:#E6E6E6;stop-opacity:0"/>
			<stop  offset="0.2028" style="stop-color:#E3EBE9;stop-opacity:0.4077"/>
			<stop  offset="0.4558" style="stop-color:#DCFBF0;stop-opacity:0.9161"/>
			<stop  offset="0.4975" style="stop-color:#DAFEF2"/>
			<stop  offset="0.5509" style="stop-color:#DCFAF0;stop-opacity:0.8938"/>
			<stop  offset="0.7963" style="stop-color:#E3EBE9;stop-opacity:0.4054"/>
			<stop  offset="1" style="stop-color:#E6E6E6;stop-opacity:0"/>
		</linearGradient>
		
			<polygon style="clip-path:url(#SVGID_00000090277699060891433620000007901437047538730911_);fill:url(#SVGID_00000102503990976630149990000015935410611394189221_);" points="
			30.385,119.233 86.246,88.092 117.386,32.231 146.025,60.87 90.48,91.696 59.024,147.872 		"/>
		<path style="clip-path:url(#SVGID_00000090277699060891433620000007901437047538730911_);fill:none;" d="M62.915,64.084
			c-14.342,14.342-14.342,37.594,0,51.937c14.341,14.341,37.593,14.341,51.935-0.002c14.341-14.341,14.341-37.593,0-51.933
			C100.507,49.744,77.255,49.744,62.915,64.084z M91.903,93.073c-1.665,1.665-4.375,1.665-6.041,0c-1.665-1.665-1.666-4.375,0-6.041
			c1.666-1.666,4.376-1.665,6.041,0C93.569,88.698,93.569,91.407,91.903,93.073z"/>
		
			<linearGradient id="SVGID_00000116210694273727052070000004273169031636614328_" gradientUnits="userSpaceOnUse" x1="-3627.4858" y1="1146.5078" x2="-3640.282" y2="1220.5773" gradientTransform="matrix(0.7071 0.7071 -0.7071 0.7071 3492.644 1824.1127)">
			<stop  offset="0" style="stop-color:#E6E6E6;stop-opacity:0"/>
			<stop  offset="0.1774" style="stop-color:#E1E6E7;stop-opacity:0.3565"/>
			<stop  offset="0.3811" style="stop-color:#D3E4EA;stop-opacity:0.7659"/>
			<stop  offset="0.4975" style="stop-color:#C8E3ED"/>
			<stop  offset="0.6362" style="stop-color:#D7E4EA;stop-opacity:0.724"/>
			<stop  offset="0.8145" style="stop-color:#E2E6E7;stop-opacity:0.3692"/>
			<stop  offset="1" style="stop-color:#E6E6E6;stop-opacity:0"/>
		</linearGradient>
		
			<polygon style="clip-path:url(#SVGID_00000090277699060891433620000007901437047538730911_);fill:url(#SVGID_00000116210694273727052070000004273169031636614328_);" points="
			117.386,147.872 86.246,92.011 30.385,60.87 59.024,32.231 89.85,87.777 146.025,119.233 		"/>
		<g style="clip-path:url(#SVGID_00000090277699060891433620000007901437047538730911_);">
			<path style="fill:#FFFFFF;" d="M85.861,87.032c-1.666,1.666-1.666,4.376,0,6.042c1.666,1.666,4.376,1.666,6.042,0
				c1.666-1.666,1.666-4.376,0-6.042S87.526,85.366,85.861,87.032z"/>
			
				<linearGradient id="SVGID_00000163772813663329814280000003610585102955569306_" gradientUnits="userSpaceOnUse" x1="94.3026" y1="84.3925" x2="83.46" y2="95.7125">
				<stop  offset="0" style="stop-color:#C8E3ED"/>
				<stop  offset="0.0886" style="stop-color:#D9ECF3"/>
				<stop  offset="0.2315" style="stop-color:#EEF6F9"/>
				<stop  offset="0.3713" style="stop-color:#FBFDFE"/>
				<stop  offset="0.5036" style="stop-color:#FFFFFF"/>
				<stop  offset="0.6626" style="stop-color:#FBFFFD"/>
				<stop  offset="0.836" style="stop-color:#EDFFF9"/>
				<stop  offset="1" style="stop-color:#DAFEF2"/>
			</linearGradient>
			<path style="fill:url(#SVGID_00000163772813663329814280000003610585102955569306_);" d="M83.339,84.511
				c-3.056,3.056-3.056,8.028,0,11.084s8.028,3.056,11.084,0c3.056-3.056,3.056-8.028,0-11.084S86.395,81.455,83.339,84.511z
				 M92.154,93.325c-1.805,1.805-4.741,1.805-6.546,0s-1.805-4.741,0-6.546c1.805-1.805,4.741-1.805,6.546,0
				C93.959,88.584,93.959,91.521,92.154,93.325z"/>
			
				<linearGradient id="SVGID_00000182495396432943681190000014313437752789095097_" gradientUnits="userSpaceOnUse" x1="79.2612" y1="90.0525" x2="98.5014" y2="90.0525">
				<stop  offset="0" style="stop-color:#4EC7F4"/>
				<stop  offset="0.1301" style="stop-color:#45B1E9"/>
				<stop  offset="0.3884" style="stop-color:#348CD7"/>
				<stop  offset="0.6278" style="stop-color:#2970CA"/>
				<stop  offset="0.8392" style="stop-color:#2260C2"/>
				<stop  offset="1" style="stop-color:#1F5ABF"/>
			</linearGradient>
			<path style="opacity:0.42;fill:url(#SVGID_00000182495396432943681190000014313437752789095097_);" d="M82.079,83.25
				c-3.757,3.757-3.757,9.848,0,13.605c3.757,3.757,9.848,3.757,13.605,0c3.757-3.757,3.757-9.848,0-13.605
				C91.927,79.493,85.836,79.493,82.079,83.25z M94.675,95.846c-3.195,3.195-8.393,3.195-11.588,0
				c-3.195-3.195-3.195-8.393,0-11.588c3.195-3.195,8.393-3.195,11.588,0C97.87,87.453,97.87,92.652,94.675,95.846z"/>
		</g>
		<path style="clip-path:url(#SVGID_00000090277699060891433620000007901437047538730911_);fill:none;" d="M114.849,64.084
			c-14.342-14.34-37.594-14.34-51.936,0c-14.34,14.342-14.34,37.594,0,51.936c14.342,14.34,37.594,14.34,51.936,0
			C129.189,101.679,129.189,78.426,114.849,64.084z M91.901,93.072c-1.665,1.667-4.374,1.667-6.041,0
			c-1.665-1.665-1.665-4.374,0-6.041c1.667-1.665,4.376-1.665,6.041,0C93.568,88.698,93.568,91.407,91.901,93.072z"/>
		
			<path style="clip-path:url(#SVGID_00000090277699060891433620000007901437047538730911_);fill:none;stroke:#80AECE;stroke-width:0.437;stroke-miterlimit:10;" d="
			M114.849,64.085c-14.342-14.342-37.594-14.342-51.936,0c-14.34,14.34-14.34,37.592,0,51.934c14.342,14.342,37.594,14.342,51.936,0
			C129.189,101.678,129.189,78.425,114.849,64.085z M91.903,93.073c-1.667,1.665-4.376,1.665-6.044,0
			c-1.665-1.667-1.665-4.376,0-6.041c1.667-1.667,4.376-1.667,6.044,0C93.568,88.697,93.568,91.406,91.903,93.073z"/>
	</g>
</g>
</svg>
