<?xml version="1.0" encoding="utf-8"?>
<!-- Generator: Adobe Illustrator 25.4.1, SVG Export Plug-In . SVG Version: 6.00 Build 0)  -->
<svg version="1.1" id="Layer_1" xmlns="http://www.w3.org/2000/svg" xmlns:xlink="http://www.w3.org/1999/xlink" x="0px" y="0px"
	 viewBox="0 0 55 55" style="enable-background:new 0 0 55 55;" xml:space="preserve">
<g>
	<linearGradient id="SVGID_1_" gradientUnits="userSpaceOnUse" x1="2.7844" y1="32.6873" x2="40.5704" y2="33.9364">
		<stop  offset="0" style="stop-color:#4EC7F4"/>
		<stop  offset="0.1301" style="stop-color:#45B1E9"/>
		<stop  offset="0.3884" style="stop-color:#348CD7"/>
		<stop  offset="0.6278" style="stop-color:#2970CA"/>
		<stop  offset="0.8392" style="stop-color:#2260C2"/>
		<stop  offset="1" style="stop-color:#1F5ABF"/>
	</linearGradient>
	<path style="fill:url(#SVGID_1_);" d="M2.647,11.033v38.386l6.774,5.139V14.848L2.647,11.033L2.647,11.033z"/>
	
		<linearGradient id="SVGID_00000163046948249531163010000010512481806274116031_" gradientUnits="userSpaceOnUse" x1="37.3466" y1="6.6884" x2="36.2682" y2="14.7278">
		<stop  offset="0" style="stop-color:#4EC7F4"/>
		<stop  offset="0.2711" style="stop-color:#46B2EE"/>
		<stop  offset="0.7398" style="stop-color:#3A92E5"/>
		<stop  offset="1" style="stop-color:#3586E2"/>
	</linearGradient>
	<polygon style="fill:url(#SVGID_00000163046948249531163010000010512481806274116031_);" points="40.878,11.032 40.878,28.162 
		30.833,28.162 30.833,7.451 	"/>
	<polygon style="fill:none;" points="40.877,11.033 9.421,14.848 9.421,54.557 40.877,47.16 	"/>
	<polygon style="fill:none;" points="40.877,11.033 9.421,14.848 9.421,54.557 40.877,47.16 	"/>
	
		<linearGradient id="SVGID_00000136395158242276129360000013383534248655413910_" gradientUnits="userSpaceOnUse" x1="0.629" y1="7.3976" x2="34.9291" y2="3.0206">
		<stop  offset="0" style="stop-color:#4EC7F4"/>
		<stop  offset="0.2711" style="stop-color:#46B2EE"/>
		<stop  offset="0.7398" style="stop-color:#3A92E5"/>
		<stop  offset="1" style="stop-color:#3586E2"/>
	</linearGradient>
	<polygon style="fill:url(#SVGID_00000136395158242276129360000013383534248655413910_);" points="30.833,7.451 7.977,10.516 
		4.127,11.032 2.493,5.531 1.791,3.168 29.665,0.365 	"/>
	<polygon style="fill:none;" points="40.877,11.033 9.421,14.848 9.421,54.557 40.877,47.16 	"/>
	
		<linearGradient id="SVGID_00000050661869418984740640000016451772338750926004_" gradientUnits="userSpaceOnUse" x1="20.2191" y1="17.2594" x2="19.5844" y2="10.8066">
		<stop  offset="0" style="stop-color:#4EC7F4"/>
		<stop  offset="0.2711" style="stop-color:#46B2EE"/>
		<stop  offset="0.7398" style="stop-color:#3A92E5"/>
		<stop  offset="1" style="stop-color:#3586E2"/>
	</linearGradient>
	<polygon style="fill:url(#SVGID_00000050661869418984740640000016451772338750926004_);" points="30.833,7.451 30.833,12.251 
		9.422,14.847 7.977,10.516 	"/>
	
		<linearGradient id="SVGID_00000033339338877571113160000017797494835402436497_" gradientUnits="userSpaceOnUse" x1="40.8531" y1="12.0295" x2="34.523" y2="-1.0585">
		<stop  offset="0" style="stop-color:#4EC7F4"/>
		<stop  offset="0.2711" style="stop-color:#46B2EE"/>
		<stop  offset="0.7398" style="stop-color:#3A92E5"/>
		<stop  offset="1" style="stop-color:#3586E2"/>
	</linearGradient>
	<polygon style="fill:url(#SVGID_00000033339338877571113160000017797494835402436497_);" points="34.804,0.365 44.147,2.701 
		40.874,11.033 30.833,7.451 	"/>
	
		<linearGradient id="SVGID_00000011009024603054745540000010666838532578364559_" gradientUnits="userSpaceOnUse" x1="-0.5806" y1="4.2074" x2="35.3649" y2="3.8585">
		<stop  offset="0" style="stop-color:#FFFFFF;stop-opacity:0.6"/>
		<stop  offset="0.0949" style="stop-color:#D0E3F8;stop-opacity:0.543"/>
		<stop  offset="0.1932" style="stop-color:#A7CAF2;stop-opacity:0.4841"/>
		<stop  offset="0.2977" style="stop-color:#84B5ED;stop-opacity:0.4214"/>
		<stop  offset="0.4073" style="stop-color:#67A4E9;stop-opacity:0.3556"/>
		<stop  offset="0.5241" style="stop-color:#5197E6;stop-opacity:0.2856"/>
		<stop  offset="0.6512" style="stop-color:#418DE4;stop-opacity:0.2093"/>
		<stop  offset="0.7964" style="stop-color:#3888E2;stop-opacity:0.1221"/>
		<stop  offset="1" style="stop-color:#3586E2;stop-opacity:0"/>
	</linearGradient>
	<polygon style="fill:url(#SVGID_00000011009024603054745540000010666838532578364559_);" points="2.962,7.11 2.493,5.531 
		1.791,3.168 29.665,0.365 30.833,7.451 	"/>
	<polyline style="fill:none;stroke:#6493D4;stroke-width:0.0479;stroke-miterlimit:10;" points="11.689,16.123 11.241,15.573 
		10.54,14.712 	"/>
	
		<linearGradient id="SVGID_00000118381667963552737550000010937815325708014224_" gradientUnits="userSpaceOnUse" x1="11.9348" y1="15" x2="-4.803" y2="1.223">
		<stop  offset="0" style="stop-color:#4EC7F4"/>
		<stop  offset="0.2711" style="stop-color:#46B2EE"/>
		<stop  offset="0.7398" style="stop-color:#3A92E5"/>
		<stop  offset="1" style="stop-color:#3586E2"/>
	</linearGradient>
	<polygon style="fill:url(#SVGID_00000118381667963552737550000010937815325708014224_);" points="9.422,14.847 2.647,11.032 
		0.312,4.726 2.493,5.531 6.852,7.139 7.977,10.516 	"/>
	<polygon style="fill:none;" points="40.877,11.033 9.421,14.848 9.421,54.557 40.877,47.16 	"/>
	
		<linearGradient id="SVGID_00000041986306308098378370000015528441377998775712_" gradientUnits="userSpaceOnUse" x1="16.5086" y1="17.5375" x2="33.8402" y2="48.1411">
		<stop  offset="0" style="stop-color:#4EC7F4"/>
		<stop  offset="0.1301" style="stop-color:#45B1E9"/>
		<stop  offset="0.3884" style="stop-color:#348CD7"/>
		<stop  offset="0.6278" style="stop-color:#2970CA"/>
		<stop  offset="0.8392" style="stop-color:#2260C2"/>
		<stop  offset="1" style="stop-color:#1F5ABF"/>
	</linearGradient>
	<polygon style="fill:url(#SVGID_00000041986306308098378370000015528441377998775712_);" points="40.877,11.033 9.421,14.848 
		9.421,54.557 40.877,47.16 	"/>
	<polygon style="fill:none;" points="40.877,11.033 9.421,14.848 9.421,54.557 40.877,47.16 	"/>
	
		<linearGradient id="SVGID_00000090285389024299807280000006857450046765449905_" gradientUnits="userSpaceOnUse" x1="36.6961" y1="7.664" x2="-1.915" y2="44.2652">
		<stop  offset="0" style="stop-color:#FFFFFF;stop-opacity:0.6"/>
		<stop  offset="0.0465" style="stop-color:#DCEAFA;stop-opacity:0.5721"/>
		<stop  offset="0.1086" style="stop-color:#B5D3F4;stop-opacity:0.5348"/>
		<stop  offset="0.1772" style="stop-color:#93BEEF;stop-opacity:0.4937"/>
		<stop  offset="0.2518" style="stop-color:#75ADEB;stop-opacity:0.4489"/>
		<stop  offset="0.334" style="stop-color:#5E9EE8;stop-opacity:0.3996"/>
		<stop  offset="0.4274" style="stop-color:#4B93E5;stop-opacity:0.3436"/>
		<stop  offset="0.5384" style="stop-color:#3F8CE3;stop-opacity:0.277"/>
		<stop  offset="0.6843" style="stop-color:#3787E2;stop-opacity:0.1894"/>
		<stop  offset="1" style="stop-color:#3586E2;stop-opacity:0"/>
	</linearGradient>
	<path style="fill:url(#SVGID_00000090285389024299807280000006857450046765449905_);" d="M40.877,11.033L9.421,14.848v27.311
		l15.806-7.034C34.745,30.89,40.877,21.45,40.877,11.033L40.877,11.033z"/>
	
		<linearGradient id="SVGID_00000029005827190335281810000008668229492554468753_" gradientUnits="userSpaceOnUse" x1="0.4865" y1="5.1659" x2="9.4659" y2="17.7478">
		<stop  offset="0" style="stop-color:#FFFFFF;stop-opacity:0.6"/>
		<stop  offset="0.0949" style="stop-color:#D0E3F8;stop-opacity:0.543"/>
		<stop  offset="0.1932" style="stop-color:#A7CAF2;stop-opacity:0.4841"/>
		<stop  offset="0.2977" style="stop-color:#84B5ED;stop-opacity:0.4214"/>
		<stop  offset="0.4073" style="stop-color:#67A4E9;stop-opacity:0.3556"/>
		<stop  offset="0.5241" style="stop-color:#5197E6;stop-opacity:0.2856"/>
		<stop  offset="0.6512" style="stop-color:#418DE4;stop-opacity:0.2093"/>
		<stop  offset="0.7964" style="stop-color:#3888E2;stop-opacity:0.1221"/>
		<stop  offset="1" style="stop-color:#3586E2;stop-opacity:0"/>
	</linearGradient>
	<polygon style="fill:url(#SVGID_00000029005827190335281810000008668229492554468753_);" points="9.422,14.847 2.647,11.032 
		0.312,4.726 	"/>
	
		<linearGradient id="SVGID_00000023964275436906305640000009564037672034577038_" gradientUnits="userSpaceOnUse" x1="44.0865" y1="2.0313" x2="30.8119" y2="4.5862">
		<stop  offset="0" style="stop-color:#FFFFFF;stop-opacity:0.6"/>
		<stop  offset="0.0949" style="stop-color:#D0E3F8;stop-opacity:0.543"/>
		<stop  offset="0.1932" style="stop-color:#A7CAF2;stop-opacity:0.4841"/>
		<stop  offset="0.2977" style="stop-color:#84B5ED;stop-opacity:0.4214"/>
		<stop  offset="0.4073" style="stop-color:#67A4E9;stop-opacity:0.3556"/>
		<stop  offset="0.5241" style="stop-color:#5197E6;stop-opacity:0.2856"/>
		<stop  offset="0.6512" style="stop-color:#418DE4;stop-opacity:0.2093"/>
		<stop  offset="0.7964" style="stop-color:#3888E2;stop-opacity:0.1221"/>
		<stop  offset="1" style="stop-color:#3586E2;stop-opacity:0"/>
	</linearGradient>
	<polygon style="fill:url(#SVGID_00000023964275436906305640000009564037672034577038_);" points="34.804,0.365 44.147,2.701 
		42.97,5.699 32.127,5.142 	"/>
	
		<linearGradient id="SVGID_00000091723913103626600910000000374513374272138130_" gradientUnits="userSpaceOnUse" x1="6.2409" y1="18.7122" x2="48.3116" y2="12.017">
		<stop  offset="0" style="stop-color:#4EC7F4"/>
		<stop  offset="0.2711" style="stop-color:#46B2EE"/>
		<stop  offset="0.7398" style="stop-color:#3A92E5"/>
		<stop  offset="1" style="stop-color:#3586E2"/>
	</linearGradient>
	<polygon style="fill:url(#SVGID_00000091723913103626600910000000374513374272138130_);" points="46.25,15.704 40.878,16.438 
		30.833,17.811 13.782,20.142 9.422,14.847 30.833,12.251 40.878,11.032 	"/>
	
		<linearGradient id="SVGID_00000069387160314916313780000014131965538382329478_" gradientUnits="userSpaceOnUse" x1="8.9943" y1="14.7953" x2="44.9127" y2="13.8">
		<stop  offset="0" style="stop-color:#FFFFFF;stop-opacity:0.6"/>
		<stop  offset="0.0514" style="stop-color:#E9F2FC;stop-opacity:0.5692"/>
		<stop  offset="0.1747" style="stop-color:#BAD5F5;stop-opacity:0.4952"/>
		<stop  offset="0.302" style="stop-color:#91BDEF;stop-opacity:0.4188"/>
		<stop  offset="0.4314" style="stop-color:#70A9EA;stop-opacity:0.3412"/>
		<stop  offset="0.5635" style="stop-color:#569AE7;stop-opacity:0.2619"/>
		<stop  offset="0.6995" style="stop-color:#438FE4;stop-opacity:0.1803"/>
		<stop  offset="0.8416" style="stop-color:#3988E3;stop-opacity:0.0951"/>
		<stop  offset="1" style="stop-color:#3586E2;stop-opacity:0"/>
	</linearGradient>
	<polygon style="fill:url(#SVGID_00000069387160314916313780000014131965538382329478_);" points="11.689,17.6 9.422,14.847 
		30.833,12.251 40.878,11.032 45.265,14.847 	"/>
	
		<linearGradient id="SVGID_00000172429075982435283770000017610366265624146320_" gradientUnits="userSpaceOnUse" x1="-2.3627" y1="7.7407" x2="15.1974" y2="86.5497">
		<stop  offset="0" style="stop-color:#FFFFFF;stop-opacity:0.6"/>
		<stop  offset="0.0403" style="stop-color:#E4EFFB;stop-opacity:0.5758"/>
		<stop  offset="0.1095" style="stop-color:#BBD6F5;stop-opacity:0.5343"/>
		<stop  offset="0.1851" style="stop-color:#97C0F0;stop-opacity:0.489"/>
		<stop  offset="0.2663" style="stop-color:#78AEEC;stop-opacity:0.4402"/>
		<stop  offset="0.3551" style="stop-color:#609FE8;stop-opacity:0.3869"/>
		<stop  offset="0.4543" style="stop-color:#4C94E5;stop-opacity:0.3274"/>
		<stop  offset="0.5699" style="stop-color:#3F8CE3;stop-opacity:0.2581"/>
		<stop  offset="0.7167" style="stop-color:#3787E2;stop-opacity:0.17"/>
		<stop  offset="1" style="stop-color:#3586E2;stop-opacity:0"/>
	</linearGradient>
	<path style="fill:url(#SVGID_00000172429075982435283770000017610366265624146320_);" d="M2.647,11.033L2.647,11.033v38.386
		l6.774,5.139"/>
	<g>
		<defs>
			<path id="SVGID_00000101805317722953925440000006296492773463490707_" d="M48.653,27.498c-6.165-6.165-16.161-6.165-22.326,0
				c-6.164,6.164-6.164,16.16,0,22.325c6.165,6.165,16.161,6.165,22.326,0C54.818,43.658,54.818,33.662,48.653,27.498z
				 M38.789,39.959c-0.717,0.716-1.881,0.716-2.598,0c-0.716-0.717-0.716-1.881,0-2.597c0.717-0.717,1.881-0.717,2.598,0
				C39.505,38.078,39.505,39.242,38.789,39.959z"/>
		</defs>
		<clipPath id="SVGID_00000055671420973825968000000006370818651713341591_">
			<use xlink:href="#SVGID_00000101805317722953925440000006296492773463490707_"  style="overflow:visible;"/>
		</clipPath>
		
			<linearGradient id="SVGID_00000163764663347006962990000009694204041112879783_" gradientUnits="userSpaceOnUse" x1="21.1357" y1="23.1723" x2="55.0924" y2="55.3306">
			<stop  offset="0" style="stop-color:#E6E6E6"/>
			<stop  offset="0.2074" style="stop-color:#E9E9E9"/>
			<stop  offset="0.3682" style="stop-color:#F3F3F3"/>
			<stop  offset="0.4814" style="stop-color:#FFFFFF"/>
			<stop  offset="0.6048" style="stop-color:#F2F2F2"/>
			<stop  offset="0.7639" style="stop-color:#E9E9E9"/>
			<stop  offset="1" style="stop-color:#E6E6E6"/>
		</linearGradient>
		
			<circle style="clip-path:url(#SVGID_00000055671420973825968000000006370818651713341591_);fill:url(#SVGID_00000163764663347006962990000009694204041112879783_);" cx="37.49" cy="38.661" r="15.787"/>
		
			<linearGradient id="SVGID_00000089534585091965993080000016285637602409110698_" gradientUnits="userSpaceOnUse" x1="-4498.2241" y1="8759.1436" x2="-4445.332" y2="8759.1436" gradientTransform="matrix(-0.7071 0.7071 -0.7071 -0.7071 3068.8245 9394.335)">
			<stop  offset="0" style="stop-color:#E6E6E6;stop-opacity:0"/>
			<stop  offset="0.2028" style="stop-color:#E3EBE9;stop-opacity:0.4077"/>
			<stop  offset="0.4558" style="stop-color:#DCFBF0;stop-opacity:0.9161"/>
			<stop  offset="0.4975" style="stop-color:#DAFEF2"/>
			<stop  offset="0.5509" style="stop-color:#DCFAF0;stop-opacity:0.8938"/>
			<stop  offset="0.7963" style="stop-color:#E3EBE9;stop-opacity:0.4054"/>
			<stop  offset="1" style="stop-color:#E6E6E6;stop-opacity:0"/>
		</linearGradient>
		
			<polygon style="clip-path:url(#SVGID_00000055671420973825968000000006370818651713341591_);fill:url(#SVGID_00000089534585091965993080000016285637602409110698_);" points="
			12.344,51.205 36.357,37.818 49.744,13.804 62.055,26.116 38.177,39.367 24.655,63.516 		"/>
		<path style="clip-path:url(#SVGID_00000055671420973825968000000006370818651713341591_);fill:none;" d="M26.328,27.497
			c-6.165,6.165-6.165,16.161,0,22.326c6.165,6.165,16.16,6.165,22.326-0.001c6.165-6.165,6.165-16.16,0-22.325
			C42.488,21.333,32.492,21.333,26.328,27.497z M38.789,39.959c-0.716,0.716-1.881,0.716-2.597,0c-0.716-0.716-0.716-1.881,0-2.597
			c0.716-0.716,1.881-0.716,2.597,0C39.505,38.078,39.505,39.243,38.789,39.959z"/>
		
			<linearGradient id="SVGID_00000016060212247016733140000001230415772846226103_" gradientUnits="userSpaceOnUse" x1="-3687.9763" y1="1128.9769" x2="-3693.4771" y2="1160.8179" gradientTransform="matrix(0.7071 0.7071 -0.7071 0.7071 3455.644 1839.4386)">
			<stop  offset="0" style="stop-color:#E6E6E6;stop-opacity:0"/>
			<stop  offset="0.1774" style="stop-color:#E1E6E7;stop-opacity:0.3565"/>
			<stop  offset="0.3811" style="stop-color:#D3E4EA;stop-opacity:0.7659"/>
			<stop  offset="0.4975" style="stop-color:#C8E3ED"/>
			<stop  offset="0.6362" style="stop-color:#D7E4EA;stop-opacity:0.724"/>
			<stop  offset="0.8145" style="stop-color:#E2E6E7;stop-opacity:0.3692"/>
			<stop  offset="1" style="stop-color:#E6E6E6;stop-opacity:0"/>
		</linearGradient>
		
			<polygon style="clip-path:url(#SVGID_00000055671420973825968000000006370818651713341591_);fill:url(#SVGID_00000016060212247016733140000001230415772846226103_);" points="
			49.744,63.516 36.357,39.503 12.344,26.116 24.655,13.804 37.906,37.682 62.055,51.205 		"/>
		<g style="clip-path:url(#SVGID_00000055671420973825968000000006370818651713341591_);">
			<path style="fill:#FFFFFF;" d="M36.192,37.362c-0.716,0.716-0.716,1.881,0,2.597c0.716,0.716,1.881,0.716,2.597,0
				c0.716-0.716,0.716-1.881,0-2.597C38.073,36.646,36.908,36.646,36.192,37.362z"/>
			
				<linearGradient id="SVGID_00000039847726982976179620000010346424579001908906_" gradientUnits="userSpaceOnUse" x1="39.8206" y1="36.2274" x2="35.1596" y2="41.0937">
				<stop  offset="0" style="stop-color:#C8E3ED"/>
				<stop  offset="0.0886" style="stop-color:#D9ECF3"/>
				<stop  offset="0.2315" style="stop-color:#EEF6F9"/>
				<stop  offset="0.3713" style="stop-color:#FBFDFE"/>
				<stop  offset="0.5036" style="stop-color:#FFFFFF"/>
				<stop  offset="0.6626" style="stop-color:#FBFFFD"/>
				<stop  offset="0.836" style="stop-color:#EDFFF9"/>
				<stop  offset="1" style="stop-color:#DAFEF2"/>
			</linearGradient>
			<path style="fill:url(#SVGID_00000039847726982976179620000010346424579001908906_);" d="M35.108,36.278
				c-1.314,1.314-1.314,3.451,0,4.765c1.314,1.314,3.451,1.314,4.765,0c1.314-1.314,1.314-3.451,0-4.765
				C38.559,34.965,36.421,34.965,35.108,36.278z M38.897,40.067c-0.776,0.776-2.038,0.776-2.814,0c-0.776-0.776-0.776-2.038,0-2.814
				c0.776-0.776,2.038-0.776,2.814,0C39.673,38.029,39.673,39.292,38.897,40.067z"/>
			
				<linearGradient id="SVGID_00000127018016323084685970000013892127060642324649_" gradientUnits="userSpaceOnUse" x1="33.3546" y1="38.6605" x2="41.6256" y2="38.6605">
				<stop  offset="0" style="stop-color:#4EC7F4"/>
				<stop  offset="0.1301" style="stop-color:#45B1E9"/>
				<stop  offset="0.3884" style="stop-color:#348CD7"/>
				<stop  offset="0.6278" style="stop-color:#2970CA"/>
				<stop  offset="0.8392" style="stop-color:#2260C2"/>
				<stop  offset="1" style="stop-color:#1F5ABF"/>
			</linearGradient>
			<path style="opacity:0.42;fill:url(#SVGID_00000127018016323084685970000013892127060642324649_);" d="M34.566,35.736
				c-1.615,1.615-1.615,4.233,0,5.848c1.615,1.615,4.233,1.615,5.848,0c1.615-1.615,1.615-4.233,0-5.848
				S36.181,34.121,34.566,35.736z M39.981,41.151c-1.373,1.373-3.608,1.373-4.981,0c-1.373-1.373-1.373-3.608,0-4.981
				c1.373-1.373,3.608-1.373,4.981,0C41.354,37.543,41.354,39.778,39.981,41.151z"/>
		</g>
		<path style="clip-path:url(#SVGID_00000055671420973825968000000006370818651713341591_);fill:none;" d="M48.653,27.497
			c-6.165-6.164-16.161-6.164-22.326,0c-6.164,6.165-6.164,16.161,0,22.326c6.165,6.164,16.161,6.164,22.326,0
			C54.818,43.658,54.818,33.663,48.653,27.497z M38.788,39.959c-0.716,0.717-1.88,0.717-2.597,0c-0.716-0.716-0.716-1.88,0-2.597
			c0.717-0.716,1.881-0.716,2.597,0C39.505,38.078,39.505,39.243,38.788,39.959z"/>
		
			<path style="clip-path:url(#SVGID_00000055671420973825968000000006370818651713341591_);fill:none;stroke:#80AECE;stroke-width:0.1879;stroke-miterlimit:10;" d="
			M48.653,27.498c-6.165-6.165-16.161-6.165-22.326,0c-6.164,6.164-6.164,16.16,0,22.325c6.165,6.165,16.161,6.165,22.326,0
			C54.818,43.658,54.818,33.662,48.653,27.498z M38.789,39.959c-0.717,0.716-1.881,0.716-2.598,0c-0.716-0.717-0.716-1.881,0-2.597
			c0.717-0.717,1.881-0.717,2.598,0C39.505,38.078,39.505,39.242,38.789,39.959z"/>
	</g>
	<g>
		<g>
			<g>
				<g>
					<rect x="41.778" y="44.198" style="fill:#FFFFFF;" width="9.968" height="9.968"/>
					
						<linearGradient id="SVGID_00000101090778628501568090000011481126731238920352_" gradientUnits="userSpaceOnUse" x1="41.3797" y1="43.7989" x2="60.8942" y2="63.3134">
						<stop  offset="0" style="stop-color:#4EC7F4"/>
						<stop  offset="0.1301" style="stop-color:#45B1E9"/>
						<stop  offset="0.3884" style="stop-color:#348CD7"/>
						<stop  offset="0.6278" style="stop-color:#2970CA"/>
						<stop  offset="0.8392" style="stop-color:#2260C2"/>
						<stop  offset="1" style="stop-color:#1F5ABF"/>
					</linearGradient>
					<path style="fill:url(#SVGID_00000101090778628501568090000011481126731238920352_);" d="M51.276,44.667v9.028h-9.028v-9.028
						H51.276 M52.216,43.728h-0.939h-9.028h-0.939v0.939v9.028v0.939h0.939h9.028h0.939v-0.939v-9.028V43.728L52.216,43.728z"/>
				</g>
			</g>
			<g>
				<path style="fill:#F50004;" d="M48.552,51.352c-0.283-0.37-0.613-0.697-0.981-0.972c-0.494-0.37-1.048-0.645-1.648-0.816
					L45.2,49.358l0.503-0.559c0.12-0.134,0.24-0.269,0.36-0.405c0.222-0.252,0.446-0.511,0.685-0.794l0.244-0.288l0.334,0.176
					c0.453,0.24,0.867,0.542,1.229,0.899c0.072,0.071,0.141,0.144,0.209,0.218c0.387-0.691,0.966-1.671,1.566-2.482
					c0.322-0.434,0.7-0.897,1.285-1.34c0.222-0.169,0.415-0.289,0.542-0.365l0.354-0.213l0.256,0.324
					c0.211,0.267,0.451,0.513,0.714,0.73c0.163,0.135,0.336,0.261,0.514,0.373l0.694,0.438l-0.729,0.377
					c-0.401,0.207-0.787,0.452-1.149,0.729c-0.509,0.39-0.865,0.762-1.275,1.235c-0.748,0.863-1.496,1.845-2.221,2.919l-0.366,0.541
					L48.552,51.352z"/>
				
					<linearGradient id="SVGID_00000056389045030320459620000009126185590736149690_" gradientUnits="userSpaceOnUse" x1="52.8647" y1="44.4868" x2="48.1494" y2="49.3472">
					<stop  offset="0" style="stop-color:#F46362"/>
					<stop  offset="0.2846" style="stop-color:#F4605F;stop-opacity:0.7154"/>
					<stop  offset="0.472" style="stop-color:#F45757;stop-opacity:0.528"/>
					<stop  offset="0.6314" style="stop-color:#F44949;stop-opacity:0.3686"/>
					<stop  offset="0.775" style="stop-color:#F43335;stop-opacity:0.225"/>
					<stop  offset="0.9068" style="stop-color:#F5181B;stop-opacity:0.0932"/>
					<stop  offset="1" style="stop-color:#F50004;stop-opacity:0"/>
				</linearGradient>
				<path style="fill:url(#SVGID_00000056389045030320459620000009126185590736149690_);" d="M53.744,46.03
					c-0.316,0.163-0.747,0.412-1.219,0.773c-0.569,0.436-0.96,0.856-1.345,1.3c-0.869,1.002-1.633,2.043-2.255,2.964
					c-0.237-0.31-0.585-0.698-1.073-1.063c-0.684-0.513-1.352-0.763-1.8-0.891c0.121-0.135,0.242-0.271,0.363-0.409
					c0.236-0.268,0.466-0.535,0.691-0.8c0.313,0.166,0.718,0.423,1.118,0.818c0.261,0.258,0.46,0.514,0.609,0.736
					c0.141-0.265,0.988-1.858,1.873-3.055c0.342-0.461,0.69-0.866,1.191-1.245c0.2-0.152,0.377-0.263,0.5-0.337
					c0.195,0.246,0.452,0.526,0.782,0.8C53.376,45.784,53.567,45.918,53.744,46.03z"/>
			</g>
		</g>
		<g>
			<g>
				<g>
					<rect x="41.778" y="27.438" style="fill:#FFFFFF;" width="9.968" height="9.968"/>
					
						<linearGradient id="SVGID_00000173122353803613929750000007859522051633790868_" gradientUnits="userSpaceOnUse" x1="41.3797" y1="27.0398" x2="60.8942" y2="46.5544">
						<stop  offset="0" style="stop-color:#4EC7F4"/>
						<stop  offset="0.1301" style="stop-color:#45B1E9"/>
						<stop  offset="0.3884" style="stop-color:#348CD7"/>
						<stop  offset="0.6278" style="stop-color:#2970CA"/>
						<stop  offset="0.8392" style="stop-color:#2260C2"/>
						<stop  offset="1" style="stop-color:#1F5ABF"/>
					</linearGradient>
					<path style="fill:url(#SVGID_00000173122353803613929750000007859522051633790868_);" d="M51.276,27.908v9.028h-9.028v-9.028
						H51.276 M52.216,26.969h-0.939h-9.028h-0.939v0.939v9.028v0.939h0.939h9.028h0.939v-0.939v-9.028V26.969L52.216,26.969z"/>
				</g>
			</g>
			<g>
				<path style="fill:#F50004;" d="M48.552,34.593c-0.283-0.37-0.613-0.697-0.981-0.972c-0.494-0.37-1.048-0.645-1.648-0.816
					L45.2,32.599l0.503-0.559c0.12-0.134,0.24-0.269,0.36-0.405c0.222-0.252,0.446-0.511,0.685-0.794l0.244-0.288l0.334,0.176
					c0.453,0.24,0.867,0.542,1.229,0.899c0.072,0.071,0.141,0.144,0.209,0.218c0.387-0.691,0.966-1.671,1.566-2.482
					c0.322-0.434,0.7-0.897,1.285-1.34c0.222-0.169,0.415-0.289,0.542-0.365l0.354-0.213l0.256,0.324
					c0.211,0.267,0.451,0.513,0.714,0.73c0.163,0.135,0.336,0.261,0.514,0.373l0.694,0.438l-0.729,0.377
					c-0.401,0.207-0.787,0.452-1.149,0.729c-0.509,0.39-0.865,0.762-1.275,1.235c-0.748,0.863-1.496,1.845-2.221,2.919l-0.366,0.541
					L48.552,34.593z"/>
				
					<linearGradient id="SVGID_00000006667484758732707550000011436496671972438440_" gradientUnits="userSpaceOnUse" x1="52.8647" y1="27.7278" x2="48.1494" y2="32.5881">
					<stop  offset="0" style="stop-color:#F46362"/>
					<stop  offset="0.2846" style="stop-color:#F4605F;stop-opacity:0.7154"/>
					<stop  offset="0.472" style="stop-color:#F45757;stop-opacity:0.528"/>
					<stop  offset="0.6314" style="stop-color:#F44949;stop-opacity:0.3686"/>
					<stop  offset="0.775" style="stop-color:#F43335;stop-opacity:0.225"/>
					<stop  offset="0.9068" style="stop-color:#F5181B;stop-opacity:0.0932"/>
					<stop  offset="1" style="stop-color:#F50004;stop-opacity:0"/>
				</linearGradient>
				<path style="fill:url(#SVGID_00000006667484758732707550000011436496671972438440_);" d="M53.744,29.271
					c-0.316,0.163-0.747,0.412-1.219,0.773c-0.569,0.436-0.96,0.856-1.345,1.3c-0.869,1.002-1.633,2.043-2.255,2.964
					c-0.237-0.31-0.585-0.698-1.073-1.063c-0.684-0.513-1.352-0.763-1.8-0.891c0.121-0.135,0.242-0.271,0.363-0.409
					c0.236-0.268,0.466-0.535,0.691-0.8c0.313,0.166,0.718,0.423,1.118,0.818c0.261,0.258,0.46,0.514,0.609,0.736
					c0.141-0.265,0.988-1.858,1.873-3.055c0.342-0.461,0.69-0.866,1.191-1.245c0.2-0.152,0.377-0.263,0.5-0.337
					c0.195,0.246,0.452,0.526,0.782,0.8C53.376,29.025,53.567,29.159,53.744,29.271z"/>
			</g>
		</g>
		<g>
			<g>
				<g>
					<rect x="41.778" y="10.679" style="fill:#FFFFFF;" width="9.968" height="9.968"/>
					
						<linearGradient id="SVGID_00000132082609651116490180000016354827580731468940_" gradientUnits="userSpaceOnUse" x1="41.3797" y1="10.2808" x2="60.8942" y2="29.7954">
						<stop  offset="0" style="stop-color:#4EC7F4"/>
						<stop  offset="0.1301" style="stop-color:#45B1E9"/>
						<stop  offset="0.3884" style="stop-color:#348CD7"/>
						<stop  offset="0.6278" style="stop-color:#2970CA"/>
						<stop  offset="0.8392" style="stop-color:#2260C2"/>
						<stop  offset="1" style="stop-color:#1F5ABF"/>
					</linearGradient>
					<path style="fill:url(#SVGID_00000132082609651116490180000016354827580731468940_);" d="M51.276,11.149v9.028h-9.028v-9.028
						H51.276 M52.216,10.21h-0.939h-9.028h-0.939v0.939v9.028v0.939h0.939h9.028h0.939v-0.939v-9.028V10.21L52.216,10.21z"/>
				</g>
			</g>
			<g>
				<path style="fill:#F50004;" d="M48.552,17.834c-0.283-0.37-0.613-0.697-0.981-0.972c-0.494-0.37-1.048-0.645-1.648-0.816
					L45.2,15.84l0.503-0.559c0.12-0.134,0.24-0.269,0.36-0.405c0.222-0.252,0.446-0.511,0.685-0.794l0.244-0.288l0.334,0.176
					c0.453,0.24,0.867,0.542,1.229,0.899c0.072,0.071,0.141,0.144,0.209,0.218c0.387-0.691,0.966-1.671,1.566-2.482
					c0.322-0.434,0.7-0.897,1.285-1.34c0.222-0.169,0.415-0.289,0.542-0.365l0.354-0.213l0.256,0.324
					c0.211,0.267,0.451,0.513,0.714,0.73c0.163,0.135,0.336,0.261,0.514,0.373l0.694,0.438l-0.729,0.377
					c-0.401,0.207-0.787,0.452-1.149,0.729c-0.509,0.39-0.865,0.762-1.275,1.235c-0.748,0.863-1.496,1.845-2.221,2.919l-0.366,0.541
					L48.552,17.834z"/>
				
					<linearGradient id="SVGID_00000118387129365511441560000011202112030249166491_" gradientUnits="userSpaceOnUse" x1="52.8647" y1="10.9688" x2="48.1494" y2="15.8291">
					<stop  offset="0" style="stop-color:#F46362"/>
					<stop  offset="0.2846" style="stop-color:#F4605F;stop-opacity:0.7154"/>
					<stop  offset="0.472" style="stop-color:#F45757;stop-opacity:0.528"/>
					<stop  offset="0.6314" style="stop-color:#F44949;stop-opacity:0.3686"/>
					<stop  offset="0.775" style="stop-color:#F43335;stop-opacity:0.225"/>
					<stop  offset="0.9068" style="stop-color:#F5181B;stop-opacity:0.0932"/>
					<stop  offset="1" style="stop-color:#F50004;stop-opacity:0"/>
				</linearGradient>
				<path style="fill:url(#SVGID_00000118387129365511441560000011202112030249166491_);" d="M53.744,12.512
					c-0.316,0.163-0.747,0.412-1.219,0.773c-0.569,0.436-0.96,0.856-1.345,1.3c-0.869,1.002-1.633,2.043-2.255,2.964
					c-0.237-0.31-0.585-0.698-1.073-1.063c-0.684-0.513-1.352-0.763-1.8-0.891c0.121-0.135,0.242-0.271,0.363-0.409
					c0.236-0.268,0.466-0.535,0.691-0.8c0.313,0.166,0.718,0.423,1.118,0.818c0.261,0.258,0.46,0.514,0.609,0.736
					c0.141-0.265,0.988-1.858,1.873-3.055c0.342-0.461,0.69-0.866,1.191-1.245c0.2-0.152,0.377-0.263,0.5-0.337
					c0.195,0.246,0.452,0.526,0.782,0.8C53.376,12.265,53.567,12.4,53.744,12.512z"/>
			</g>
		</g>
	</g>
</g>
</svg>
