<?xml version="1.0" encoding="utf-8"?>
<!-- Generator: Adobe Illustrator 25.4.1, SVG Export Plug-In . SVG Version: 6.00 Build 0)  -->
<svg version="1.1" id="Layer_1" xmlns="http://www.w3.org/2000/svg" xmlns:xlink="http://www.w3.org/1999/xlink" x="0px" y="0px"
	 viewBox="0 0 55 55" style="enable-background:new 0 0 55 55;" xml:space="preserve">
<g>
	<g>
		<linearGradient id="SVGID_1_" gradientUnits="userSpaceOnUse" x1="2.4959" y1="32.6243" x2="40.6352" y2="33.8851">
			<stop  offset="0" style="stop-color:#4EC7F4"/>
			<stop  offset="0.1301" style="stop-color:#45B1E9"/>
			<stop  offset="0.3884" style="stop-color:#348CD7"/>
			<stop  offset="0.6278" style="stop-color:#2970CA"/>
			<stop  offset="0.8392" style="stop-color:#2260C2"/>
			<stop  offset="1" style="stop-color:#1F5ABF"/>
		</linearGradient>
		<path style="fill:url(#SVGID_1_);" d="M2.357,10.767v38.744l6.837,5.187V14.618L2.357,10.767L2.357,10.767z"/>
		
			<linearGradient id="SVGID_00000020358973758640960860000014101212645922584498_" gradientUnits="userSpaceOnUse" x1="37.3813" y1="6.3823" x2="36.2927" y2="14.4969">
			<stop  offset="0" style="stop-color:#4EC7F4"/>
			<stop  offset="0.2711" style="stop-color:#46B2EE"/>
			<stop  offset="0.7398" style="stop-color:#3A92E5"/>
			<stop  offset="1" style="stop-color:#3586E2"/>
		</linearGradient>
		<polygon style="fill:url(#SVGID_00000020358973758640960860000014101212645922584498_);" points="40.945,10.767 40.945,28.056 
			30.807,28.056 30.807,7.152 		"/>
		<polygon style="fill:none;" points="40.945,10.767 9.195,14.618 9.195,54.698 40.945,47.232 		"/>
		<polygon style="fill:none;" points="40.945,10.767 9.195,14.618 9.195,54.698 40.945,47.232 		"/>
		
			<linearGradient id="SVGID_00000037664939337201921160000002094602249846762678_" gradientUnits="userSpaceOnUse" x1="0.3203" y1="7.0981" x2="34.9412" y2="2.6801">
			<stop  offset="0" style="stop-color:#4EC7F4"/>
			<stop  offset="0.2711" style="stop-color:#46B2EE"/>
			<stop  offset="0.7398" style="stop-color:#3A92E5"/>
			<stop  offset="1" style="stop-color:#3586E2"/>
		</linearGradient>
		<polygon style="fill:url(#SVGID_00000037664939337201921160000002094602249846762678_);" points="30.807,7.152 7.737,10.246 
			3.851,10.767 2.201,5.214 1.493,2.829 29.628,0 		"/>
		<polygon style="fill:none;" points="40.945,10.767 9.195,14.618 9.195,54.698 40.945,47.232 		"/>
		
			<linearGradient id="SVGID_00000183960959340772483170000015969669383809308571_" gradientUnits="userSpaceOnUse" x1="20.0935" y1="17.0521" x2="19.4529" y2="10.5389">
			<stop  offset="0" style="stop-color:#4EC7F4"/>
			<stop  offset="0.2711" style="stop-color:#46B2EE"/>
			<stop  offset="0.7398" style="stop-color:#3A92E5"/>
			<stop  offset="1" style="stop-color:#3586E2"/>
		</linearGradient>
		<polygon style="fill:url(#SVGID_00000183960959340772483170000015969669383809308571_);" points="30.807,7.152 30.807,11.997 
			9.195,14.618 7.737,10.246 		"/>
		
			<linearGradient id="SVGID_00000094588678644453537270000012672526566474846370_" gradientUnits="userSpaceOnUse" x1="40.9205" y1="11.7733" x2="34.5312" y2="-1.4371">
			<stop  offset="0" style="stop-color:#4EC7F4"/>
			<stop  offset="0.2711" style="stop-color:#46B2EE"/>
			<stop  offset="0.7398" style="stop-color:#3A92E5"/>
			<stop  offset="1" style="stop-color:#3586E2"/>
		</linearGradient>
		<polygon style="fill:url(#SVGID_00000094588678644453537270000012672526566474846370_);" points="34.815,0 44.246,2.358 
			40.942,10.767 30.807,7.152 		"/>
		
			<linearGradient id="SVGID_00000038411776174276852980000001465249624955613627_" gradientUnits="userSpaceOnUse" x1="-0.9006" y1="3.8781" x2="35.381" y2="3.5259">
			<stop  offset="0" style="stop-color:#FFFFFF;stop-opacity:0.6"/>
			<stop  offset="0.0949" style="stop-color:#D0E3F8;stop-opacity:0.543"/>
			<stop  offset="0.1932" style="stop-color:#A7CAF2;stop-opacity:0.4841"/>
			<stop  offset="0.2977" style="stop-color:#84B5ED;stop-opacity:0.4214"/>
			<stop  offset="0.4073" style="stop-color:#67A4E9;stop-opacity:0.3556"/>
			<stop  offset="0.5241" style="stop-color:#5197E6;stop-opacity:0.2856"/>
			<stop  offset="0.6512" style="stop-color:#418DE4;stop-opacity:0.2093"/>
			<stop  offset="0.7964" style="stop-color:#3888E2;stop-opacity:0.1221"/>
			<stop  offset="1" style="stop-color:#3586E2;stop-opacity:0"/>
		</linearGradient>
		<polygon style="fill:url(#SVGID_00000038411776174276852980000001465249624955613627_);" points="2.675,6.807 2.201,5.214 
			1.493,2.829 29.628,0 30.807,7.152 		"/>
		<polyline style="fill:none;stroke:#6493D4;stroke-width:0.0484;stroke-miterlimit:10;" points="11.483,15.905 11.031,15.35 
			10.324,14.481 		"/>
		
			<linearGradient id="SVGID_00000065037732385818134790000002109028598238918284_" gradientUnits="userSpaceOnUse" x1="11.7318" y1="14.7715" x2="-5.1625" y2="0.8658">
			<stop  offset="0" style="stop-color:#4EC7F4"/>
			<stop  offset="0.2711" style="stop-color:#46B2EE"/>
			<stop  offset="0.7398" style="stop-color:#3A92E5"/>
			<stop  offset="1" style="stop-color:#3586E2"/>
		</linearGradient>
		<polygon style="fill:url(#SVGID_00000065037732385818134790000002109028598238918284_);" points="9.195,14.618 2.358,10.767 
			0,4.402 2.201,5.214 6.601,6.838 7.737,10.246 		"/>
		<polygon style="fill:none;" points="40.945,10.767 9.195,14.618 9.195,54.698 40.945,47.232 		"/>
		
			<linearGradient id="SVGID_00000145750715978326213920000000999100218655064464_" gradientUnits="userSpaceOnUse" x1="16.3484" y1="17.3328" x2="33.842" y2="48.2225">
			<stop  offset="0" style="stop-color:#4EC7F4"/>
			<stop  offset="0.1301" style="stop-color:#45B1E9"/>
			<stop  offset="0.3884" style="stop-color:#348CD7"/>
			<stop  offset="0.6278" style="stop-color:#2970CA"/>
			<stop  offset="0.8392" style="stop-color:#2260C2"/>
			<stop  offset="1" style="stop-color:#1F5ABF"/>
		</linearGradient>
		<polygon style="fill:url(#SVGID_00000145750715978326213920000000999100218655064464_);" points="40.945,10.767 9.195,14.618 
			9.195,54.698 40.945,47.232 		"/>
		<polygon style="fill:none;" points="40.945,10.767 9.195,14.618 9.195,54.698 40.945,47.232 		"/>
		
			<linearGradient id="SVGID_00000072988764456091068960000013913015320295270075_" gradientUnits="userSpaceOnUse" x1="36.7246" y1="7.367" x2="-2.2475" y2="44.3104">
			<stop  offset="0" style="stop-color:#FFFFFF;stop-opacity:0.6"/>
			<stop  offset="0.0465" style="stop-color:#DCEAFA;stop-opacity:0.5721"/>
			<stop  offset="0.1086" style="stop-color:#B5D3F4;stop-opacity:0.5348"/>
			<stop  offset="0.1772" style="stop-color:#93BEEF;stop-opacity:0.4937"/>
			<stop  offset="0.2518" style="stop-color:#75ADEB;stop-opacity:0.4489"/>
			<stop  offset="0.334" style="stop-color:#5E9EE8;stop-opacity:0.3996"/>
			<stop  offset="0.4274" style="stop-color:#4B93E5;stop-opacity:0.3436"/>
			<stop  offset="0.5384" style="stop-color:#3F8CE3;stop-opacity:0.277"/>
			<stop  offset="0.6843" style="stop-color:#3787E2;stop-opacity:0.1894"/>
			<stop  offset="1" style="stop-color:#3586E2;stop-opacity:0"/>
		</linearGradient>
		<path style="fill:url(#SVGID_00000072988764456091068960000013913015320295270075_);" d="M40.945,10.767l-31.75,3.851v27.567
			l15.954-7.099C34.755,30.811,40.945,21.282,40.945,10.767L40.945,10.767z"/>
		
			<linearGradient id="SVGID_00000074416214113636450950000010054768557950814368_" gradientUnits="userSpaceOnUse" x1="0.1765" y1="4.8456" x2="9.2399" y2="17.5451">
			<stop  offset="0" style="stop-color:#FFFFFF;stop-opacity:0.6"/>
			<stop  offset="0.0949" style="stop-color:#D0E3F8;stop-opacity:0.543"/>
			<stop  offset="0.1932" style="stop-color:#A7CAF2;stop-opacity:0.4841"/>
			<stop  offset="0.2977" style="stop-color:#84B5ED;stop-opacity:0.4214"/>
			<stop  offset="0.4073" style="stop-color:#67A4E9;stop-opacity:0.3556"/>
			<stop  offset="0.5241" style="stop-color:#5197E6;stop-opacity:0.2856"/>
			<stop  offset="0.6512" style="stop-color:#418DE4;stop-opacity:0.2093"/>
			<stop  offset="0.7964" style="stop-color:#3888E2;stop-opacity:0.1221"/>
			<stop  offset="1" style="stop-color:#3586E2;stop-opacity:0"/>
		</linearGradient>
		<polygon style="fill:url(#SVGID_00000074416214113636450950000010054768557950814368_);" points="9.195,14.618 2.358,10.767 
			0,4.402 		"/>
		
			<linearGradient id="SVGID_00000129188271001791274750000003326888643743220406_" gradientUnits="userSpaceOnUse" x1="44.1841" y1="1.6816" x2="30.7855" y2="4.2605">
			<stop  offset="0" style="stop-color:#FFFFFF;stop-opacity:0.6"/>
			<stop  offset="0.0949" style="stop-color:#D0E3F8;stop-opacity:0.543"/>
			<stop  offset="0.1932" style="stop-color:#A7CAF2;stop-opacity:0.4841"/>
			<stop  offset="0.2977" style="stop-color:#84B5ED;stop-opacity:0.4214"/>
			<stop  offset="0.4073" style="stop-color:#67A4E9;stop-opacity:0.3556"/>
			<stop  offset="0.5241" style="stop-color:#5197E6;stop-opacity:0.2856"/>
			<stop  offset="0.6512" style="stop-color:#418DE4;stop-opacity:0.2093"/>
			<stop  offset="0.7964" style="stop-color:#3888E2;stop-opacity:0.1221"/>
			<stop  offset="1" style="stop-color:#3586E2;stop-opacity:0"/>
		</linearGradient>
		<polygon style="fill:url(#SVGID_00000129188271001791274750000003326888643743220406_);" points="34.815,0 44.246,2.358 
			43.057,5.384 32.113,4.821 		"/>
		
			<linearGradient id="SVGID_00000125584946942677252150000017780800809458157499_" gradientUnits="userSpaceOnUse" x1="5.9847" y1="18.5185" x2="48.4488" y2="11.7607">
			<stop  offset="0" style="stop-color:#4EC7F4"/>
			<stop  offset="0.2711" style="stop-color:#46B2EE"/>
			<stop  offset="0.7398" style="stop-color:#3A92E5"/>
			<stop  offset="1" style="stop-color:#3586E2"/>
		</linearGradient>
		<polygon style="fill:url(#SVGID_00000125584946942677252150000017780800809458157499_);" points="46.368,15.482 40.945,16.223 
			30.807,17.609 13.596,19.962 9.195,14.618 30.807,11.997 40.945,10.767 		"/>
		
			<linearGradient id="SVGID_00000071534730329549540070000017610559649646416048_" gradientUnits="userSpaceOnUse" x1="8.7638" y1="14.5649" x2="45.0181" y2="13.5604">
			<stop  offset="0" style="stop-color:#FFFFFF;stop-opacity:0.6"/>
			<stop  offset="0.0514" style="stop-color:#E9F2FC;stop-opacity:0.5692"/>
			<stop  offset="0.1747" style="stop-color:#BAD5F5;stop-opacity:0.4952"/>
			<stop  offset="0.302" style="stop-color:#91BDEF;stop-opacity:0.4188"/>
			<stop  offset="0.4314" style="stop-color:#70A9EA;stop-opacity:0.3412"/>
			<stop  offset="0.5635" style="stop-color:#569AE7;stop-opacity:0.2619"/>
			<stop  offset="0.6995" style="stop-color:#438FE4;stop-opacity:0.1803"/>
			<stop  offset="0.8416" style="stop-color:#3988E3;stop-opacity:0.0951"/>
			<stop  offset="1" style="stop-color:#3586E2;stop-opacity:0"/>
		</linearGradient>
		<polygon style="fill:url(#SVGID_00000071534730329549540070000017610559649646416048_);" points="11.483,17.396 9.195,14.618 
			30.807,11.997 40.945,10.767 45.374,14.618 		"/>
		
			<linearGradient id="SVGID_00000181083027744883816370000013582703568759584659_" gradientUnits="userSpaceOnUse" x1="-2.6994" y1="7.4444" x2="15.0249" y2="86.9903">
			<stop  offset="0" style="stop-color:#FFFFFF;stop-opacity:0.6"/>
			<stop  offset="0.0403" style="stop-color:#E4EFFB;stop-opacity:0.5758"/>
			<stop  offset="0.1095" style="stop-color:#BBD6F5;stop-opacity:0.5343"/>
			<stop  offset="0.1851" style="stop-color:#97C0F0;stop-opacity:0.489"/>
			<stop  offset="0.2663" style="stop-color:#78AEEC;stop-opacity:0.4402"/>
			<stop  offset="0.3551" style="stop-color:#609FE8;stop-opacity:0.3869"/>
			<stop  offset="0.4543" style="stop-color:#4C94E5;stop-opacity:0.3274"/>
			<stop  offset="0.5699" style="stop-color:#3F8CE3;stop-opacity:0.2581"/>
			<stop  offset="0.7167" style="stop-color:#3787E2;stop-opacity:0.17"/>
			<stop  offset="1" style="stop-color:#3586E2;stop-opacity:0"/>
		</linearGradient>
		<path style="fill:url(#SVGID_00000181083027744883816370000013582703568759584659_);" d="M2.357,10.767L2.357,10.767v38.744
			l6.837,5.187"/>
	</g>
	<g>
		<defs>
			<path id="SVGID_00000139258204117879478820000001243728686535154877_" d="M48.794,27.386c-6.223-6.223-16.312-6.223-22.535,0
				c-6.222,6.222-6.222,16.311,0,22.534c6.223,6.223,16.312,6.223,22.535,0C55.016,43.697,55.016,33.608,48.794,27.386z
				 M38.837,39.964c-0.723,0.722-1.899,0.722-2.622,0c-0.722-0.723-0.722-1.899,0-2.621c0.723-0.723,1.899-0.723,2.622,0
				C39.56,38.065,39.56,39.241,38.837,39.964z"/>
		</defs>
		<clipPath id="SVGID_00000023276945646370649090000007429445921056650918_">
			<use xlink:href="#SVGID_00000139258204117879478820000001243728686535154877_"  style="overflow:visible;"/>
		</clipPath>
		
			<linearGradient id="SVGID_00000163036888663251201440000009202229899002767279_" gradientUnits="userSpaceOnUse" x1="21.0188" y1="23.0203" x2="55.2929" y2="55.4793">
			<stop  offset="0" style="stop-color:#E6E6E6"/>
			<stop  offset="0.2074" style="stop-color:#E9E9E9"/>
			<stop  offset="0.3682" style="stop-color:#F3F3F3"/>
			<stop  offset="0.4814" style="stop-color:#FFFFFF"/>
			<stop  offset="0.6048" style="stop-color:#F2F2F2"/>
			<stop  offset="0.7639" style="stop-color:#E9E9E9"/>
			<stop  offset="1" style="stop-color:#E6E6E6"/>
		</linearGradient>
		
			<circle style="clip-path:url(#SVGID_00000023276945646370649090000007429445921056650918_);fill:url(#SVGID_00000163036888663251201440000009202229899002767279_);" cx="37.526" cy="38.653" r="15.934"/>
		
			<linearGradient id="SVGID_00000142156529577926498680000011612091250499672755_" gradientUnits="userSpaceOnUse" x1="-4498.5" y1="8759.125" x2="-4445.1138" y2="8759.125" gradientTransform="matrix(-0.7071 0.7071 -0.7071 -0.7071 3068.8245 9394.335)">
			<stop  offset="0" style="stop-color:#E6E6E6;stop-opacity:0"/>
			<stop  offset="0.2028" style="stop-color:#E3EBE9;stop-opacity:0.4077"/>
			<stop  offset="0.4558" style="stop-color:#DCFBF0;stop-opacity:0.9161"/>
			<stop  offset="0.4975" style="stop-color:#DAFEF2"/>
			<stop  offset="0.5509" style="stop-color:#DCFAF0;stop-opacity:0.8938"/>
			<stop  offset="0.7963" style="stop-color:#E3EBE9;stop-opacity:0.4054"/>
			<stop  offset="1" style="stop-color:#E6E6E6;stop-opacity:0"/>
		</linearGradient>
		
			<polygon style="clip-path:url(#SVGID_00000023276945646370649090000007429445921056650918_);fill:url(#SVGID_00000142156529577926498680000011612091250499672755_);" points="
			12.144,51.315 36.382,37.803 49.894,13.565 62.321,25.991 38.22,39.367 24.571,63.741 		"/>
		<path style="clip-path:url(#SVGID_00000023276945646370649090000007429445921056650918_);fill:none;" d="M26.259,27.386
			c-6.223,6.223-6.223,16.312,0,22.535c6.222,6.222,16.311,6.222,22.535-0.001c6.222-6.222,6.222-16.312,0-22.534
			C42.571,21.163,32.481,21.163,26.259,27.386z M38.837,39.964c-0.723,0.723-1.898,0.723-2.621,0c-0.723-0.723-0.723-1.899,0-2.621
			c0.723-0.723,1.899-0.723,2.621,0C39.56,38.065,39.56,39.241,38.837,39.964z"/>
		
			<linearGradient id="SVGID_00000173883254538776076090000017742658757335233173_" gradientUnits="userSpaceOnUse" x1="-3687.9338" y1="1128.8092" x2="-3693.4861" y2="1160.9479" gradientTransform="matrix(0.7071 0.7071 -0.7071 0.7071 3455.644 1839.4386)">
			<stop  offset="0" style="stop-color:#E6E6E6;stop-opacity:0"/>
			<stop  offset="0.1774" style="stop-color:#E1E6E7;stop-opacity:0.3565"/>
			<stop  offset="0.3811" style="stop-color:#D3E4EA;stop-opacity:0.7659"/>
			<stop  offset="0.4975" style="stop-color:#C8E3ED"/>
			<stop  offset="0.6362" style="stop-color:#D7E4EA;stop-opacity:0.724"/>
			<stop  offset="0.8145" style="stop-color:#E2E6E7;stop-opacity:0.3692"/>
			<stop  offset="1" style="stop-color:#E6E6E6;stop-opacity:0"/>
		</linearGradient>
		
			<polygon style="clip-path:url(#SVGID_00000023276945646370649090000007429445921056650918_);fill:url(#SVGID_00000173883254538776076090000017742658757335233173_);" points="
			49.894,63.741 36.382,39.503 12.144,25.991 24.571,13.565 37.946,37.666 62.321,51.315 		"/>
		<g style="clip-path:url(#SVGID_00000023276945646370649090000007429445921056650918_);">
			<path style="fill:#FFFFFF;" d="M36.215,37.343c-0.723,0.723-0.723,1.899,0,2.621c0.723,0.723,1.899,0.723,2.621,0
				c0.723-0.723,0.723-1.899,0-2.621C38.114,36.62,36.938,36.62,36.215,37.343z"/>
			
				<linearGradient id="SVGID_00000098215892361743866750000002420140228272017321_" gradientUnits="userSpaceOnUse" x1="39.8784" y1="36.1975" x2="35.1737" y2="41.1092">
				<stop  offset="0" style="stop-color:#C8E3ED"/>
				<stop  offset="0.0886" style="stop-color:#D9ECF3"/>
				<stop  offset="0.2315" style="stop-color:#EEF6F9"/>
				<stop  offset="0.3713" style="stop-color:#FBFDFE"/>
				<stop  offset="0.5036" style="stop-color:#FFFFFF"/>
				<stop  offset="0.6626" style="stop-color:#FBFFFD"/>
				<stop  offset="0.836" style="stop-color:#EDFFF9"/>
				<stop  offset="1" style="stop-color:#DAFEF2"/>
			</linearGradient>
			<path style="fill:url(#SVGID_00000098215892361743866750000002420140228272017321_);" d="M35.121,36.249
				c-1.326,1.326-1.326,3.483,0,4.809c1.326,1.326,3.483,1.326,4.809,0c1.326-1.326,1.326-3.483,0-4.809
				C38.605,34.923,36.447,34.923,35.121,36.249z M38.946,40.073c-0.783,0.783-2.057,0.783-2.84,0c-0.783-0.783-0.783-2.057,0-2.84
				c0.783-0.783,2.057-0.783,2.84,0C39.729,38.016,39.729,39.29,38.946,40.073z"/>
			
				<linearGradient id="SVGID_00000162334415385260956160000007689503732487824782_" gradientUnits="userSpaceOnUse" x1="33.3519" y1="38.6534" x2="41.7002" y2="38.6534">
				<stop  offset="0" style="stop-color:#4EC7F4"/>
				<stop  offset="0.1301" style="stop-color:#45B1E9"/>
				<stop  offset="0.3884" style="stop-color:#348CD7"/>
				<stop  offset="0.6278" style="stop-color:#2970CA"/>
				<stop  offset="0.8392" style="stop-color:#2260C2"/>
				<stop  offset="1" style="stop-color:#1F5ABF"/>
			</linearGradient>
			<path style="opacity:0.42;fill:url(#SVGID_00000162334415385260956160000007689503732487824782_);" d="M34.574,35.702
				c-1.63,1.63-1.63,4.273,0,5.903c1.63,1.63,4.273,1.63,5.903,0c1.63-1.63,1.63-4.273,0-5.903
				C38.848,34.072,36.205,34.072,34.574,35.702z M40.04,41.167c-1.386,1.386-3.642,1.386-5.028,0c-1.386-1.386-1.386-3.642,0-5.028
				c1.386-1.386,3.642-1.386,5.028,0S41.426,39.781,40.04,41.167z"/>
		</g>
		<path style="clip-path:url(#SVGID_00000023276945646370649090000007429445921056650918_);fill:none;" d="M48.794,27.386
			c-6.223-6.222-16.312-6.222-22.535,0c-6.222,6.223-6.222,16.312,0,22.535c6.223,6.222,16.312,6.222,22.535,0
			C55.016,43.698,55.016,33.609,48.794,27.386z M38.836,39.964c-0.722,0.723-1.898,0.723-2.621,0c-0.722-0.722-0.722-1.898,0-2.621
			c0.723-0.722,1.899-0.722,2.621,0C39.56,38.066,39.56,39.241,38.836,39.964z"/>
		
			<path style="clip-path:url(#SVGID_00000023276945646370649090000007429445921056650918_);fill:none;stroke:#80AECE;stroke-width:0.1896;stroke-miterlimit:10;" d="
			M48.794,27.386c-6.223-6.223-16.312-6.223-22.535,0c-6.222,6.222-6.222,16.311,0,22.534c6.223,6.223,16.312,6.223,22.535,0
			C55.016,43.697,55.016,33.608,48.794,27.386z M38.837,39.964c-0.723,0.722-1.899,0.722-2.622,0c-0.722-0.723-0.722-1.899,0-2.621
			c0.723-0.723,1.899-0.723,2.622,0C39.56,38.065,39.56,39.241,38.837,39.964z"/>
	</g>
</g>
</svg>
