<!-- Generator: Adobe Illustrator 26.0.1, SVG Export PlugIn . SVG Version: 6.00 Build 0)  --><svg version="1.1" id="Layer_1" xmlns="http://www.w3.org/2000/svg" xmlns:xlink="http://www.w3.org/1999/xlink" x="0px" y="0px" viewBox="0 0 55 55" style="enable-background:new 0 0 55 55;" xml:space="preserve">
<style type="text/css">
	.st0{fill:url(#SVGID_1_);}
	.st1{fill:url(#SVGID_00000176750030614851765430000015418896747920301226_);}
	.st2{fill:none;}
	.st3{fill:url(#SVGID_00000115497482494647286940000001061331963026009774_);}
	.st4{fill:url(#SVGID_00000005979393369517933090000008229535446082290052_);}
	.st5{fill:url(#SVGID_00000183928427839399041720000006913373520333186992_);}
	.st6{fill:url(#SVGID_00000041974628778290171510000013880726356323251601_);}
	.st7{fill:none;stroke:#6493D4;stroke-width:4.760000e-02;stroke-miterlimit:10;}
	.st8{fill:url(#SVGID_00000111189721208078975200000001446820665313951111_);}
	.st9{fill:url(#SVGID_00000137128495290207096240000017943676961624556989_);}
	.st10{fill:url(#SVGID_00000065794660624294238670000009611039754140234887_);}
	
		.st11{clip-path:url(#SVGID_00000170246718068427148440000013245845771612280451_);fill:url(#SVGID_00000051374717055443633100000010885105565359231148_);}
	
		.st12{clip-path:url(#SVGID_00000101819758467860686040000000967055927741633413_);fill:url(#SVGID_00000144304015239980175050000013889009912604704409_);}
	.st13{clip-path:url(#SVGID_00000168834108439995845170000016847147459297800872_);fill:none;}
	
		.st14{clip-path:url(#SVGID_00000150103216422447780790000010590123997264233348_);fill:url(#SVGID_00000137091137395962475740000003592299433447652791_);}
	.st15{clip-path:url(#SVGID_00000031896933242449370670000015117055438304290459_);}
	.st16{fill:#FFFFFF;}
	.st17{fill:url(#SVGID_00000134252015226067597340000006376689798785111985_);}
	.st18{opacity:0.42;fill:url(#SVGID_00000115480323260263860220000014413462343002048438_);enable-background:new    ;}
	.st19{clip-path:url(#SVGID_00000064350676858188775040000009068777007351850394_);fill:none;}
	
		.st20{clip-path:url(#SVGID_00000102523727807396048000000002858995921190516662_);fill:none;stroke:#80AECE;stroke-width:0.1864;stroke-miterlimit:10;}
	.st21{fill:url(#SVGID_00000129915572907662732360000013837270909282560439_);}
	.st22{fill:url(#SVGID_00000092419453278682701820000011062421643531044226_);}
	.st23{fill:url(#SVGID_00000145060705257870755550000010510460250911769755_);}
	.st24{fill:url(#SVGID_00000056393918292209818150000014846746379659853712_);}
	.st25{fill:url(#SVGID_00000063596246080530742580000015790899722708966566_);}
	.st26{fill:url(#SVGID_00000014596759859486265590000016616848727906385853_);}
	.st27{fill:#80AECE;}
	.st28{fill:url(#SVGID_00000069357024408767590570000008001648049625312152_);}
	.st29{fill:url(#SVGID_00000029759381083196989580000010506467231018470028_);}
	.st30{fill:url(#SVGID_00000047032989060213461320000016652169193002658990_);}
	.st31{fill:url(#SVGID_00000054243678332714696430000011716728610481850806_);}
	.st32{fill:url(#SVGID_00000003064548093052193300000015131725146529513907_);}
	.st33{fill:url(#SVGID_00000024699408223548200260000012395108717200822162_);}
	.st34{fill:url(#SVGID_00000078017425409354963480000015521452652859742378_);}
</style>
<g>
	
		<linearGradient id="SVGID_1_" gradientUnits="userSpaceOnUse" x1="3.1613" y1="23.3126" x2="40.6639" y2="22.0728" gradientTransform="matrix(1 0 0 -1 0 56)">
		<stop offset="0" style="stop-color:#4EC7F4"></stop>
		<stop offset="0.1301" style="stop-color:#45B1E9"></stop>
		<stop offset="0.3884" style="stop-color:#348CD7"></stop>
		<stop offset="0.6278" style="stop-color:#2970CA"></stop>
		<stop offset="0.8392" style="stop-color:#2260C2"></stop>
		<stop offset="1" style="stop-color:#1F5ABF"></stop>
	</linearGradient>
	<path class="st0" d="M3,11.2v38.1l6.7,5.1V15L3,11.2L3,11.2z" style="fill: url(#SVGID_1_);"></path>
	
		<linearGradient id="SVGID_00000030459766995043075520000011851621125368805823_" gradientUnits="userSpaceOnUse" x1="37.4643" y1="49.1169" x2="36.3939" y2="41.1378" gradientTransform="matrix(1 0 0 -1 0 56)">
		<stop offset="0" style="stop-color:#4EC7F4"></stop>
		<stop offset="0.2711" style="stop-color:#46B2EE"></stop>
		<stop offset="0.7398" style="stop-color:#3A92E5"></stop>
		<stop offset="1" style="stop-color:#3586E2"></stop>
	</linearGradient>
	<polygon style="fill:url(#SVGID_00000030459766995043075520000011851621125368805823_);" points="41,11.2 41,28.2 31,28.2 31,7.6"></polygon>
	<polygon class="st2" points="41,11.2 9.7,15 9.7,54.4 41,47.1" style="fill: none;"></polygon>
	<polygon class="st2" points="41,11.2 9.7,15 9.7,54.4 41,47.1" style="fill: none;"></polygon>
	
		<linearGradient id="SVGID_00000071547588020043689350000003292654140564412328_" gradientUnits="userSpaceOnUse" x1="1.022" y1="48.4129" x2="35.0649" y2="52.7571" gradientTransform="matrix(1 0 0 -1 0 56)">
		<stop offset="0" style="stop-color:#4EC7F4"></stop>
		<stop offset="0.2711" style="stop-color:#46B2EE"></stop>
		<stop offset="0.7398" style="stop-color:#3A92E5"></stop>
		<stop offset="1" style="stop-color:#3586E2"></stop>
	</linearGradient>
	<polygon style="fill:url(#SVGID_00000071547588020043689350000003292654140564412328_);" points="31,7.6 8.3,10.7 4.5,11.2 
		2.9,5.7 2.2,3.4 29.8,0.6"></polygon>
	<polygon class="st2" points="41,11.2 9.7,15 9.7,54.4 41,47.1" style="fill: none;"></polygon>
	
		<linearGradient id="SVGID_00000129182010666791286340000015246827308688039046_" gradientUnits="userSpaceOnUse" x1="20.465" y1="38.6252" x2="19.835" y2="45.0296" gradientTransform="matrix(1 0 0 -1 0 56)">
		<stop offset="0" style="stop-color:#4EC7F4"></stop>
		<stop offset="0.2711" style="stop-color:#46B2EE"></stop>
		<stop offset="0.7398" style="stop-color:#3A92E5"></stop>
		<stop offset="1" style="stop-color:#3586E2"></stop>
	</linearGradient>
	<polygon style="fill:url(#SVGID_00000129182010666791286340000015246827308688039046_);" points="31,7.6 31,12.4 9.7,15 8.3,10.7"></polygon>
	
		<linearGradient id="SVGID_00000002377216822538955320000012410702962068100241_" gradientUnits="userSpaceOnUse" x1="40.9443" y1="43.8158" x2="34.6617" y2="56.8057" gradientTransform="matrix(1 0 0 -1 0 56)">
		<stop offset="0" style="stop-color:#4EC7F4"></stop>
		<stop offset="0.2711" style="stop-color:#46B2EE"></stop>
		<stop offset="0.7398" style="stop-color:#3A92E5"></stop>
		<stop offset="1" style="stop-color:#3586E2"></stop>
	</linearGradient>
	<polygon style="fill:url(#SVGID_00000002377216822538955320000012410702962068100241_);" points="34.9,0.6 44.2,2.9 41,11.2 
		31,7.6"></polygon>
	
		<linearGradient id="SVGID_00000118370658237556791980000001285636989267511735_" gradientUnits="userSpaceOnUse" x1="-0.1785" y1="51.5794" x2="35.4973" y2="51.9258" gradientTransform="matrix(1 0 0 -1 0 56)">
		<stop offset="0" style="stop-color:#FFFFFF;stop-opacity:0.6"></stop>
		<stop offset="9.490000e-02" style="stop-color:#D0E3F8;stop-opacity:0.543"></stop>
		<stop offset="0.1932" style="stop-color:#A7CAF2;stop-opacity:0.4841"></stop>
		<stop offset="0.2977" style="stop-color:#84B5ED;stop-opacity:0.4214"></stop>
		<stop offset="0.4073" style="stop-color:#67A4E9;stop-opacity:0.3556"></stop>
		<stop offset="0.5241" style="stop-color:#5197E6;stop-opacity:0.2856"></stop>
		<stop offset="0.6512" style="stop-color:#418DE4;stop-opacity:0.2093"></stop>
		<stop offset="0.7964" style="stop-color:#3888E2;stop-opacity:0.1221"></stop>
		<stop offset="1" style="stop-color:#3586E2;stop-opacity:0"></stop>
	</linearGradient>
	<polygon style="fill:url(#SVGID_00000118370658237556791980000001285636989267511735_);" points="3.3,7.3 2.9,5.7 2.2,3.4 
		29.8,0.6 31,7.6"></polygon>
	<polyline class="st7" points="12,16.2 11.6,15.7 10.9,14.8" style="fill: none;stroke: #6493D4;stroke-width: 4.760000e-02;stroke-miterlimit: 10;"></polyline>
	
		<linearGradient id="SVGID_00000121983762174733371370000012659416274204011921_" gradientUnits="userSpaceOnUse" x1="12.2429" y1="40.8676" x2="-4.3693" y2="54.5412" gradientTransform="matrix(1 0 0 -1 0 56)">
		<stop offset="0" style="stop-color:#4EC7F4"></stop>
		<stop offset="0.2711" style="stop-color:#46B2EE"></stop>
		<stop offset="0.7398" style="stop-color:#3A92E5"></stop>
		<stop offset="1" style="stop-color:#3586E2"></stop>
	</linearGradient>
	<polygon style="fill:url(#SVGID_00000121983762174733371370000012659416274204011921_);" points="9.7,15 3,11.2 0.7,4.9 2.9,5.7 
		7.2,7.3 8.3,10.7"></polygon>
	<polygon class="st2" points="41,11.2 9.7,15 9.7,54.4 41,47.1" style="fill: none;"></polygon>
	
		<linearGradient id="SVGID_00000038411626951671948250000009020719650744889007_" gradientUnits="userSpaceOnUse" x1="16.7821" y1="38.3489" x2="33.9837" y2="7.975" gradientTransform="matrix(1 0 0 -1 0 56)">
		<stop offset="0" style="stop-color:#4EC7F4"></stop>
		<stop offset="0.1301" style="stop-color:#45B1E9"></stop>
		<stop offset="0.3884" style="stop-color:#348CD7"></stop>
		<stop offset="0.6278" style="stop-color:#2970CA"></stop>
		<stop offset="0.8392" style="stop-color:#2260C2"></stop>
		<stop offset="1" style="stop-color:#1F5ABF"></stop>
	</linearGradient>
	<polygon style="fill:url(#SVGID_00000038411626951671948250000009020719650744889007_);" points="41,11.2 9.7,15 9.7,54.4 41,47.1"></polygon>
	
		<linearGradient id="SVGID_00000054266687416444149500000017323018698069269949_" gradientUnits="userSpaceOnUse" x1="36.8189" y1="48.1483" x2="-1.5026" y2="11.8217" gradientTransform="matrix(1 0 0 -1 0 56)">
		<stop offset="0" style="stop-color:#FFFFFF;stop-opacity:0.6"></stop>
		<stop offset="4.650000e-02" style="stop-color:#DCEAFA;stop-opacity:0.5721"></stop>
		<stop offset="0.1086" style="stop-color:#B5D3F4;stop-opacity:0.5348"></stop>
		<stop offset="0.1772" style="stop-color:#93BEEF;stop-opacity:0.4937"></stop>
		<stop offset="0.2518" style="stop-color:#75ADEB;stop-opacity:0.4489"></stop>
		<stop offset="0.334" style="stop-color:#5E9EE8;stop-opacity:0.3996"></stop>
		<stop offset="0.4274" style="stop-color:#4B93E5;stop-opacity:0.3436"></stop>
		<stop offset="0.5384" style="stop-color:#3F8CE3;stop-opacity:0.277"></stop>
		<stop offset="0.6843" style="stop-color:#3787E2;stop-opacity:0.1894"></stop>
		<stop offset="1" style="stop-color:#3586E2;stop-opacity:0"></stop>
	</linearGradient>
	<path style="fill:url(#SVGID_00000054266687416444149500000017323018698069269949_);" d="M41,11.2L9.7,15v27.1l15.7-7
		C34.9,30.9,41,21.5,41,11.2L41,11.2z"></path>
	<g>
		<g>
			<defs>
				<path id="SVGID_00000173868359114677406340000014222821836303527056_" d="M44,27.5c-6.1-6.1-16-6.1-22.2,0
					c-6.1,6.1-6.1,16,0,22.2c6.1,6.1,16,6.1,22.2,0C50.1,43.6,50.1,33.7,44,27.5z M34.2,39.9c-0.7,0.7-1.9,0.7-2.6,0
					c-0.7-0.7-0.7-1.9,0-2.6c0.7-0.7,1.9-0.7,2.6,0C34.9,38,34.9,39.2,34.2,39.9z"></path>
			</defs>
			<clipPath id="SVGID_00000062914324819816597340000004896575088128424126_">
				<use xlink:href="#SVGID_00000173868359114677406340000014222821836303527056_" style="overflow:visible;"></use>
			</clipPath>
			
				<linearGradient id="SVGID_00000116205963110618424980000000925846802647315348_" gradientUnits="userSpaceOnUse" x1="16.7143" y1="32.7571" x2="50.4162" y2="0.84" gradientTransform="matrix(1 0 0 -1 0 56)">
				<stop offset="0" style="stop-color:#E6E6E6"></stop>
				<stop offset="0.2074" style="stop-color:#E9E9E9"></stop>
				<stop offset="0.3682" style="stop-color:#F3F3F3"></stop>
				<stop offset="0.4814" style="stop-color:#FFFFFF"></stop>
				<stop offset="0.6048" style="stop-color:#F2F2F2"></stop>
				<stop offset="0.7639" style="stop-color:#E9E9E9"></stop>
				<stop offset="1" style="stop-color:#E6E6E6"></stop>
			</linearGradient>
			
				<circle style="clip-path:url(#SVGID_00000062914324819816597340000004896575088128424126_);fill:url(#SVGID_00000116205963110618424980000000925846802647315348_);" cx="32.9" cy="38.6" r="15.7"></circle>
		</g>
		<g>
			<defs>
				<path id="SVGID_00000167383970805863481580000005862493378355668900_" d="M44,27.5c-6.1-6.1-16-6.1-22.2,0
					c-6.1,6.1-6.1,16,0,22.2c6.1,6.1,16,6.1,22.2,0C50.1,43.6,50.1,33.7,44,27.5z M34.2,39.9c-0.7,0.7-1.9,0.7-2.6,0
					c-0.7-0.7-0.7-1.9,0-2.6c0.7-0.7,1.9-0.7,2.6,0C34.9,38,34.9,39.2,34.2,39.9z"></path>
			</defs>
			<clipPath id="SVGID_00000047055062980102146700000003260994159627933881_">
				<use xlink:href="#SVGID_00000167383970805863481580000005862493378355668900_" style="overflow:visible;"></use>
			</clipPath>
			
				<linearGradient id="SVGID_00000083071131167701700880000007565879360305543074_" gradientUnits="userSpaceOnUse" x1="-5736.6421" y1="-7798.1157" x2="-5684.1475" y2="-7798.1157" gradientTransform="matrix(-0.7071 0.7071 0.7071 0.7071 1508.8843 9590.4824)">
				<stop offset="0" style="stop-color:#E6E6E6;stop-opacity:0"></stop>
				<stop offset="0.2028" style="stop-color:#E3EBE9;stop-opacity:0.4077"></stop>
				<stop offset="0.4558" style="stop-color:#DCFBF0;stop-opacity:0.9161"></stop>
				<stop offset="0.4975" style="stop-color:#DAFEF2"></stop>
				<stop offset="0.5509" style="stop-color:#DCFAF0;stop-opacity:0.8938"></stop>
				<stop offset="0.7963" style="stop-color:#E3EBE9;stop-opacity:0.4054"></stop>
				<stop offset="1" style="stop-color:#E6E6E6;stop-opacity:0"></stop>
			</linearGradient>
			
				<polygon style="clip-path:url(#SVGID_00000047055062980102146700000003260994159627933881_);fill:url(#SVGID_00000083071131167701700880000007565879360305543074_);" points="8,51.1 31.8,37.8 45.1,13.9 57.3,26.2 33.6,39.3 20.2,63.3"></polygon>
		</g>
		<g>
			<defs>
				<path id="SVGID_00000167368280265136022730000016218711712656170145_" d="M44,27.5c-6.1-6.1-16-6.1-22.2,0
					c-6.1,6.1-6.1,16,0,22.2c6.1,6.1,16,6.1,22.2,0C50.1,43.6,50.1,33.7,44,27.5z M34.2,39.9c-0.7,0.7-1.9,0.7-2.6,0
					c-0.7-0.7-0.7-1.9,0-2.6c0.7-0.7,1.9-0.7,2.6,0C34.9,38,34.9,39.2,34.2,39.9z"></path>
			</defs>
			<clipPath id="SVGID_00000176007188837400664540000015661649684611971232_">
				<use xlink:href="#SVGID_00000167368280265136022730000016218711712656170145_" style="overflow:visible;"></use>
			</clipPath>
			<path style="clip-path:url(#SVGID_00000176007188837400664540000015661649684611971232_);fill:none;" d="M21.9,27.5
				c-6.1,6.1-6.1,16,0,22.2c6.1,6.1,16,6.1,22.2,0s6.1-16,0-22.2S28,21.4,21.9,27.5z M34.2,39.9c-0.7,0.7-1.9,0.7-2.6,0
				s-0.7-1.9,0-2.6c0.7-0.7,1.9-0.7,2.6,0C34.9,38,34.9,39.2,34.2,39.9z"></path>
		</g>
		<g>
			<defs>
				<path id="SVGID_00000062898470651610403430000003099017008494867845_" d="M44,27.5c-6.1-6.1-16-6.1-22.2,0
					c-6.1,6.1-6.1,16,0,22.2c6.1,6.1,16,6.1,22.2,0C50.1,43.6,50.1,33.7,44,27.5z M34.2,39.9c-0.7,0.7-1.9,0.7-2.6,0
					c-0.7-0.7-0.7-1.9,0-2.6c0.7-0.7,1.9-0.7,2.6,0C34.9,38,34.9,39.2,34.2,39.9z"></path>
			</defs>
			<clipPath id="SVGID_00000181772574732010550740000008567100019665976489_">
				<use xlink:href="#SVGID_00000062898470651610403430000003099017008494867845_" style="overflow:visible;"></use>
			</clipPath>
			
				<linearGradient id="SVGID_00000165930455159761480570000009718538078357386421_" gradientUnits="userSpaceOnUse" x1="-3788.916" y1="-446.5095" x2="-3794.3755" y2="-478.1115" gradientTransform="matrix(0.7071 0.7071 0.7071 -0.7071 3039.7917 2393.3787)">
				<stop offset="0" style="stop-color:#E6E6E6;stop-opacity:0"></stop>
				<stop offset="0.1774" style="stop-color:#E1E6E7;stop-opacity:0.3565"></stop>
				<stop offset="0.3811" style="stop-color:#D3E4EA;stop-opacity:0.7659"></stop>
				<stop offset="0.4975" style="stop-color:#C8E3ED"></stop>
				<stop offset="0.6362" style="stop-color:#D7E4EA;stop-opacity:0.724"></stop>
				<stop offset="0.8145" style="stop-color:#E2E6E7;stop-opacity:0.3692"></stop>
				<stop offset="1" style="stop-color:#E6E6E6;stop-opacity:0"></stop>
			</linearGradient>
			
				<polygon style="clip-path:url(#SVGID_00000181772574732010550740000008567100019665976489_);fill:url(#SVGID_00000165930455159761480570000009718538078357386421_);" points="45.1,63.3 31.8,39.5 8,26.2 20.2,13.9 33.4,37.6 57.3,51.1"></polygon>
		</g>
		<g>
			<defs>
				<path id="SVGID_00000082345838652998291870000013911069475313638292_" d="M44,27.5c-6.1-6.1-16-6.1-22.2,0
					c-6.1,6.1-6.1,16,0,22.2c6.1,6.1,16,6.1,22.2,0C50.1,43.6,50.1,33.7,44,27.5z M34.2,39.9c-0.7,0.7-1.9,0.7-2.6,0
					c-0.7-0.7-0.7-1.9,0-2.6c0.7-0.7,1.9-0.7,2.6,0C34.9,38,34.9,39.2,34.2,39.9z"></path>
			</defs>
			<clipPath id="SVGID_00000135682193110244577190000008104930469985602956_">
				<use xlink:href="#SVGID_00000082345838652998291870000013911069475313638292_" style="overflow:visible;"></use>
			</clipPath>
			<g style="clip-path:url(#SVGID_00000135682193110244577190000008104930469985602956_);">
				<path class="st16" d="M31.7,37.3c-0.7,0.7-0.7,1.9,0,2.6s1.9,0.7,2.6,0c0.7-0.7,0.7-1.9,0-2.6C33.5,36.6,32.4,36.6,31.7,37.3z" style="fill: #FFFFFF;"></path>
				
					<linearGradient id="SVGID_00000070095136467917001710000017673331649616681876_" gradientUnits="userSpaceOnUse" x1="35.2585" y1="19.7994" x2="30.6325" y2="14.9696" gradientTransform="matrix(1 0 0 -1 0 56)">
					<stop offset="0" style="stop-color:#C8E3ED"></stop>
					<stop offset="8.860001e-02" style="stop-color:#D9ECF3"></stop>
					<stop offset="0.2315" style="stop-color:#EEF6F9"></stop>
					<stop offset="0.3713" style="stop-color:#FBFDFE"></stop>
					<stop offset="0.5036" style="stop-color:#FFFFFF"></stop>
					<stop offset="0.6626" style="stop-color:#FBFFFD"></stop>
					<stop offset="0.836" style="stop-color:#EDFFF9"></stop>
					<stop offset="1" style="stop-color:#DAFEF2"></stop>
				</linearGradient>
				<path style="fill:url(#SVGID_00000070095136467917001710000017673331649616681876_);" d="M30.6,36.3c-1.3,1.3-1.3,3.4,0,4.7
					s3.4,1.3,4.7,0c1.3-1.3,1.3-3.4,0-4.7C34,34.9,31.9,34.9,30.6,36.3z M34.3,40c-0.8,0.8-2,0.8-2.8,0s-0.8-2,0-2.8s2-0.8,2.8,0
					C35.1,38,35.1,39.2,34.3,40z"></path>
				
					<linearGradient id="SVGID_00000149355479744370824790000000317943909344708773_" gradientUnits="userSpaceOnUse" x1="28.8407" y1="17.3845" x2="37.0503" y2="17.3845" gradientTransform="matrix(1 0 0 -1 0 56)">
					<stop offset="0" style="stop-color:#4EC7F4"></stop>
					<stop offset="0.1301" style="stop-color:#45B1E9"></stop>
					<stop offset="0.3884" style="stop-color:#348CD7"></stop>
					<stop offset="0.6278" style="stop-color:#2970CA"></stop>
					<stop offset="0.8392" style="stop-color:#2260C2"></stop>
					<stop offset="1" style="stop-color:#1F5ABF"></stop>
				</linearGradient>
				
					<path style="opacity:0.42;fill:url(#SVGID_00000149355479744370824790000000317943909344708773_);enable-background:new    ;" d="M30,35.7c-1.6,1.6-1.6,4.2,0,5.8s4.2,1.6,5.8,0s1.6-4.2,0-5.8S31.6,34.1,30,35.7z M35.4,41.1c-1.4,1.4-3.6,1.4-4.9,0
					s-1.4-3.6,0-4.9s3.6-1.4,4.9,0S36.8,39.7,35.4,41.1z"></path>
			</g>
		</g>
		<g>
			<defs>
				<path id="SVGID_00000004530435386660600830000009319308013979912895_" d="M44,27.5c-6.1-6.1-16-6.1-22.2,0
					c-6.1,6.1-6.1,16,0,22.2c6.1,6.1,16,6.1,22.2,0C50.1,43.6,50.1,33.7,44,27.5z M34.2,39.9c-0.7,0.7-1.9,0.7-2.6,0
					c-0.7-0.7-0.7-1.9,0-2.6c0.7-0.7,1.9-0.7,2.6,0C34.9,38,34.9,39.2,34.2,39.9z"></path>
			</defs>
			<clipPath id="SVGID_00000099644116589237883340000002974524968521934478_">
				<use xlink:href="#SVGID_00000004530435386660600830000009319308013979912895_" style="overflow:visible;"></use>
			</clipPath>
			<path style="clip-path:url(#SVGID_00000099644116589237883340000002974524968521934478_);fill:none;" d="M44,27.5
				c-6.1-6.1-16-6.1-22.2,0c-6.1,6.1-6.1,16,0,22.2c6.1,6.1,16,6.1,22.2,0C50.1,43.6,50.1,33.7,44,27.5z M34.2,39.9
				c-0.7,0.7-1.9,0.7-2.6,0c-0.7-0.7-0.7-1.9,0-2.6c0.7-0.7,1.9-0.7,2.6,0C34.9,38,34.9,39.2,34.2,39.9z"></path>
		</g>
		<g>
			<defs>
				<path id="SVGID_00000105387487357583351220000005789024583481225861_" d="M44,27.5c-6.1-6.1-16-6.1-22.2,0
					c-6.1,6.1-6.1,16,0,22.2c6.1,6.1,16,6.1,22.2,0C50.1,43.6,50.1,33.7,44,27.5z M34.2,39.9c-0.7,0.7-1.9,0.7-2.6,0
					c-0.7-0.7-0.7-1.9,0-2.6c0.7-0.7,1.9-0.7,2.6,0C34.9,38,34.9,39.2,34.2,39.9z"></path>
			</defs>
			<clipPath id="SVGID_00000113313637024312100470000007187089883089694091_">
				<use xlink:href="#SVGID_00000105387487357583351220000005789024583481225861_" style="overflow:visible;"></use>
			</clipPath>
			
				<path style="clip-path:url(#SVGID_00000113313637024312100470000007187089883089694091_);fill:none;stroke:#80AECE;stroke-width:0.1864;stroke-miterlimit:10;" d="M44,27.5c-6.1-6.1-16-6.1-22.2,0c-6.1,6.1-6.1,16,0,22.2c6.1,6.1,16,6.1,22.2,0C50.1,43.6,50.1,33.7,44,27.5z M34.2,39.9
				c-0.7,0.7-1.9,0.7-2.6,0c-0.7-0.7-0.7-1.9,0-2.6c0.7-0.7,1.9-0.7,2.6,0C34.9,38,34.9,39.2,34.2,39.9z"></path>
		</g>
	</g>
	<polygon class="st2" points="41,11.2 9.7,15 9.7,54.4 41,47.1" style="fill: none;"></polygon>
	
		<linearGradient id="SVGID_00000060018516669660541770000018066626894978382257_" gradientUnits="userSpaceOnUse" x1="0.8807" y1="50.6279" x2="9.7927" y2="38.1404" gradientTransform="matrix(1 0 0 -1 0 56)">
		<stop offset="0" style="stop-color:#FFFFFF;stop-opacity:0.6"></stop>
		<stop offset="9.490000e-02" style="stop-color:#D0E3F8;stop-opacity:0.543"></stop>
		<stop offset="0.1932" style="stop-color:#A7CAF2;stop-opacity:0.4841"></stop>
		<stop offset="0.2977" style="stop-color:#84B5ED;stop-opacity:0.4214"></stop>
		<stop offset="0.4073" style="stop-color:#67A4E9;stop-opacity:0.3556"></stop>
		<stop offset="0.5241" style="stop-color:#5197E6;stop-opacity:0.2856"></stop>
		<stop offset="0.6512" style="stop-color:#418DE4;stop-opacity:0.2093"></stop>
		<stop offset="0.7964" style="stop-color:#3888E2;stop-opacity:0.1221"></stop>
		<stop offset="1" style="stop-color:#3586E2;stop-opacity:0"></stop>
	</linearGradient>
	<polygon style="fill:url(#SVGID_00000060018516669660541770000018066626894978382257_);" points="9.7,15 3,11.2 0.7,4.9"></polygon>
	
		<linearGradient id="SVGID_00000150793456301704960810000014229434871029172628_" gradientUnits="userSpaceOnUse" x1="44.1536" y1="53.7392" x2="30.9786" y2="51.2035" gradientTransform="matrix(1 0 0 -1 0 56)">
		<stop offset="0" style="stop-color:#FFFFFF;stop-opacity:0.6"></stop>
		<stop offset="9.490000e-02" style="stop-color:#D0E3F8;stop-opacity:0.543"></stop>
		<stop offset="0.1932" style="stop-color:#A7CAF2;stop-opacity:0.4841"></stop>
		<stop offset="0.2977" style="stop-color:#84B5ED;stop-opacity:0.4214"></stop>
		<stop offset="0.4073" style="stop-color:#67A4E9;stop-opacity:0.3556"></stop>
		<stop offset="0.5241" style="stop-color:#5197E6;stop-opacity:0.2856"></stop>
		<stop offset="0.6512" style="stop-color:#418DE4;stop-opacity:0.2093"></stop>
		<stop offset="0.7964" style="stop-color:#3888E2;stop-opacity:0.1221"></stop>
		<stop offset="1" style="stop-color:#3586E2;stop-opacity:0"></stop>
	</linearGradient>
	<polygon style="fill:url(#SVGID_00000150793456301704960810000014229434871029172628_);" points="34.9,0.6 44.2,2.9 43,5.9 
		32.3,5.3"></polygon>
	
		<linearGradient id="SVGID_00000096765125377008760990000012864756946952752786_" gradientUnits="userSpaceOnUse" x1="6.5919" y1="37.1831" x2="48.347" y2="43.828" gradientTransform="matrix(1 0 0 -1 0 56)">
		<stop offset="0" style="stop-color:#4EC7F4"></stop>
		<stop offset="0.2711" style="stop-color:#46B2EE"></stop>
		<stop offset="0.7398" style="stop-color:#3A92E5"></stop>
		<stop offset="1" style="stop-color:#3586E2"></stop>
	</linearGradient>
	<polygon style="fill:url(#SVGID_00000096765125377008760990000012864756946952752786_);" points="46.3,15.8 41,16.6 31,17.9 
		14.1,20.2 9.7,15 31,12.4 41,11.2"></polygon>
	
		<linearGradient id="SVGID_00000111910161293929306650000015221964797354759069_" gradientUnits="userSpaceOnUse" x1="9.3246" y1="41.071" x2="44.9736" y2="42.0588" gradientTransform="matrix(1 0 0 -1 0 56)">
		<stop offset="0" style="stop-color:#FFFFFF;stop-opacity:0.6"></stop>
		<stop offset="5.140000e-02" style="stop-color:#E9F2FC;stop-opacity:0.5692"></stop>
		<stop offset="0.1747" style="stop-color:#BAD5F5;stop-opacity:0.4952"></stop>
		<stop offset="0.302" style="stop-color:#91BDEF;stop-opacity:0.4188"></stop>
		<stop offset="0.4314" style="stop-color:#70A9EA;stop-opacity:0.3412"></stop>
		<stop offset="0.5635" style="stop-color:#569AE7;stop-opacity:0.2619"></stop>
		<stop offset="0.6995" style="stop-color:#438FE4;stop-opacity:0.1803"></stop>
		<stop offset="0.8416" style="stop-color:#3988E3;stop-opacity:9.510000e-02"></stop>
		<stop offset="1" style="stop-color:#3586E2;stop-opacity:0"></stop>
	</linearGradient>
	<polygon style="fill:url(#SVGID_00000111910161293929306650000015221964797354759069_);" points="12,17.7 9.7,15 31,12.4 41,11.2 
		45.3,15"></polygon>
	
		<linearGradient id="SVGID_00000074428825129884190230000016161564812673653396_" gradientUnits="userSpaceOnUse" x1="-1.9475" y1="48.0724" x2="15.4809" y2="-30.1454" gradientTransform="matrix(1 0 0 -1 0 56)">
		<stop offset="0" style="stop-color:#FFFFFF;stop-opacity:0.6"></stop>
		<stop offset="4.030000e-02" style="stop-color:#E4EFFB;stop-opacity:0.5758"></stop>
		<stop offset="0.1095" style="stop-color:#BBD6F5;stop-opacity:0.5343"></stop>
		<stop offset="0.1851" style="stop-color:#97C0F0;stop-opacity:0.489"></stop>
		<stop offset="0.2663" style="stop-color:#78AEEC;stop-opacity:0.4402"></stop>
		<stop offset="0.3551" style="stop-color:#609FE8;stop-opacity:0.3869"></stop>
		<stop offset="0.4543" style="stop-color:#4C94E5;stop-opacity:0.3274"></stop>
		<stop offset="0.5699" style="stop-color:#3F8CE3;stop-opacity:0.2581"></stop>
		<stop offset="0.7167" style="stop-color:#3787E2;stop-opacity:0.17"></stop>
		<stop offset="1" style="stop-color:#3586E2;stop-opacity:0"></stop>
	</linearGradient>
	<path style="fill:url(#SVGID_00000074428825129884190230000016161564812673653396_);" d="M3,11.2L3,11.2v38.1l6.7,5.1"></path>
	<g>
		<g>
			
				<linearGradient id="SVGID_00000165203229283880162230000015927307948743881113_" gradientUnits="userSpaceOnUse" x1="40.7313" y1="25.9074" x2="40.7313" y2="15.5449" gradientTransform="matrix(1 0 0 -1 0 56)">
				<stop offset="0" style="stop-color:#375D81"></stop>
				<stop offset="3.000000e-03" style="stop-color:#3D6386"></stop>
				<stop offset="2.450000e-02" style="stop-color:#6686A5"></stop>
				<stop offset="4.640000e-02" style="stop-color:#88A3BF"></stop>
				<stop offset="6.870000e-02" style="stop-color:#A2BAD3"></stop>
				<stop offset="9.150000e-02" style="stop-color:#B5CAE2"></stop>
				<stop offset="0.1151" style="stop-color:#C0D4EA"></stop>
				<stop offset="0.1407" style="stop-color:#C4D7ED"></stop>
				<stop offset="0.3989" style="stop-color:#E1E6FA"></stop>
				<stop offset="0.7407" style="stop-color:#ABC8E2"></stop>
				<stop offset="0.7812" style="stop-color:#A5C3DD"></stop>
				<stop offset="0.8333" style="stop-color:#95B4D0"></stop>
				<stop offset="0.8917" style="stop-color:#7B9CBA"></stop>
				<stop offset="0.9543" style="stop-color:#567A9B"></stop>
				<stop offset="1" style="stop-color:#375D81"></stop>
			</linearGradient>
			<path style="fill:url(#SVGID_00000165203229283880162230000015927307948743881113_);" d="M39,39.1c-0.1-1.3,0-2.5,0.1-3.7
				l0.1-0.7c0.1-0.8,0.2-1.5,0.2-2.5c0-0.5,0-0.9,0-1.2c0-0.2,0-0.4-0.1-0.6l0-0.1h2.9l0,0.1c-0.1,0.6-0.1,1.2-0.1,1.8
				c0,1,0.1,1.8,0.2,2.5l0.1,0.7c0.1,1.2,0.2,2.4,0.2,3.6l0,0.1L39,39.1L39,39.1z"></path>
			<path class="st27" d="M42.1,30.4c0,0.4-0.1,1-0.1,1.8c0,1.3,0.1,2.2,0.2,3.2c0.1,0.8,0.2,2.1,0.2,3.6H39c0-1.5,0.1-2.8,0.2-3.6
				c0.1-1,0.3-1.9,0.2-3.2c0-0.5,0-0.9,0-1.2c0-0.2,0-0.4-0.1-0.6L42.1,30.4 M42.2,30.3h-0.2h-2.7h-0.2l0,0.2c0,0.2,0,0.4,0.1,0.6
				c0,0.4,0,0.8,0,1.2c0,1-0.1,1.8-0.2,2.5c0,0.2,0,0.4-0.1,0.7c-0.1,1.2-0.2,2.4-0.2,3.6l0,0.1H39h3.4h0.1l0-0.1
				c0-1.2,0-2.5-0.2-3.6c0-0.2,0-0.4-0.1-0.7c-0.1-0.8-0.2-1.5-0.2-2.5c0-0.6,0-1.2,0.1-1.8L42.2,30.3L42.2,30.3z" style="fill: #80AECE;"></path>
		</g>
		<g>
			<g>
				
					<linearGradient id="SVGID_00000017495855377061028370000013369987695676001684_" gradientUnits="userSpaceOnUse" x1="40.7152" y1="18.0774" x2="40.7152" y2="-1.3696" gradientTransform="matrix(1 0 0 -1 0 56)">
					<stop offset="0" style="stop-color:#4EC7F4"></stop>
					<stop offset="0.1301" style="stop-color:#45B1E9"></stop>
					<stop offset="0.3884" style="stop-color:#348CD7"></stop>
					<stop offset="0.6278" style="stop-color:#2970CA"></stop>
					<stop offset="0.8392" style="stop-color:#2260C2"></stop>
					<stop offset="1" style="stop-color:#1F5ABF"></stop>
				</linearGradient>
				<path style="fill:url(#SVGID_00000017495855377061028370000013369987695676001684_);" d="M40.8,54.4l-0.2,0c0,0-0.3,0-0.3,0
					c-0.3,0-0.9,0-1.6-0.2c-0.2,0-0.5-0.1-0.6-0.4c0-0.1,0-0.2,0-0.3c0-0.1,0.1-0.2,0.1-0.2c0.4-0.8,0.7-5.2,0.8-7.9
					c0-0.9,0-1.7-0.1-2.6c0-0.3-0.1-0.5-0.1-0.7c0-0.2,0-0.3-0.1-0.6c-0.1-0.9-0.1-1.9,0-2.9l0,0c0,0,0-0.1,0.1-0.2
					c0,0,0.1-0.1,0.1-0.1l1.7,0l1.7,0c0.1,0,0.1,0,0.1,0.1c0.1,0.1,0.1,0.2,0.1,0.3c0.1,1,0.1,2,0,2.9c0,0.2,0,0.4-0.1,0.6
					c0,0.2-0.1,0.4-0.1,0.7c-0.1,0.9-0.1,1.7-0.1,2.6c0.1,2.8,0.4,7.2,0.8,7.9c0.1,0.2,0.1,0.3,0.1,0.4c-0.1,0.2-0.4,0.3-0.6,0.4
					c-0.7,0.2-1.3,0.2-1.5,0.2L40.8,54.4z"></path>
				<path class="st27" d="M40.7,38.5c0.3,0,0.5,0,0.8,0h0c0.3,0,0.6,0,0.9,0c0,0,0.1,0,0.1,0.1c0.1,0.1,0.1,0.2,0.1,0.2
					c0.1,1.2,0.1,2.2,0,2.9c-0.1,0.5-0.1,0.7-0.2,1.3c-0.1,0.9-0.1,1.7-0.1,2.6c0.1,2.7,0.4,7.2,0.8,8c0,0,0.1,0.2,0.1,0.4
					c-0.1,0.2-0.3,0.3-0.5,0.3c-0.7,0.2-1.3,0.2-1.5,0.2c-0.1,0-0.1,0-0.1,0c-0.1,0-0.3,0-0.4,0c-0.1,0-0.3,0-0.4,0c0,0,0,0-0.1,0
					c-0.2,0-0.8,0-1.5-0.2c-0.2,0-0.4-0.1-0.5-0.3c0-0.1,0-0.1,0-0.2c0-0.1,0.1-0.1,0.1-0.2c0,0,0,0,0,0c0.4-0.8,0.7-5.3,0.8-7.9
					c0-1,0-1.7-0.1-2.6c-0.1-0.6-0.1-0.7-0.2-1.3c-0.1-0.7-0.1-1.7,0-2.9c0,0,0-0.1,0.1-0.2c0,0,0.1,0,0.1-0.1
					C39.6,38.5,40.2,38.5,40.7,38.5 M40.7,38.3L40.7,38.3L40.7,38.3l-1.2,0l-0.5,0h0l0,0c0,0-0.1,0-0.1,0.1
					c-0.1,0.1-0.1,0.2-0.1,0.3c-0.1,1-0.1,2,0,2.9c0,0.2,0,0.4,0.1,0.6c0,0.2,0.1,0.4,0.1,0.7c0.1,0.9,0.1,1.7,0.1,2.6
					c-0.1,2.8-0.4,7.1-0.8,7.9c0,0.1-0.1,0.1-0.1,0.2c0,0.1,0,0.2,0,0.3c0.1,0.3,0.5,0.4,0.6,0.4c0.7,0.2,1.3,0.2,1.5,0.2
					c0.1,0,0.1,0,0.1,0l0.3,0l0.1,0l0,0l0.3,0c0,0,0,0,0.1,0c0.2,0,0.8,0,1.5-0.2c0.2,0,0.5-0.1,0.6-0.4c0-0.1,0-0.3-0.1-0.5
					c-0.4-0.7-0.7-5.1-0.8-7.9c0-0.9,0-1.7,0.1-2.6c0-0.3,0.1-0.5,0.1-0.7c0-0.2,0-0.3,0.1-0.6c0.1-0.9,0.1-1.9,0-2.9
					c0-0.1,0-0.2-0.1-0.3c0-0.1-0.1-0.1-0.1-0.1l0,0h0l-0.4,0l-0.4,0l-0.4,0H40.7L40.7,38.3z" style="fill: #80AECE;"></path>
			</g>
		</g>
		<g>
			
				<linearGradient id="SVGID_00000080906058260594682570000014073115705743209345_" gradientUnits="userSpaceOnUse" x1="48.545" y1="27.7155" x2="33.9255" y2="27.7155" gradientTransform="matrix(1 0 0 -1 0 56)">
				<stop offset="8.309999e-02" style="stop-color:#C4D7ED"></stop>
				<stop offset="0.3989" style="stop-color:#E1E6FA"></stop>
				<stop offset="0.7407" style="stop-color:#ABC8E2"></stop>
				<stop offset="0.7595" style="stop-color:#A5C3DD"></stop>
				<stop offset="0.7837" style="stop-color:#95B4D0"></stop>
				<stop offset="0.8109" style="stop-color:#7B9CBA"></stop>
				<stop offset="0.84" style="stop-color:#567A9B"></stop>
				<stop offset="0.8612" style="stop-color:#375D81"></stop>
				<stop offset="0.9812" style="stop-color:#375D81"></stop>
				<stop offset="1" style="stop-color:#375D81"></stop>
			</linearGradient>
			<path style="fill:url(#SVGID_00000080906058260594682570000014073115705743209345_);" d="M48.2,30.9l-0.1,0
				c-0.1-0.1-0.2-0.2-0.2-0.3c-0.1-0.2-0.3-0.4-0.4-0.6c-0.4-0.4-0.9-0.7-1.6-0.8c-0.1,0-0.3,0-0.5,0c-0.3,0-0.5,0-0.8,0.1
				c-0.7,0.2-1.2,0.7-1.4,1c-0.3,0.2-0.5,0.3-0.8,0.4c-0.4,0.1-0.7,0.1-1.1,0.1h-0.1c-1.3,0-2,0-2.3-0.3c-0.5-0.4-1-0.7-1-0.7
				c-0.1-0.1-0.2-0.2-0.4-0.2c0,0-0.1,0-0.1,0c-0.2,0-0.5,0.1-0.6,0.2c-0.1,0-0.1,0.1-0.2,0.1l-0.1,0.1l0-0.2l0-3.3l0-0.2l0.1,0
				c0.1,0.1,0.2,0.1,0.3,0.2c0.3,0.2,0.4,0.2,0.5,0.2c0.2,0,0.3-0.1,0.7-0.3c0.2-0.1,0.4-0.2,0.5-0.3c0.1-0.1,0.2-0.1,0.3-0.2
				c0.4-0.2,0.7-0.2,1.1-0.2c0.3,0,0.5,0,0.8,0c1.7,0,2.6,0.2,2.6,0.2c1.4,0.3,2,0.4,2.8,0.9c0.3,0.2,0.9,0.5,1.5,1.2
				c0.4,0.4,0.6,0.9,0.8,1.4c0.1,0.4,0.2,0.9,0.2,1.3C48.4,30.7,48.3,30.8,48.2,30.9L48.2,30.9L48.2,30.9L48.2,30.9z"></path>
			<path class="st27" d="M40.6,25.8c1.7,0,2.6,0.2,2.6,0.2c1.3,0.3,2,0.4,2.8,0.8c0.3,0.2,0.9,0.5,1.5,1.1c0.3,0.4,0.6,0.8,0.8,1.4
				c0.2,0.5,0.2,1,0.2,1.3c0,0.1-0.1,0.2-0.2,0.2c0,0,0,0,0,0c0,0-0.1,0-0.1,0c-0.1,0-0.2-0.1-0.2-0.3c-0.1-0.2-0.2-0.4-0.4-0.6
				c-0.6-0.6-1.3-0.8-1.6-0.8c-0.1,0-0.3,0-0.5,0c-0.2,0-0.5,0-0.8,0.1c-0.8,0.3-1.2,0.8-1.4,1c-0.2,0.1-0.4,0.2-0.8,0.3
				c-0.3,0.1-0.6,0.1-1,0.1c0,0-0.1,0-0.1,0c-1.3,0-1.9,0-2.3-0.3c-0.5-0.4-1-0.7-1-0.7c-0.1-0.1-0.2-0.2-0.4-0.2c0,0,0,0,0,0
				c-0.1,0-0.1,0-0.2,0c-0.3,0-0.5,0.1-0.6,0.2c-0.1,0-0.1,0.1-0.2,0.1c0,0,0,0,0,0v-3.3c0,0,0-0.1,0-0.1c0.1,0.1,0.2,0.1,0.3,0.2
				c0.3,0.2,0.4,0.2,0.5,0.2c0,0,0,0,0,0c0,0,0,0,0,0c0.1,0,0.3-0.1,0.7-0.3c0.5-0.3,0.5-0.4,0.7-0.5c0.3-0.2,0.7-0.2,1-0.2
				C40.1,25.8,40.4,25.8,40.6,25.8 M40.6,25.6c-0.2,0-0.5,0-0.8,0c-0.4,0-0.7,0-1.1,0.2c-0.1,0.1-0.2,0.1-0.3,0.2
				c-0.1,0.1-0.2,0.2-0.5,0.3c-0.4,0.2-0.5,0.3-0.6,0.3l0,0h0c-0.1,0-0.2,0-0.5-0.2c-0.1-0.1-0.2-0.1-0.3-0.2l-0.3-0.2l0.1,0.4
				c0,0,0,0.1,0,0.1v3.3V30l0.2-0.1c0.1-0.1,0.1-0.1,0.2-0.1c0.1-0.1,0.3-0.2,0.6-0.2c0,0,0.1,0,0.1,0c0.1,0,0.2,0.1,0.3,0.2
				c0,0,0.5,0.4,1,0.7c0.4,0.3,1,0.3,2.4,0.3h0.1c0.4,0,0.7,0,1.1-0.1c0.3-0.1,0.5-0.2,0.8-0.4l0,0l0,0c0.2-0.3,0.6-0.7,1.3-1
				c0.3-0.1,0.5-0.1,0.8-0.1c0.2,0,0.4,0,0.5,0c0.2,0,0.9,0.2,1.5,0.8c0.2,0.2,0.3,0.4,0.4,0.6c0,0.1,0.1,0.3,0.2,0.3
				c0,0,0.1,0,0.1,0h0l0,0c0.1,0,0.2-0.1,0.3-0.3c0-0.5,0-0.9-0.2-1.4c-0.2-0.5-0.4-1-0.8-1.4c-0.5-0.6-1.2-1-1.5-1.2
				c-0.8-0.5-1.5-0.6-2.9-0.9C43.1,25.8,42.3,25.6,40.6,25.6L40.6,25.6z" style="fill: #80AECE;"></path>
		</g>
		<g>
			
				<linearGradient id="SVGID_00000081633345557990309000000000358388692386322836_" gradientUnits="userSpaceOnUse" x1="33.4965" y1="29.6241" x2="40.603" y2="22.5177" gradientTransform="matrix(1 0 0 -1 0 56)">
				<stop offset="0" style="stop-color:#E1E6FA"></stop>
				<stop offset="0.3192" style="stop-color:#C4D7ED"></stop>
				<stop offset="0.5666" style="stop-color:#ABC8E2"></stop>
				<stop offset="1" style="stop-color:#375D81"></stop>
			</linearGradient>
			<path style="fill:url(#SVGID_00000081633345557990309000000000358388692386322836_);" d="M34.4,30.5c-0.4,0-0.8-0.3-0.8-0.8v-3.3
				c0-0.4,0.3-0.8,0.8-0.8h1.7c0.1,0,0.1,0,0.2,0c0.3,0.1,0.5,0.3,0.6,0.6c0,0,0,0.1,0,0.1v3.3c0,0.4-0.3,0.8-0.8,0.8L34.4,30.5
				L34.4,30.5z"></path>
			<path class="st27" d="M36.1,25.8c0.1,0,0.1,0,0.1,0c0.3,0.1,0.5,0.3,0.5,0.6c0,0,0,0.1,0,0.1v3.3c0,0,0,0,0,0
				c0,0.4-0.3,0.7-0.7,0.7h-1.7c-0.4,0-0.7-0.3-0.7-0.7v-3.3c0-0.4,0.3-0.7,0.7-0.7H36.1 M36.1,25.7h-1.7c-0.5,0-0.8,0.4-0.8,0.8
				v3.3c0,0.5,0.4,0.8,0.8,0.8h1.7c0.4,0,0.8-0.3,0.8-0.8l0-3.3c0,0,0-0.1,0-0.1c-0.1-0.3-0.3-0.6-0.6-0.7
				C36.2,25.7,36.2,25.7,36.1,25.7L36.1,25.7z" style="fill: #80AECE;"></path>
		</g>
		
			<linearGradient id="SVGID_00000025444412130291690640000009815621615943772841_" gradientUnits="userSpaceOnUse" x1="46.9322" y1="12.0984" x2="35.5789" y2="6.364" gradientTransform="matrix(1 0 0 -1 0 56)">
			<stop offset="0" style="stop-color:#FFFFFF;stop-opacity:0.6"></stop>
			<stop offset="0.4795" style="stop-color:#97C1F0;stop-opacity:0.3123"></stop>
			<stop offset="0.8353" style="stop-color:#5197E6;stop-opacity:9.880000e-02"></stop>
			<stop offset="1" style="stop-color:#3586E2;stop-opacity:0"></stop>
		</linearGradient>
		<path style="fill:url(#SVGID_00000025444412130291690640000009815621615943772841_);" d="M43.2,53.9c-0.1,0.2-0.3,0.3-0.5,0.3
			c-0.9,0.2-1.6,0.2-1.6,0.2c-0.1,0-0.3,0-0.4,0c-0.1,0-0.3,0-0.4,0c0,0-0.7,0-1.6-0.2c-0.2,0-0.4-0.1-0.5-0.3c0-0.1,0-0.1,0-0.2
			c1.5,0.6,2.9,0.5,3.5-0.3c0-0.1,0.1-0.1,0.1-0.2c0.2-0.3,0.2-0.6,0.2-0.9c-0.5-5.2-0.5-7.4-0.4-8.5c0.1-1,0.1-1.5,0.1-2.5
			c0-1.4-0.1-1.8-0.1-2c-0.1-0.3-0.2-0.6-0.3-0.8h0c0.3,0,0.6,0,0.9,0c0,0,0.1,0,0.1,0.1c0.1,0.1,0.1,0.2,0.1,0.2
			c0.1,1.2,0.1,2.2,0,2.9c-0.1,0.5-0.1,0.7-0.2,1.3c-0.1,0.9-0.1,1.7-0.1,2.6c0.1,2.7,0.4,7.2,0.8,8C43.1,53.5,43.2,53.7,43.2,53.9z"></path>
	</g>
	<g>
		<g>
			
				<linearGradient id="SVGID_00000014614863948292918030000005247176387096092330_" gradientUnits="userSpaceOnUse" x1="49.5675" y1="26.0818" x2="49.936" y2="-6.9038" gradientTransform="matrix(1 0 0 -1 0 56)">
				<stop offset="8.309999e-02" style="stop-color:#C4D7ED"></stop>
				<stop offset="0.3989" style="stop-color:#E1E6FA"></stop>
				<stop offset="0.7407" style="stop-color:#ABC8E2"></stop>
				<stop offset="0.7595" style="stop-color:#A5C3DD"></stop>
				<stop offset="0.7837" style="stop-color:#95B4D0"></stop>
				<stop offset="0.8109" style="stop-color:#7B9CBA"></stop>
				<stop offset="0.84" style="stop-color:#567A9B"></stop>
				<stop offset="0.8612" style="stop-color:#375D81"></stop>
				<stop offset="0.9812" style="stop-color:#375D81"></stop>
				<stop offset="1" style="stop-color:#375D81"></stop>
			</linearGradient>
			<path style="fill:url(#SVGID_00000014614863948292918030000005247176387096092330_);" d="M49.8,54.4c-1.6,0-2.8-1.3-2.8-2.8
				c0-0.7,0.2-1.3,0.7-1.8l0-18.4H52v18.5c0.4,0.5,0.6,1.1,0.6,1.8C52.6,53.1,51.4,54.4,49.8,54.4z M49.8,50.4
				c-0.6,0-1.1,0.5-1.1,1.1s0.5,1.1,1.1,1.1s1.1-0.5,1.1-1.1S50.4,50.4,49.8,50.4z"></path>
			<path class="st27" d="M51.9,31.4v18.4c0.4,0.5,0.7,1.1,0.7,1.8c0,1.5-1.2,2.7-2.7,2.7s-2.7-1.2-2.7-2.7c0-0.7,0.2-1.3,0.7-1.8
				V31.4H51.9 M49.8,52.7c0.7,0,1.2-0.5,1.2-1.2s-0.5-1.2-1.2-1.2c-0.7,0-1.2,0.5-1.2,1.2S49.1,52.7,49.8,52.7 M52.1,31.2h-0.2h-4.2
				h-0.2v0.2v18.3c-0.4,0.5-0.7,1.2-0.7,1.8c0,1.6,1.3,2.9,2.9,2.9s2.9-1.3,2.9-2.9c0-0.7-0.2-1.3-0.7-1.8V31.4L52.1,31.2L52.1,31.2
				z M49.8,52.6c-0.6,0-1-0.5-1-1s0.5-1,1-1s1,0.5,1,1C50.8,52.1,50.4,52.6,49.8,52.6L49.8,52.6z" style="fill: #80AECE;"></path>
		</g>
		
			<linearGradient id="SVGID_00000003797972780261831220000000325090250486228612_" gradientUnits="userSpaceOnUse" x1="48.4727" y1="14.9725" x2="52.2917" y2="14.9725" gradientTransform="matrix(1 0 0 -1 0 56)">
			<stop offset="0" style="stop-color:#1F5ABF"></stop>
			<stop offset="7.230000e-02" style="stop-color:#2E7CCF"></stop>
			<stop offset="0.1573" style="stop-color:#3C9CDF"></stop>
			<stop offset="0.239" style="stop-color:#46B4EB"></stop>
			<stop offset="0.3151" style="stop-color:#4CC2F2"></stop>
			<stop offset="0.3801" style="stop-color:#4EC7F4"></stop>
			<stop offset="0.6651" style="stop-color:#358ED8"></stop>
			<stop offset="0.8845" style="stop-color:#2568C6"></stop>
			<stop offset="1" style="stop-color:#1F5ABF"></stop>
		</linearGradient>
		<path style="fill:url(#SVGID_00000003797972780261831220000000325090250486228612_);" d="M49.1,47.3V34.8c0-0.4,0.3-0.7,0.7-0.7
			h0.2c0.4,0,0.7,0.3,0.7,0.7v12.5c0,0.4-0.3,0.7-0.7,0.7h-0.2C49.3,47.9,49.1,47.6,49.1,47.3z"></path>
		<g>
			<g>
				
					<linearGradient id="SVGID_00000043435785525326778470000005166421724315547061_" gradientUnits="userSpaceOnUse" x1="49.809" y1="35.9338" x2="49.809" y2="18.9256" gradientTransform="matrix(1 0 0 -1 0 56)">
					<stop offset="8.309999e-02" style="stop-color:#C4D7ED"></stop>
					<stop offset="0.3989" style="stop-color:#E1E6FA"></stop>
					<stop offset="0.6877" style="stop-color:#ABC8E2"></stop>
					<stop offset="0.7148" style="stop-color:#A5C3DD"></stop>
					<stop offset="0.7497" style="stop-color:#95B4D0"></stop>
					<stop offset="0.7888" style="stop-color:#7B9CBA"></stop>
					<stop offset="0.8306" style="stop-color:#567A9B"></stop>
					<stop offset="0.8612" style="stop-color:#375D81"></stop>
					<stop offset="0.9812" style="stop-color:#375D81"></stop>
					<stop offset="1" style="stop-color:#375D81"></stop>
				</linearGradient>
				<path style="fill:url(#SVGID_00000043435785525326778470000005166421724315547061_);" d="M49.8,32.9c-2.5,0-4.6-2-4.6-4.6
					c0-1.6,0.9-3.1,2.3-4l0,0l0.1,0c0.1,0,0.2,0.1,0.2,0.2v4c0,0.4,0.3,0.7,0.7,0.7h2.5c0.4,0,0.7-0.3,0.7-0.7v-4
					c0-0.1,0.1-0.2,0.2-0.2h0l0.1,0c1.4,0.8,2.3,2.3,2.3,4C54.4,30.8,52.4,32.8,49.8,32.9L49.8,32.9z"></path>
				<path class="st27" d="M52,24.4C52,24.4,52.1,24.4,52,24.4c1.4,0.8,2.3,2.2,2.3,3.9c0,2.5-2,4.4-4.4,4.5c0,0,0,0-0.1,0
					c-2.5,0-4.5-2-4.5-4.5c0-1.7,0.9-3.1,2.2-3.9c0,0,0,0,0.1,0c0.1,0,0.1,0.1,0.1,0.1v4c0,0.4,0.4,0.8,0.8,0.8h2.5
					c0.4,0,0.8-0.4,0.8-0.8v-4C51.9,24.5,51.9,24.4,52,24.4 M52,24.2c-0.2,0-0.3,0.1-0.3,0.3v4c0,0.3-0.3,0.6-0.6,0.6h-2.5
					c-0.3,0-0.6-0.3-0.6-0.6v-4c0-0.2-0.1-0.3-0.3-0.3c-0.1,0-0.1,0-0.2,0c-1.4,0.8-2.3,2.4-2.3,4.1c0,2.6,2.1,4.6,4.7,4.6l0.1,0
					c2.5,0,4.6-2.1,4.6-4.7c0-1.6-0.9-3.2-2.3-4C52.1,24.2,52.1,24.2,52,24.2L52,24.2z" style="fill: #80AECE;"></path>
			</g>
		</g>
	</g>
</g>
</svg>