<?xml version="1.0" encoding="utf-8"?>
<!-- Generator: Adobe Illustrator 26.0.1, SVG Export Plug-In . SVG Version: 6.00 Build 0)  -->
<svg version="1.1" id="Layer_1" xmlns="http://www.w3.org/2000/svg" xmlns:xlink="http://www.w3.org/1999/xlink" x="0px" y="0px"
	 viewBox="0 0 128 128" style="enable-background:new 0 0 128 128;" xml:space="preserve">
<g>
	<g>
		<linearGradient id="SVGID_1_" gradientUnits="userSpaceOnUse" x1="8.148" y1="76.1574" x2="96.047" y2="79.0631">
			<stop  offset="0" style="stop-color:#9768D1"/>
			<stop  offset="0.2358" style="stop-color:#8055B6"/>
			<stop  offset="0.5341" style="stop-color:#68439B"/>
			<stop  offset="0.7986" style="stop-color:#5A378B"/>
			<stop  offset="1" style="stop-color:#553385"/>
		</linearGradient>
		<path style="fill:url(#SVGID_1_);" d="M7.829,25.783v89.294l15.758,11.954V34.658L7.829,25.783L7.829,25.783z"/>
		
			<linearGradient id="SVGID_00000171698432741116806530000011399999277081552297_" gradientUnits="userSpaceOnUse" x1="88.5477" y1="15.6779" x2="86.0389" y2="34.3795">
			<stop  offset="0" style="stop-color:#9768D1"/>
			<stop  offset="0.3565" style="stop-color:#7B51B1"/>
			<stop  offset="0.7702" style="stop-color:#5F3B91"/>
			<stop  offset="1" style="stop-color:#553385"/>
		</linearGradient>
		<polygon style="fill:url(#SVGID_00000171698432741116806530000011399999277081552297_);" points="96.761,25.782 96.761,65.63 
			73.395,65.63 73.395,17.452 		"/>
		<polygon style="fill:none;" points="96.76,25.783 23.587,34.658 23.587,127.031 96.76,109.825 		"/>
		<polygon style="fill:none;" points="96.76,25.783 23.587,34.658 23.587,127.031 96.76,109.825 		"/>
		
			<linearGradient id="SVGID_00000041266794964884522530000008552916517971109567_" gradientUnits="userSpaceOnUse" x1="3.1339" y1="17.3277" x2="82.924" y2="7.1457">
			<stop  offset="0" style="stop-color:#9768D1"/>
			<stop  offset="0.3565" style="stop-color:#7B51B1"/>
			<stop  offset="0.7702" style="stop-color:#5F3B91"/>
			<stop  offset="1" style="stop-color:#553385"/>
		</linearGradient>
		<polygon style="fill:url(#SVGID_00000041266794964884522530000008552916517971109567_);" points="73.395,17.452 20.228,24.582 
			11.271,25.782 7.469,12.985 5.837,7.49 70.678,0.969 		"/>
		<polygon style="fill:none;" points="96.76,25.783 23.587,34.658 23.587,127.031 96.76,109.825 		"/>
		
			<linearGradient id="SVGID_00000029006550806848987340000013493839216360088966_" gradientUnits="userSpaceOnUse" x1="48.7049" y1="40.2684" x2="47.2285" y2="25.2577">
			<stop  offset="0" style="stop-color:#9768D1"/>
			<stop  offset="0.3565" style="stop-color:#7B51B1"/>
			<stop  offset="0.7702" style="stop-color:#5F3B91"/>
			<stop  offset="1" style="stop-color:#553385"/>
		</linearGradient>
		<polygon style="fill:url(#SVGID_00000029006550806848987340000013493839216360088966_);" points="73.395,17.452 73.395,28.617 
			23.588,34.658 20.228,24.582 		"/>
		
			<linearGradient id="SVGID_00000132073900690456980640000013874333574795248770_" gradientUnits="userSpaceOnUse" x1="96.7045" y1="28.1025" x2="81.9792" y2="-2.3432">
			<stop  offset="0" style="stop-color:#9768D1"/>
			<stop  offset="0.3565" style="stop-color:#7B51B1"/>
			<stop  offset="0.7702" style="stop-color:#5F3B91"/>
			<stop  offset="1" style="stop-color:#553385"/>
		</linearGradient>
		<polygon style="fill:url(#SVGID_00000132073900690456980640000013874333574795248770_);" points="82.633,0.969 104.368,6.403 
			96.754,25.783 73.395,17.452 		"/>
		
			<linearGradient id="SVGID_00000057124212653813253760000003460200305846842003_" gradientUnits="userSpaceOnUse" x1="0.32" y1="9.9066" x2="83.9376" y2="9.0948">
			<stop  offset="0" style="stop-color:#FFFFFF;stop-opacity:0.6"/>
			<stop  offset="0.0409" style="stop-color:#F1EDF6;stop-opacity:0.5755"/>
			<stop  offset="0.1451" style="stop-color:#D2C4E2;stop-opacity:0.5129"/>
			<stop  offset="0.2557" style="stop-color:#B7A1D1;stop-opacity:0.4466"/>
			<stop  offset="0.3719" style="stop-color:#A184C3;stop-opacity:0.3769"/>
			<stop  offset="0.4956" style="stop-color:#906EB9;stop-opacity:0.3026"/>
			<stop  offset="0.6304" style="stop-color:#845EB1;stop-opacity:0.2218"/>
			<stop  offset="0.7843" style="stop-color:#7D55AC;stop-opacity:0.1294"/>
			<stop  offset="1" style="stop-color:#7B52AB;stop-opacity:0"/>
		</linearGradient>
		<polygon style="fill:url(#SVGID_00000057124212653813253760000003460200305846842003_);" points="8.56,16.658 7.469,12.985 
			5.837,7.49 70.678,0.969 73.395,17.452 		"/>
		<polyline style="fill:none;stroke:#6493D4;stroke-width:0.1115;stroke-miterlimit:10;" points="28.861,37.625 27.82,36.346 
			26.189,34.342 		"/>
		
			<linearGradient id="SVGID_00000129171432599141337080000015246874252881909949_" gradientUnits="userSpaceOnUse" x1="29.4338" y1="35.0125" x2="-9.5022" y2="2.9641">
			<stop  offset="0" style="stop-color:#9768D1"/>
			<stop  offset="0.3565" style="stop-color:#7B51B1"/>
			<stop  offset="0.7702" style="stop-color:#5F3B91"/>
			<stop  offset="1" style="stop-color:#553385"/>
		</linearGradient>
		<polygon style="fill:url(#SVGID_00000129171432599141337080000015246874252881909949_);" points="23.588,34.658 7.829,25.782 
			2.396,11.113 7.469,12.985 17.609,16.727 20.228,24.582 		"/>
		<polygon style="fill:none;" points="96.76,25.783 23.587,34.658 23.587,127.031 96.76,109.825 		"/>
		
			<linearGradient id="SVGID_00000084522225651150851960000016007928986221769406_" gradientUnits="userSpaceOnUse" x1="40.0736" y1="40.9155" x2="80.3909" y2="112.1064">
			<stop  offset="0" style="stop-color:#9768D1"/>
			<stop  offset="0.2358" style="stop-color:#8055B6"/>
			<stop  offset="0.5341" style="stop-color:#68439B"/>
			<stop  offset="0.7986" style="stop-color:#5A378B"/>
			<stop  offset="1" style="stop-color:#553385"/>
		</linearGradient>
		<polygon style="fill:url(#SVGID_00000084522225651150851960000016007928986221769406_);" points="96.76,25.783 23.587,34.658 
			23.587,127.031 96.76,109.825 		"/>
		<polygon style="fill:none;" points="96.76,25.783 23.587,34.658 23.587,127.031 96.76,109.825 		"/>
		
			<linearGradient id="SVGID_00000066493183313635279510000006621988836432316846_" gradientUnits="userSpaceOnUse" x1="87.0343" y1="17.9473" x2="-2.7841" y2="103.0903">
			<stop  offset="0" style="stop-color:#FFFFFF;stop-opacity:0.6"/>
			<stop  offset="0.0083" style="stop-color:#FBF9FC;stop-opacity:0.595"/>
			<stop  offset="0.073" style="stop-color:#DDD2E9;stop-opacity:0.5562"/>
			<stop  offset="0.1444" style="stop-color:#C2AFD8;stop-opacity:0.5134"/>
			<stop  offset="0.2218" style="stop-color:#AC92CA;stop-opacity:0.4669"/>
			<stop  offset="0.3074" style="stop-color:#9A7BBF;stop-opacity:0.4156"/>
			<stop  offset="0.4045" style="stop-color:#8C68B6;stop-opacity:0.3573"/>
			<stop  offset="0.5199" style="stop-color:#825CB0;stop-opacity:0.288"/>
			<stop  offset="0.6717" style="stop-color:#7D54AC;stop-opacity:0.197"/>
			<stop  offset="1" style="stop-color:#7B52AB;stop-opacity:0"/>
		</linearGradient>
		<path style="fill:url(#SVGID_00000066493183313635279510000006621988836432316846_);" d="M96.76,25.783l-73.174,8.875v63.533
			l36.769-16.362C82.495,71.978,96.76,50.016,96.76,25.783L96.76,25.783z"/>
		
			<linearGradient id="SVGID_00000140702168163017792930000001872316790068492720_" gradientUnits="userSpaceOnUse" x1="2.8025" y1="12.1363" x2="23.6907" y2="41.4047">
			<stop  offset="0" style="stop-color:#FFFFFF;stop-opacity:0.6"/>
			<stop  offset="0.0409" style="stop-color:#F1EDF6;stop-opacity:0.5755"/>
			<stop  offset="0.1451" style="stop-color:#D2C4E2;stop-opacity:0.5129"/>
			<stop  offset="0.2557" style="stop-color:#B7A1D1;stop-opacity:0.4466"/>
			<stop  offset="0.3719" style="stop-color:#A184C3;stop-opacity:0.3769"/>
			<stop  offset="0.4956" style="stop-color:#906EB9;stop-opacity:0.3026"/>
			<stop  offset="0.6304" style="stop-color:#845EB1;stop-opacity:0.2218"/>
			<stop  offset="0.7843" style="stop-color:#7D55AC;stop-opacity:0.1294"/>
			<stop  offset="1" style="stop-color:#7B52AB;stop-opacity:0"/>
		</linearGradient>
		<polygon style="fill:url(#SVGID_00000140702168163017792930000001872316790068492720_);" points="23.588,34.658 7.829,25.782 
			2.396,11.113 		"/>
		
			<linearGradient id="SVGID_00000062904809842231542060000011546967187194647953_" gradientUnits="userSpaceOnUse" x1="104.2261" y1="4.8444" x2="73.3464" y2="10.7878">
			<stop  offset="0" style="stop-color:#FFFFFF;stop-opacity:0.6"/>
			<stop  offset="0.0409" style="stop-color:#F1EDF6;stop-opacity:0.5755"/>
			<stop  offset="0.1451" style="stop-color:#D2C4E2;stop-opacity:0.5129"/>
			<stop  offset="0.2557" style="stop-color:#B7A1D1;stop-opacity:0.4466"/>
			<stop  offset="0.3719" style="stop-color:#A184C3;stop-opacity:0.3769"/>
			<stop  offset="0.4956" style="stop-color:#906EB9;stop-opacity:0.3026"/>
			<stop  offset="0.6304" style="stop-color:#845EB1;stop-opacity:0.2218"/>
			<stop  offset="0.7843" style="stop-color:#7D55AC;stop-opacity:0.1294"/>
			<stop  offset="1" style="stop-color:#7B52AB;stop-opacity:0"/>
		</linearGradient>
		<polygon style="fill:url(#SVGID_00000062904809842231542060000011546967187194647953_);" points="82.633,0.969 104.368,6.403 
			101.628,13.376 76.406,12.079 		"/>
		
			<linearGradient id="SVGID_00000096782225202316934970000003890582126085876888_" gradientUnits="userSpaceOnUse" x1="16.1886" y1="43.648" x2="114.0547" y2="28.0736">
			<stop  offset="0" style="stop-color:#9768D1"/>
			<stop  offset="0.3565" style="stop-color:#7B51B1"/>
			<stop  offset="0.7702" style="stop-color:#5F3B91"/>
			<stop  offset="1" style="stop-color:#553385"/>
		</linearGradient>
		<polygon style="fill:url(#SVGID_00000096782225202316934970000003890582126085876888_);" points="109.258,36.65 96.761,38.359 
			73.395,41.552 33.73,46.974 23.588,34.658 73.395,28.617 96.761,25.782 		"/>
		
			<linearGradient id="SVGID_00000046309907515040158570000016540409516094129838_" gradientUnits="userSpaceOnUse" x1="22.5936" y1="34.5363" x2="106.1481" y2="32.2212">
			<stop  offset="0" style="stop-color:#FFFFFF;stop-opacity:0.6"/>
			<stop  offset="0.1164" style="stop-color:#E0D6EB;stop-opacity:0.5302"/>
			<stop  offset="0.251" style="stop-color:#C1AED8;stop-opacity:0.4494"/>
			<stop  offset="0.3898" style="stop-color:#A88DC7;stop-opacity:0.3661"/>
			<stop  offset="0.5316" style="stop-color:#9473BB;stop-opacity:0.281"/>
			<stop  offset="0.6774" style="stop-color:#8660B2;stop-opacity:0.1935"/>
			<stop  offset="0.83" style="stop-color:#7E56AD;stop-opacity:0.102"/>
			<stop  offset="1" style="stop-color:#7B52AB;stop-opacity:0"/>
		</linearGradient>
		<polygon style="fill:url(#SVGID_00000046309907515040158570000016540409516094129838_);" points="28.861,41.062 23.588,34.658 
			73.395,28.617 96.761,25.782 106.968,34.658 		"/>
		
			<linearGradient id="SVGID_00000082325983151479201550000010022820224347151789_" gradientUnits="userSpaceOnUse" x1="-3.8255" y1="18.1258" x2="37.0234" y2="201.4538">
			<stop  offset="0" style="stop-color:#FFFFFF;stop-opacity:0.6"/>
			<stop  offset="0.0714" style="stop-color:#E0D7EC;stop-opacity:0.5571"/>
			<stop  offset="0.1487" style="stop-color:#C5B4DA;stop-opacity:0.5108"/>
			<stop  offset="0.2337" style="stop-color:#AE95CC;stop-opacity:0.4598"/>
			<stop  offset="0.3264" style="stop-color:#9B7DC0;stop-opacity:0.4042"/>
			<stop  offset="0.4301" style="stop-color:#8D69B6;stop-opacity:0.342"/>
			<stop  offset="0.5507" style="stop-color:#835CB0;stop-opacity:0.2696"/>
			<stop  offset="0.7041" style="stop-color:#7D54AC;stop-opacity:0.1775"/>
			<stop  offset="1" style="stop-color:#7B52AB;stop-opacity:0"/>
		</linearGradient>
		<path style="fill:url(#SVGID_00000082325983151479201550000010022820224347151789_);" d="M7.829,25.783L7.829,25.783v89.294
			l15.758,11.954"/>
	</g>
	<g>
		<defs>
			<path id="SVGID_00000052106184026678909050000007255025427425436061_" d="M114.85,64.085c-14.342-14.342-37.594-14.342-51.936,0
				c-14.34,14.34-14.34,37.592,0,51.934c14.342,14.342,37.594,14.342,51.936,0C129.189,101.678,129.189,78.425,114.85,64.085z
				 M91.903,93.073c-1.667,1.665-4.376,1.665-6.044,0c-1.665-1.667-1.665-4.376,0-6.041c1.667-1.667,4.376-1.667,6.044,0
				C93.568,88.697,93.568,91.406,91.903,93.073z"/>
		</defs>
		<clipPath id="SVGID_00000080205478090162644370000004123712777279719101_">
			<use xlink:href="#SVGID_00000052106184026678909050000007255025427425436061_"  style="overflow:visible;"/>
		</clipPath>
		
			<linearGradient id="SVGID_00000043433364796543274860000000933976634885335967_" gradientUnits="userSpaceOnUse" x1="50.8374" y1="54.0233" x2="129.8284" y2="128.831">
			<stop  offset="0" style="stop-color:#E6E6E6"/>
			<stop  offset="0.2074" style="stop-color:#E9E9E9"/>
			<stop  offset="0.3682" style="stop-color:#F3F3F3"/>
			<stop  offset="0.4814" style="stop-color:#FFFFFF"/>
			<stop  offset="0.6048" style="stop-color:#F2F2F2"/>
			<stop  offset="0.7639" style="stop-color:#E9E9E9"/>
			<stop  offset="1" style="stop-color:#E6E6E6"/>
		</linearGradient>
		
			<circle style="clip-path:url(#SVGID_00000080205478090162644370000004123712777279719101_);fill:url(#SVGID_00000043433364796543274860000000933976634885335967_);" cx="88.881" cy="90.053" r="36.724"/>
		
			<linearGradient id="SVGID_00000114047357595811510800000008675139459839462063_" gradientUnits="userSpaceOnUse" x1="-4496.0249" y1="8776.0635" x2="-4372.9858" y2="8776.0635" gradientTransform="matrix(-0.7071 0.7071 -0.7071 -0.7071 3158.1504 9431.335)">
			<stop  offset="0" style="stop-color:#E6E6E6;stop-opacity:0"/>
			<stop  offset="0.2028" style="stop-color:#E3EBE9;stop-opacity:0.4077"/>
			<stop  offset="0.4558" style="stop-color:#DCFBF0;stop-opacity:0.9161"/>
			<stop  offset="0.4975" style="stop-color:#DAFEF2"/>
			<stop  offset="0.5509" style="stop-color:#DCFAF0;stop-opacity:0.8938"/>
			<stop  offset="0.7963" style="stop-color:#E3EBE9;stop-opacity:0.4054"/>
			<stop  offset="1" style="stop-color:#E6E6E6;stop-opacity:0"/>
		</linearGradient>
		
			<polygon style="clip-path:url(#SVGID_00000080205478090162644370000004123712777279719101_);fill:url(#SVGID_00000114047357595811510800000008675139459839462063_);" points="
			30.385,119.233 86.246,88.092 117.387,32.231 146.026,60.87 90.48,91.696 59.024,147.872 		"/>
		<path style="clip-path:url(#SVGID_00000080205478090162644370000004123712777279719101_);fill:none;" d="M62.915,64.084
			c-14.342,14.342-14.342,37.594,0,51.937c14.341,14.341,37.593,14.341,51.935-0.002c14.341-14.341,14.341-37.593,0-51.933
			C100.507,49.744,77.255,49.744,62.915,64.084z M91.903,93.073c-1.665,1.665-4.375,1.665-6.041,0c-1.665-1.665-1.666-4.375,0-6.041
			c1.666-1.666,4.376-1.665,6.041,0C93.569,88.698,93.569,91.407,91.903,93.073z"/>
		
			<linearGradient id="SVGID_00000127014300195714860590000012696858048319255223_" gradientUnits="userSpaceOnUse" x1="-3627.4858" y1="1146.5078" x2="-3640.282" y2="1220.5773" gradientTransform="matrix(0.7071 0.7071 -0.7071 0.7071 3492.644 1824.1127)">
			<stop  offset="0" style="stop-color:#E6E6E6;stop-opacity:0"/>
			<stop  offset="0.1774" style="stop-color:#E1E6E7;stop-opacity:0.3565"/>
			<stop  offset="0.3811" style="stop-color:#D3E4EA;stop-opacity:0.7659"/>
			<stop  offset="0.4975" style="stop-color:#C8E3ED"/>
			<stop  offset="0.6362" style="stop-color:#D7E4EA;stop-opacity:0.724"/>
			<stop  offset="0.8145" style="stop-color:#E2E6E7;stop-opacity:0.3692"/>
			<stop  offset="1" style="stop-color:#E6E6E6;stop-opacity:0"/>
		</linearGradient>
		
			<polygon style="clip-path:url(#SVGID_00000080205478090162644370000004123712777279719101_);fill:url(#SVGID_00000127014300195714860590000012696858048319255223_);" points="
			117.387,147.872 86.246,92.011 30.385,60.87 59.024,32.231 89.85,87.777 146.026,119.233 		"/>
		<g style="clip-path:url(#SVGID_00000080205478090162644370000004123712777279719101_);">
			<path style="fill:#FFFFFF;" d="M85.861,87.032c-1.666,1.666-1.666,4.376,0,6.042c1.666,1.666,4.376,1.666,6.042,0
				c1.666-1.666,1.666-4.376,0-6.042C90.236,85.366,87.526,85.366,85.861,87.032z"/>
			
				<linearGradient id="SVGID_00000098901283371947996860000004469597212920692394_" gradientUnits="userSpaceOnUse" x1="94.3027" y1="84.3925" x2="83.46" y2="95.7125">
				<stop  offset="0" style="stop-color:#C8E3ED"/>
				<stop  offset="0.0886" style="stop-color:#D9ECF3"/>
				<stop  offset="0.2315" style="stop-color:#EEF6F9"/>
				<stop  offset="0.3713" style="stop-color:#FBFDFE"/>
				<stop  offset="0.5036" style="stop-color:#FFFFFF"/>
				<stop  offset="0.6626" style="stop-color:#FBFFFD"/>
				<stop  offset="0.836" style="stop-color:#EDFFF9"/>
				<stop  offset="1" style="stop-color:#DAFEF2"/>
			</linearGradient>
			<path style="fill:url(#SVGID_00000098901283371947996860000004469597212920692394_);" d="M83.339,84.511
				c-3.056,3.056-3.056,8.028,0,11.084s8.028,3.056,11.084,0c3.056-3.056,3.056-8.028,0-11.084S86.395,81.455,83.339,84.511z
				 M92.154,93.325c-1.805,1.805-4.741,1.805-6.546,0c-1.805-1.805-1.805-4.741,0-6.546c1.805-1.805,4.741-1.805,6.546,0
				C93.959,88.584,93.959,91.521,92.154,93.325z"/>
			
				<linearGradient id="SVGID_00000156555740754989515410000012700651540265627290_" gradientUnits="userSpaceOnUse" x1="79.2612" y1="90.0525" x2="98.5015" y2="90.0525">
				<stop  offset="0" style="stop-color:#9768D1"/>
				<stop  offset="0.1587" style="stop-color:#8054B5"/>
				<stop  offset="0.4084" style="stop-color:#603A90"/>
				<stop  offset="0.64" style="stop-color:#492774"/>
				<stop  offset="0.8444" style="stop-color:#3B1B64"/>
				<stop  offset="1" style="stop-color:#36175E"/>
			</linearGradient>
			<path style="opacity:0.42;fill:url(#SVGID_00000156555740754989515410000012700651540265627290_);" d="M82.079,83.25
				c-3.757,3.757-3.757,9.848,0,13.605c3.757,3.757,9.848,3.757,13.605,0c3.757-3.757,3.757-9.848,0-13.605
				C91.927,79.493,85.836,79.493,82.079,83.25z M94.675,95.846c-3.195,3.195-8.393,3.195-11.588,0s-3.195-8.393,0-11.588
				s8.393-3.195,11.588,0C97.87,87.453,97.87,92.652,94.675,95.846z"/>
		</g>
		<path style="clip-path:url(#SVGID_00000080205478090162644370000004123712777279719101_);fill:none;" d="M114.85,64.084
			c-14.342-14.34-37.594-14.34-51.936,0c-14.34,14.342-14.34,37.594,0,51.936c14.342,14.34,37.594,14.34,51.936,0
			C129.189,101.679,129.189,78.426,114.85,64.084z M91.901,93.072c-1.665,1.667-4.374,1.667-6.041,0
			c-1.665-1.665-1.665-4.374,0-6.041c1.667-1.665,4.376-1.665,6.041,0C93.568,88.698,93.568,91.407,91.901,93.072z"/>
		
			<path style="clip-path:url(#SVGID_00000080205478090162644370000004123712777279719101_);fill:none;stroke:#36175E;stroke-width:0.437;stroke-miterlimit:10;" d="
			M114.85,64.085c-14.342-14.342-37.594-14.342-51.936,0c-14.34,14.34-14.34,37.592,0,51.934c14.342,14.342,37.594,14.342,51.936,0
			C129.189,101.678,129.189,78.425,114.85,64.085z M91.903,93.073c-1.667,1.665-4.376,1.665-6.044,0
			c-1.665-1.667-1.665-4.376,0-6.041c1.667-1.667,4.376-1.667,6.044,0C93.568,88.697,93.568,91.406,91.903,93.073z"/>
	</g>
</g>
</svg>
