<?xml version="1.0" encoding="utf-8"?>
<!-- Generator: Adobe Illustrator 26.0.1, SVG Export Plug-In . SVG Version: 6.00 Build 0)  -->
<svg version="1.1" id="Layer_1" xmlns="http://www.w3.org/2000/svg" xmlns:xlink="http://www.w3.org/1999/xlink" x="0px" y="0px"
	 viewBox="0 0 55 55" style="enable-background:new 0 0 55 55;" xml:space="preserve">
<g>
	<g>
		<linearGradient id="SVGID_1_" gradientUnits="userSpaceOnUse" x1="2.7994" y1="32.6842" x2="40.5625" y2="33.9325">
			<stop  offset="0" style="stop-color:#9768D1"/>
			<stop  offset="0.2358" style="stop-color:#8055B6"/>
			<stop  offset="0.5341" style="stop-color:#68439B"/>
			<stop  offset="0.7986" style="stop-color:#5A378B"/>
			<stop  offset="1" style="stop-color:#553385"/>
		</linearGradient>
		<path style="fill:url(#SVGID_1_);" d="M2.662,11.042v38.362l6.77,5.136V14.855L2.662,11.042L2.662,11.042z"/>
		
			<linearGradient id="SVGID_00000154400690674256952400000012245341113687823544_" gradientUnits="userSpaceOnUse" x1="37.3407" y1="6.701" x2="36.2629" y2="14.7356">
			<stop  offset="0" style="stop-color:#9768D1"/>
			<stop  offset="0.3565" style="stop-color:#7B51B1"/>
			<stop  offset="0.7702" style="stop-color:#5F3B91"/>
			<stop  offset="1" style="stop-color:#553385"/>
		</linearGradient>
		<polygon style="fill:url(#SVGID_00000154400690674256952400000012245341113687823544_);" points="40.869,11.042 40.869,28.161 
			30.831,28.161 30.831,7.463 		"/>
		<polygon style="fill:none;" points="40.869,11.042 9.432,14.855 9.432,54.541 40.869,47.148 		"/>
		<polygon style="fill:none;" points="40.869,11.042 9.432,14.855 9.432,54.541 40.869,47.148 		"/>
		
			<linearGradient id="SVGID_00000096033502156128882750000015950045104735393154_" gradientUnits="userSpaceOnUse" x1="0.6452" y1="7.4098" x2="34.9246" y2="3.0354">
			<stop  offset="0" style="stop-color:#9768D1"/>
			<stop  offset="0.3565" style="stop-color:#7B51B1"/>
			<stop  offset="0.7702" style="stop-color:#5F3B91"/>
			<stop  offset="1" style="stop-color:#553385"/>
		</linearGradient>
		<polygon style="fill:url(#SVGID_00000096033502156128882750000015950045104735393154_);" points="30.831,7.463 7.989,10.526 
			4.141,11.042 2.508,5.544 1.807,3.183 29.664,0.382 		"/>
		<polygon style="fill:none;" points="40.869,11.042 9.432,14.855 9.432,54.541 40.869,47.148 		"/>
		
			<linearGradient id="SVGID_00000039120830670539117750000016959933916533232054_" gradientUnits="userSpaceOnUse" x1="20.2235" y1="17.2656" x2="19.5891" y2="10.8167">
			<stop  offset="0" style="stop-color:#9768D1"/>
			<stop  offset="0.3565" style="stop-color:#7B51B1"/>
			<stop  offset="0.7702" style="stop-color:#5F3B91"/>
			<stop  offset="1" style="stop-color:#553385"/>
		</linearGradient>
		<polygon style="fill:url(#SVGID_00000039120830670539117750000016959933916533232054_);" points="30.831,7.463 30.831,12.26 
			9.433,14.855 7.989,10.526 		"/>
		
			<linearGradient id="SVGID_00000124877913449958873150000010617500859949315237_" gradientUnits="userSpaceOnUse" x1="40.845" y1="12.0389" x2="34.5187" y2="-1.0412">
			<stop  offset="0" style="stop-color:#9768D1"/>
			<stop  offset="0.3565" style="stop-color:#7B51B1"/>
			<stop  offset="0.7702" style="stop-color:#5F3B91"/>
			<stop  offset="1" style="stop-color:#553385"/>
		</linearGradient>
		<polygon style="fill:url(#SVGID_00000124877913449958873150000010617500859949315237_);" points="34.8,0.382 44.137,2.716 
			40.866,11.042 30.831,7.463 		"/>
		
			<linearGradient id="SVGID_00000111157773631457106330000014074331672915038614_" gradientUnits="userSpaceOnUse" x1="-0.5637" y1="4.2215" x2="35.3601" y2="3.8728">
			<stop  offset="0" style="stop-color:#FFFFFF;stop-opacity:0.6"/>
			<stop  offset="0.0409" style="stop-color:#F1EDF6;stop-opacity:0.5755"/>
			<stop  offset="0.1451" style="stop-color:#D2C4E2;stop-opacity:0.5129"/>
			<stop  offset="0.2557" style="stop-color:#B7A1D1;stop-opacity:0.4466"/>
			<stop  offset="0.3719" style="stop-color:#A184C3;stop-opacity:0.3769"/>
			<stop  offset="0.4956" style="stop-color:#906EB9;stop-opacity:0.3026"/>
			<stop  offset="0.6304" style="stop-color:#845EB1;stop-opacity:0.2218"/>
			<stop  offset="0.7843" style="stop-color:#7D55AC;stop-opacity:0.1294"/>
			<stop  offset="1" style="stop-color:#7B52AB;stop-opacity:0"/>
		</linearGradient>
		<polygon style="fill:url(#SVGID_00000111157773631457106330000014074331672915038614_);" points="2.976,7.122 2.508,5.544 
			1.807,3.183 29.664,0.382 30.831,7.463 		"/>
		<polyline style="fill:none;stroke:#6493D4;stroke-width:0.1115;stroke-miterlimit:10;" points="11.698,16.13 11.251,15.58 
			10.55,14.72 		"/>
		
			<linearGradient id="SVGID_00000103972291964989040490000018384152270259575978_" gradientUnits="userSpaceOnUse" x1="11.9442" y1="15.0075" x2="-4.7835" y2="1.2389">
			<stop  offset="0" style="stop-color:#9768D1"/>
			<stop  offset="0.3565" style="stop-color:#7B51B1"/>
			<stop  offset="0.7702" style="stop-color:#5F3B91"/>
			<stop  offset="1" style="stop-color:#553385"/>
		</linearGradient>
		<polygon style="fill:url(#SVGID_00000103972291964989040490000018384152270259575978_);" points="9.433,14.855 2.662,11.042 
			0.328,4.74 2.508,5.544 6.864,7.152 7.989,10.526 		"/>
		<polygon style="fill:none;" points="40.869,11.042 9.432,14.855 9.432,54.541 40.869,47.148 		"/>
		
			<linearGradient id="SVGID_00000125575931150824768940000004057258256727451035_" gradientUnits="userSpaceOnUse" x1="16.5153" y1="17.5436" x2="33.8364" y2="48.1286">
			<stop  offset="0" style="stop-color:#9768D1"/>
			<stop  offset="0.2358" style="stop-color:#8055B6"/>
			<stop  offset="0.5341" style="stop-color:#68439B"/>
			<stop  offset="0.7986" style="stop-color:#5A378B"/>
			<stop  offset="1" style="stop-color:#553385"/>
		</linearGradient>
		<polygon style="fill:url(#SVGID_00000125575931150824768940000004057258256727451035_);" points="40.869,11.042 9.432,14.855 
			9.432,54.541 40.869,47.148 		"/>
		<polygon style="fill:none;" points="40.869,11.042 9.432,14.855 9.432,54.541 40.869,47.148 		"/>
		
			<linearGradient id="SVGID_00000137100151233702786620000015849171091516039832_" gradientUnits="userSpaceOnUse" x1="36.6905" y1="7.676" x2="-1.8972" y2="44.2551">
			<stop  offset="0" style="stop-color:#FFFFFF;stop-opacity:0.6"/>
			<stop  offset="0.0083" style="stop-color:#FBF9FC;stop-opacity:0.595"/>
			<stop  offset="0.073" style="stop-color:#DDD2E9;stop-opacity:0.5562"/>
			<stop  offset="0.1444" style="stop-color:#C2AFD8;stop-opacity:0.5134"/>
			<stop  offset="0.2218" style="stop-color:#AC92CA;stop-opacity:0.4669"/>
			<stop  offset="0.3074" style="stop-color:#9A7BBF;stop-opacity:0.4156"/>
			<stop  offset="0.4045" style="stop-color:#8C68B6;stop-opacity:0.3573"/>
			<stop  offset="0.5199" style="stop-color:#825CB0;stop-opacity:0.288"/>
			<stop  offset="0.6717" style="stop-color:#7D54AC;stop-opacity:0.197"/>
			<stop  offset="1" style="stop-color:#7B52AB;stop-opacity:0"/>
		</linearGradient>
		<path style="fill:url(#SVGID_00000137100151233702786620000015849171091516039832_);" d="M40.869,11.042L9.432,14.855V42.15
			l15.797-7.029C34.74,30.888,40.869,21.453,40.869,11.042L40.869,11.042z"/>
		
			<linearGradient id="SVGID_00000036209241380876511310000012097917203080300714_" gradientUnits="userSpaceOnUse" x1="0.5029" y1="5.1794" x2="9.4768" y2="17.7537">
			<stop  offset="0" style="stop-color:#FFFFFF;stop-opacity:0.6"/>
			<stop  offset="0.0409" style="stop-color:#F1EDF6;stop-opacity:0.5755"/>
			<stop  offset="0.1451" style="stop-color:#D2C4E2;stop-opacity:0.5129"/>
			<stop  offset="0.2557" style="stop-color:#B7A1D1;stop-opacity:0.4466"/>
			<stop  offset="0.3719" style="stop-color:#A184C3;stop-opacity:0.3769"/>
			<stop  offset="0.4956" style="stop-color:#906EB9;stop-opacity:0.3026"/>
			<stop  offset="0.6304" style="stop-color:#845EB1;stop-opacity:0.2218"/>
			<stop  offset="0.7843" style="stop-color:#7D55AC;stop-opacity:0.1294"/>
			<stop  offset="1" style="stop-color:#7B52AB;stop-opacity:0"/>
		</linearGradient>
		<polygon style="fill:url(#SVGID_00000036209241380876511310000012097917203080300714_);" points="9.433,14.855 2.662,11.042 
			0.328,4.74 		"/>
		
			<linearGradient id="SVGID_00000067214099553208113220000000222707306978413455_" gradientUnits="userSpaceOnUse" x1="44.0765" y1="2.0467" x2="30.8099" y2="4.6001">
			<stop  offset="0" style="stop-color:#FFFFFF;stop-opacity:0.6"/>
			<stop  offset="0.0409" style="stop-color:#F1EDF6;stop-opacity:0.5755"/>
			<stop  offset="0.1451" style="stop-color:#D2C4E2;stop-opacity:0.5129"/>
			<stop  offset="0.2557" style="stop-color:#B7A1D1;stop-opacity:0.4466"/>
			<stop  offset="0.3719" style="stop-color:#A184C3;stop-opacity:0.3769"/>
			<stop  offset="0.4956" style="stop-color:#906EB9;stop-opacity:0.3026"/>
			<stop  offset="0.6304" style="stop-color:#845EB1;stop-opacity:0.2218"/>
			<stop  offset="0.7843" style="stop-color:#7D55AC;stop-opacity:0.1294"/>
			<stop  offset="1" style="stop-color:#7B52AB;stop-opacity:0"/>
		</linearGradient>
		<polygon style="fill:url(#SVGID_00000067214099553208113220000000222707306978413455_);" points="34.8,0.382 44.137,2.716 
			42.96,5.712 32.124,5.155 		"/>
		
			<linearGradient id="SVGID_00000170974731863999815590000012502036835245156489_" gradientUnits="userSpaceOnUse" x1="6.2538" y1="18.7175" x2="48.299" y2="12.0264">
			<stop  offset="0" style="stop-color:#9768D1"/>
			<stop  offset="0.3565" style="stop-color:#7B51B1"/>
			<stop  offset="0.7702" style="stop-color:#5F3B91"/>
			<stop  offset="1" style="stop-color:#553385"/>
		</linearGradient>
		<polygon style="fill:url(#SVGID_00000170974731863999815590000012502036835245156489_);" points="46.238,15.711 40.869,16.445 
			30.831,17.817 13.79,20.147 9.433,14.855 30.831,12.26 40.869,11.042 		"/>
		
			<linearGradient id="SVGID_00000005258730182401423080000018349604845817781422_" gradientUnits="userSpaceOnUse" x1="9.0055" y1="14.8029" x2="44.9022" y2="13.8083">
			<stop  offset="0" style="stop-color:#FFFFFF;stop-opacity:0.6"/>
			<stop  offset="0.1164" style="stop-color:#E0D6EB;stop-opacity:0.5302"/>
			<stop  offset="0.251" style="stop-color:#C1AED8;stop-opacity:0.4494"/>
			<stop  offset="0.3898" style="stop-color:#A88DC7;stop-opacity:0.3661"/>
			<stop  offset="0.5316" style="stop-color:#9473BB;stop-opacity:0.281"/>
			<stop  offset="0.6774" style="stop-color:#8660B2;stop-opacity:0.1935"/>
			<stop  offset="0.83" style="stop-color:#7E56AD;stop-opacity:0.102"/>
			<stop  offset="1" style="stop-color:#7B52AB;stop-opacity:0"/>
		</linearGradient>
		<polygon style="fill:url(#SVGID_00000005258730182401423080000018349604845817781422_);" points="11.698,17.606 9.433,14.855 
			30.831,12.26 40.869,11.042 45.254,14.855 		"/>
		
			<linearGradient id="SVGID_00000178167650168313660230000004734034365131182735_" gradientUnits="userSpaceOnUse" x1="-2.3447" y1="7.7526" x2="15.2049" y2="86.514">
			<stop  offset="0" style="stop-color:#FFFFFF;stop-opacity:0.6"/>
			<stop  offset="0.0714" style="stop-color:#E0D7EC;stop-opacity:0.5571"/>
			<stop  offset="0.1487" style="stop-color:#C5B4DA;stop-opacity:0.5108"/>
			<stop  offset="0.2337" style="stop-color:#AE95CC;stop-opacity:0.4598"/>
			<stop  offset="0.3264" style="stop-color:#9B7DC0;stop-opacity:0.4042"/>
			<stop  offset="0.4301" style="stop-color:#8D69B6;stop-opacity:0.342"/>
			<stop  offset="0.5507" style="stop-color:#835CB0;stop-opacity:0.2696"/>
			<stop  offset="0.7041" style="stop-color:#7D54AC;stop-opacity:0.1775"/>
			<stop  offset="1" style="stop-color:#7B52AB;stop-opacity:0"/>
		</linearGradient>
		<path style="fill:url(#SVGID_00000178167650168313660230000004734034365131182735_);" d="M2.662,11.042L2.662,11.042v38.362
			l6.77,5.136"/>
	</g>
	<g>
		<defs>
			<path id="SVGID_00000059993047686693289340000018374710788588280506_" d="M48.64,27.498c-6.162-6.162-16.151-6.162-22.313,0
				c-6.161,6.161-6.161,16.15,0,22.312c6.162,6.162,16.151,6.162,22.313,0C54.801,43.648,54.801,33.659,48.64,27.498z
				 M38.782,39.952c-0.716,0.715-1.88,0.715-2.596,0c-0.715-0.716-0.715-1.88,0-2.596c0.716-0.716,1.88-0.716,2.596,0
				C39.498,38.071,39.498,39.235,38.782,39.952z"/>
		</defs>
		<clipPath id="SVGID_00000112613196498083185800000004133610738005418670_">
			<use xlink:href="#SVGID_00000059993047686693289340000018374710788588280506_"  style="overflow:visible;"/>
		</clipPath>
		
			<linearGradient id="SVGID_00000058569717395953200230000003762704421016391814_" gradientUnits="userSpaceOnUse" x1="21.1396" y1="23.1749" x2="55.0757" y2="55.3138">
			<stop  offset="0" style="stop-color:#E6E6E6"/>
			<stop  offset="0.2074" style="stop-color:#E9E9E9"/>
			<stop  offset="0.3682" style="stop-color:#F3F3F3"/>
			<stop  offset="0.4814" style="stop-color:#FFFFFF"/>
			<stop  offset="0.6048" style="stop-color:#F2F2F2"/>
			<stop  offset="0.7639" style="stop-color:#E9E9E9"/>
			<stop  offset="1" style="stop-color:#E6E6E6"/>
		</linearGradient>
		
			<circle style="clip-path:url(#SVGID_00000112613196498083185800000004133610738005418670_);fill:url(#SVGID_00000058569717395953200230000003762704421016391814_);" cx="37.484" cy="38.654" r="15.777"/>
		
			<linearGradient id="SVGID_00000009549107834567311900000006766406872212964994_" gradientUnits="userSpaceOnUse" x1="-4498.209" y1="8759.1523" x2="-4445.3486" y2="8759.1523" gradientTransform="matrix(-0.7071 0.7071 -0.7071 -0.7071 3068.8245 9394.335)">
			<stop  offset="0" style="stop-color:#E6E6E6;stop-opacity:0"/>
			<stop  offset="0.2028" style="stop-color:#E3EBE9;stop-opacity:0.4077"/>
			<stop  offset="0.4558" style="stop-color:#DCFBF0;stop-opacity:0.9161"/>
			<stop  offset="0.4975" style="stop-color:#DAFEF2"/>
			<stop  offset="0.5509" style="stop-color:#DCFAF0;stop-opacity:0.8938"/>
			<stop  offset="0.7963" style="stop-color:#E3EBE9;stop-opacity:0.4054"/>
			<stop  offset="1" style="stop-color:#E6E6E6;stop-opacity:0"/>
		</linearGradient>
		
			<polygon style="clip-path:url(#SVGID_00000112613196498083185800000004133610738005418670_);fill:url(#SVGID_00000009549107834567311900000006766406872212964994_);" points="
			12.353,51.19 36.352,37.812 49.73,13.813 62.034,26.117 38.171,39.36 24.657,63.494 		"/>
		<path style="clip-path:url(#SVGID_00000112613196498083185800000004133610738005418670_);fill:none;" d="M26.328,27.497
			c-6.162,6.162-6.162,16.151,0,22.313c6.161,6.161,16.151,6.161,22.312-0.001c6.161-6.161,6.161-16.151,0-22.312
			C42.479,21.336,32.489,21.336,26.328,27.497z M38.782,39.951c-0.716,0.716-1.88,0.716-2.595,0s-0.716-1.88,0-2.595
			c0.716-0.716,1.88-0.716,2.595,0S39.498,39.236,38.782,39.951z"/>
		
			<linearGradient id="SVGID_00000086684765463966489990000011224975089042754446_" gradientUnits="userSpaceOnUse" x1="-3687.9868" y1="1128.9854" x2="-3693.4841" y2="1160.807" gradientTransform="matrix(0.7071 0.7071 -0.7071 0.7071 3455.644 1839.4386)">
			<stop  offset="0" style="stop-color:#E6E6E6;stop-opacity:0"/>
			<stop  offset="0.1774" style="stop-color:#E1E6E7;stop-opacity:0.3565"/>
			<stop  offset="0.3811" style="stop-color:#D3E4EA;stop-opacity:0.7659"/>
			<stop  offset="0.4975" style="stop-color:#C8E3ED"/>
			<stop  offset="0.6362" style="stop-color:#D7E4EA;stop-opacity:0.724"/>
			<stop  offset="0.8145" style="stop-color:#E2E6E7;stop-opacity:0.3692"/>
			<stop  offset="1" style="stop-color:#E6E6E6;stop-opacity:0"/>
		</linearGradient>
		
			<polygon style="clip-path:url(#SVGID_00000112613196498083185800000004133610738005418670_);fill:url(#SVGID_00000086684765463966489990000011224975089042754446_);" points="
			49.73,63.494 36.352,39.495 12.353,26.117 24.657,13.813 37.9,37.676 62.034,51.19 		"/>
		<g style="clip-path:url(#SVGID_00000112613196498083185800000004133610738005418670_);">
			<path style="fill:#FFFFFF;" d="M36.186,37.356c-0.716,0.716-0.716,1.88,0,2.596s1.88,0.716,2.596,0s0.716-1.88,0-2.596
				S36.902,36.64,36.186,37.356z"/>
			
				<linearGradient id="SVGID_00000096057532154578139530000013970349661328628155_" gradientUnits="userSpaceOnUse" x1="39.8132" y1="36.2222" x2="35.1549" y2="41.0854">
				<stop  offset="0" style="stop-color:#C8E3ED"/>
				<stop  offset="0.0886" style="stop-color:#D9ECF3"/>
				<stop  offset="0.2315" style="stop-color:#EEF6F9"/>
				<stop  offset="0.3713" style="stop-color:#FBFDFE"/>
				<stop  offset="0.5036" style="stop-color:#FFFFFF"/>
				<stop  offset="0.6626" style="stop-color:#FBFFFD"/>
				<stop  offset="0.836" style="stop-color:#EDFFF9"/>
				<stop  offset="1" style="stop-color:#DAFEF2"/>
			</linearGradient>
			<path style="fill:url(#SVGID_00000096057532154578139530000013970349661328628155_);" d="M35.103,36.273
				c-1.313,1.313-1.313,3.449,0,4.762c1.313,1.313,3.449,1.313,4.762,0c1.313-1.313,1.313-3.449,0-4.762
				C38.552,34.96,36.416,34.96,35.103,36.273z M38.89,40.06c-0.775,0.775-2.037,0.775-2.812,0c-0.775-0.775-0.775-2.037,0-2.812
				c0.775-0.775,2.037-0.775,2.812,0C39.665,38.023,39.665,39.285,38.89,40.06z"/>
			
				<linearGradient id="SVGID_00000105424018731276012360000004839889264390583471_" gradientUnits="userSpaceOnUse" x1="33.3511" y1="38.6538" x2="41.617" y2="38.6538">
				<stop  offset="0" style="stop-color:#9768D1"/>
				<stop  offset="0.1587" style="stop-color:#8054B5"/>
				<stop  offset="0.4084" style="stop-color:#603A90"/>
				<stop  offset="0.64" style="stop-color:#492774"/>
				<stop  offset="0.8444" style="stop-color:#3B1B64"/>
				<stop  offset="1" style="stop-color:#36175E"/>
			</linearGradient>
			<path style="opacity:0.42;fill:url(#SVGID_00000105424018731276012360000004839889264390583471_);" d="M34.562,35.731
				c-1.614,1.614-1.614,4.231,0,5.845s4.231,1.614,5.845,0s1.614-4.231,0-5.845S36.176,34.117,34.562,35.731z M39.973,41.143
				c-1.373,1.373-3.606,1.373-4.978,0c-1.373-1.373-1.373-3.606,0-4.978s3.606-1.373,4.978,0S41.346,39.77,39.973,41.143z"/>
		</g>
		<path style="clip-path:url(#SVGID_00000112613196498083185800000004133610738005418670_);fill:none;" d="M48.64,27.497
			c-6.162-6.161-16.151-6.161-22.313,0c-6.161,6.162-6.161,16.151,0,22.313c6.162,6.161,16.151,6.161,22.313,0
			C54.801,43.649,54.801,33.659,48.64,27.497z M38.781,39.951c-0.715,0.716-1.879,0.716-2.596,0c-0.715-0.715-0.715-1.879,0-2.596
			c0.716-0.715,1.88-0.715,2.596,0C39.498,38.072,39.498,39.236,38.781,39.951z"/>
		
			<path style="clip-path:url(#SVGID_00000112613196498083185800000004133610738005418670_);fill:none;stroke:#36175E;stroke-width:0.437;stroke-miterlimit:10;" d="
			M48.64,27.498c-6.162-6.162-16.151-6.162-22.313,0c-6.161,6.161-6.161,16.15,0,22.312c6.162,6.162,16.151,6.162,22.313,0
			C54.801,43.648,54.801,33.659,48.64,27.498z M38.782,39.952c-0.716,0.715-1.88,0.715-2.596,0c-0.715-0.716-0.715-1.88,0-2.596
			c0.716-0.716,1.88-0.716,2.596,0C39.498,38.071,39.498,39.235,38.782,39.952z"/>
	</g>
</g>
<g>
	<g>
		<g>
			<g>
				<rect x="41.77" y="44.187" style="fill:#FFFFFF;" width="9.962" height="9.962"/>
				
					<linearGradient id="SVGID_00000039097499676498898370000013003974810236746392_" gradientUnits="userSpaceOnUse" x1="41.3713" y1="43.789" x2="60.874" y2="63.2917">
					<stop  offset="0" style="stop-color:#9768D1"/>
					<stop  offset="0.2358" style="stop-color:#8055B6"/>
					<stop  offset="0.5341" style="stop-color:#68439B"/>
					<stop  offset="0.7986" style="stop-color:#5A378B"/>
					<stop  offset="1" style="stop-color:#553385"/>
				</linearGradient>
				<path style="fill:url(#SVGID_00000039097499676498898370000013003974810236746392_);" d="M51.262,44.657v9.023h-9.023v-9.023
					H51.262 M52.201,43.718h-0.939h-9.023H41.3v0.939v9.023v0.939h0.939h9.023h0.939V53.68v-9.023V43.718L52.201,43.718z"/>
			</g>
		</g>
		<g>
			<path style="fill:#F50004;" d="M48.539,51.338c-0.282-0.37-0.612-0.697-0.98-0.972c-0.494-0.37-1.047-0.644-1.647-0.815
				l-0.723-0.206l0.502-0.559c0.12-0.134,0.24-0.269,0.36-0.405c0.222-0.252,0.446-0.511,0.685-0.793l0.244-0.288l0.333,0.176
				c0.453,0.24,0.866,0.542,1.228,0.899c0.072,0.071,0.141,0.143,0.209,0.218c0.386-0.691,0.966-1.67,1.565-2.48
				c0.321-0.434,0.699-0.896,1.284-1.339c0.222-0.169,0.415-0.289,0.541-0.365l0.354-0.213l0.256,0.324
				c0.211,0.267,0.451,0.512,0.713,0.73c0.163,0.135,0.336,0.261,0.514,0.373l0.694,0.438l-0.729,0.376
				c-0.401,0.207-0.787,0.452-1.148,0.728c-0.509,0.39-0.865,0.761-1.275,1.234c-0.748,0.863-1.495,1.844-2.22,2.917l-0.365,0.541
				L48.539,51.338z"/>
			
				<linearGradient id="SVGID_00000126285143039684853270000010321412774434758809_" gradientUnits="userSpaceOnUse" x1="52.8493" y1="44.4765" x2="48.1369" y2="49.334">
				<stop  offset="0" style="stop-color:#F46362"/>
				<stop  offset="0.2846" style="stop-color:#F4605F;stop-opacity:0.7154"/>
				<stop  offset="0.472" style="stop-color:#F45757;stop-opacity:0.528"/>
				<stop  offset="0.6314" style="stop-color:#F44949;stop-opacity:0.3686"/>
				<stop  offset="0.775" style="stop-color:#F43335;stop-opacity:0.225"/>
				<stop  offset="0.9068" style="stop-color:#F5181B;stop-opacity:0.0932"/>
				<stop  offset="1" style="stop-color:#F50004;stop-opacity:0"/>
			</linearGradient>
			<path style="fill:url(#SVGID_00000126285143039684853270000010321412774434758809_);" d="M53.728,46.019
				c-0.316,0.163-0.747,0.412-1.218,0.772c-0.569,0.436-0.96,0.856-1.344,1.299c-0.869,1.002-1.632,2.042-2.254,2.962
				c-0.237-0.31-0.585-0.698-1.072-1.063c-0.683-0.512-1.351-0.763-1.799-0.891c0.121-0.135,0.242-0.271,0.363-0.409
				c0.236-0.268,0.466-0.535,0.691-0.8c0.313,0.166,0.718,0.423,1.118,0.818c0.261,0.257,0.46,0.513,0.609,0.736
				c0.141-0.265,0.987-1.856,1.872-3.053c0.342-0.461,0.69-0.865,1.19-1.245c0.2-0.152,0.377-0.263,0.5-0.336
				c0.195,0.246,0.451,0.526,0.782,0.8C53.36,45.772,53.551,45.907,53.728,46.019z"/>
		</g>
	</g>
	<g>
		<g>
			<g>
				<rect x="41.77" y="27.438" style="fill:#FFFFFF;" width="9.962" height="9.962"/>
				
					<linearGradient id="SVGID_00000183212685625439551410000012576423600773600447_" gradientUnits="userSpaceOnUse" x1="41.3713" y1="27.0401" x2="60.874" y2="46.5428">
					<stop  offset="0" style="stop-color:#9768D1"/>
					<stop  offset="0.2358" style="stop-color:#8055B6"/>
					<stop  offset="0.5341" style="stop-color:#68439B"/>
					<stop  offset="0.7986" style="stop-color:#5A378B"/>
					<stop  offset="1" style="stop-color:#553385"/>
				</linearGradient>
				<path style="fill:url(#SVGID_00000183212685625439551410000012576423600773600447_);" d="M51.262,27.908v9.023h-9.023v-9.023
					H51.262 M52.201,26.969h-0.939h-9.023H41.3v0.939v9.023v0.939h0.939h9.023h0.939v-0.939v-9.023V26.969L52.201,26.969z"/>
			</g>
		</g>
		<g>
			<path style="fill:#F50004;" d="M48.539,34.589c-0.282-0.37-0.612-0.697-0.98-0.972c-0.494-0.37-1.047-0.644-1.647-0.815
				l-0.723-0.206l0.502-0.559c0.12-0.134,0.24-0.269,0.36-0.405c0.222-0.252,0.446-0.511,0.685-0.793l0.244-0.288l0.333,0.176
				c0.453,0.24,0.866,0.542,1.228,0.899c0.072,0.071,0.141,0.143,0.209,0.218c0.386-0.691,0.966-1.67,1.565-2.48
				c0.321-0.434,0.699-0.896,1.284-1.339c0.222-0.169,0.415-0.289,0.541-0.365l0.354-0.213l0.256,0.324
				c0.211,0.267,0.451,0.512,0.713,0.73c0.163,0.135,0.336,0.261,0.514,0.373l0.694,0.438l-0.729,0.376
				c-0.401,0.207-0.787,0.452-1.148,0.728c-0.509,0.39-0.865,0.761-1.275,1.234c-0.748,0.863-1.495,1.844-2.22,2.917l-0.365,0.541
				L48.539,34.589z"/>
			
				<linearGradient id="SVGID_00000056397018380559514410000013776973991381326233_" gradientUnits="userSpaceOnUse" x1="52.8493" y1="27.7276" x2="48.1369" y2="32.585">
				<stop  offset="0" style="stop-color:#F46362"/>
				<stop  offset="0.2846" style="stop-color:#F4605F;stop-opacity:0.7154"/>
				<stop  offset="0.472" style="stop-color:#F45757;stop-opacity:0.528"/>
				<stop  offset="0.6314" style="stop-color:#F44949;stop-opacity:0.3686"/>
				<stop  offset="0.775" style="stop-color:#F43335;stop-opacity:0.225"/>
				<stop  offset="0.9068" style="stop-color:#F5181B;stop-opacity:0.0932"/>
				<stop  offset="1" style="stop-color:#F50004;stop-opacity:0"/>
			</linearGradient>
			<path style="fill:url(#SVGID_00000056397018380559514410000013776973991381326233_);" d="M53.728,29.27
				c-0.316,0.163-0.747,0.412-1.218,0.772c-0.569,0.436-0.96,0.856-1.344,1.299c-0.869,1.002-1.632,2.042-2.254,2.962
				c-0.237-0.31-0.585-0.698-1.072-1.063c-0.683-0.512-1.351-0.763-1.799-0.891c0.121-0.135,0.242-0.271,0.363-0.409
				c0.236-0.268,0.466-0.535,0.691-0.8c0.313,0.166,0.718,0.423,1.118,0.818c0.261,0.257,0.46,0.513,0.609,0.736
				c0.141-0.265,0.987-1.856,1.872-3.053c0.342-0.461,0.69-0.865,1.19-1.245c0.2-0.152,0.377-0.263,0.5-0.336
				c0.195,0.246,0.451,0.526,0.782,0.8C53.36,29.024,53.551,29.158,53.728,29.27z"/>
		</g>
	</g>
	<g>
		<g>
			<g>
				<rect x="41.77" y="10.69" style="fill:#FFFFFF;" width="9.962" height="9.962"/>
				
					<linearGradient id="SVGID_00000129177445866554240110000016128726921132886148_" gradientUnits="userSpaceOnUse" x1="41.3713" y1="10.2912" x2="60.874" y2="29.794">
					<stop  offset="0" style="stop-color:#9768D1"/>
					<stop  offset="0.2358" style="stop-color:#8055B6"/>
					<stop  offset="0.5341" style="stop-color:#68439B"/>
					<stop  offset="0.7986" style="stop-color:#5A378B"/>
					<stop  offset="1" style="stop-color:#553385"/>
				</linearGradient>
				<path style="fill:url(#SVGID_00000129177445866554240110000016128726921132886148_);" d="M51.262,11.159v9.023h-9.023v-9.023
					H51.262 M52.201,10.22h-0.939h-9.023H41.3v0.939v9.023v0.939h0.939h9.023h0.939v-0.939v-9.023V10.22L52.201,10.22z"/>
			</g>
		</g>
		<g>
			<path style="fill:#F50004;" d="M48.539,17.84c-0.282-0.37-0.612-0.697-0.98-0.972c-0.494-0.37-1.047-0.644-1.647-0.815
				l-0.723-0.206l0.502-0.559c0.12-0.134,0.24-0.269,0.36-0.405c0.222-0.252,0.446-0.511,0.685-0.793l0.244-0.288l0.333,0.176
				c0.453,0.24,0.866,0.542,1.228,0.899c0.072,0.071,0.141,0.143,0.209,0.218c0.386-0.691,0.966-1.67,1.565-2.48
				c0.321-0.434,0.699-0.896,1.284-1.339c0.222-0.169,0.415-0.289,0.541-0.365l0.354-0.213l0.256,0.324
				c0.211,0.267,0.451,0.512,0.713,0.73c0.163,0.135,0.336,0.261,0.514,0.373l0.694,0.438l-0.729,0.376
				c-0.401,0.207-0.787,0.452-1.148,0.728c-0.509,0.39-0.865,0.761-1.275,1.234c-0.748,0.863-1.495,1.844-2.22,2.917l-0.365,0.541
				L48.539,17.84z"/>
			
				<linearGradient id="SVGID_00000024699990876192621890000007119032757901854855_" gradientUnits="userSpaceOnUse" x1="52.8493" y1="10.9788" x2="48.1369" y2="15.8362">
				<stop  offset="0" style="stop-color:#F46362"/>
				<stop  offset="0.2846" style="stop-color:#F4605F;stop-opacity:0.7154"/>
				<stop  offset="0.472" style="stop-color:#F45757;stop-opacity:0.528"/>
				<stop  offset="0.6314" style="stop-color:#F44949;stop-opacity:0.3686"/>
				<stop  offset="0.775" style="stop-color:#F43335;stop-opacity:0.225"/>
				<stop  offset="0.9068" style="stop-color:#F5181B;stop-opacity:0.0932"/>
				<stop  offset="1" style="stop-color:#F50004;stop-opacity:0"/>
			</linearGradient>
			<path style="fill:url(#SVGID_00000024699990876192621890000007119032757901854855_);" d="M53.728,12.521
				c-0.316,0.163-0.747,0.412-1.218,0.772c-0.569,0.436-0.96,0.856-1.344,1.299c-0.869,1.002-1.632,2.042-2.254,2.962
				c-0.237-0.31-0.585-0.698-1.072-1.063c-0.683-0.512-1.351-0.763-1.799-0.891c0.121-0.135,0.242-0.271,0.363-0.409
				c0.236-0.268,0.466-0.535,0.691-0.8c0.313,0.166,0.718,0.423,1.118,0.818c0.261,0.257,0.46,0.513,0.609,0.736
				c0.141-0.265,0.987-1.856,1.872-3.053c0.342-0.461,0.69-0.865,1.19-1.245c0.2-0.152,0.377-0.263,0.5-0.336
				c0.195,0.246,0.451,0.526,0.782,0.8C53.36,12.275,53.551,12.409,53.728,12.521z"/>
		</g>
	</g>
</g>
</svg>
