<?xml version="1.0" encoding="utf-8"?>
<!-- Generator: Adobe Illustrator 26.3.1, SVG Export Plug-In . SVG Version: 6.00 Build 0)  -->
<svg version="1.1" id="Layer_1" xmlns="http://www.w3.org/2000/svg" xmlns:xlink="http://www.w3.org/1999/xlink" x="0px" y="0px"
	 viewBox="0 0 64 64" style="enable-background:new 0 0 64 64;" xml:space="preserve">
<style type="text/css">
	.st0{fill:url(#SVGID_1_);}
</style>
<g>
	<linearGradient id="SVGID_1_" gradientUnits="userSpaceOnUse" x1="32.0331" y1="2.5219" x2="32.0331" y2="60.8651">
		<stop  offset="0" style="stop-color:#F46362"/>
		<stop  offset="0.3527" style="stop-color:#F44352"/>
		<stop  offset="1" style="stop-color:#F4002F"/>
	</linearGradient>
	<path class="st0" d="M51.636,60.401c0.363,0.435,1.013,0.473,1.429,0.088l2.911-2.695c0.333-0.308,0.419-0.799,0.205-1.199
		c-2.849-5.319-6.015-10.82-9.535-16.447c-1.765-2.821-3.539-5.522-5.311-8.148c1.772-2.627,3.546-5.327,5.311-8.148
		c3.519-5.625,6.685-11.125,9.534-16.443c0.215-0.402,0.129-0.896-0.206-1.205l-2.904-2.689c-0.418-0.387-1.071-0.349-1.436,0.089
		c-3.621,4.339-9.694,11.622-16.207,19.459c-0.314-0.433-0.635-0.878-0.915-1.253c-2.422-3.246-5.032-6.357-7.529-9.525
		c-1.22-1.548-2.493-3.053-3.823-4.507c-0.771-0.843-1.568-1.674-2.424-2.43c-0.468-0.413-0.961-0.8-1.477-1.151l0,0
		c-0.936-0.63-2.105-0.808-3.186-0.486L8.486,5.974c-0.672,0.2-0.938,1.01-0.509,1.565C10.602,10.937,19.007,21.145,28.005,32
		C19.007,42.855,10.602,53.063,7.976,56.462c-0.429,0.555-0.162,1.364,0.509,1.565l5.404,1.612c2.866,0.855,5.963,0.033,8.049-2.111
		c1.522-1.565,2.856-3.358,4.242-5.006c1.658-1.972,3.293-3.964,4.903-5.974c0.272-0.34,3.113-3.788,4.218-5.297L51.636,60.401z"/>
</g>
</svg>
