<?xml version="1.0" encoding="utf-8"?>
<!-- Generator: Adobe Illustrator 26.0.1, SVG Export Plug-In . SVG Version: 6.00 Build 0)  -->
<svg version="1.1" id="Layer_1" xmlns="http://www.w3.org/2000/svg" xmlns:xlink="http://www.w3.org/1999/xlink" x="0px" y="0px"
	 viewBox="0 0 128 128" style="enable-background:new 0 0 128 128;" xml:space="preserve">
<g>
	<linearGradient id="SVGID_1_" gradientUnits="userSpaceOnUse" x1="8.148" y1="76.1574" x2="96.047" y2="79.0631">
		<stop  offset="0" style="stop-color:#F2A922"/>
		<stop  offset="0.1809" style="stop-color:#F2961E"/>
		<stop  offset="0.5007" style="stop-color:#F27B18"/>
		<stop  offset="0.7842" style="stop-color:#F26B14"/>
		<stop  offset="1" style="stop-color:#F26513"/>
	</linearGradient>
	<path style="fill:url(#SVGID_1_);" d="M7.829,25.783v89.294l15.758,11.954V34.658L7.829,25.783L7.829,25.783z"/>
	
		<linearGradient id="SVGID_00000157995495430076427690000006360776491027972227_" gradientUnits="userSpaceOnUse" x1="88.5477" y1="15.6779" x2="86.0389" y2="34.3795">
		<stop  offset="0" style="stop-color:#F2A922"/>
		<stop  offset="0.0053" style="stop-color:#F2A922"/>
		<stop  offset="0.6451" style="stop-color:#F28919"/>
		<stop  offset="1" style="stop-color:#F27D16"/>
	</linearGradient>
	<polygon style="fill:url(#SVGID_00000157995495430076427690000006360776491027972227_);" points="96.761,25.782 96.761,65.63 
		73.395,65.63 73.395,17.452 	"/>
	<polygon style="fill:none;" points="96.76,25.783 23.587,34.658 23.587,127.031 96.76,109.825 	"/>
	<polygon style="fill:none;" points="96.76,25.783 23.587,34.658 23.587,127.031 96.76,109.825 	"/>
	
		<linearGradient id="SVGID_00000021080057460768321960000000579008629198171303_" gradientUnits="userSpaceOnUse" x1="3.1339" y1="17.3277" x2="82.924" y2="7.1457">
		<stop  offset="0" style="stop-color:#F2A922"/>
		<stop  offset="0.0053" style="stop-color:#F2A922"/>
		<stop  offset="0.6451" style="stop-color:#F28919"/>
		<stop  offset="1" style="stop-color:#F27D16"/>
	</linearGradient>
	<polygon style="fill:url(#SVGID_00000021080057460768321960000000579008629198171303_);" points="73.395,17.452 20.228,24.582 
		11.271,25.782 7.469,12.985 5.837,7.49 70.678,0.969 	"/>
	<polygon style="fill:none;" points="96.76,25.783 23.587,34.658 23.587,127.031 96.76,109.825 	"/>
	
		<linearGradient id="SVGID_00000028307401666104678210000005784907083862738084_" gradientUnits="userSpaceOnUse" x1="48.705" y1="40.2685" x2="47.2285" y2="25.2577">
		<stop  offset="0" style="stop-color:#F2A922"/>
		<stop  offset="0.0053" style="stop-color:#F2A922"/>
		<stop  offset="0.6451" style="stop-color:#F28919"/>
		<stop  offset="1" style="stop-color:#F27D16"/>
	</linearGradient>
	<polygon style="fill:url(#SVGID_00000028307401666104678210000005784907083862738084_);" points="73.395,17.452 73.395,28.617 
		23.588,34.658 20.228,24.582 	"/>
	
		<linearGradient id="SVGID_00000089535624434744248270000001628040830663555230_" gradientUnits="userSpaceOnUse" x1="96.7046" y1="28.1025" x2="81.9792" y2="-2.3432">
		<stop  offset="0" style="stop-color:#F2A922"/>
		<stop  offset="0.0053" style="stop-color:#F2A922"/>
		<stop  offset="0.6451" style="stop-color:#F28919"/>
		<stop  offset="1" style="stop-color:#F27D16"/>
	</linearGradient>
	<polygon style="fill:url(#SVGID_00000089535624434744248270000001628040830663555230_);" points="82.633,0.969 104.368,6.403 
		96.754,25.783 73.395,17.452 	"/>
	
		<linearGradient id="SVGID_00000138535858078422846610000004682724171685614258_" gradientUnits="userSpaceOnUse" x1="0.32" y1="9.9066" x2="83.9376" y2="9.0948">
		<stop  offset="0" style="stop-color:#FFFFFF;stop-opacity:0.6"/>
		<stop  offset="0.0504" style="stop-color:#FDEEE1;stop-opacity:0.5698"/>
		<stop  offset="0.1399" style="stop-color:#FBD4B2;stop-opacity:0.516"/>
		<stop  offset="0.235" style="stop-color:#F8BD88;stop-opacity:0.459"/>
		<stop  offset="0.3341" style="stop-color:#F6A965;stop-opacity:0.3996"/>
		<stop  offset="0.438" style="stop-color:#F59948;stop-opacity:0.3372"/>
		<stop  offset="0.5488" style="stop-color:#F48D32;stop-opacity:0.2707"/>
		<stop  offset="0.6693" style="stop-color:#F38422;stop-opacity:0.1984"/>
		<stop  offset="0.807" style="stop-color:#F27F19;stop-opacity:0.1158"/>
		<stop  offset="1" style="stop-color:#F27D16;stop-opacity:0"/>
	</linearGradient>
	<polygon style="fill:url(#SVGID_00000138535858078422846610000004682724171685614258_);" points="8.56,16.658 7.469,12.985 
		5.837,7.49 70.678,0.969 73.395,17.452 	"/>
	<polyline style="fill:none;stroke:#6493D4;stroke-width:0.1115;stroke-miterlimit:10;" points="28.861,37.625 27.82,36.346 
		26.189,34.342 	"/>
	
		<linearGradient id="SVGID_00000058585288938943608690000004332587253081740730_" gradientUnits="userSpaceOnUse" x1="29.4338" y1="35.0125" x2="-9.5022" y2="2.9641">
		<stop  offset="0" style="stop-color:#F2A922"/>
		<stop  offset="0.0053" style="stop-color:#F2A922"/>
		<stop  offset="0.6451" style="stop-color:#F28919"/>
		<stop  offset="1" style="stop-color:#F27D16"/>
	</linearGradient>
	<polygon style="fill:url(#SVGID_00000058585288938943608690000004332587253081740730_);" points="23.588,34.658 7.829,25.782 
		2.396,11.113 7.469,12.985 17.609,16.727 20.228,24.582 	"/>
	<polygon style="fill:none;" points="96.76,25.783 23.587,34.658 23.587,127.031 96.76,109.825 	"/>
	
		<linearGradient id="SVGID_00000143598244816787541590000015050716502697698213_" gradientUnits="userSpaceOnUse" x1="40.0736" y1="40.9155" x2="80.3909" y2="112.1065">
		<stop  offset="0" style="stop-color:#F2A922"/>
		<stop  offset="0.1809" style="stop-color:#F2961E"/>
		<stop  offset="0.5007" style="stop-color:#F27B18"/>
		<stop  offset="0.7842" style="stop-color:#F26B14"/>
		<stop  offset="1" style="stop-color:#F26513"/>
	</linearGradient>
	<polygon style="fill:url(#SVGID_00000143598244816787541590000015050716502697698213_);" points="96.76,25.783 23.587,34.658 
		23.587,127.031 96.76,109.825 	"/>
	<polygon style="fill:none;" points="96.76,25.783 23.587,34.658 23.587,127.031 96.76,109.825 	"/>
	
		<linearGradient id="SVGID_00000065050084388928530700000008571619041019619250_" gradientUnits="userSpaceOnUse" x1="87.0344" y1="17.9473" x2="-2.7841" y2="103.0903">
		<stop  offset="0" style="stop-color:#FFFFFF;stop-opacity:0.6"/>
		<stop  offset="0.0224" style="stop-color:#FEF4EB;stop-opacity:0.5865"/>
		<stop  offset="0.0785" style="stop-color:#FBDBBF;stop-opacity:0.5529"/>
		<stop  offset="0.1402" style="stop-color:#F9C596;stop-opacity:0.5159"/>
		<stop  offset="0.2064" style="stop-color:#F7B174;stop-opacity:0.4761"/>
		<stop  offset="0.2783" style="stop-color:#F6A156;stop-opacity:0.433"/>
		<stop  offset="0.3576" style="stop-color:#F4943F;stop-opacity:0.3854"/>
		<stop  offset="0.4477" style="stop-color:#F3892C;stop-opacity:0.3314"/>
		<stop  offset="0.5548" style="stop-color:#F38220;stop-opacity:0.2671"/>
		<stop  offset="0.6956" style="stop-color:#F27E18;stop-opacity:0.1827"/>
		<stop  offset="1" style="stop-color:#F27D16;stop-opacity:0"/>
	</linearGradient>
	<path style="fill:url(#SVGID_00000065050084388928530700000008571619041019619250_);" d="M96.76,25.783l-73.174,8.875v63.533
		l36.769-16.362C82.495,71.978,96.76,50.016,96.76,25.783L96.76,25.783z"/>
	
		<linearGradient id="SVGID_00000033330545652604464060000013764299749338378422_" gradientUnits="userSpaceOnUse" x1="2.8025" y1="12.1363" x2="23.6907" y2="41.4047">
		<stop  offset="0" style="stop-color:#FFFFFF;stop-opacity:0.6"/>
		<stop  offset="0.0504" style="stop-color:#FDEEE1;stop-opacity:0.5698"/>
		<stop  offset="0.1399" style="stop-color:#FBD4B2;stop-opacity:0.516"/>
		<stop  offset="0.235" style="stop-color:#F8BD88;stop-opacity:0.459"/>
		<stop  offset="0.3341" style="stop-color:#F6A965;stop-opacity:0.3996"/>
		<stop  offset="0.438" style="stop-color:#F59948;stop-opacity:0.3372"/>
		<stop  offset="0.5488" style="stop-color:#F48D32;stop-opacity:0.2707"/>
		<stop  offset="0.6693" style="stop-color:#F38422;stop-opacity:0.1984"/>
		<stop  offset="0.807" style="stop-color:#F27F19;stop-opacity:0.1158"/>
		<stop  offset="1" style="stop-color:#F27D16;stop-opacity:0"/>
	</linearGradient>
	<polygon style="fill:url(#SVGID_00000033330545652604464060000013764299749338378422_);" points="23.588,34.658 7.829,25.782 
		2.396,11.113 	"/>
	
		<linearGradient id="SVGID_00000145776777174124777070000018005599756612748978_" gradientUnits="userSpaceOnUse" x1="104.2262" y1="4.8444" x2="73.3464" y2="10.7878">
		<stop  offset="0" style="stop-color:#FFFFFF;stop-opacity:0.6"/>
		<stop  offset="0.0504" style="stop-color:#FDEEE1;stop-opacity:0.5698"/>
		<stop  offset="0.1399" style="stop-color:#FBD4B2;stop-opacity:0.516"/>
		<stop  offset="0.235" style="stop-color:#F8BD88;stop-opacity:0.459"/>
		<stop  offset="0.3341" style="stop-color:#F6A965;stop-opacity:0.3996"/>
		<stop  offset="0.438" style="stop-color:#F59948;stop-opacity:0.3372"/>
		<stop  offset="0.5488" style="stop-color:#F48D32;stop-opacity:0.2707"/>
		<stop  offset="0.6693" style="stop-color:#F38422;stop-opacity:0.1984"/>
		<stop  offset="0.807" style="stop-color:#F27F19;stop-opacity:0.1158"/>
		<stop  offset="1" style="stop-color:#F27D16;stop-opacity:0"/>
	</linearGradient>
	<polygon style="fill:url(#SVGID_00000145776777174124777070000018005599756612748978_);" points="82.633,0.969 104.368,6.403 
		101.628,13.376 76.406,12.079 	"/>
	
		<linearGradient id="SVGID_00000008836061996952523530000005815805844460095935_" gradientUnits="userSpaceOnUse" x1="16.1886" y1="43.648" x2="114.0547" y2="28.0736">
		<stop  offset="0" style="stop-color:#F2A922"/>
		<stop  offset="0.0053" style="stop-color:#F2A922"/>
		<stop  offset="0.6451" style="stop-color:#F28919"/>
		<stop  offset="1" style="stop-color:#F27D16"/>
	</linearGradient>
	<polygon style="fill:url(#SVGID_00000008836061996952523530000005815805844460095935_);" points="109.258,36.65 96.761,38.359 
		73.395,41.552 33.73,46.974 23.588,34.658 73.395,28.617 96.761,25.782 	"/>
	
		<linearGradient id="SVGID_00000149358603289978979380000007784268923725249177_" gradientUnits="userSpaceOnUse" x1="22.5936" y1="34.5363" x2="106.1481" y2="32.2212">
		<stop  offset="0" style="stop-color:#FFFFFF;stop-opacity:0.6"/>
		<stop  offset="0.1112" style="stop-color:#FCE1CA;stop-opacity:0.5333"/>
		<stop  offset="0.2266" style="stop-color:#F9C79B;stop-opacity:0.464"/>
		<stop  offset="0.346" style="stop-color:#F7B072;stop-opacity:0.3924"/>
		<stop  offset="0.4672" style="stop-color:#F59E51;stop-opacity:0.3197"/>
		<stop  offset="0.591" style="stop-color:#F48F37;stop-opacity:0.2454"/>
		<stop  offset="0.7184" style="stop-color:#F38524;stop-opacity:0.169"/>
		<stop  offset="0.8516" style="stop-color:#F27F1A;stop-opacity:0.0891"/>
		<stop  offset="1" style="stop-color:#F27D16;stop-opacity:0"/>
	</linearGradient>
	<polygon style="fill:url(#SVGID_00000149358603289978979380000007784268923725249177_);" points="28.861,41.062 23.588,34.658 
		73.395,28.617 96.761,25.782 106.968,34.658 	"/>
	
		<linearGradient id="SVGID_00000155862507362709198900000013308217532993462188_" gradientUnits="userSpaceOnUse" x1="-3.8255" y1="18.1258" x2="37.0234" y2="201.4539">
		<stop  offset="0" style="stop-color:#FFFFFF;stop-opacity:0.6"/>
		<stop  offset="0.0134" style="stop-color:#FEF9F4;stop-opacity:0.592"/>
		<stop  offset="0.076" style="stop-color:#FCDFC6;stop-opacity:0.5544"/>
		<stop  offset="0.1443" style="stop-color:#F9C89C;stop-opacity:0.5134"/>
		<stop  offset="0.217" style="stop-color:#F7B478;stop-opacity:0.4698"/>
		<stop  offset="0.2951" style="stop-color:#F6A359;stop-opacity:0.4229"/>
		<stop  offset="0.3804" style="stop-color:#F49541;stop-opacity:0.3717"/>
		<stop  offset="0.4758" style="stop-color:#F38A2D;stop-opacity:0.3145"/>
		<stop  offset="0.5868" style="stop-color:#F38320;stop-opacity:0.2479"/>
		<stop  offset="0.7279" style="stop-color:#F27E18;stop-opacity:0.1633"/>
		<stop  offset="1" style="stop-color:#F27D16;stop-opacity:0"/>
	</linearGradient>
	<path style="fill:url(#SVGID_00000155862507362709198900000013308217532993462188_);" d="M7.829,25.783L7.829,25.783v89.294
		l15.758,11.954"/>
</g>
<g>
	<defs>
		<path id="SVGID_00000041290579408680823920000000891551783522732187_" d="M114.85,64.085c-14.342-14.342-37.594-14.342-51.936,0
			c-14.34,14.34-14.34,37.592,0,51.934c14.342,14.342,37.594,14.342,51.936,0C129.189,101.678,129.189,78.425,114.85,64.085z
			 M91.903,93.073c-1.667,1.665-4.376,1.665-6.044,0c-1.665-1.667-1.665-4.376,0-6.041c1.667-1.667,4.376-1.667,6.044,0
			C93.568,88.697,93.568,91.406,91.903,93.073z"/>
	</defs>
	<clipPath id="SVGID_00000124857878577362269630000015212075719124004503_">
		<use xlink:href="#SVGID_00000041290579408680823920000000891551783522732187_"  style="overflow:visible;"/>
	</clipPath>
	
		<linearGradient id="SVGID_00000090999780994603020910000014477797515067756423_" gradientUnits="userSpaceOnUse" x1="50.8374" y1="54.0233" x2="129.8284" y2="128.831">
		<stop  offset="0" style="stop-color:#E6E6E6"/>
		<stop  offset="0.2074" style="stop-color:#E9E9E9"/>
		<stop  offset="0.3682" style="stop-color:#F3F3F3"/>
		<stop  offset="0.4814" style="stop-color:#FFFFFF"/>
		<stop  offset="0.6048" style="stop-color:#F2F2F2"/>
		<stop  offset="0.7639" style="stop-color:#E9E9E9"/>
		<stop  offset="1" style="stop-color:#E6E6E6"/>
	</linearGradient>
	
		<circle style="clip-path:url(#SVGID_00000124857878577362269630000015212075719124004503_);fill:url(#SVGID_00000090999780994603020910000014477797515067756423_);" cx="88.881" cy="90.053" r="36.724"/>
	
		<linearGradient id="SVGID_00000119822109505190955170000005891916317213580976_" gradientUnits="userSpaceOnUse" x1="-4496.0249" y1="8776.0635" x2="-4372.9858" y2="8776.0635" gradientTransform="matrix(-0.7071 0.7071 -0.7071 -0.7071 3158.1504 9431.335)">
		<stop  offset="0" style="stop-color:#E6E6E6;stop-opacity:0"/>
		<stop  offset="0.2028" style="stop-color:#E3EBE9;stop-opacity:0.4077"/>
		<stop  offset="0.4558" style="stop-color:#DCFBF0;stop-opacity:0.9161"/>
		<stop  offset="0.4975" style="stop-color:#DAFEF2"/>
		<stop  offset="0.5509" style="stop-color:#DCFAF0;stop-opacity:0.8938"/>
		<stop  offset="0.7963" style="stop-color:#E3EBE9;stop-opacity:0.4054"/>
		<stop  offset="1" style="stop-color:#E6E6E6;stop-opacity:0"/>
	</linearGradient>
	
		<polygon style="clip-path:url(#SVGID_00000124857878577362269630000015212075719124004503_);fill:url(#SVGID_00000119822109505190955170000005891916317213580976_);" points="
		30.385,119.233 86.246,88.092 117.387,32.231 146.026,60.87 90.48,91.696 59.024,147.872 	"/>
	<path style="clip-path:url(#SVGID_00000124857878577362269630000015212075719124004503_);fill:none;" d="M62.915,64.084
		c-14.342,14.342-14.342,37.594,0,51.937c14.341,14.341,37.593,14.341,51.935-0.002c14.341-14.341,14.341-37.593,0-51.933
		C100.507,49.744,77.255,49.744,62.915,64.084z M91.903,93.073c-1.665,1.665-4.375,1.665-6.041,0c-1.665-1.665-1.666-4.375,0-6.041
		c1.666-1.666,4.376-1.665,6.041,0C93.569,88.698,93.569,91.407,91.903,93.073z"/>
	
		<linearGradient id="SVGID_00000070820591861052467910000004340113213369665925_" gradientUnits="userSpaceOnUse" x1="-3627.4858" y1="1146.5078" x2="-3640.282" y2="1220.5773" gradientTransform="matrix(0.7071 0.7071 -0.7071 0.7071 3492.644 1824.1127)">
		<stop  offset="0" style="stop-color:#E6E6E6;stop-opacity:0"/>
		<stop  offset="0.1774" style="stop-color:#E1E6E7;stop-opacity:0.3565"/>
		<stop  offset="0.3811" style="stop-color:#D3E4EA;stop-opacity:0.7659"/>
		<stop  offset="0.4975" style="stop-color:#C8E3ED"/>
		<stop  offset="0.6362" style="stop-color:#D7E4EA;stop-opacity:0.724"/>
		<stop  offset="0.8145" style="stop-color:#E2E6E7;stop-opacity:0.3692"/>
		<stop  offset="1" style="stop-color:#E6E6E6;stop-opacity:0"/>
	</linearGradient>
	
		<polygon style="clip-path:url(#SVGID_00000124857878577362269630000015212075719124004503_);fill:url(#SVGID_00000070820591861052467910000004340113213369665925_);" points="
		117.387,147.872 86.246,92.011 30.385,60.87 59.024,32.231 89.85,87.777 146.026,119.233 	"/>
	<g style="clip-path:url(#SVGID_00000124857878577362269630000015212075719124004503_);">
		<path style="fill:#FFFFFF;" d="M85.861,87.032c-1.666,1.666-1.666,4.376,0,6.042c1.666,1.666,4.376,1.666,6.042,0
			c1.666-1.666,1.666-4.376,0-6.042C90.236,85.366,87.526,85.366,85.861,87.032z"/>
		
			<linearGradient id="SVGID_00000139274368350656502810000012321539917666521992_" gradientUnits="userSpaceOnUse" x1="94.3027" y1="84.3925" x2="83.46" y2="95.7125">
			<stop  offset="0" style="stop-color:#C8E3ED"/>
			<stop  offset="0.0886" style="stop-color:#D9ECF3"/>
			<stop  offset="0.2315" style="stop-color:#EEF6F9"/>
			<stop  offset="0.3713" style="stop-color:#FBFDFE"/>
			<stop  offset="0.5036" style="stop-color:#FFFFFF"/>
			<stop  offset="0.6626" style="stop-color:#FBFFFD"/>
			<stop  offset="0.836" style="stop-color:#EDFFF9"/>
			<stop  offset="1" style="stop-color:#DAFEF2"/>
		</linearGradient>
		<path style="fill:url(#SVGID_00000139274368350656502810000012321539917666521992_);" d="M83.339,84.511
			c-3.056,3.056-3.056,8.028,0,11.084s8.028,3.056,11.084,0c3.056-3.056,3.056-8.028,0-11.084S86.395,81.455,83.339,84.511z
			 M92.154,93.325c-1.805,1.805-4.741,1.805-6.546,0c-1.805-1.805-1.805-4.741,0-6.546c1.805-1.805,4.741-1.805,6.546,0
			C93.959,88.584,93.959,91.521,92.154,93.325z"/>
		
			<linearGradient id="SVGID_00000161603844209613112200000007767894843888444832_" gradientUnits="userSpaceOnUse" x1="79.2612" y1="90.0525" x2="98.5015" y2="90.0525">
			<stop  offset="0" style="stop-color:#F29422"/>
			<stop  offset="0.3715" style="stop-color:#F27B1A"/>
			<stop  offset="0.7283" style="stop-color:#F26B15"/>
			<stop  offset="1" style="stop-color:#F26513"/>
		</linearGradient>
		<path style="opacity:0.42;fill:url(#SVGID_00000161603844209613112200000007767894843888444832_);" d="M82.079,83.25
			c-3.757,3.757-3.757,9.848,0,13.605c3.757,3.757,9.848,3.757,13.605,0c3.757-3.757,3.757-9.848,0-13.605
			C91.927,79.493,85.836,79.493,82.079,83.25z M94.675,95.846c-3.195,3.195-8.393,3.195-11.588,0s-3.195-8.393,0-11.588
			s8.393-3.195,11.588,0C97.87,87.453,97.87,92.652,94.675,95.846z"/>
	</g>
	<path style="clip-path:url(#SVGID_00000124857878577362269630000015212075719124004503_);fill:none;" d="M114.85,64.084
		c-14.342-14.34-37.594-14.34-51.936,0c-14.34,14.342-14.34,37.594,0,51.936c14.342,14.34,37.594,14.34,51.936,0
		C129.189,101.679,129.189,78.426,114.85,64.084z M91.901,93.072c-1.665,1.667-4.374,1.667-6.041,0
		c-1.665-1.665-1.665-4.374,0-6.041c1.667-1.665,4.376-1.665,6.041,0C93.568,88.698,93.568,91.407,91.901,93.072z"/>
	
		<path style="clip-path:url(#SVGID_00000124857878577362269630000015212075719124004503_);fill:none;stroke:#D9430D;stroke-width:0.437;stroke-miterlimit:10;" d="
		M114.85,64.085c-14.342-14.342-37.594-14.342-51.936,0c-14.34,14.34-14.34,37.592,0,51.934c14.342,14.342,37.594,14.342,51.936,0
		C129.189,101.678,129.189,78.425,114.85,64.085z M91.903,93.073c-1.667,1.665-4.376,1.665-6.044,0
		c-1.665-1.667-1.665-4.376,0-6.041c1.667-1.667,4.376-1.667,6.044,0C93.568,88.697,93.568,91.406,91.903,93.073z"/>
</g>
</svg>
