<?xml version="1.0" encoding="utf-8"?>
<!-- Generator: Adobe Illustrator 26.0.1, SVG Export Plug-In . SVG Version: 6.00 Build 0)  -->
<svg version="1.1" id="Layer_1" xmlns="http://www.w3.org/2000/svg" xmlns:xlink="http://www.w3.org/1999/xlink" x="0px" y="0px"
	 viewBox="0 0 55 55" style="enable-background:new 0 0 55 55;" xml:space="preserve">
<g>
	<g>
		<linearGradient id="SVGID_1_" gradientUnits="userSpaceOnUse" x1="2.7994" y1="32.6842" x2="40.5625" y2="33.9325">
			<stop  offset="0" style="stop-color:#F2A922"/>
			<stop  offset="0.1809" style="stop-color:#F2961E"/>
			<stop  offset="0.5007" style="stop-color:#F27B18"/>
			<stop  offset="0.7842" style="stop-color:#F26B14"/>
			<stop  offset="1" style="stop-color:#F26513"/>
		</linearGradient>
		<path style="fill:url(#SVGID_1_);" d="M2.662,11.042v38.362l6.77,5.136V14.855L2.662,11.042L2.662,11.042z"/>
		
			<linearGradient id="SVGID_00000157277722765217315490000004385174908946478472_" gradientUnits="userSpaceOnUse" x1="37.3407" y1="6.701" x2="36.2629" y2="14.7356">
			<stop  offset="0" style="stop-color:#F2A922"/>
			<stop  offset="0.0053" style="stop-color:#F2A922"/>
			<stop  offset="0.6451" style="stop-color:#F28919"/>
			<stop  offset="1" style="stop-color:#F27D16"/>
		</linearGradient>
		<polygon style="fill:url(#SVGID_00000157277722765217315490000004385174908946478472_);" points="40.869,11.042 40.869,28.161 
			30.831,28.161 30.831,7.463 		"/>
		<polygon style="fill:none;" points="40.869,11.042 9.432,14.855 9.432,54.541 40.869,47.148 		"/>
		<polygon style="fill:none;" points="40.869,11.042 9.432,14.855 9.432,54.541 40.869,47.148 		"/>
		
			<linearGradient id="SVGID_00000013883054049717205060000016107746286316241546_" gradientUnits="userSpaceOnUse" x1="0.6452" y1="7.4098" x2="34.9246" y2="3.0354">
			<stop  offset="0" style="stop-color:#F2A922"/>
			<stop  offset="0.0053" style="stop-color:#F2A922"/>
			<stop  offset="0.6451" style="stop-color:#F28919"/>
			<stop  offset="1" style="stop-color:#F27D16"/>
		</linearGradient>
		<polygon style="fill:url(#SVGID_00000013883054049717205060000016107746286316241546_);" points="30.831,7.463 7.989,10.526 
			4.141,11.042 2.508,5.544 1.807,3.183 29.664,0.382 		"/>
		<polygon style="fill:none;" points="40.869,11.042 9.432,14.855 9.432,54.541 40.869,47.148 		"/>
		
			<linearGradient id="SVGID_00000023258485955374091280000007218857897918243519_" gradientUnits="userSpaceOnUse" x1="20.2235" y1="17.2656" x2="19.5891" y2="10.8167">
			<stop  offset="0" style="stop-color:#F2A922"/>
			<stop  offset="0.0053" style="stop-color:#F2A922"/>
			<stop  offset="0.6451" style="stop-color:#F28919"/>
			<stop  offset="1" style="stop-color:#F27D16"/>
		</linearGradient>
		<polygon style="fill:url(#SVGID_00000023258485955374091280000007218857897918243519_);" points="30.831,7.463 30.831,12.26 
			9.433,14.855 7.989,10.526 		"/>
		
			<linearGradient id="SVGID_00000004505248536419197030000014527425327592379298_" gradientUnits="userSpaceOnUse" x1="40.845" y1="12.0389" x2="34.5187" y2="-1.0412">
			<stop  offset="0" style="stop-color:#F2A922"/>
			<stop  offset="0.0053" style="stop-color:#F2A922"/>
			<stop  offset="0.6451" style="stop-color:#F28919"/>
			<stop  offset="1" style="stop-color:#F27D16"/>
		</linearGradient>
		<polygon style="fill:url(#SVGID_00000004505248536419197030000014527425327592379298_);" points="34.8,0.382 44.137,2.716 
			40.866,11.042 30.831,7.463 		"/>
		
			<linearGradient id="SVGID_00000146478220175214275030000015576670858779818430_" gradientUnits="userSpaceOnUse" x1="-0.5637" y1="4.2215" x2="35.3601" y2="3.8728">
			<stop  offset="0" style="stop-color:#FFFFFF;stop-opacity:0.6"/>
			<stop  offset="0.0504" style="stop-color:#FDEEE1;stop-opacity:0.5698"/>
			<stop  offset="0.1399" style="stop-color:#FBD4B2;stop-opacity:0.516"/>
			<stop  offset="0.235" style="stop-color:#F8BD88;stop-opacity:0.459"/>
			<stop  offset="0.3341" style="stop-color:#F6A965;stop-opacity:0.3996"/>
			<stop  offset="0.438" style="stop-color:#F59948;stop-opacity:0.3372"/>
			<stop  offset="0.5488" style="stop-color:#F48D32;stop-opacity:0.2707"/>
			<stop  offset="0.6693" style="stop-color:#F38422;stop-opacity:0.1984"/>
			<stop  offset="0.807" style="stop-color:#F27F19;stop-opacity:0.1158"/>
			<stop  offset="1" style="stop-color:#F27D16;stop-opacity:0"/>
		</linearGradient>
		<polygon style="fill:url(#SVGID_00000146478220175214275030000015576670858779818430_);" points="2.976,7.122 2.508,5.544 
			1.807,3.183 29.664,0.382 30.831,7.463 		"/>
		<polyline style="fill:none;stroke:#6493D4;stroke-width:0.1115;stroke-miterlimit:10;" points="11.698,16.13 11.251,15.58 
			10.55,14.72 		"/>
		
			<linearGradient id="SVGID_00000016759193476561224810000005788024463771346062_" gradientUnits="userSpaceOnUse" x1="11.9442" y1="15.0075" x2="-4.7835" y2="1.2389">
			<stop  offset="0" style="stop-color:#F2A922"/>
			<stop  offset="0.0053" style="stop-color:#F2A922"/>
			<stop  offset="0.6451" style="stop-color:#F28919"/>
			<stop  offset="1" style="stop-color:#F27D16"/>
		</linearGradient>
		<polygon style="fill:url(#SVGID_00000016759193476561224810000005788024463771346062_);" points="9.433,14.855 2.662,11.042 
			0.328,4.74 2.508,5.544 6.864,7.152 7.989,10.526 		"/>
		<polygon style="fill:none;" points="40.869,11.042 9.432,14.855 9.432,54.541 40.869,47.148 		"/>
		
			<linearGradient id="SVGID_00000026141167323657624660000014401837424907796919_" gradientUnits="userSpaceOnUse" x1="16.5153" y1="17.5436" x2="33.8364" y2="48.1286">
			<stop  offset="0" style="stop-color:#F2A922"/>
			<stop  offset="0.1809" style="stop-color:#F2961E"/>
			<stop  offset="0.5007" style="stop-color:#F27B18"/>
			<stop  offset="0.7842" style="stop-color:#F26B14"/>
			<stop  offset="1" style="stop-color:#F26513"/>
		</linearGradient>
		<polygon style="fill:url(#SVGID_00000026141167323657624660000014401837424907796919_);" points="40.869,11.042 9.432,14.855 
			9.432,54.541 40.869,47.148 		"/>
		<polygon style="fill:none;" points="40.869,11.042 9.432,14.855 9.432,54.541 40.869,47.148 		"/>
		
			<linearGradient id="SVGID_00000098188328955403279770000001133284128847484577_" gradientUnits="userSpaceOnUse" x1="36.6905" y1="7.676" x2="-1.8972" y2="44.2551">
			<stop  offset="0" style="stop-color:#FFFFFF;stop-opacity:0.6"/>
			<stop  offset="0.0224" style="stop-color:#FEF4EB;stop-opacity:0.5865"/>
			<stop  offset="0.0785" style="stop-color:#FBDBBF;stop-opacity:0.5529"/>
			<stop  offset="0.1402" style="stop-color:#F9C596;stop-opacity:0.5159"/>
			<stop  offset="0.2064" style="stop-color:#F7B174;stop-opacity:0.4761"/>
			<stop  offset="0.2783" style="stop-color:#F6A156;stop-opacity:0.433"/>
			<stop  offset="0.3576" style="stop-color:#F4943F;stop-opacity:0.3854"/>
			<stop  offset="0.4477" style="stop-color:#F3892C;stop-opacity:0.3314"/>
			<stop  offset="0.5548" style="stop-color:#F38220;stop-opacity:0.2671"/>
			<stop  offset="0.6956" style="stop-color:#F27E18;stop-opacity:0.1827"/>
			<stop  offset="1" style="stop-color:#F27D16;stop-opacity:0"/>
		</linearGradient>
		<path style="fill:url(#SVGID_00000098188328955403279770000001133284128847484577_);" d="M40.869,11.042L9.432,14.855V42.15
			l15.797-7.029C34.74,30.888,40.869,21.453,40.869,11.042L40.869,11.042z"/>
		
			<linearGradient id="SVGID_00000121987133508526778810000014185159273399700400_" gradientUnits="userSpaceOnUse" x1="0.5029" y1="5.1794" x2="9.4768" y2="17.7537">
			<stop  offset="0" style="stop-color:#FFFFFF;stop-opacity:0.6"/>
			<stop  offset="0.0504" style="stop-color:#FDEEE1;stop-opacity:0.5698"/>
			<stop  offset="0.1399" style="stop-color:#FBD4B2;stop-opacity:0.516"/>
			<stop  offset="0.235" style="stop-color:#F8BD88;stop-opacity:0.459"/>
			<stop  offset="0.3341" style="stop-color:#F6A965;stop-opacity:0.3996"/>
			<stop  offset="0.438" style="stop-color:#F59948;stop-opacity:0.3372"/>
			<stop  offset="0.5488" style="stop-color:#F48D32;stop-opacity:0.2707"/>
			<stop  offset="0.6693" style="stop-color:#F38422;stop-opacity:0.1984"/>
			<stop  offset="0.807" style="stop-color:#F27F19;stop-opacity:0.1158"/>
			<stop  offset="1" style="stop-color:#F27D16;stop-opacity:0"/>
		</linearGradient>
		<polygon style="fill:url(#SVGID_00000121987133508526778810000014185159273399700400_);" points="9.433,14.855 2.662,11.042 
			0.328,4.74 		"/>
		
			<linearGradient id="SVGID_00000179618600149181459760000007902052848940595626_" gradientUnits="userSpaceOnUse" x1="44.0765" y1="2.0467" x2="30.8099" y2="4.6001">
			<stop  offset="0" style="stop-color:#FFFFFF;stop-opacity:0.6"/>
			<stop  offset="0.0504" style="stop-color:#FDEEE1;stop-opacity:0.5698"/>
			<stop  offset="0.1399" style="stop-color:#FBD4B2;stop-opacity:0.516"/>
			<stop  offset="0.235" style="stop-color:#F8BD88;stop-opacity:0.459"/>
			<stop  offset="0.3341" style="stop-color:#F6A965;stop-opacity:0.3996"/>
			<stop  offset="0.438" style="stop-color:#F59948;stop-opacity:0.3372"/>
			<stop  offset="0.5488" style="stop-color:#F48D32;stop-opacity:0.2707"/>
			<stop  offset="0.6693" style="stop-color:#F38422;stop-opacity:0.1984"/>
			<stop  offset="0.807" style="stop-color:#F27F19;stop-opacity:0.1158"/>
			<stop  offset="1" style="stop-color:#F27D16;stop-opacity:0"/>
		</linearGradient>
		<polygon style="fill:url(#SVGID_00000179618600149181459760000007902052848940595626_);" points="34.8,0.382 44.137,2.716 
			42.96,5.712 32.124,5.155 		"/>
		
			<linearGradient id="SVGID_00000103250744599048010140000016535030102600087709_" gradientUnits="userSpaceOnUse" x1="6.2538" y1="18.7175" x2="48.299" y2="12.0264">
			<stop  offset="0" style="stop-color:#F2A922"/>
			<stop  offset="0.0053" style="stop-color:#F2A922"/>
			<stop  offset="0.6451" style="stop-color:#F28919"/>
			<stop  offset="1" style="stop-color:#F27D16"/>
		</linearGradient>
		<polygon style="fill:url(#SVGID_00000103250744599048010140000016535030102600087709_);" points="46.238,15.711 40.869,16.445 
			30.831,17.817 13.79,20.147 9.433,14.855 30.831,12.26 40.869,11.042 		"/>
		
			<linearGradient id="SVGID_00000004531601923169582160000004774229922354794412_" gradientUnits="userSpaceOnUse" x1="9.0055" y1="14.8029" x2="44.9022" y2="13.8083">
			<stop  offset="0" style="stop-color:#FFFFFF;stop-opacity:0.6"/>
			<stop  offset="0.1112" style="stop-color:#FCE1CA;stop-opacity:0.5333"/>
			<stop  offset="0.2266" style="stop-color:#F9C79B;stop-opacity:0.464"/>
			<stop  offset="0.346" style="stop-color:#F7B072;stop-opacity:0.3924"/>
			<stop  offset="0.4672" style="stop-color:#F59E51;stop-opacity:0.3197"/>
			<stop  offset="0.591" style="stop-color:#F48F37;stop-opacity:0.2454"/>
			<stop  offset="0.7184" style="stop-color:#F38524;stop-opacity:0.169"/>
			<stop  offset="0.8516" style="stop-color:#F27F1A;stop-opacity:0.0891"/>
			<stop  offset="1" style="stop-color:#F27D16;stop-opacity:0"/>
		</linearGradient>
		<polygon style="fill:url(#SVGID_00000004531601923169582160000004774229922354794412_);" points="11.698,17.606 9.433,14.855 
			30.831,12.26 40.869,11.042 45.254,14.855 		"/>
		
			<linearGradient id="SVGID_00000047748332847083567220000014778332654938469773_" gradientUnits="userSpaceOnUse" x1="-2.3447" y1="7.7526" x2="15.2049" y2="86.514">
			<stop  offset="0" style="stop-color:#FFFFFF;stop-opacity:0.6"/>
			<stop  offset="0.0134" style="stop-color:#FEF9F4;stop-opacity:0.592"/>
			<stop  offset="0.076" style="stop-color:#FCDFC6;stop-opacity:0.5544"/>
			<stop  offset="0.1443" style="stop-color:#F9C89C;stop-opacity:0.5134"/>
			<stop  offset="0.217" style="stop-color:#F7B478;stop-opacity:0.4698"/>
			<stop  offset="0.2951" style="stop-color:#F6A359;stop-opacity:0.4229"/>
			<stop  offset="0.3804" style="stop-color:#F49541;stop-opacity:0.3717"/>
			<stop  offset="0.4758" style="stop-color:#F38A2D;stop-opacity:0.3145"/>
			<stop  offset="0.5868" style="stop-color:#F38320;stop-opacity:0.2479"/>
			<stop  offset="0.7279" style="stop-color:#F27E18;stop-opacity:0.1633"/>
			<stop  offset="1" style="stop-color:#F27D16;stop-opacity:0"/>
		</linearGradient>
		<path style="fill:url(#SVGID_00000047748332847083567220000014778332654938469773_);" d="M2.662,11.042L2.662,11.042v38.362
			l6.77,5.136"/>
	</g>
	<g>
		<defs>
			<path id="SVGID_00000135671938151849222910000005899700891550236855_" d="M48.64,27.498c-6.162-6.162-16.151-6.162-22.313,0
				c-6.161,6.161-6.161,16.15,0,22.312c6.162,6.162,16.151,6.162,22.313,0C54.801,43.648,54.801,33.659,48.64,27.498z
				 M38.782,39.952c-0.716,0.715-1.88,0.715-2.596,0c-0.715-0.716-0.715-1.88,0-2.596c0.716-0.716,1.88-0.716,2.596,0
				C39.498,38.071,39.498,39.235,38.782,39.952z"/>
		</defs>
		<clipPath id="SVGID_00000076585580913612967870000012484740956618079106_">
			<use xlink:href="#SVGID_00000135671938151849222910000005899700891550236855_"  style="overflow:visible;"/>
		</clipPath>
		
			<linearGradient id="SVGID_00000045599212294912428620000005897437891264095104_" gradientUnits="userSpaceOnUse" x1="21.1396" y1="23.1749" x2="55.0757" y2="55.3138">
			<stop  offset="0" style="stop-color:#E6E6E6"/>
			<stop  offset="0.2074" style="stop-color:#E9E9E9"/>
			<stop  offset="0.3682" style="stop-color:#F3F3F3"/>
			<stop  offset="0.4814" style="stop-color:#FFFFFF"/>
			<stop  offset="0.6048" style="stop-color:#F2F2F2"/>
			<stop  offset="0.7639" style="stop-color:#E9E9E9"/>
			<stop  offset="1" style="stop-color:#E6E6E6"/>
		</linearGradient>
		
			<circle style="clip-path:url(#SVGID_00000076585580913612967870000012484740956618079106_);fill:url(#SVGID_00000045599212294912428620000005897437891264095104_);" cx="37.484" cy="38.654" r="15.777"/>
		
			<linearGradient id="SVGID_00000046325924597044822350000008107647825377126327_" gradientUnits="userSpaceOnUse" x1="-4498.209" y1="8759.1523" x2="-4445.3486" y2="8759.1523" gradientTransform="matrix(-0.7071 0.7071 -0.7071 -0.7071 3068.8245 9394.335)">
			<stop  offset="0" style="stop-color:#E6E6E6;stop-opacity:0"/>
			<stop  offset="0.2028" style="stop-color:#E3EBE9;stop-opacity:0.4077"/>
			<stop  offset="0.4558" style="stop-color:#DCFBF0;stop-opacity:0.9161"/>
			<stop  offset="0.4975" style="stop-color:#DAFEF2"/>
			<stop  offset="0.5509" style="stop-color:#DCFAF0;stop-opacity:0.8938"/>
			<stop  offset="0.7963" style="stop-color:#E3EBE9;stop-opacity:0.4054"/>
			<stop  offset="1" style="stop-color:#E6E6E6;stop-opacity:0"/>
		</linearGradient>
		
			<polygon style="clip-path:url(#SVGID_00000076585580913612967870000012484740956618079106_);fill:url(#SVGID_00000046325924597044822350000008107647825377126327_);" points="
			12.353,51.19 36.352,37.812 49.73,13.813 62.034,26.117 38.171,39.36 24.657,63.494 		"/>
		<path style="clip-path:url(#SVGID_00000076585580913612967870000012484740956618079106_);fill:none;" d="M26.328,27.497
			c-6.162,6.162-6.162,16.151,0,22.313c6.161,6.161,16.151,6.161,22.312-0.001c6.161-6.161,6.161-16.151,0-22.312
			C42.479,21.336,32.489,21.336,26.328,27.497z M38.782,39.951c-0.716,0.716-1.88,0.716-2.595,0s-0.716-1.88,0-2.595
			c0.716-0.716,1.88-0.716,2.595,0S39.498,39.236,38.782,39.951z"/>
		
			<linearGradient id="SVGID_00000012446793611998931200000008055571058173191073_" gradientUnits="userSpaceOnUse" x1="-3687.9868" y1="1128.9854" x2="-3693.4841" y2="1160.807" gradientTransform="matrix(0.7071 0.7071 -0.7071 0.7071 3455.644 1839.4386)">
			<stop  offset="0" style="stop-color:#E6E6E6;stop-opacity:0"/>
			<stop  offset="0.1774" style="stop-color:#E1E6E7;stop-opacity:0.3565"/>
			<stop  offset="0.3811" style="stop-color:#D3E4EA;stop-opacity:0.7659"/>
			<stop  offset="0.4975" style="stop-color:#C8E3ED"/>
			<stop  offset="0.6362" style="stop-color:#D7E4EA;stop-opacity:0.724"/>
			<stop  offset="0.8145" style="stop-color:#E2E6E7;stop-opacity:0.3692"/>
			<stop  offset="1" style="stop-color:#E6E6E6;stop-opacity:0"/>
		</linearGradient>
		
			<polygon style="clip-path:url(#SVGID_00000076585580913612967870000012484740956618079106_);fill:url(#SVGID_00000012446793611998931200000008055571058173191073_);" points="
			49.73,63.494 36.352,39.495 12.353,26.117 24.657,13.813 37.9,37.676 62.034,51.19 		"/>
		<g style="clip-path:url(#SVGID_00000076585580913612967870000012484740956618079106_);">
			<path style="fill:#FFFFFF;" d="M36.186,37.356c-0.716,0.716-0.716,1.88,0,2.596s1.88,0.716,2.596,0s0.716-1.88,0-2.596
				S36.902,36.64,36.186,37.356z"/>
			
				<linearGradient id="SVGID_00000032609778182858450350000004510980572482970537_" gradientUnits="userSpaceOnUse" x1="39.8132" y1="36.2222" x2="35.1549" y2="41.0854">
				<stop  offset="0" style="stop-color:#C8E3ED"/>
				<stop  offset="0.0886" style="stop-color:#D9ECF3"/>
				<stop  offset="0.2315" style="stop-color:#EEF6F9"/>
				<stop  offset="0.3713" style="stop-color:#FBFDFE"/>
				<stop  offset="0.5036" style="stop-color:#FFFFFF"/>
				<stop  offset="0.6626" style="stop-color:#FBFFFD"/>
				<stop  offset="0.836" style="stop-color:#EDFFF9"/>
				<stop  offset="1" style="stop-color:#DAFEF2"/>
			</linearGradient>
			<path style="fill:url(#SVGID_00000032609778182858450350000004510980572482970537_);" d="M35.103,36.273
				c-1.313,1.313-1.313,3.449,0,4.762c1.313,1.313,3.449,1.313,4.762,0c1.313-1.313,1.313-3.449,0-4.762
				C38.552,34.96,36.416,34.96,35.103,36.273z M38.89,40.06c-0.775,0.775-2.037,0.775-2.812,0c-0.775-0.775-0.775-2.037,0-2.812
				c0.775-0.775,2.037-0.775,2.812,0C39.665,38.023,39.665,39.285,38.89,40.06z"/>
			
				<linearGradient id="SVGID_00000071541691286427333640000005324829326655888533_" gradientUnits="userSpaceOnUse" x1="33.3511" y1="38.6538" x2="41.617" y2="38.6538">
				<stop  offset="0" style="stop-color:#F29422"/>
				<stop  offset="0.3715" style="stop-color:#F27B1A"/>
				<stop  offset="0.7283" style="stop-color:#F26B15"/>
				<stop  offset="1" style="stop-color:#F26513"/>
			</linearGradient>
			<path style="opacity:0.42;fill:url(#SVGID_00000071541691286427333640000005324829326655888533_);" d="M34.562,35.731
				c-1.614,1.614-1.614,4.231,0,5.845s4.231,1.614,5.845,0s1.614-4.231,0-5.845S36.176,34.117,34.562,35.731z M39.973,41.143
				c-1.373,1.373-3.606,1.373-4.978,0c-1.373-1.373-1.373-3.606,0-4.978s3.606-1.373,4.978,0S41.346,39.77,39.973,41.143z"/>
		</g>
		<path style="clip-path:url(#SVGID_00000076585580913612967870000012484740956618079106_);fill:none;" d="M48.64,27.497
			c-6.162-6.161-16.151-6.161-22.313,0c-6.161,6.162-6.161,16.151,0,22.313c6.162,6.161,16.151,6.161,22.313,0
			C54.801,43.649,54.801,33.659,48.64,27.497z M38.781,39.951c-0.715,0.716-1.879,0.716-2.596,0c-0.715-0.715-0.715-1.879,0-2.596
			c0.716-0.715,1.88-0.715,2.596,0C39.498,38.072,39.498,39.236,38.781,39.951z"/>
		
			<path style="clip-path:url(#SVGID_00000076585580913612967870000012484740956618079106_);fill:none;stroke:#D9430D;stroke-width:0.437;stroke-miterlimit:10;" d="
			M48.64,27.498c-6.162-6.162-16.151-6.162-22.313,0c-6.161,6.161-6.161,16.15,0,22.312c6.162,6.162,16.151,6.162,22.313,0
			C54.801,43.648,54.801,33.659,48.64,27.498z M38.782,39.952c-0.716,0.715-1.88,0.715-2.596,0c-0.715-0.716-0.715-1.88,0-2.596
			c0.716-0.716,1.88-0.716,2.596,0C39.498,38.071,39.498,39.235,38.782,39.952z"/>
	</g>
</g>
<g>
	<g>
		<g>
			<g>
				<rect x="41.77" y="27.438" style="fill:#FFFFFF;" width="9.962" height="9.962"/>
				
					<linearGradient id="SVGID_00000054252677938047007270000008246720658910996898_" gradientUnits="userSpaceOnUse" x1="41.3713" y1="27.0401" x2="60.874" y2="46.5428">
					<stop  offset="0" style="stop-color:#F2A922"/>
					<stop  offset="0.1809" style="stop-color:#F2961E"/>
					<stop  offset="0.5007" style="stop-color:#F27B18"/>
					<stop  offset="0.7842" style="stop-color:#F26B14"/>
					<stop  offset="1" style="stop-color:#F26513"/>
				</linearGradient>
				<path style="fill:url(#SVGID_00000054252677938047007270000008246720658910996898_);" d="M51.262,27.908v9.023h-9.023v-9.023
					H51.262 M52.201,26.969h-0.939h-9.023H41.3v0.939v9.023v0.939h0.939h9.023h0.939v-0.939v-9.023V26.969L52.201,26.969z"/>
			</g>
		</g>
	</g>
	<g>
		<g>
			<g>
				<rect x="41.77" y="44.187" style="fill:#FFFFFF;" width="9.962" height="9.962"/>
				
					<linearGradient id="SVGID_00000029036596331441542610000002562602372363772066_" gradientUnits="userSpaceOnUse" x1="41.3713" y1="43.789" x2="60.874" y2="63.2917">
					<stop  offset="0" style="stop-color:#F2A922"/>
					<stop  offset="0.1809" style="stop-color:#F2961E"/>
					<stop  offset="0.5007" style="stop-color:#F27B18"/>
					<stop  offset="0.7842" style="stop-color:#F26B14"/>
					<stop  offset="1" style="stop-color:#F26513"/>
				</linearGradient>
				<path style="fill:url(#SVGID_00000029036596331441542610000002562602372363772066_);" d="M51.262,44.657v9.023h-9.023v-9.023
					H51.262 M52.201,43.718h-0.939h-9.023H41.3v0.939v9.023v0.939h0.939h9.023h0.939V53.68v-9.023V43.718L52.201,43.718z"/>
			</g>
		</g>
		<g>
			<path style="fill:#F50004;" d="M48.539,51.338c-0.282-0.37-0.612-0.697-0.98-0.972c-0.494-0.37-1.047-0.644-1.647-0.815
				l-0.723-0.206l0.502-0.559c0.12-0.134,0.24-0.269,0.36-0.405c0.222-0.252,0.446-0.511,0.685-0.793l0.244-0.288l0.333,0.176
				c0.453,0.24,0.866,0.542,1.228,0.899c0.072,0.071,0.141,0.143,0.209,0.218c0.386-0.691,0.966-1.67,1.565-2.48
				c0.321-0.434,0.699-0.896,1.284-1.339c0.222-0.169,0.415-0.289,0.541-0.365l0.354-0.213l0.256,0.324
				c0.211,0.267,0.451,0.512,0.713,0.73c0.163,0.135,0.336,0.261,0.514,0.373l0.694,0.438l-0.729,0.376
				c-0.401,0.207-0.787,0.452-1.148,0.728c-0.509,0.39-0.865,0.761-1.275,1.234c-0.748,0.863-1.495,1.844-2.22,2.917l-0.365,0.541
				L48.539,51.338z"/>
			
				<linearGradient id="SVGID_00000023246153991258412250000003199101049317141142_" gradientUnits="userSpaceOnUse" x1="52.8493" y1="44.4765" x2="48.1369" y2="49.334">
				<stop  offset="0" style="stop-color:#F46362"/>
				<stop  offset="0.2846" style="stop-color:#F4605F;stop-opacity:0.7154"/>
				<stop  offset="0.472" style="stop-color:#F45757;stop-opacity:0.528"/>
				<stop  offset="0.6314" style="stop-color:#F44949;stop-opacity:0.3686"/>
				<stop  offset="0.775" style="stop-color:#F43335;stop-opacity:0.225"/>
				<stop  offset="0.9068" style="stop-color:#F5181B;stop-opacity:0.0932"/>
				<stop  offset="1" style="stop-color:#F50004;stop-opacity:0"/>
			</linearGradient>
			<path style="fill:url(#SVGID_00000023246153991258412250000003199101049317141142_);" d="M53.728,46.019
				c-0.316,0.163-0.747,0.412-1.218,0.772c-0.569,0.436-0.96,0.856-1.344,1.299c-0.869,1.002-1.632,2.042-2.254,2.962
				c-0.237-0.31-0.585-0.698-1.072-1.063c-0.683-0.512-1.351-0.763-1.799-0.891c0.121-0.135,0.242-0.271,0.363-0.409
				c0.236-0.268,0.466-0.535,0.691-0.8c0.313,0.166,0.718,0.423,1.118,0.818c0.261,0.257,0.46,0.513,0.609,0.736
				c0.141-0.265,0.987-1.856,1.872-3.053c0.342-0.461,0.69-0.865,1.19-1.245c0.2-0.152,0.377-0.263,0.5-0.336
				c0.195,0.246,0.451,0.526,0.782,0.8C53.36,45.772,53.551,45.907,53.728,46.019z"/>
		</g>
	</g>
	<g>
		<g>
			<g>
				<rect x="41.77" y="10.69" style="fill:#FFFFFF;" width="9.962" height="9.962"/>
				
					<linearGradient id="SVGID_00000008141879246118658530000015361444517967688108_" gradientUnits="userSpaceOnUse" x1="41.3713" y1="10.2912" x2="60.874" y2="29.794">
					<stop  offset="0" style="stop-color:#F2A922"/>
					<stop  offset="0.1809" style="stop-color:#F2961E"/>
					<stop  offset="0.5007" style="stop-color:#F27B18"/>
					<stop  offset="0.7842" style="stop-color:#F26B14"/>
					<stop  offset="1" style="stop-color:#F26513"/>
				</linearGradient>
				<path style="fill:url(#SVGID_00000008141879246118658530000015361444517967688108_);" d="M51.262,11.159v9.023h-9.023v-9.023
					H51.262 M52.201,10.22h-0.939h-9.023H41.3v0.939v9.023v0.939h0.939h9.023h0.939v-0.939v-9.023V10.22L52.201,10.22z"/>
			</g>
		</g>
		<g>
			<path style="fill:#F50004;" d="M48.539,17.84c-0.282-0.37-0.612-0.697-0.98-0.972c-0.494-0.37-1.047-0.644-1.647-0.815
				l-0.723-0.206l0.502-0.559c0.12-0.134,0.24-0.269,0.36-0.405c0.222-0.252,0.446-0.511,0.685-0.793l0.244-0.288l0.333,0.176
				c0.453,0.24,0.866,0.542,1.228,0.899c0.072,0.071,0.141,0.143,0.209,0.218c0.386-0.691,0.966-1.67,1.565-2.48
				c0.321-0.434,0.699-0.896,1.284-1.339c0.222-0.169,0.415-0.289,0.541-0.365l0.354-0.213l0.256,0.324
				c0.211,0.267,0.451,0.512,0.713,0.73c0.163,0.135,0.336,0.261,0.514,0.373l0.694,0.438l-0.729,0.376
				c-0.401,0.207-0.787,0.452-1.148,0.728c-0.509,0.39-0.865,0.761-1.275,1.234c-0.748,0.863-1.495,1.844-2.22,2.917l-0.365,0.541
				L48.539,17.84z"/>
			
				<linearGradient id="SVGID_00000119835694973756119430000013279990644995186088_" gradientUnits="userSpaceOnUse" x1="52.8493" y1="10.9788" x2="48.1369" y2="15.8362">
				<stop  offset="0" style="stop-color:#F46362"/>
				<stop  offset="0.2846" style="stop-color:#F4605F;stop-opacity:0.7154"/>
				<stop  offset="0.472" style="stop-color:#F45757;stop-opacity:0.528"/>
				<stop  offset="0.6314" style="stop-color:#F44949;stop-opacity:0.3686"/>
				<stop  offset="0.775" style="stop-color:#F43335;stop-opacity:0.225"/>
				<stop  offset="0.9068" style="stop-color:#F5181B;stop-opacity:0.0932"/>
				<stop  offset="1" style="stop-color:#F50004;stop-opacity:0"/>
			</linearGradient>
			<path style="fill:url(#SVGID_00000119835694973756119430000013279990644995186088_);" d="M53.728,12.521
				c-0.316,0.163-0.747,0.412-1.218,0.772c-0.569,0.436-0.96,0.856-1.344,1.299c-0.869,1.002-1.632,2.042-2.254,2.962
				c-0.237-0.31-0.585-0.698-1.072-1.063c-0.683-0.512-1.351-0.763-1.799-0.891c0.121-0.135,0.242-0.271,0.363-0.409
				c0.236-0.268,0.466-0.535,0.691-0.8c0.313,0.166,0.718,0.423,1.118,0.818c0.261,0.257,0.46,0.513,0.609,0.736
				c0.141-0.265,0.987-1.856,1.872-3.053c0.342-0.461,0.69-0.865,1.19-1.245c0.2-0.152,0.377-0.263,0.5-0.336
				c0.195,0.246,0.451,0.526,0.782,0.8C53.36,12.275,53.551,12.409,53.728,12.521z"/>
		</g>
	</g>
</g>
</svg>
