<?xml version="1.0" encoding="utf-8"?>
<!-- Generator: Adobe Illustrator 26.5.0, SVG Export Plug-In . SVG Version: 6.00 Build 0)  -->
<svg version="1.1" id="Layer_1" xmlns="http://www.w3.org/2000/svg" xmlns:xlink="http://www.w3.org/1999/xlink" x="0px" y="0px"
	 viewBox="0 0 1156.9 1153.9" style="enable-background:new 0 0 1156.9 1153.9;" xml:space="preserve">
<style type="text/css">
	.st0{fill-rule:evenodd;clip-rule:evenodd;fill:#3C68B0;}
	.st1{fill-rule:evenodd;clip-rule:evenodd;fill:#F58A1F;}
</style>
<g>
	<path class="st0" d="M705.9,184.5l-42.2,162.2c-0.4,1.5-1,2.8-1.8,4c-0.8,2.6-2.5,4.7-4.8,6.1c-2.3,1.4-5,1.8-7.6,1.2
		c-1.5,0.1-2.9,0-4.4-0.4l-21.3-5.5c-2-0.5-3.8-1.3-5.5-2.2c-2-0.7-3.7-2-4.9-3.7c-1.2-1.2-2.3-2.5-3.2-4
		c-7.4-11.8-18.5-20.1-31.3-23.5c-29.3-7.6-60.2,13.1-68.8,46.2c-4.2,16.1-2.4,32.6,4.9,46.5c7.2,13.5,18.9,22.9,32.9,26.6
		c13.7,3.6,26.9,1.7,38.2-5.4c1.4-0.9,2.9-1.6,4.4-2.2c2.5-1.6,5.5-2.1,8.3-1.4c1.8,0,3.6,0.2,5.4,0.7l20.8,5.4
		c1.5,0.4,2.8,1,4.1,1.8c2.6,0.8,4.7,2.5,6.1,4.8c1.4,2.3,1.8,5,1.2,7.6c0.1,1.5,0,2.9-0.4,4.4l-8.5,32.5
		c56.6,20.2,97.1,74.1,97.1,137.6c0,80.7-65.4,146.1-146.1,146.1c-80.7,0-146.1-65.4-146.1-146.1c0-7.9,0.6-15.6,1.8-23.1l-32.6-8.5
		c-1.5-0.4-2.8-1-4.1-1.8c-2.6-0.8-4.7-2.5-6.1-4.8c-1.4-2.3-1.8-5-1.2-7.6c-0.1-1.5,0-3,0.4-4.4l5.6-21.4c0.5-2,1.3-3.8,2.2-5.5
		c0.7-2,2-3.7,3.8-5c1.2-1.2,2.6-2.3,4-3.2c12.1-7.5,20.5-18.6,23.8-31.2c3.6-14,1-28.8-7.5-41.7c-8.7-13.3-22.4-22.9-38.6-27.1
		c-16.1-4.2-32.7-2.5-46.6,4.9c-13.6,7.2-23.1,18.8-26.7,32.9c-3.7,14.1-1.9,26.9,5.2,38.1c0.9,1.4,1.6,2.9,2.1,4.4
		c1.6,2.5,2.1,5.5,1.4,8.3c0,1.8-0.2,3.6-0.7,5.4l-5.4,21c-0.4,1.5-1,2.8-1.8,4.1c-0.8,2.5-2.5,4.7-4.8,6.1c-2.3,1.4-5,1.8-7.6,1.2
		c-1.5,0.1-3,0-4.5-0.4l-162.3-42.2c-7.4,32.7-11.4,66.7-11.4,101.7c0,252.6,204.9,457.4,457.7,457.4
		c252.8,0,457.7-204.8,457.7-457.4C1036.1,415.5,896.6,239.6,705.9,184.5z"/>
	<path class="st1" d="M644.9,328.5l37.7-145.1c0.7-2.8-1-5.7-3.8-6.4L254.6,66.7c-2.8-0.7-5.7,1-6.4,3.8L137.9,494.6
		c-0.7,2.8,1,5.7,3.8,6.4l146.1,38c2.8,0.7,5.7-1,6.4-3.8l1.7-6.4c0.4-1.3,0.1-2.8-0.6-4c-9.5-16.3-11.9-35-6.9-54.4
		c5.3-20.3,18.8-37.1,38.2-47.3c19-10,41.4-12.4,63-6.8c21.7,5.6,40.1,18.7,51.9,36.7c12,18.4,15.8,39.7,10.5,60
		c-4.6,17.7-16,33.1-32.1,43.7c-1.1,0.7-1.9,1.8-2.2,3.1l-1.8,7.1c-0.7,2.8,1,5.7,3.8,6.4l146.2,38c2.8,0.7,5.7-1,6.4-3.8
		l38.3-147.2c0.7-2.8-1-5.7-3.8-6.4l-6.3-1.6c-1.4-0.4-2.8-0.1-4,0.6c-16.5,9.7-35.2,12.1-54.5,7.1c-20.3-5.3-37.2-18.8-47.4-38
		c-10-18.9-12.5-41.3-6.8-62.9c11.8-45.3,55.2-73.4,96.7-62.6c17.8,4.6,33.3,15.9,43.8,31.7c0.7,1.1,1.8,1.9,3.1,2.2l7,1.8
		C641.3,333,644.1,331.3,644.9,328.5z"/>
</g>
</svg>
