<?xml version="1.0" encoding="utf-8"?>
<!-- Generator: Adobe Illustrator 26.0.1, SVG Export Plug-In . SVG Version: 6.00 Build 0)  -->
<svg version="1.1" id="Layer_1" xmlns="http://www.w3.org/2000/svg" xmlns:xlink="http://www.w3.org/1999/xlink" x="0px" y="0px"
	 viewBox="0 0 128 128" style="enable-background:new 0 0 128 128;" xml:space="preserve">
<g>
	<g>
		<linearGradient id="SVGID_1_" gradientUnits="userSpaceOnUse" x1="8.1479" y1="76.1573" x2="96.0469" y2="79.0631">
			<stop  offset="0" style="stop-color:#6CD9CE"/>
			<stop  offset="0.0397" style="stop-color:#66D4C9"/>
			<stop  offset="0.3249" style="stop-color:#41B5AA"/>
			<stop  offset="0.5892" style="stop-color:#259E93"/>
			<stop  offset="0.8225" style="stop-color:#159185"/>
			<stop  offset="1" style="stop-color:#0F8C80"/>
		</linearGradient>
		<path style="fill:url(#SVGID_1_);" d="M7.829,25.783v89.294l15.758,11.954V34.658L7.829,25.783L7.829,25.783z"/>
		
			<linearGradient id="SVGID_00000096025448418307752720000011328347803771738007_" gradientUnits="userSpaceOnUse" x1="88.5476" y1="15.6779" x2="86.0388" y2="34.3795">
			<stop  offset="0" style="stop-color:#6CD9CE"/>
			<stop  offset="0.3632" style="stop-color:#4BC3B2"/>
			<stop  offset="0.7726" style="stop-color:#2BAE97"/>
			<stop  offset="1" style="stop-color:#1FA68D"/>
		</linearGradient>
		<polygon style="fill:url(#SVGID_00000096025448418307752720000011328347803771738007_);" points="96.761,25.782 96.761,65.63 
			73.395,65.63 73.395,17.452 		"/>
		<polygon style="fill:none;" points="96.76,25.783 23.587,34.658 23.587,127.031 96.76,109.825 		"/>
		<polygon style="fill:none;" points="96.76,25.783 23.587,34.658 23.587,127.031 96.76,109.825 		"/>
		
			<linearGradient id="SVGID_00000016789397386290658830000009232463648745847692_" gradientUnits="userSpaceOnUse" x1="3.1339" y1="17.3277" x2="82.9239" y2="7.1457">
			<stop  offset="0" style="stop-color:#6CD9CE"/>
			<stop  offset="0.3632" style="stop-color:#4BC3B2"/>
			<stop  offset="0.7726" style="stop-color:#2BAE97"/>
			<stop  offset="1" style="stop-color:#1FA68D"/>
		</linearGradient>
		<polygon style="fill:url(#SVGID_00000016789397386290658830000009232463648745847692_);" points="73.395,17.452 20.228,24.582 
			11.271,25.782 7.469,12.985 5.837,7.49 70.678,0.969 		"/>
		<polygon style="fill:none;" points="96.76,25.783 23.587,34.658 23.587,127.031 96.76,109.825 		"/>
		
			<linearGradient id="SVGID_00000020393017440904638310000005476920473679287213_" gradientUnits="userSpaceOnUse" x1="48.7049" y1="40.2684" x2="47.2284" y2="25.2577">
			<stop  offset="0" style="stop-color:#6CD9CE"/>
			<stop  offset="0.3632" style="stop-color:#4BC3B2"/>
			<stop  offset="0.7726" style="stop-color:#2BAE97"/>
			<stop  offset="1" style="stop-color:#1FA68D"/>
		</linearGradient>
		<polygon style="fill:url(#SVGID_00000020393017440904638310000005476920473679287213_);" points="73.395,17.452 73.395,28.617 
			23.588,34.658 20.228,24.582 		"/>
		
			<linearGradient id="SVGID_00000158723205131860553930000007242486606360676503_" gradientUnits="userSpaceOnUse" x1="96.7045" y1="28.1025" x2="81.9791" y2="-2.3432">
			<stop  offset="0" style="stop-color:#6CD9CE"/>
			<stop  offset="0.3632" style="stop-color:#4BC3B2"/>
			<stop  offset="0.7726" style="stop-color:#2BAE97"/>
			<stop  offset="1" style="stop-color:#1FA68D"/>
		</linearGradient>
		<polygon style="fill:url(#SVGID_00000158723205131860553930000007242486606360676503_);" points="82.633,0.969 104.368,6.403 
			96.754,25.783 73.395,17.452 		"/>
		
			<linearGradient id="SVGID_00000079477979101058269860000001447844802957273744_" gradientUnits="userSpaceOnUse" x1="0.32" y1="9.9066" x2="83.9375" y2="9.0948">
			<stop  offset="0" style="stop-color:#FFFFFF;stop-opacity:0.6"/>
			<stop  offset="0.0364" style="stop-color:#EAF7F4;stop-opacity:0.5782"/>
			<stop  offset="0.1273" style="stop-color:#BBE4DC;stop-opacity:0.5236"/>
			<stop  offset="0.2237" style="stop-color:#91D3C7;stop-opacity:0.4658"/>
			<stop  offset="0.3241" style="stop-color:#6EC5B5;stop-opacity:0.4055"/>
			<stop  offset="0.4297" style="stop-color:#51BAA6;stop-opacity:0.3422"/>
			<stop  offset="0.5421" style="stop-color:#3BB19B;stop-opacity:0.2747"/>
			<stop  offset="0.6644" style="stop-color:#2BAB93;stop-opacity:0.2013"/>
			<stop  offset="0.8042" style="stop-color:#22A78E;stop-opacity:0.1175"/>
			<stop  offset="1" style="stop-color:#1FA68D;stop-opacity:0"/>
		</linearGradient>
		<polygon style="fill:url(#SVGID_00000079477979101058269860000001447844802957273744_);" points="8.56,16.658 7.469,12.985 
			5.837,7.49 70.678,0.969 73.395,17.452 		"/>
		<polyline style="fill:none;stroke:#6493D4;stroke-width:0.1115;stroke-miterlimit:10;" points="28.861,37.625 27.82,36.346 
			26.189,34.342 		"/>
		
			<linearGradient id="SVGID_00000001644151078362647990000011371675915847417743_" gradientUnits="userSpaceOnUse" x1="29.4337" y1="35.0125" x2="-9.5022" y2="2.9641">
			<stop  offset="0" style="stop-color:#6CD9CE"/>
			<stop  offset="0.3632" style="stop-color:#4BC3B2"/>
			<stop  offset="0.7726" style="stop-color:#2BAE97"/>
			<stop  offset="1" style="stop-color:#1FA68D"/>
		</linearGradient>
		<polygon style="fill:url(#SVGID_00000001644151078362647990000011371675915847417743_);" points="23.588,34.658 7.829,25.782 
			2.396,11.113 7.469,12.985 17.609,16.727 20.228,24.582 		"/>
		<polygon style="fill:none;" points="96.76,25.783 23.587,34.658 23.587,127.031 96.76,109.825 		"/>
		
			<linearGradient id="SVGID_00000132768564488603367230000007246748684126462109_" gradientUnits="userSpaceOnUse" x1="40.0735" y1="40.9155" x2="80.3908" y2="112.1064">
			<stop  offset="0" style="stop-color:#6CD9CE"/>
			<stop  offset="0.0397" style="stop-color:#66D4C9"/>
			<stop  offset="0.3249" style="stop-color:#41B5AA"/>
			<stop  offset="0.5892" style="stop-color:#259E93"/>
			<stop  offset="0.8225" style="stop-color:#159185"/>
			<stop  offset="1" style="stop-color:#0F8C80"/>
		</linearGradient>
		<polygon style="fill:url(#SVGID_00000132768564488603367230000007246748684126462109_);" points="96.76,25.783 23.587,34.658 
			23.587,127.031 96.76,109.825 		"/>
		<polygon style="fill:none;" points="96.76,25.783 23.587,34.658 23.587,127.031 96.76,109.825 		"/>
		
			<linearGradient id="SVGID_00000181809926763669804410000003252235223129244844_" gradientUnits="userSpaceOnUse" x1="87.0343" y1="17.9473" x2="-2.7841" y2="103.0902">
			<stop  offset="0" style="stop-color:#FFFFFF;stop-opacity:0.6"/>
			<stop  offset="0.0127" style="stop-color:#F4FBF9;stop-opacity:0.5924"/>
			<stop  offset="0.0693" style="stop-color:#C8E9E3;stop-opacity:0.5584"/>
			<stop  offset="0.1316" style="stop-color:#9FD9CE;stop-opacity:0.521"/>
			<stop  offset="0.1985" style="stop-color:#7DCBBD;stop-opacity:0.4809"/>
			<stop  offset="0.271" style="stop-color:#5FC0AE;stop-opacity:0.4374"/>
			<stop  offset="0.3512" style="stop-color:#48B6A2;stop-opacity:0.3893"/>
			<stop  offset="0.4422" style="stop-color:#35AF98;stop-opacity:0.3347"/>
			<stop  offset="0.5503" style="stop-color:#29AA92;stop-opacity:0.2698"/>
			<stop  offset="0.6925" style="stop-color:#21A78E;stop-opacity:0.1845"/>
			<stop  offset="1" style="stop-color:#1FA68D;stop-opacity:0"/>
		</linearGradient>
		<path style="fill:url(#SVGID_00000181809926763669804410000003252235223129244844_);" d="M96.76,25.783l-73.174,8.875v63.533
			l36.769-16.362C82.495,71.978,96.76,50.016,96.76,25.783L96.76,25.783z"/>
		
			<linearGradient id="SVGID_00000053509712608276491080000009534711154752778931_" gradientUnits="userSpaceOnUse" x1="2.8025" y1="12.1363" x2="23.6906" y2="41.4047">
			<stop  offset="0" style="stop-color:#FFFFFF;stop-opacity:0.6"/>
			<stop  offset="0.0364" style="stop-color:#EAF7F4;stop-opacity:0.5782"/>
			<stop  offset="0.1273" style="stop-color:#BBE4DC;stop-opacity:0.5236"/>
			<stop  offset="0.2237" style="stop-color:#91D3C7;stop-opacity:0.4658"/>
			<stop  offset="0.3241" style="stop-color:#6EC5B5;stop-opacity:0.4055"/>
			<stop  offset="0.4297" style="stop-color:#51BAA6;stop-opacity:0.3422"/>
			<stop  offset="0.5421" style="stop-color:#3BB19B;stop-opacity:0.2747"/>
			<stop  offset="0.6644" style="stop-color:#2BAB93;stop-opacity:0.2013"/>
			<stop  offset="0.8042" style="stop-color:#22A78E;stop-opacity:0.1175"/>
			<stop  offset="1" style="stop-color:#1FA68D;stop-opacity:0"/>
		</linearGradient>
		<polygon style="fill:url(#SVGID_00000053509712608276491080000009534711154752778931_);" points="23.588,34.658 7.829,25.782 
			2.396,11.113 		"/>
		
			<linearGradient id="SVGID_00000030483957258712375150000014414316859342333339_" gradientUnits="userSpaceOnUse" x1="104.2261" y1="4.8444" x2="73.3463" y2="10.7878">
			<stop  offset="0" style="stop-color:#FFFFFF;stop-opacity:0.6"/>
			<stop  offset="0.0364" style="stop-color:#EAF7F4;stop-opacity:0.5782"/>
			<stop  offset="0.1273" style="stop-color:#BBE4DC;stop-opacity:0.5236"/>
			<stop  offset="0.2237" style="stop-color:#91D3C7;stop-opacity:0.4658"/>
			<stop  offset="0.3241" style="stop-color:#6EC5B5;stop-opacity:0.4055"/>
			<stop  offset="0.4297" style="stop-color:#51BAA6;stop-opacity:0.3422"/>
			<stop  offset="0.5421" style="stop-color:#3BB19B;stop-opacity:0.2747"/>
			<stop  offset="0.6644" style="stop-color:#2BAB93;stop-opacity:0.2013"/>
			<stop  offset="0.8042" style="stop-color:#22A78E;stop-opacity:0.1175"/>
			<stop  offset="1" style="stop-color:#1FA68D;stop-opacity:0"/>
		</linearGradient>
		<polygon style="fill:url(#SVGID_00000030483957258712375150000014414316859342333339_);" points="82.633,0.969 104.368,6.403 
			101.628,13.376 76.406,12.079 		"/>
		
			<linearGradient id="SVGID_00000169549751031720660110000007732004576868325028_" gradientUnits="userSpaceOnUse" x1="16.1885" y1="43.648" x2="114.0546" y2="28.0736">
			<stop  offset="0" style="stop-color:#6CD9CE"/>
			<stop  offset="0.3632" style="stop-color:#4BC3B2"/>
			<stop  offset="0.7726" style="stop-color:#2BAE97"/>
			<stop  offset="1" style="stop-color:#1FA68D"/>
		</linearGradient>
		<polygon style="fill:url(#SVGID_00000169549751031720660110000007732004576868325028_);" points="109.258,36.65 96.761,38.359 
			73.395,41.552 33.73,46.974 23.588,34.658 73.395,28.617 96.761,25.782 		"/>
		
			<linearGradient id="SVGID_00000063620208087474599090000005442719621100244366_" gradientUnits="userSpaceOnUse" x1="22.5935" y1="34.5363" x2="106.148" y2="32.2212">
			<stop  offset="0" style="stop-color:#FFFFFF;stop-opacity:0.6"/>
			<stop  offset="0.0951" style="stop-color:#D3EDE9;stop-opacity:0.543"/>
			<stop  offset="0.2127" style="stop-color:#A4DBD0;stop-opacity:0.4724"/>
			<stop  offset="0.3341" style="stop-color:#7BCABC;stop-opacity:0.3995"/>
			<stop  offset="0.4576" style="stop-color:#5ABDAB;stop-opacity:0.3255"/>
			<stop  offset="0.5836" style="stop-color:#40B39E;stop-opacity:0.2499"/>
			<stop  offset="0.7133" style="stop-color:#2DAC94;stop-opacity:0.172"/>
			<stop  offset="0.8489" style="stop-color:#23A78F;stop-opacity:0.0907"/>
			<stop  offset="1" style="stop-color:#1FA68D;stop-opacity:0"/>
		</linearGradient>
		<polygon style="fill:url(#SVGID_00000063620208087474599090000005442719621100244366_);" points="28.861,41.062 23.588,34.658 
			73.395,28.617 96.761,25.782 106.967,34.658 		"/>
		
			<linearGradient id="SVGID_00000047055359346364377260000005901797581565365149_" gradientUnits="userSpaceOnUse" x1="-3.8255" y1="18.1258" x2="37.0234" y2="201.4537">
			<stop  offset="0" style="stop-color:#FFFFFF;stop-opacity:0.6"/>
			<stop  offset="0.004" style="stop-color:#FCFEFD;stop-opacity:0.5976"/>
			<stop  offset="0.0673" style="stop-color:#CEEBE6;stop-opacity:0.5596"/>
			<stop  offset="0.1348" style="stop-color:#A5DBD1;stop-opacity:0.5191"/>
			<stop  offset="0.2083" style="stop-color:#81CDBF;stop-opacity:0.475"/>
			<stop  offset="0.2873" style="stop-color:#62C1AF;stop-opacity:0.4276"/>
			<stop  offset="0.3735" style="stop-color:#4AB7A3;stop-opacity:0.3759"/>
			<stop  offset="0.47" style="stop-color:#36AF99;stop-opacity:0.318"/>
			<stop  offset="0.5822" style="stop-color:#29AA92;stop-opacity:0.2507"/>
			<stop  offset="0.7249" style="stop-color:#21A78E;stop-opacity:0.1651"/>
			<stop  offset="1" style="stop-color:#1FA68D;stop-opacity:0"/>
		</linearGradient>
		<path style="fill:url(#SVGID_00000047055359346364377260000005901797581565365149_);" d="M7.829,25.783L7.829,25.783v89.294
			l15.758,11.954"/>
	</g>
	<g>
		<defs>
			<path id="SVGID_00000080906129821950702890000003022284718939472795_" d="M114.849,64.085c-14.342-14.342-37.594-14.342-51.936,0
				c-14.34,14.34-14.34,37.592,0,51.934c14.342,14.342,37.594,14.342,51.936,0C129.189,101.678,129.189,78.425,114.849,64.085z
				 M91.903,93.073c-1.667,1.665-4.376,1.665-6.044,0c-1.665-1.667-1.665-4.376,0-6.041c1.667-1.667,4.376-1.667,6.044,0
				C93.568,88.697,93.568,91.406,91.903,93.073z"/>
		</defs>
		<clipPath id="SVGID_00000016058943825942947060000017842386257390076047_">
			<use xlink:href="#SVGID_00000080906129821950702890000003022284718939472795_"  style="overflow:visible;"/>
		</clipPath>
		
			<linearGradient id="SVGID_00000081639653358877556910000008918150200180336524_" gradientUnits="userSpaceOnUse" x1="50.8373" y1="54.0233" x2="129.8283" y2="128.8309">
			<stop  offset="0" style="stop-color:#E6E6E6"/>
			<stop  offset="0.2074" style="stop-color:#E9E9E9"/>
			<stop  offset="0.3682" style="stop-color:#F3F3F3"/>
			<stop  offset="0.4814" style="stop-color:#FFFFFF"/>
			<stop  offset="0.6048" style="stop-color:#F2F2F2"/>
			<stop  offset="0.7639" style="stop-color:#E9E9E9"/>
			<stop  offset="1" style="stop-color:#E6E6E6"/>
		</linearGradient>
		
			<circle style="clip-path:url(#SVGID_00000016058943825942947060000017842386257390076047_);fill:url(#SVGID_00000081639653358877556910000008918150200180336524_);" cx="88.881" cy="90.052" r="36.724"/>
		
			<linearGradient id="SVGID_00000156583447515701349040000017035733142351662220_" gradientUnits="userSpaceOnUse" x1="-4496.0249" y1="8776.0635" x2="-4372.9858" y2="8776.0635" gradientTransform="matrix(-0.7071 0.7071 -0.7071 -0.7071 3158.1504 9431.335)">
			<stop  offset="0" style="stop-color:#E6E6E6;stop-opacity:0"/>
			<stop  offset="0.2028" style="stop-color:#E3EBE9;stop-opacity:0.4077"/>
			<stop  offset="0.4558" style="stop-color:#DCFBF0;stop-opacity:0.9161"/>
			<stop  offset="0.4975" style="stop-color:#DAFEF2"/>
			<stop  offset="0.5509" style="stop-color:#DCFAF0;stop-opacity:0.8938"/>
			<stop  offset="0.7963" style="stop-color:#E3EBE9;stop-opacity:0.4054"/>
			<stop  offset="1" style="stop-color:#E6E6E6;stop-opacity:0"/>
		</linearGradient>
		
			<polygon style="clip-path:url(#SVGID_00000016058943825942947060000017842386257390076047_);fill:url(#SVGID_00000156583447515701349040000017035733142351662220_);" points="
			30.385,119.233 86.246,88.092 117.386,32.231 146.025,60.87 90.48,91.696 59.024,147.872 		"/>
		<path style="clip-path:url(#SVGID_00000016058943825942947060000017842386257390076047_);fill:none;" d="M62.915,64.084
			c-14.342,14.342-14.342,37.594,0,51.937c14.341,14.341,37.593,14.341,51.935-0.002c14.341-14.341,14.341-37.593,0-51.933
			C100.507,49.744,77.255,49.744,62.915,64.084z M91.903,93.073c-1.665,1.665-4.375,1.665-6.041,0c-1.665-1.665-1.666-4.375,0-6.041
			c1.666-1.666,4.376-1.665,6.041,0C93.569,88.698,93.569,91.407,91.903,93.073z"/>
		
			<linearGradient id="SVGID_00000120548627625351228230000009762970206643776647_" gradientUnits="userSpaceOnUse" x1="-3627.4858" y1="1146.5078" x2="-3640.282" y2="1220.5773" gradientTransform="matrix(0.7071 0.7071 -0.7071 0.7071 3492.644 1824.1127)">
			<stop  offset="0" style="stop-color:#E6E6E6;stop-opacity:0"/>
			<stop  offset="0.1774" style="stop-color:#E1E6E7;stop-opacity:0.3565"/>
			<stop  offset="0.3811" style="stop-color:#D3E4EA;stop-opacity:0.7659"/>
			<stop  offset="0.4975" style="stop-color:#C8E3ED"/>
			<stop  offset="0.6362" style="stop-color:#D7E4EA;stop-opacity:0.724"/>
			<stop  offset="0.8145" style="stop-color:#E2E6E7;stop-opacity:0.3692"/>
			<stop  offset="1" style="stop-color:#E6E6E6;stop-opacity:0"/>
		</linearGradient>
		
			<polygon style="clip-path:url(#SVGID_00000016058943825942947060000017842386257390076047_);fill:url(#SVGID_00000120548627625351228230000009762970206643776647_);" points="
			117.386,147.872 86.246,92.011 30.385,60.87 59.024,32.231 89.85,87.777 146.025,119.233 		"/>
		<g style="clip-path:url(#SVGID_00000016058943825942947060000017842386257390076047_);">
			<path style="fill:#FFFFFF;" d="M85.861,87.032c-1.666,1.666-1.666,4.376,0,6.042c1.666,1.666,4.376,1.666,6.042,0
				c1.666-1.666,1.666-4.376,0-6.042S87.526,85.366,85.861,87.032z"/>
			
				<linearGradient id="SVGID_00000091695849708501176020000009806010625426994859_" gradientUnits="userSpaceOnUse" x1="94.3026" y1="84.3925" x2="83.46" y2="95.7125">
				<stop  offset="0" style="stop-color:#C8E3ED"/>
				<stop  offset="0.0886" style="stop-color:#D9ECF3"/>
				<stop  offset="0.2315" style="stop-color:#EEF6F9"/>
				<stop  offset="0.3713" style="stop-color:#FBFDFE"/>
				<stop  offset="0.5036" style="stop-color:#FFFFFF"/>
				<stop  offset="0.6626" style="stop-color:#FBFFFD"/>
				<stop  offset="0.836" style="stop-color:#EDFFF9"/>
				<stop  offset="1" style="stop-color:#DAFEF2"/>
			</linearGradient>
			<path style="fill:url(#SVGID_00000091695849708501176020000009806010625426994859_);" d="M83.339,84.511
				c-3.056,3.056-3.056,8.028,0,11.084s8.028,3.056,11.084,0c3.056-3.056,3.056-8.028,0-11.084S86.395,81.455,83.339,84.511z
				 M92.154,93.325c-1.805,1.805-4.741,1.805-6.546,0s-1.805-4.741,0-6.546c1.805-1.805,4.741-1.805,6.546,0
				C93.959,88.584,93.959,91.521,92.154,93.325z"/>
			
				<linearGradient id="SVGID_00000085234093409971995230000000808484145932695950_" gradientUnits="userSpaceOnUse" x1="79.2612" y1="90.0525" x2="98.5014" y2="90.0525">
				<stop  offset="0" style="stop-color:#6CD9CE"/>
				<stop  offset="0.0397" style="stop-color:#66D4C9"/>
				<stop  offset="0.3249" style="stop-color:#41B5AA"/>
				<stop  offset="0.5892" style="stop-color:#259E93"/>
				<stop  offset="0.8225" style="stop-color:#159185"/>
				<stop  offset="1" style="stop-color:#0F8C80"/>
			</linearGradient>
			<path style="opacity:0.42;fill:url(#SVGID_00000085234093409971995230000000808484145932695950_);" d="M82.079,83.25
				c-3.757,3.757-3.757,9.848,0,13.605c3.757,3.757,9.848,3.757,13.605,0c3.757-3.757,3.757-9.848,0-13.605
				C91.927,79.493,85.836,79.493,82.079,83.25z M94.675,95.846c-3.195,3.195-8.393,3.195-11.588,0
				c-3.195-3.195-3.195-8.393,0-11.588c3.195-3.195,8.393-3.195,11.588,0C97.87,87.453,97.87,92.652,94.675,95.846z"/>
		</g>
		<path style="clip-path:url(#SVGID_00000016058943825942947060000017842386257390076047_);fill:none;" d="M114.849,64.084
			c-14.342-14.34-37.594-14.34-51.936,0c-14.34,14.342-14.34,37.594,0,51.936c14.342,14.34,37.594,14.34,51.936,0
			C129.189,101.679,129.189,78.426,114.849,64.084z M91.901,93.072c-1.665,1.667-4.374,1.667-6.041,0
			c-1.665-1.665-1.665-4.374,0-6.041c1.667-1.665,4.376-1.665,6.041,0C93.568,88.698,93.568,91.407,91.901,93.072z"/>
		
			<path style="clip-path:url(#SVGID_00000016058943825942947060000017842386257390076047_);fill:none;stroke:#0F8C80;stroke-width:0.437;stroke-miterlimit:10;" d="
			M114.849,64.085c-14.342-14.342-37.594-14.342-51.936,0c-14.34,14.34-14.34,37.592,0,51.934c14.342,14.342,37.594,14.342,51.936,0
			C129.189,101.678,129.189,78.425,114.849,64.085z M91.903,93.073c-1.667,1.665-4.376,1.665-6.044,0
			c-1.665-1.667-1.665-4.376,0-6.041c1.667-1.667,4.376-1.667,6.044,0C93.568,88.697,93.568,91.406,91.903,93.073z"/>
	</g>
</g>
</svg>
