<?xml version="1.0" encoding="utf-8"?>
<!-- Generator: Adobe Illustrator 25.2.3, SVG Export Plug-In . SVG Version: 6.00 Build 0)  -->
<svg version="1.1" id="Layer_8" xmlns="http://www.w3.org/2000/svg" xmlns:xlink="http://www.w3.org/1999/xlink" x="0px" y="0px"
	 viewBox="0 0 500 59" enable-background="new 0 0 500 59" xml:space="preserve">
<rect x="-0.3" display="none" fill="#FFFFFF" width="500.4" height="59"/>
<linearGradient id="SVGID_1_" gradientUnits="userSpaceOnUse" x1="452.55" y1="72.994" x2="452.55" y2="1.6686" gradientTransform="matrix(1 0 0 -1 0 60)">
	<stop  offset="0.0017" style="stop-color:#06409A"/>
	<stop  offset="0.1268" style="stop-color:#133F96"/>
	<stop  offset="0.358" style="stop-color:#353D8C"/>
	<stop  offset="0.6699" style="stop-color:#6C397C"/>
	<stop  offset="1" style="stop-color:#AE3569"/>
</linearGradient>
<rect x="405.1" fill="url(#SVGID_1_)" width="94.9" height="59"/>
<g opacity="0.15">
	
		<linearGradient id="SVGID_2_" gradientUnits="userSpaceOnUse" x1="510.0351" y1="3.7" x2="684.134" y2="3.7" gradientTransform="matrix(1 0 0 -1 0 60)">
		<stop  offset="0" style="stop-color:#FFFFFF"/>
		<stop  offset="1" style="stop-color:#FFFFFF;stop-opacity:0"/>
	</linearGradient>
	<path fill="url(#SVGID_2_)" d="M682,22L647.2,9.5l0,0c0-0.3-0.1-0.6-0.3-0.7l14.7-32.6l3.3-1l-0.1-0.3l-3.1,1l0.7-1.5l-0.3-0.1
		l-0.8,1.8l-37.5,11.8c-0.2-0.5-0.6-0.8-1.1-0.9c-0.3-0.1-0.6,0-0.9,0.2L605.3-38l-0.3,0.2l16.5,25.2c-0.3,0.2-0.5,0.5-0.5,0.9
		c0,0.2,0,0.4,0,0.6l-29.3,8.6c-0.1-0.2-0.4-0.4-0.6-0.4c-0.2,0-0.3,0-0.4,0L582-9l0,0l-0.4-0.2l0,0l-7.3-3.5c0-0.1,0.1-0.2,0.1-0.3
		c0.2-1.1-0.5-2.1-1.4-2.5l5-13c0.2,0,0.4-0.2,0.4-0.4c0-0.1,0-0.2,0-0.2L594.8-44l-0.2-0.2l-16.4,14.7l0,0l1.8-15.1h-0.3l-1.8,15.1
		c-0.2,0-0.5,0.2-0.5,0.4l0,0l-19.3-1.2l-0.2-0.2l-0.2,0.2l-7.7-0.5v0.3l7.9,0.5l12.7,14.9c-0.1,0.1-0.2,0.2-0.3,0.3l-19.2-12.3
		v-0.1H551l-0.2-0.1v0.1l-20.4-0.3l0.1-0.1l-0.3,0.1h-0.1l-0.1-0.1l0,0l-0.2-0.1v0.2h-0.4l0.2,0.1l-13,3l-0.1-0.2l-0.1,0.3h-0.1v0.1
		l-5.5,13.1c-0.1,0-0.1-0.1-0.2-0.1c-0.4-0.1-0.8,0.2-0.9,0.6c0,0.2,0,0.4,0.1,0.6l-10.9,7.5v-0.1l0.1,0.1l-0.1-0.1v0.2l-0.1,0.1
		l0,0L488.7,8V7.9l-0.2,0.4l-0.3,0.3h0.1l-9.1,15.1l0,0l-6.3-12.9l4.4-23.8L454.1-1.2c-0.1-0.1-0.2-0.3-0.4-0.3
		c-0.3,0-0.6,0.2-0.6,0.4c0,0.1,0,0.2,0.1,0.3L453-0.7l19.6,11.6l6.3,13c-0.1,0.1-0.2,0.2-0.2,0.4c0,0.1,0,0.1,0,0.2l0,0l-21.5,22.2
		l0,0L441.5,44c-0.1-0.3-0.4-0.5-0.7-0.5c-0.3,0-0.6,0-0.7,0.2l-15.9-5.9c0-0.1,0-0.2-0.1-0.3l20.1-10.2c0.1,0.1,0.2,0.2,0.4,0.2
		c0.4,0.1,0.8-0.2,0.9-0.6s-0.2-0.8-0.6-0.9s-0.8,0.2-0.9,0.6c0,0.1,0,0.3,0,0.4l-20.1,10.2l0,0v-0.1l-0.1,0.1l0,0h-0.1L404,19.6
		c0.1-0.1,0.2-0.3,0.3-0.5c0.1-0.4-0.2-0.8-0.6-0.9s-0.8,0.2-0.9,0.6s0.2,0.8,0.6,0.9c0.1,0,0.2,0,0.3,0l19.7,17.6
		c-0.1,0.1-0.1,0.2-0.2,0.3c0,0.1,0,0.1,0,0.2l-19.8,19.5c-0.1-0.1-0.2-0.1-0.3-0.1c-0.4-0.1-0.7,0.2-0.8,0.5l-14.5-4
		c0-0.3-0.2-0.5-0.4-0.6c-0.1,0-0.2,0-0.3,0L370.7,9.3l-0.2,0.1l16.3,44c0,0.1-0.1,0.1-0.1,0.2l-41.3-18.1l-0.1,0.2l41.4,18.1
		c0.1,0.2,0.2,0.3,0.4,0.3c0.2,0,0.3,0,0.4-0.1l11.9,12.3h-0.1l0.1,0.1c-0.1,0.1-0.1,0.2-0.2,0.3v0.1l-8.5,7.6
		c-0.2,0-0.5,0.1-0.5,0.4l-40.5-10.1v-0.1c0.1-0.8-0.4-1.5-1.2-1.6c-0.8-0.1-1.5,0.4-1.6,1.2c-0.1,0.8,0.4,1.5,1.2,1.6
		c0.6,0.1,1.2-0.2,1.4-0.7l40.6,10.1c0,0.1,0.1,0.2,0.1,0.2l-8.7,13.5l0,0c-0.3,0-0.5,0.1-0.6,0.3l-47.1,6.5
		c-0.1-0.1-0.2-0.1-0.3-0.2c-0.2,0-0.4,0.1-0.5,0.3l-0.6,0.1l0.6,0.3c0,0.2,0.2,0.4,0.4,0.4c0.1,0,0.2,0,0.3-0.1l24.1,11
		c0,0.3,0.2,0.5,0.4,0.6c0.3,0,0.6-0.2,0.6-0.4c0-0.1,0-0.2,0-0.3L380.9,90v0.1l0.4-0.2h0.1c0.3,0,0.5-0.1,0.6-0.4l18.8-8.8
		c0.1,0.1,0.2,0.1,0.3,0.2c0.3,0,0.5-0.1,0.6-0.3l11-1.8c0.1,0.2,0.2,0.4,0.4,0.4h0.1l-1,14.3l0,0c-0.3,0-0.6,0.2-0.6,0.4
		c0,0.3,0.2,0.6,0.4,0.6c0.2,0,0.4-0.1,0.5-0.3l19.1,13.1c0,0.1-0.1,0.2-0.1,0.3c0,0.1,0,0.2,0,0.2l-15,7.2
		c-0.1-0.1-0.2-0.2-0.4-0.3c-0.1,0-0.2,0-0.3,0l-5.7-8.8c0.1-0.1,0.1-0.2,0.1-0.3c0-0.3-0.2-0.6-0.4-0.6c-0.3,0-0.6,0.2-0.6,0.4
		c0,0.2,0,0.3,0.1,0.4l-6.6,12l0,0c-0.3,0-0.6,0.2-0.6,0.4c0,0.2,0,0.3,0.1,0.4l0,0h0.1c0.1,0.1,0.2,0.1,0.3,0.1
		c0.2,0,0.5-0.1,0.6-0.3l12.6-3c0.1,0.1,0.2,0.1,0.3,0.1h0.1l8.1,16.9c-0.1,0.1-0.2,0.2-0.2,0.3c0,0.3,0.2,0.6,0.4,0.6
		c0.1,0,0.1,0,0.2,0l0,0l0,0c0.2,0,0.4-0.2,0.4-0.4s0-0.3-0.1-0.4l7.3-24.4c0.4,0,0.7-0.2,0.8-0.6c0-0.2,0-0.4-0.1-0.5l15.4-14.9
		c0.1,0.1,0.2,0.1,0.4,0.1c0.1,0,0.2,0,0.3,0l7.2,31.7c-0.1,0.1-0.3,0.2-0.3,0.4c0,0.3,0.2,0.6,0.4,0.6c0,0,0,0,0.1,0v0.1l0.1-0.1
		h0.1l7.7,6.6l0.2-0.2l-7.7-6.6c0-0.1,0.1-0.1,0.1-0.2s0-0.2,0-0.3l13.6-22.7c0.1,0,0.1,0,0.2,0s0.1,0,0.2,0l12.5,38.5l10.6-27.6
		l0,0l4.1,13.8c-0.1,0.1-0.2,0.2-0.2,0.4c0,0.3,0.2,0.6,0.4,0.6c0,0,0,0,0.1,0v0.1l0.1-0.2l0,0l12.1,3l-6.9,4l20.8,8.3l-0.1,0.1h0.3
		l-3.3,8.2l-1,0.1l0.9,0.1v0.1h0.2l38.7,6l0.1,0.1h0.1l0.3,0.1l-0.2-0.2l7.9-5.8l0.2,0.1v-0.2l0.1-0.1h-0.1l0.9-12.6l0,0v-0.1
		l8.1-16.6h0.1v-0.1l12.1-7.3v0.1l0.2-0.2l0.3,0.4l-0.1-0.5h0.1l-0.1-0.1l1.7-2.2l-1.9,4.5l-1,0.1l0.9,0.1v0.1h0.2l39,6.2l0.1,0.1
		h0.1l0.4,0.1l-0.2-0.2l7.9-5.8l0.2,0.1v-0.2l0.1-0.1h-0.1l1-13l-17.3,8.7l-0.6-0.1l0,0h-0.1l-25.8-4.3l4.2-5.5l-10.7-2.6l16.1-4
		l0.1,0.1l0.1-0.1l0.2-0.1l-0.1-0.1l6.2-11.3v0.1l3.6-9.3c0.1,0,0.1,0,0.2-0.1L655,117l-13.8-51.2l19.8,4.4l0.1-0.3l-19.6-4.4v-0.1
		c0-0.3-0.2-0.6-0.4-0.6l0,0h0.2l-5-34.2c0.3-0.1,0.6-0.3,0.7-0.6l28.8,8.8l0.1,0.1l0.1-0.1l0.3,0.1l-0.1-0.1c0.3,0,0.6-0.3,0.6-0.6
		c0-0.1,0-0.2,0-0.3l15.4-15.8L682,22z M453.8-0.5c0.2-0.1,0.3-0.2,0.3-0.4l22.7-11.6l-4.2,23L453.8-0.5z M665.1,38.2
		c0,0.1,0,0.1,0,0.2l-28.4-8.7c0.1-0.4-0.1-0.7-0.4-1L646,9.9c0.1,0,0.2,0.1,0.2,0.1c0.1,0,0.2,0,0.3,0L665.1,38.2z M640.2,65.1
		l-22.3-17.8c0.2-0.2,0.3-0.4,0.3-0.6c0-0.2,0-0.3,0-0.5L635,30.3c0.2,0.1,0.3,0.2,0.6,0.3h0.1l5,34.2
		C640.4,64.8,640.3,65,640.2,65.1z M615,74.2c0-0.1-0.1-0.2-0.2-0.3l1.8-8.8c0.4,0,0.7-0.3,0.7-0.6c0,0,0,0,0-0.1l22.6,1.2L615,74.2
		z M551.3,146.9l-26.1-4.3l17.6-9.6l8.6,14L551.3,146.9L551.3,146.9z M506.4,115.5l-12.1-3.3c0-0.1-0.1-0.2-0.2-0.3l4.3-13.6
		L506.4,115.5C506.4,115.4,506.4,115.4,506.4,115.5z M432.4,107l-3.1-33.8c0.1-0.1,0.2-0.1,0.3-0.2l18.2,18
		c-0.1,0.1-0.1,0.2-0.1,0.4c-0.1,0.4,0.1,0.7,0.3,0.9L432.7,107C432.6,107,432.5,107,432.4,107z M431.9,107.1l-19.2-13.2l0,0
		l15.8-20.6c0.1,0,0.1,0,0.2,0c0.2,0,0.3,0,0.5,0l3.1,33.7C432,107,431.9,107,431.9,107.1z M413.3,78.1L413.3,78.1l-13-11.2l27.1,5
		c0,0.2,0,0.4,0.1,0.6l-14,5.7C413.5,78.1,413.4,78.1,413.3,78.1z M412.7,78.4l-11,1.8c-0.1-0.2-0.2-0.3-0.4-0.4h-0.1L400,67.3
		c0.1,0,0.1-0.1,0.2-0.2l12.7,11C412.8,78.2,412.8,78.3,412.7,78.4z M423.7,38.3c0.1,0,0.2-0.1,0.3-0.2l15.9,5.9
		c0,0.1-0.1,0.2-0.1,0.3v0.1l-16.9,10.1c-0.1-0.2-0.3-0.3-0.5-0.3L423.7,38.3z M440.5,45.4c0.2,0,0.4,0,0.6-0.1l19.4,28.2
		c-0.2,0.3-0.4,0.6-0.4,0.9c0,0.1,0,0.2,0,0.2L430,72c0-0.3,0-0.6-0.2-0.8l10.4-25.9C440.4,45.3,440.4,45.3,440.5,45.4z M511-9.8
		c0.2-0.1,0.4-0.3,0.5-0.6v-0.1l8.8-4.2L509.9,3.5c-0.2-0.1-0.3-0.1-0.5-0.2L511-9.8z M581.5-9l-4.4,4.4c-0.1-0.1-0.2-0.1-0.3-0.1
		h-0.1l-3.2-6.8c0.3-0.2,0.6-0.5,0.7-0.9L581.5-9L581.5-9z M590.8-1.4c0.2,0,0.3,0,0.5-0.1l1.2,3.8l-5.2-1.7h-0.1l3.1-2.2
		C590.5-1.5,590.6-1.4,590.8-1.4z M591.6-1.6l6.1,5.8l-4.8-1.6L591.6-1.6L591.6-1.6z M634.6,29.6c0,0.2,0.1,0.3,0.2,0.5L618,45.9
		c-0.2-0.3-0.4-0.4-0.8-0.5h-0.1l-1.9-10.3l0.2,0.2l-3.7-10.5c0.3-0.1,0.5-0.4,0.7-0.6L634.6,29.6z M616.5,63.7
		c-0.3,0-0.6,0.3-0.7,0.6l0,0l-6.1-0.9l7.5-8.4l-0.2,4.2L616.5,63.7z M574.1,92.3c-0.6-0.1-1.1,0.2-1.3,0.7l-13.3-4.4v-0.1
		c0.1-0.6-0.3-1.2-0.9-1.3c-0.6-0.1-1.2,0.3-1.3,0.9s0.3,1.2,0.9,1.3c0.4,0.1,0.9-0.1,1.1-0.5l5.6,31.5c-0.3,0.1-0.5,0.2-0.7,0.3
		l-20.5-19c0.7-0.3,1.3-0.7,1.4-1.3c0.2-1.4-1.8-3-3.3-3.2c-0.7-0.1-1.1,0.1-1.4,0.5l-4-7l6.2-5.1l-10-3.5c0-0.1,0-0.1,0.1-0.2
		c0.1-0.9-0.5-1.7-1.3-1.8c-0.3-0.1-0.6,0-0.9,0.1l-4.8-4.2l-2.3-8.5c0.3-0.1,0.5-0.4,0.6-0.7c0.1-0.5-0.3-1-0.8-1.1
		c-0.2,0-0.4,0-0.6,0.1l-5-7.2l0,0l-0.1-0.1l0.1-0.1l-4.8-8.3c0.2-0.2,0.3-0.4,0.4-0.7c0.1-0.4-0.1-0.9-0.4-1.2l3.7-13l-3.7,0.2
		l11.9-1l-18.3-14.1l0,0c0-0.1,0-0.1,0-0.2l11.1-3.4c0.1,0.2,0.3,0.4,0.6,0.5c0.4,0.1,0.8-0.2,0.8-0.6l26.7,4.7c0,0.1,0,0.1,0,0.2
		c-0.2,1,0.6,2,1.6,2.2c0.5,0.1,1-0.1,1.4-0.4l9.8,17.4c-0.2,0.1-0.3,0.4-0.4,0.6l0,0l-15.8,1.3v0.3l15.9-1.1
		c0.1,0.1,0.1,0.2,0.2,0.3l-8.6,15.4c-0.3-0.2-0.7-0.3-1.1-0.3c-1.3,0-2.4,1-2.5,2.3c0,1.3,1,2.4,2.3,2.5c0.7,0,1.4-0.3,1.8-0.8
		l3.5,3.9l-7.2,4.6l12.6,1.3l11,12.1l11.7-8.4l0.1,0.1L574,92.4C574.2,92.3,574.2,92.3,574.1,92.3z M525.1,121.7l-17.8-5.9
		c0-0.1,0-0.1,0-0.2l12.2-7.5c0.1,0.1,0.2,0.2,0.3,0.2s0.2,0,0.3,0l5.1,13.3C525.2,121.6,525.1,121.6,525.1,121.7z M498.8,97.4
		c-0.1-0.1-0.2-0.2-0.4-0.3c-0.1,0-0.2,0-0.3,0l-5.7-8.8l0.1-0.1l20.9,1.8c0,0.1,0,0.2,0,0.3L498.8,97.4z M493.7,111.7l-8.3-12.1
		c0.1-0.1,0.1-0.2,0.1-0.3l0,0L498,98l0.1,0.1l-4.3,13.6C493.8,111.7,493.7,111.7,493.7,111.7z M471.9,100.7c0-0.1,0-0.2,0-0.2
		l19.8-12.1c0.1,0.1,0.2,0.2,0.3,0.2c0.1,0,0.2,0,0.2,0l5.8,8.8v0.1L485.5,99c-0.1-0.1-0.2-0.2-0.4-0.3c-0.3,0-0.5,0.1-0.6,0.4
		L471.9,100.7z M471.2,99.7l5.3-18c0.1,0,0.2-0.1,0.2-0.2l14.8,6.4c0,0,0,0,0,0.1v0.1l-19.8,12.1C471.6,100,471.4,99.8,471.2,99.7z
		 M485.9,33.1c0.1,0.1,0.2,0.1,0.3,0.1l0,0l2.1,10.4c-0.7,0.2-1.3,0.8-1.6,1.5l-12.6-2.9v-0.1c0,0,0,0,0-0.1L485.9,33.1z
		 M506.3,20.5l17.6,13.6l-17.5,1.5c-0.1-0.1-0.3-0.2-0.4-0.2l0,0l0.1-14.6C506.1,20.7,506.2,20.6,506.3,20.5z M563.6,121.6l-23-3.6
		l1-15.5c0.1,0,0.2,0.1,0.4,0.1c-0.5-0.1,0.5-0.4,1.4-0.8L564,121C563.8,121.1,563.7,121.3,563.6,121.6z M492.5,88
		c0-0.1,0-0.1-0.1-0.2l9.9-12.3c0.1,0.1,0.3,0.1,0.5,0.2c0.1,0,0.2,0,0.4,0l10.6,13.5c-0.2,0.1-0.3,0.3-0.3,0.5L492.5,88z
		 M476.8,81.2c0-0.1,0-0.2-0.1-0.2l0.1-0.4l5.7-12.1l0,0c0.1,0,0.3,0,0.4-0.1l18.7,6.3c0.1,0.3,0.2,0.5,0.4,0.7l-9.9,12.3H492
		c-0.2,0-0.3,0-0.4,0.1L476.8,81.2z M475.3,58L487,47.7l0.2-0.2c0.2,0.3,0.5,0.5,0.7,0.6l-5.5,19.3c0,0-0.1,0-0.1,0.1l-7-9.1
		c0,0,0,0,0-0.1C475.4,58.3,475.3,58.1,475.3,58z M487,32.9l18.2,2.9v0.1c0,0,0,0,0,0.1L491,44.4c-0.4-0.4-0.9-0.8-1.5-0.9
		c-0.3,0-0.6,0-0.8,0l-2.1-10.3C486.7,33.2,486.9,33.1,487,32.9z M505.7,36.7c0.1,0,0.2,0,0.3,0l5.4,11.2c-0.4,0.2-0.7,0.5-0.8,0.9
		l-19-2.8c0-0.5-0.1-1-0.4-1.4l14-8.3C505.3,36.5,505.5,36.7,505.7,36.7z M522.5,67.4L514.8,89l0,0c-0.2,0-0.5,0-0.7,0.1l-10.4-13.5
		c0.5-0.2,0.8-0.6,0.9-1.1c0-0.1,0-0.2,0-0.3l17.6-7.1C522.2,67.2,522.3,67.3,522.5,67.4z M483.2,68.1L483.2,68.1c0-0.1,0-0.1,0-0.2
		l16-8.6h0.1c0.2,0,0.3,0,0.5-0.1l2.6,13.8c-0.3,0.2-0.6,0.6-0.7,1c0,0.1,0,0.2,0,0.3L483.2,68.1z M510.9,50l-10.8,8.4
		c-0.1-0.2-0.3-0.4-0.6-0.5c-0.1,0-0.1,0-0.2,0l-8.5-10.2c0.4-0.4,0.6-0.8,0.7-1.4c0,0,0,0,0-0.1l18.9,2.8
		C510.5,49.5,510.7,49.8,510.9,50z M488.7,48.5c0.7,0.1,1.4-0.1,1.9-0.5l8.4,10c-0.2,0.1-0.3,0.3-0.3,0.5s0,0.4,0.2,0.6l-15.8,8.5
		c0-0.1-0.1-0.1-0.2-0.1l5.5-19.1C488.5,48.4,488.6,48.4,488.7,48.5z M503.3,72.8c-0.2,0-0.5,0-0.7,0.1L500,59v-0.1l0,0l0,0l0,0
		l11.1-8.5c0.1,0.1,0.2,0.1,0.4,0.1L503.3,72.8C503.4,72.8,503.4,72.8,503.3,72.8z M515.7,90.5l24.3,9c0,0,0,0,0,0.1
		c0,0.3,0,0.6,0,0.8l-19.7,7c-0.1-0.1-0.2-0.1-0.3-0.1l0,0l-4.8-16.1C515.4,91,515.6,90.8,515.7,90.5z M520.4,107.7l19.6-6.9
		c0.2,0.7,0.7,1.3,1.3,1.6l-0.9,15.5l-19.9-10.1C520.4,107.7,520.4,107.7,520.4,107.7z M540,99.2l-24.2-9c0-0.2,0-0.4-0.1-0.6
		l4.8-2.4l9.6-4.6c0.2,0.2,0.5,0.4,0.9,0.5c0.3,0,0.6,0,0.8-0.1l3.9,6.8l0.6,1l0,0l4.1,7.1C540.2,98.4,540,98.8,540,99.2z
		 M535.9,89.7l-3.8-6.9c0.2-0.1,0.3-0.3,0.4-0.5l9.5,3.3l-5.8,4.8L535.9,89.7z M529.6,81.4c-0.1,0.3,0,0.7,0.2,1l-9.5,4.7l-4.8,2.3
		c-0.1-0.1-0.2-0.2-0.4-0.3l7.7-21.6l0,0c0.1,0,0.2,0,0.2,0l2.3,8.6l0,0l4.8,4.2C529.9,80.6,529.7,80.9,529.6,81.4z M522,66.4
		c0,0.1,0,0.2,0,0.3l-17.5,7.1c-0.1-0.2-0.1-0.3-0.2-0.5l13.1-14.6l4.9,7.1C522.1,66,522,66.2,522,66.4z M504,73.1
		c-0.1-0.1-0.2-0.1-0.3-0.2l8.1-22.5c0.2,0,0.5-0.1,0.7-0.2l4.7,8.2L504,73.1z M512.5,48c-0.1-0.1-0.3-0.1-0.5-0.2
		c-0.1,0-0.2,0-0.3,0l-5.5-11.2c0.1-0.1,0.2-0.2,0.2-0.4c0-0.1,0-0.2,0-0.2l9.5-0.4L512.5,48z M505.6,20.8
		C505.7,20.8,505.7,20.8,505.6,20.8v14.6c-0.1,0-0.2,0.1-0.3,0.2l-18.2-2.9c0-0.1,0-0.2,0-0.3l18.2-11.8
		C505.4,20.7,505.5,20.7,505.6,20.8z M474,42.5l12.7,3c0,0.1,0,0.1,0,0.2c-0.1,0.6,0,1.2,0.3,1.7l-0.3,0.2l-11.9,10.1l-1-15.2
		C473.9,42.5,474,42.5,474,42.5z M474.6,58.8c0,0,0.1,0,0.2,0.1c0.1,0,0.3,0,0.4-0.1l7,9.1c0,0,0,0,0,0.1s0,0.1,0,0.2l-18.2,6
		c-0.1-0.3-0.2-0.6-0.5-0.8L474.6,58.8z M464.1,75c0-0.2,0-0.3,0-0.5l18.2-6.2l-5.7,12.1l-0.1,0.3h-0.1c-0.2,0-0.3,0-0.4,0.1
		l-12.1-5.3C464,75.4,464,75.2,464.1,75z M514.4,91.2c0.1,0,0.3,0,0.4,0l4.8,16.1c-0.1,0.1-0.2,0.2-0.3,0.4v0.1l-12.3,7.5l0,0
		L514.4,91.2L514.4,91.2z M525.6,121.5C525.5,121.5,525.5,121.5,525.6,121.5l-5.2-13.3L540,118l-14.1,3.6
		C525.8,121.6,525.7,121.5,525.6,121.5z M526,122l14.3-3.7l2.4,14.1L526,122L526,122z M540.7,118.3l22.8,3.6l0,0
		c0,0.3,0,0.5,0.1,0.8l-20.5,9.8L540.7,118.3z M532.7-14.9l0.9,4.1l14.7-4.6L519.7,0.9l1.2-15.9L532.7-14.9z M529.8-15.3l2.9-0.1
		v0.1H529.8z M540.5-15.6l8-0.2l-14.7,4.6l-0.8-3.7h8L540.5-15.6z M533-15.3v-0.1l7.1-0.2l0.3,0.3H533z M548.7-15.3
		c0,0.1,0.1,0.1,0.1,0.2l-11,20.3l0.3,0.2l11.1-20.2c0.1,0,0.2,0.1,0.3,0.1l-0.5,9l-1.3,25.3c-0.9-0.1-1.7,0.4-2,1.1L518.9,16
		c-0.1-0.2-0.2-0.5-0.5-0.6l1.1-14.3L548.7-15.3z M598.1,4.8L597,9.9l0,0c-0.3,0-0.5,0.1-0.6,0.3l-14.1-1.6l15.5-3.8L598.1,4.8z
		 M605.3,13.8L600,13l-2-1.9l0.5-6.1L605.3,13.8z M605.7,69.6C605.7,69.6,605.6,69.6,605.7,69.6L601.9,57c0,0,0.1,0,0.1-0.1l7.1,6.5
		L605.7,69.6z M583.6,71.7l-0.7-24.4c0.1,0,0.1,0,0.2-0.1l8.4,8.3c0,0.1-0.1,0.1-0.1,0.2c0,0.3,0.1,0.5,0.3,0.7l-7.6,15.4
		C583.9,71.8,583.8,71.7,583.6,71.7z M610.6,25c0.3,0,0.5,0,0.7,0l3.4,9.4l-12.8-8.7c0.1-0.1,0.1-0.3,0.2-0.5v-0.1l7.1-1.2
		C609.4,24.5,609.9,24.9,610.6,25z M617.1,54.1l-9.3-5.5c0.1-0.2,0.2-0.4,0.2-0.6l0,0l5-0.5l3.1-0.3c0.2,0.3,0.4,0.5,0.7,0.5
		l0.4,6.3C617.2,54,617.2,54,617.1,54.1z M583.5,46.5c0-0.2-0.1-0.3-0.2-0.5l0.4-0.7l9.1-15.2l0.3-0.1l4.7,6.7l-2.4,10.6
		c0,0-0.1,0.1-0.1,0.2L583.5,46.5z M567.8,40.3l16.7-6.8l7.5-3l-8.5,14.7l-0.4,0.7c0,0,0,0-0.1,0c-0.3,0-0.6,0.1-0.7,0.3L567.8,40.3
		z M559.5,40.5l2.2-5.4l5.4,5.2H567l0.2,0.1l0.1,0.1h0.1l13.7,5.6L560,41.5l0,0C560,41,559.9,40.7,559.5,40.5z M550.1-14.9
		l18.6,30.6c-0.1,0.1-0.1,0.2-0.2,0.3l0,0l-19.3,4.8c-0.2-0.4-0.6-0.8-1-0.9l1.6-34.6C549.9-14.8,550-14.9,550.1-14.9z M576.6-3.3
		c0.1,0,0.1,0,0.2,0l3.9,11.4v0.1c-0.1,0.1-0.2,0.2-0.2,0.3s0,0.2,0,0.3l-11.1,6.8l0,0l0.5-1.3l6.6-17.7
		C576.5-3.4,576.5-3.3,576.6-3.3z M581.3,9h0.1l14.2,3.5l-1.4,2.4l-6.9,11.6l-3.4-2l-2.8-15.4C581.3,9,581.3,9,581.3,9z M587.9,9.6
		l8.6,1c0,0.1,0.1,0.1,0.2,0.2l-0.8,1.4l-12-2.9L587.9,9.6z M592.8,55.4l2.5-6.1l1.3-0.1l4.7,7c-0.1,0.1-0.1,0.1-0.1,0.2l-8.3-0.3
		c0,0,0,0,0-0.1C593,55.8,592.9,55.6,592.8,55.4z M580.6,34.7L567.5,40v0.1l-0.1,0.1l-5.6-5.4l7.2-18.2c0.1,0,0.2,0,0.3-0.1
		L583.5,30c-0.1,0.2-0.3,0.4-0.3,0.6c-0.1,0.5,0.1,0.9,0.4,1.2c0.2,0.4,0.6,0.7,1.1,0.8c0.8,0.1,1.6-0.4,1.8-1.3
		c0-0.3,0-0.5-0.1-0.7l4.6-1.7l1.4,0.8l-0.1,0.2L580.6,34.7z M580.7,9.1c0.1,0,0.1,0.1,0.2,0.1l0,0l2.7,15.1l-14-8.1l0,0
		c0-0.1,0-0.1,0-0.2L580.7,9.1z M601.6,56l-4.6-6.9l8-0.8c0.1,0.3,0.4,0.6,0.7,0.8l-3.4,5.9l-0.6,1H601.6z M595.8,48.2
		C595.9,48.2,595.9,48.2,595.8,48.2l0.5,0.7l-0.8,0.1L595.8,48.2L595.8,48.2z M598.2,37.1l1.6,2.3l-0.2-0.1l-3.5,7.2L598.2,37.1z
		 M602.4,32.6l3.4,13.7c-0.2,0.1-0.4,0.2-0.6,0.4l-7-10l2.2-10.2c0.1,0,0.2,0,0.3,0l1.1,4.4L602.4,32.6z M596.2,48.1
		c0.1-0.1,0.2-0.2,0.2-0.3c0-0.2-0.1-0.4-0.3-0.5l3.7-7.7l5.3,7.5c-0.1,0.2-0.2,0.3-0.2,0.5s0,0.3,0,0.5l-8.3,0.8l0,0L596.2,48.1z
		 M586.3,30.4c-0.1-0.2-0.2-0.3-0.4-0.4l1.7-3l3,1.7L586.3,30.4z M585.5,29.7c-0.1,0-0.2-0.1-0.3-0.1s-0.2,0-0.3,0l-0.9-4.7l3.2,1.8
		L585.5,29.7z M583.7,29.8l-13.5-13l13.5,7.8l0.9,4.9C584.2,29.6,584,29.7,583.7,29.8z M592.8,29.6L592.8,29.6l0.1,0.1l0,0
		L592.8,29.6z M592.9,29l-0.3,0.5l-1.1-0.7l7.9-2.9c0.2,0.3,0.5,0.5,0.8,0.6l-2.2,9.8L592.9,29z M602.1,56.3c0-0.1-0.1-0.1-0.1-0.2
		l4-6.9c0.1,0,0.2,0,0.2,0.1c0.5,0.1,1.1-0.1,1.4-0.5l9.2,5.5L602.1,56.3z M607.3,46.4c-0.2-0.1-0.3-0.2-0.5-0.2s-0.3,0-0.5,0
		l-3.8-14.8l-1.2-4.9c0.2-0.1,0.4-0.2,0.5-0.4l1.3,0.9l11.6,8.1l-3.5,5.5L607.3,46.4z M598.7,17.6L598.7,17.6L598.7,17.6l1.5,6
		c-0.5,0.2-0.9,0.6-1,1.2c0,0.2,0,0.5,0.1,0.7l-8.2,3.1l-3.2-1.9l6-10.4l1.3-2.3l0.9-1.5l1.4,0.3l0.6,1.8L598.7,17.6z M596.2,12.2
		l0.8-1.3h0.1l0.4,1.7L596.2,12.2z M549.3,21.1l19.3-4.8c0,0.1,0.1,0.1,0.1,0.1l-7.2,18l-12.4-12c0.1-0.2,0.2-0.4,0.2-0.6
		C549.4,21.6,549.4,21.4,549.3,21.1z M602.2,56.7l14.7-2l-7.5,8.6L602.2,56.7L602.2,56.7z M616.7,45.5c-0.3,0.1-0.6,0.5-0.6,0.8
		c0,0.1,0,0.3,0,0.4l-3,0.3l-5,0.5c0-0.4-0.2-0.7-0.4-0.9l5.3-8.3l2-3.1l0.5,2.5L616.7,45.5z M609,23.6l-7,1.1
		c-0.1-0.6-0.6-1.1-1.2-1.2c-0.1,0-0.2,0-0.3,0l-0.1-0.3l-1.1-5.3l9.6,4.7c0,0.1,0,0.2-0.1,0.3C609,23.1,609,23.4,609,23.6z
		 M576-4.2L576-4.2L576-4.2c0,0.2,0,0.4,0.1,0.6l-6.6,17.9l-0.5,1.2l-18.7-30.6c0.1-0.1,0.1-0.1,0.2-0.2L576-4.2z M549,22.7
		l12.4,12.1l-2.2,5.5h-0.1c-0.2,0-0.3,0-0.5,0l-9.8-17.5C548.9,22.8,549,22.8,549,22.7z M558.9,42.3c0.4,0.1,0.8-0.1,1-0.5l22.3,4.9
		c0,0,0,0,0,0.1l-31.2,12c-0.1-0.5-0.4-0.8-0.8-1.1L558.9,42.3z M551,59l30.4-11.7l-24.1,15.5l-6.4-2.6c0.1-0.2,0.1-0.5,0.1-0.7
		C551,59.4,551,59.2,551,59z M550.8,60.5L557,63l-2.8,1.8l-3.6-4C550.6,60.8,550.7,60.6,550.8,60.5z M559,70.6l-11.4-1.2l6.5-4.2
		L559,70.6z M554.4,65.1l3-1.9l24.4,9.7c0,0.1,0,0.1-0.1,0.2l-22.2-2.3L554.4,65.1z M581.8,72.5l-24.2-9.6l24.6-15.8
		c0.1,0.1,0.2,0.1,0.3,0.2l0.7,24.4C582.7,71.7,582.1,72,581.8,72.5z M583.4,47c0-0.1,0.1-0.1,0.1-0.2l11.9,0.9c0,0,0,0.1,0.1,0.1
		l-3.2,7.2l0,0c-0.2,0-0.4,0-0.6,0.2L583.4,47z M605.3,69.7l-12.4-13.3l8.3,0.3c0.1,0.2,0.2,0.3,0.4,0.3L605.3,69.7L605.3,69.7z
		 M609.2,22.3l-9.7-4.8l3.1-1.7l6.7,6.3C609.3,22.2,609.2,22.2,609.2,22.3z M599.4,17.2l-1.2-4.2l1.7,0.3l2.5,2.3L599.4,17.2z
		 M600.4,13.4l4.6,0.7l-2.4,1.3L600.4,13.4z M599.4,12.9l-1.4-0.2l-0.2-0.6l0.1-0.6L599.4,12.9z M597.6,11.2L597.6,11.2L597.6,11.2
		L597.6,11.2z M593.2,4.7l3.4,0.1l-15.1,3.7V8.4l5.8-7.4l5.4,1.8L593.2,4.7z M593,2.9l4.8,1.6l-4.3-0.1L593,2.9z M581.1,8.1
		L581.1,8.1c-0.1,0-0.1,0-0.1,0l-3.8-11.6c0.1,0,0.1-0.1,0.1-0.2l9.4,4.4L581.1,8.1z M571.8-11.2c0.5,0.1,0.9,0,1.3-0.2l3.1,6.8l0,0
		l-20.6-9l-4.8-2.1l19.1,2.1C569.8-12.4,570.6-11.4,571.8-11.2z M570.4,82.6L559.8,71l21.8,2.3c0,0.3,0,0.7,0.2,1L570.4,82.6z
		 M584.8,72.3c-0.1-0.1-0.3-0.3-0.4-0.4l7.6-15.4h0.1c0.1,0,0.3,0,0.4-0.1L605.1,70c0,0,0,0,0,0.1v0.1L585,73
		C585,72.8,584.9,72.6,584.8,72.3z M606.1,69.6l3.3-6l6.4,1L606.1,69.6L606.1,69.6z M609.8,21.6c-0.1,0.1-0.2,0.1-0.3,0.2l-6.6-6.2
		l2.6-1.4l2.1,3.5L609.8,21.6z M597.7,10.8l-0.2-0.2l0,0v-0.1l0,0c0-0.2,0-0.3-0.1-0.4l0.7-3.2L597.7,10.8z M590.2-1.8L587,0.5
		l-9-4.2l12.1,1.1v0.1C590-2.2,590.1-2,590.2-1.8z M569.9-13.9L559.4-15l10.7,0.8C570-14.1,569.9-14,569.9-13.9z M548.6-16.3
		l-8.5,0.3L531-26.8l17.7,10.4C548.6-16.4,548.6-16.3,548.6-16.3z M520.6-14.5l-2.4,30c-0.1,0-0.1,0-0.2,0l-7.7-9
		c0.4-0.3,0.6-0.7,0.7-1.2c0.1-0.7-0.2-1.3-0.7-1.7L520.6-14.5z M517.7,15.7c-0.1,0.1-0.2,0.3-0.2,0.4v0.1l-11.2,3.5l-0.1-0.1
		l2.7-12.7c0.4,0.1,0.8,0,1.1-0.2L517.7,15.7z M508.5,6.8l-2.7,12.6h-0.1L498.8,7l8.6-1.2C507.6,6.3,508,6.7,508.5,6.8z M505.4,19.5
		c-0.1,0.1-0.2,0.2-0.2,0.3h-14.8v-0.1l8.2-12.6L505.4,19.5z M490.3,20.1l14.8,0.1v0.1l-18.2,11.8c-0.1-0.1-0.2-0.2-0.3-0.2
		l3.4-11.5C490.2,20.3,490.2,20.2,490.3,20.1z M489.6,20.3c0,0,0.1,0,0.1,0.1l-3.3,11.4c-0.2,0-0.4,0.1-0.5,0.2l-6.1-6.9
		c0.2-0.1,0.3-0.3,0.3-0.5s0-0.3-0.1-0.5L489.6,20.3z M479,25.1c0.1,0,0.2,0.1,0.3,0.1c0.1,0,0.1,0,0.2,0l6.2,7.1
		c0,0.1-0.1,0.1-0.1,0.2c0,0.2,0,0.4,0.1,0.5l-11.5,8.8l-0.1-0.1l1.3-4.5L479,25.1z M473.6,42.9l1,15c-0.1,0.1-0.2,0.2-0.3,0.4
		c0,0.1,0,0.2,0.1,0.3l-11,14.6c-0.1-0.1-0.2-0.1-0.3-0.2L473.6,42.9z M422.9,55c0-0.1,0-0.1,0-0.2l16.8-10.1
		c0.1,0.2,0.1,0.3,0.3,0.4l-10.4,25.8c-0.2-0.2-0.4-0.3-0.7-0.3c-0.1,0-0.1,0-0.2,0l-6.2-15.1C422.8,55.4,422.9,55.2,422.9,55z
		 M449,90.3c-0.3,0-0.6,0-0.8,0.2l-18.3-17.9c0.1-0.1,0.1-0.2,0.1-0.3l30.1,2.6c0.1,0.5,0.4,1,0.8,1.3l-11.3,14.4
		C449.5,90.5,449.3,90.4,449,90.3z M449.8,90.9l11.4-14.4c0.2,0.1,0.4,0.2,0.6,0.2s0.5,0,0.7,0l7.6,23.2c-0.2,0.1-0.4,0.4-0.4,0.6
		l-19.8-8.6c0-0.1,0-0.1,0-0.2C450,91.4,449.9,91.1,449.8,90.9z M462.8,76.5c0.4-0.1,0.7-0.4,0.9-0.7l12.1,5.3c0,0,0,0,0,0.1
		c0,0.3,0.1,0.5,0.4,0.6l-5.3,17.9c-0.2,0-0.4,0-0.5,0.1L462.8,76.5z M471.8,101l12.8-1.6c0.1,0.2,0.2,0.3,0.4,0.3
		c0.1,0,0.1,0,0.2,0l8.3,12.1l-0.1,0.1l-21.7-10.7C471.7,101.2,471.8,101.1,471.8,101z M506.7,115.3l-8-17.1
		c0.1-0.1,0.2-0.2,0.2-0.3l0,0l14.7-7.1c0.1,0.2,0.3,0.4,0.5,0.5L506.7,115.3L506.7,115.3z M507.2,116.1L525,122c0,0.1,0,0.1,0,0.2
		l-13.9,8l-4-13.9C507.1,116.2,507.2,116.1,507.2,116.1z M525.7,122.5c0.1,0,0.1-0.1,0.2-0.1l16.8,10.4l-17.7,9.7L525.7,122.5z
		 M543.2,132.8l20.5-9.8c0.1,0.3,0.4,0.5,0.6,0.7l-12.4,23.2L543.2,132.8z M564.6,123.8c0.1,0.1,0.3,0.1,0.5,0.1s0.4,0,0.7,0
		l3.4,14.4l-16.8,8.4L564.6,123.8z M565.6,120.4c-0.1,0-0.2,0-0.4,0L559.7,89l13,4.3c0,0,0,0,0,0.1c-0.1,0.6,0.2,1.1,0.7,1.3
		l-7.7,25.8C565.7,120.4,565.6,120.4,565.6,120.4z M575,94.2l12.4,5.9l-0.1,0.1h0.1l2.1,13.2l-14.7-19
		C574.9,94.4,574.9,94.3,575,94.2z M575.1,93.9c0-0.1,0-0.1,0-0.2c0-0.2,0-0.4,0-0.6l17.3-7.3l-5,13.9L575.1,93.9z M575,92.9
		c-0.1-0.2-0.3-0.3-0.4-0.4l7.9-17.5c0.7,0.4,1.5,0.3,2-0.1l8.1,10.4c-0.1,0.1-0.1,0.1-0.1,0.2L575,92.9z M584.6,74.6
		c0.3-0.3,0.5-0.8,0.4-1.3l20.1-2.7l-12,14.5H593c-0.1,0-0.1,0-0.2,0L584.6,74.6z M606.1,70l9.8-5c0.1,0.1,0.1,0.1,0.2,0.1l-1.7,8.7
		c0,0,0,0-0.1,0c-0.3,0-0.5,0.1-0.7,0.3l-7.5-3.8c0,0,0,0,0-0.1C606.2,70.1,606.2,70.1,606.1,70z M617.2,64.2
		c-0.1-0.1-0.1-0.2-0.2-0.3l0.3-4.6l0.4-4.3c0.2,0,0.4-0.2,0.4-0.4c0-0.3-0.1-0.5-0.4-0.6l-0.4-6.3c0.1,0,0.3-0.1,0.4-0.1L640,65.4
		L617.2,64.2z M635.9,28.5c-0.5-0.1-1,0.2-1.2,0.7l-22-5.4c0-0.1,0-0.2,0.1-0.3c0-0.2,0-0.4,0-0.6l33.1-13.1l-9.7,18.8
		C636.1,28.5,636,28.5,635.9,28.5z M661.1-23.8L646.5,8.6c-0.4,0-0.7,0.2-0.8,0.6c0,0.1,0,0.1,0,0.2l-33.1,13.1
		c-0.2-0.5-0.5-0.9-1-1.1l10.3-31.7h0.1c0.8,0.1,1.6-0.4,1.7-1.3c0-0.2,0-0.4,0-0.5L661.1-23.8z M621.1-11c0.1,0.3,0.4,0.5,0.7,0.6
		l-10.3,31.7c-0.1,0-0.2,0-0.3-0.1c-0.4-0.1-0.7,0-1,0.1l-2.3-3.9l-1.8-3.3h0.2L606,14l0.1-0.1h-0.2l-7.2-9.2V4.6l0.2-0.1l-0.4-0.1
		V4.3h-0.1l-0.2-0.2v0.1l-6.4-6.1c0-0.1,0-0.1,0.1-0.2c0-0.1,0-0.2,0-0.3L621.1-11z M590.4-3C590.3-3,590.3-2.9,590.4-3l-11.9-1
		l-1.1-0.1c0-0.1,0-0.2-0.1-0.3l4.4-4.4L590.4-3z M558.4-30.1l19,1.2c0.1,0.1,0.1,0.2,0.2,0.2l-5,13c-0.1,0-0.1,0-0.2,0
		c-0.6-0.1-1.1,0-1.6,0.3L558.4-30.1z M551.2-26.9l19,12.2l-0.1,0.1L550.8-16c0-0.5-0.4-0.9-0.8-1L551.2-26.9z M550.7-27l-0.6,5.7
		l-0.6,4.3c-0.2,0-0.5,0.2-0.6,0.3l-18-10.6L550.7-27z M539.7-16l-6.9,0.2l-2.4-11.1L539.7-16z M530.2-27l2.4,11.3l-9.2,0.3
		l-2.2,0.1L530.2-27z M529.8-27.1L521-15.7v-0.2l-0.2,0.4l-3.8-8.7L529.8-27.1z M516.7-23.9l3.7,8.6l0,0v0.2l-9,4.3l-0.1-0.1
		L516.7-23.9z M510.4-9.8c0.1,0,0.2,0.1,0.2,0.1s0,0,0.1,0l-1.6,13c-0.6,0-1.2,0.3-1.5,0.8l-8.3-6.4L510.4-9.8z M499.2-2l8.2,6.3
		c-0.1,0.1-0.1,0.3-0.1,0.4c0,0.2,0,0.4,0,0.7l-8.6,1.2L499.2-2z M498.9-1.9l-0.5,8.6h-0.1l0,0L489,8.2L498.9-1.9z M498.2,7.1
		l-8.1,12.4H490l-1.4-10.9L498.2,7.1z M488.4,8.9l1.3,10.5c-0.2,0-0.4,0.2-0.4,0.4c0,0.1,0,0.2,0,0.3l-9.5,3.7
		c-0.1-0.1-0.2-0.1-0.3-0.1L488.4,8.9z M478.6,25l-3.5,12l-1.3,4.5c-0.3,0-0.5,0.2-0.5,0.4c0,0,0,0,0,0.1l-15.5,4.6L478.6,25z
		 M473.3,42.3l0.1,0.1l-10.7,30.4c-0.1,0-0.2-0.1-0.3-0.1c-0.2,0-0.3,0-0.5,0L457.5,47L473.3,42.3z M457.2,47.1l4.4,25.7
		c-0.3,0.1-0.6,0.2-0.8,0.4L441.4,45c0.1-0.1,0.2-0.3,0.2-0.4c0-0.1,0-0.2,0-0.2L457.2,47.1z M423.3,38.2l-1.3,16
		c-0.3,0.1-0.5,0.3-0.5,0.5l-18,3.1c0-0.1,0-0.1-0.1-0.2l19.7-19.5C423.3,38.2,423.3,38.2,423.3,38.2z M388,54.2l14.1,3.9
		c0.1,0.3,0.3,0.6,0.6,0.6c0.4,0.1,0.8-0.2,0.8-0.6l18-3.1c0.1,0.3,0.3,0.5,0.6,0.5c0.1,0,0.1,0,0.2,0l6.1,15
		c-0.5,0.1-0.9,0.5-1,0.9l-27.3-5.1c-0.1-0.1-0.1-0.1-0.2-0.2V66l-0.1,0.1l0,0h-0.1L388,54.2z M399.7,67.3
		C399.7,67.4,399.7,67.4,399.7,67.3l1.2,12.6c0,0-0.1,0-0.1,0.1l-3.9-1.9l-5.7-3c0-0.1-0.1-0.3-0.2-0.4l8.3-7.4
		C399.4,67.3,399.5,67.3,399.7,67.3z M358.7,107.1c-0.1,0-0.1-0.1-0.2-0.1c-0.2,0-0.4,0-0.5,0.2l-24-11v-0.1V96l46.9-6.4
		L358.7,107.1z M382,89.2L382,89.2l0.1-0.1L382,89.2c-0.1-0.1-0.1-0.1-0.1-0.2l8.7-13.5l0,0c0.1,0,0.2,0,0.3-0.1l5.8,2.9l3.9,2.1
		l0,0L382,89.2z M413.6,79c0.1-0.1,0.1-0.2,0.2-0.3v-0.1h0.1l-0.1-0.1l14-5.7c0.1,0.1,0.2,0.2,0.3,0.3l-15.5,20.2L413.6,79z
		 M403,118.2l6.6-12l0,0c0.1,0,0.2,0,0.2,0l5.8,8.8c0,0.1-0.1,0.1-0.1,0.2s0,0.1,0,0.2l-12.5,3C403.1,118.3,403.1,118.2,403,118.2z
		 M416.4,115.7c0.1-0.1,0.2-0.2,0.2-0.3l0,0l15-7.3c0.1,0.1,0.2,0.2,0.3,0.3l-7.3,24.3l0,0h-0.1L416.4,115.7z M456.6,124.2
		c-0.1,0-0.1-0.1-0.2-0.1l0,0l-7-31.7c0.1-0.1,0.3-0.2,0.4-0.3l19.9,8.7c0,0.4,0.2,0.7,0.5,0.9L456.6,124.2z M471.1,101.8
		c0.1,0,0.3-0.1,0.4-0.2l21.8,10.7c0,0.2,0.1,0.3,0.2,0.4l-10.2,26.7L471.1,101.8z M494.3,112.5l12,3.3c0,0.1,0,0.2,0.1,0.3
		l-7.8,10.7c-0.1-0.1-0.2-0.1-0.3-0.2c0,0,0,0-0.1,0l-4.1-13.9C494.2,112.6,494.2,112.5,494.3,112.5z M498.7,127.3
		c0,0,0-0.1,0.1-0.2V127l7.8-10.8c0,0,0.1,0,0.2,0.1l0,0l4,13.9L498.7,127.3z M504.3,134.4l6.5-3.8l0,0l0,0l13.1,11.5L504.3,134.4z
		 M511.2,130.5l14-8.1c0.1,0.1,0.1,0.1,0.2,0.1l-0.7,19.8L511.2,130.5z M524.8,142.9L524.8,142.9L524.8,142.9l0.7,0.2l-0.3-0.2
		l25.4,4.2l-29.1,3.8L524.8,142.9z M522.4,151.2l29.2-3.8l-0.1,0.2l0.2-0.1l8,9.6L522.4,151.2z M560.2,157l-8-9.6l15.7,3.9
		L560.2,157z M568.2,151.1l-15.5-3.9h0.2l-0.6-0.1l16.7-8.4L568.2,151.1z M569.3,138l-3.3-14.1c0.6-0.2,1-0.7,1.1-1.4
		c0-0.1,0-0.2,0-0.3l10.1-0.3L569.3,138z M567.1,121.8c-0.1-0.6-0.5-1.1-1.1-1.3l7.7-25.7l0,0c0.1,0,0.1,0,0.2,0l3.4,26.8
		L567.1,121.8z M577.6,121.4l-3.4-26.7c0.1,0,0.2-0.1,0.4-0.1l15.1,19.4v0.1L577.6,121.4z M621.5,112.7L621.5,112.7L621.5,112.7
		l16.5-8.3l-0.9,12.4l-15.9-4L621.5,112.7z M636.8,117l-7.7,5.6l-8-9.6L636.8,117z M620.5,112.9l8.2,9.7l-37.6-6l28.9-3.8
		L620.5,112.9z M618.8,112.7l-28.5,3.8l2.2-5.4l1.8-2.4L618.8,112.7z M593.9,108.5l-1,1.3l0.6-1.6h0.2v0.2L593.9,108.5z
		 M598.3,102.8l-4.1,5.3l-0.8-0.1h-0.1l-1.2,2.9l-2.2,2.9l-2.2-13.5L598.3,102.8z M587.8,99.8l4.9-13.8h0.1c0.1,0,0.2,0,0.3-0.1
		l10.8,9.8L587.8,99.8z M604.3,95.6l-10.9-9.9c0,0,0,0,0-0.1l16.9-1.2L604.3,95.6z M593.4,85.3L593.4,85.3l12.1-14.7c0,0,0,0,0.1,0
		l0,0l5,13.5L593.4,85.3z M606,70.9L606,70.9l-0.1-0.3l7.6,3.8c0,0,0,0,0,0.1c-0.1,0.4,0.2,0.7,0.5,0.8l-3.3,8.5L606,70.9z
		 M654.1,115.9L614.8,75c0.1-0.1,0.2-0.2,0.2-0.4v-0.1l25.5-8.7h0.1l0,0L654.1,115.9z M666.3,37.7c-0.1-0.1-0.2-0.2-0.4-0.2
		c-0.3,0-0.6,0.1-0.7,0.3L646.9,9.9l0.1-0.1l34.4,12.4L666.3,37.7z"/>
	
		<linearGradient id="SVGID_3_" gradientUnits="userSpaceOnUse" x1="487.7454" y1="61.6217" x2="461.5299" y2="7.3945" gradientTransform="matrix(1 0 0 -1 0 60)">
		<stop  offset="0.208" style="stop-color:#06409A"/>
		<stop  offset="0.278" style="stop-color:#133F96;stop-opacity:0.8747"/>
		<stop  offset="0.4075" style="stop-color:#353D8C;stop-opacity:0.6431"/>
		<stop  offset="0.5821" style="stop-color:#6C397C;stop-opacity:0.3307"/>
		<stop  offset="0.7669" style="stop-color:#AE3569;stop-opacity:0"/>
	</linearGradient>
	<rect x="443.3" fill="url(#SVGID_3_)" width="58.8" height="59"/>
</g>
<polygon fill="#FFFFFF" points="450.7,3.1 465,4.3 451.2,-21.1 439.3,2.1 450.5,3.1 434.3,12.9 455.5,19.8 "/>
<polygon fill="#FFFFFF" points="433.6,-1 -3.774,-1.974 0,60.4 381.2,77.4 419.2,62.8 423.5,57.3 411.5,51.5 427.5,45.5 421.5,25.6 
	436.5,32.2 447.8,31.7 434.3,12.9 439.3,2.1 "/>
<polygon fill="#FFFFFF" points="440,43.9 436.5,32.2 427.5,45.5 "/>
<polygon fill="#FFFFFF" points="428.5,65.8 441.2,51.5 427.5,45.5 423.5,57.3 "/>
<ellipse fill="#FFFFFF" cx="489.2" cy="46" rx="2.4" ry="2.4"/>
<ellipse fill="#D5D5D5" cx="499.3" cy="57.8" rx="0.8" ry="0.8"/>
<ellipse fill="#D5D5D5" cx="486.8" cy="33.3" rx="0.8" ry="0.8"/>
<ellipse fill="#D5D5D5" cx="480" cy="25.3" rx="0.8" ry="0.8"/>
<ellipse fill="#D5D5D5" cx="440.7" cy="44.4" rx="0.8" ry="0.8"/>
<circle fill="#D5D5D5" cx="474.8" cy="57.9" r="0.6"/>
<circle fill="#D5D5D5" cx="490.3" cy="21.1" r="0.6"/>
<circle fill="#FFFFFF" cx="455.1" cy="1.1" r="0.6"/>
<g id="Rectangle_1_3_">
	<g>
		<path fill="#FFFFFF" d="M477.6,16.9l-1.3,5.2l-0.2,0.8l-0.8-0.2l-0.5-0.1l-0.3-0.1l-0.2-0.3c-0.2-0.4-0.6-0.6-1-0.7
			c-0.1,0-0.3,0-0.4,0c-0.8,0-1.6,0.6-1.8,1.5c-0.1,0.5-0.1,1,0.2,1.5c0.2,0.4,0.6,0.7,1,0.8c0.1,0,0.3,0.1,0.4,0.1
			c0.3,0,0.5-0.1,0.8-0.2l0.3-0.2l0.4,0.1l0.4,0.1l0.8,0.2l-0.2,0.8L475,27c1.8,0.7,3.2,2.5,3.2,4.6c0,2.7-2.2,4.9-4.9,4.9
			c-2.7,0-4.9-2.2-4.9-4.9c0-0.2,0-0.5,0-0.7l-0.9-0.2l-0.8-0.2l0.2-0.8l0.1-0.5l0.1-0.3l0.3-0.2c0.4-0.2,0.7-0.6,0.8-1
			c0.1-0.4,0-0.9-0.2-1.3c-0.3-0.4-0.7-0.7-1.2-0.9c-0.2,0-0.4-0.1-0.6-0.1c-0.3,0-0.7,0.1-0.9,0.2c-0.4,0.2-0.7,0.6-0.8,1
			s-0.1,0.9,0.2,1.2l0.2,0.3l-0.1,0.4l-0.1,0.5l-0.2,0.8l-0.8-0.2l-5.1-1.3c-0.2,1.1-0.4,2.2-0.4,3.3c0,8.4,6.8,15.2,15.2,15.2
			c8.4,0,15.2-6.8,15.2-15.2C488.6,24.6,484,18.8,477.6,16.9z M463.9,28.3c-0.3-0.6-0.4-1.2-0.3-1.9c0.2-0.7,0.6-1.2,1.3-1.6
			c0.6-0.3,1.4-0.4,2.1-0.2c0.7,0.2,1.3,0.6,1.7,1.2c0.4,0.6,0.5,1.3,0.3,2c-0.2,0.6-0.6,1.1-1.1,1.5l-0.1,0.5l5.2,1.4l1.4-5.2
			l-0.4-0.1c-0.6,0.4-1.2,0.4-1.9,0.3c-0.7-0.2-1.2-0.6-1.6-1.3c-0.3-0.6-0.4-1.4-0.2-2.1c0.4-1.5,1.8-2.4,3.2-2.1
			c0.6,0.2,1.1,0.6,1.5,1.1l0,0l0.5,0.1l1.3-5.2L462.4,13l-3.8,14.5l5.2,1.4L463.9,28.3z"/>
	</g>
</g>
<circle fill="#D5D5D5" cx="457.2" cy="46.9" r="0.6"/>
</svg>
