<?xml version="1.0" encoding="utf-8"?>
<!-- Generator: Adobe Illustrator 25.2.3, SVG Export Plug-In . SVG Version: 6.00 Build 0)  -->
<svg version="1.1" id="Mono_1_" xmlns="http://www.w3.org/2000/svg" xmlns:xlink="http://www.w3.org/1999/xlink" x="0px" y="0px"
	 viewBox="0 0 500 316" enable-background="new 0 0 500 316" xml:space="preserve">
<g id="Layer_1_xA0_Image_1_">
</g>
<g id="Rectangle_2_xA0_Image_1_">
	<linearGradient id="SVGID_1_" gradientUnits="userSpaceOnUse" x1="81.708" y1="-0.2944" x2="81.708" y2="315.2888">
		<stop  offset="1.723294e-03" style="stop-color:#06409A"/>
		<stop  offset="0.1268" style="stop-color:#133F96"/>
		<stop  offset="0.358" style="stop-color:#353D8C"/>
		<stop  offset="0.6699" style="stop-color:#6C397C"/>
		<stop  offset="1" style="stop-color:#AE3569"/>
	</linearGradient>
	<rect x="0.1" y="-0.3" fill="url(#SVGID_1_)" width="163.1" height="317"/>
</g>
<g id="app_x5F_logo_xA0_Image_1_">
	<g opacity="0.15">
		<defs>
			<rect id="SVGID_2_" opacity="0.15" width="500" height="316"/>
		</defs>
		<clipPath id="SVGID_3_">
			<use xlink:href="#SVGID_2_"  overflow="visible"/>
		</clipPath>
		<linearGradient id="SVGID_4_" gradientUnits="userSpaceOnUse" x1="185.1342" y1="248.5353" x2="668.1002" y2="248.5353">
			<stop  offset="0" style="stop-color:#FFFFFF"/>
			<stop  offset="1" style="stop-color:#FFFFFF;stop-opacity:0"/>
		</linearGradient>
		<path clip-path="url(#SVGID_3_)" fill="url(#SVGID_4_)" d="M662.3,153.4l-96.7-34.8c0,0,0,0,0-0.1c0.1-0.8-0.2-1.6-0.9-2L605.4,26
			l9.2-2.9l-0.3-0.8l-8.5,2.7l1.9-4.3l-0.8-0.4l-2.2,5L500.9,58.1c-0.6-1.3-1.7-2.2-3.2-2.5c-0.9-0.1-1.8,0-2.6,0.4l-45.8-69.9
			l-0.7,0.5l45.8,69.9c-0.8,0.6-1.3,1.5-1.5,2.6c-0.1,0.6,0,1.2,0.1,1.8l-81.2,23.7c-0.4-0.6-1-1.1-1.8-1.2c-0.4-0.1-0.8,0-1.2,0.1
			l-24.2-16.3l0.1-0.1l-1.1-0.5l0,0l-20.1-9.7c0.1-0.3,0.2-0.6,0.2-0.9c0.5-3-1.3-5.9-4-6.9l13.9-36.2c0.6-0.1,1.1-0.6,1.2-1.2
			c0-0.2,0-0.5-0.1-0.7l45.6-40.7l-0.6-0.6l-45.5,40.7c0,0-0.1,0-0.1-0.1l5.1-41.9l-0.9-0.1l-5.1,41.8c-0.7,0-1.3,0.5-1.4,1.2
			c0,0,0,0,0,0l-53.4-3.3l-0.5-0.6l-0.6,0.5l-21.3-1.3l-0.1,0.9l22,1.3l35.2,41.3c-0.3,0.2-0.5,0.5-0.8,0.8l-53.2-34l0-0.2l-0.4,0
			l-0.5-0.3l0,0.3l-56.5-0.8l0.1-0.2l-0.8,0.2l-0.1,0l-0.2-0.3l-0.1,0.1l-0.5-0.3l0.1,0.4l-1.1,0l0.6,0.3L204,24.4l-0.3-0.6
			l-0.3,0.7l-0.3,0.1l0.1,0.3L188,61.3c-0.2-0.1-0.4-0.2-0.6-0.2c-1.1-0.2-2.2,0.6-2.4,1.7c-0.1,0.6,0.1,1.1,0.4,1.5l-30.2,20.7
			l0-0.3l-0.5,0.5l-0.4-0.3l0,0.6l-0.3,0.2L154,86l-28.2,28.6l0-0.4l-0.6,1l-0.9,0.9l0.4-0.1l-25.3,41.9c0,0,0,0-0.1,0L82,122.2
			l12.2-66.1L29.9,88.9c-0.2-0.4-0.6-0.7-1.1-0.8c-0.8-0.1-1.5,0.4-1.7,1.2c0,0.3,0,0.6,0.1,0.9l-0.6,0.3l54.5,32l17.4,36
			c-0.3,0.3-0.5,0.7-0.5,1.1c0,0.2,0,0.4,0,0.6l0,0l-59.5,61.6l-0.1,0.1l-42,12.5c-0.4-0.7-1-1.3-1.9-1.4c-0.8-0.1-1.5,0.1-2.1,0.6
			l-45.7-36.5c0-0.3,0-0.6-0.2-0.9l55.6-28.2c0.3,0.3,0.7,0.5,1.1,0.6c1.1,0.2,2.2-0.6,2.4-1.7s-0.6-2.2-1.7-2.4s-2.2,0.6-2.4,1.7
			c-0.1,0.4,0,0.7,0.1,1.1l-55.8,28.3c0,0-0.1,0-0.1,0l0-0.2l-0.2,0.2c0,0,0,0-0.1,0c-0.1,0-0.2,0-0.4,0l-54.7-48.9
			c0.4-0.3,0.7-0.8,0.7-1.3c0.2-1.1-0.6-2.2-1.7-2.4s-2.2,0.6-2.4,1.7c-0.2,1.1,0.6,2.2,1.7,2.4c0.3,0,0.5,0,0.8,0l54.7,48.9
			c-0.2,0.2-0.4,0.5-0.4,0.8c0,0.2,0,0.3,0,0.5l-54.9,54.1c-0.3-0.2-0.6-0.4-0.9-0.4c-1.1-0.2-2,0.5-2.3,1.5l-40.1-11.1
			c0.1-0.8-0.4-1.5-1.2-1.6c-0.3,0-0.6,0-0.8,0.1l-45.1-121.8l-0.7,0.3l45.2,122.1c-0.1,0.1-0.2,0.3-0.2,0.5l-114.6-50.2l-0.3,0.7
			l115,50.3c0.2,0.5,0.6,0.9,1.1,0.9c0.5,0.1,0.9-0.1,1.2-0.4l32.9,34l-0.2,0l0.4,0.3c-0.2,0.2-0.4,0.5-0.5,0.8c0,0.1,0,0.2,0,0.4
			l-23.6,21.1c-0.7-0.1-1.3,0.3-1.5,1l-112.3-28c0-0.1,0.1-0.2,0.1-0.3c0.3-2.1-1.1-4.1-3.2-4.4s-4.1,1.1-4.4,3.2
			c-0.3,2.1,1.1,4.1,3.2,4.4c1.7,0.3,3.3-0.6,4-2.1l112.5,28.1c0.1,0.2,0.2,0.4,0.4,0.6l-24.2,37.5c0,0,0,0,0,0
			c-0.7-0.1-1.3,0.3-1.6,0.9l-130.7,17.9c-0.2-0.2-0.5-0.4-0.8-0.4c-0.6-0.1-1.2,0.2-1.5,0.8l-1.7,0.2l1.6,0.7
			c0.1,0.6,0.6,1.1,1.2,1.2c0.4,0.1,0.7,0,1-0.2l67,30.4c-0.1,0.8,0.4,1.5,1.2,1.6c0.8,0.1,1.5-0.4,1.7-1.2c0-0.3,0-0.5-0.1-0.7
			l60.9-48l-0.1,0.2l1.2-0.6c0.1,0.1,0.3,0.1,0.4,0.1c0.8,0.1,1.5-0.4,1.6-1.1l52.2-24.5c0.2,0.2,0.5,0.4,0.8,0.5
			c0.7,0.1,1.4-0.3,1.6-1l30.6-5c0.1,0.5,0.6,1,1.2,1.1c0.1,0,0.2,0,0.3,0l-2.9,39.7c0,0-0.1,0-0.1,0c-0.8-0.1-1.5,0.4-1.7,1.2
			c-0.1,0.8,0.4,1.5,1.2,1.7c0.6,0.1,1.2-0.2,1.5-0.8l52.9,36.4c-0.1,0.2-0.2,0.5-0.3,0.7c0,0.2,0,0.4,0,0.6l-41.6,20.1
			c-0.2-0.4-0.6-0.7-1-0.7c-0.3,0-0.6,0-0.8,0.1L-92,386.4c0.2-0.2,0.3-0.4,0.3-0.7c0.1-0.8-0.4-1.5-1.2-1.7
			c-0.8-0.1-1.5,0.4-1.7,1.2c-0.1,0.5,0.1,0.9,0.4,1.2l-18.4,33.2c0,0-0.1,0-0.1,0c-0.8-0.1-1.5,0.4-1.7,1.2
			c-0.1,0.5,0.1,0.9,0.4,1.2l-0.1,0.1l0.1,0c0.2,0.2,0.4,0.3,0.7,0.3c0.7,0.1,1.3-0.3,1.6-0.9l35.1-8.4c0.2,0.2,0.5,0.3,0.8,0.4
			c0.1,0,0.2,0,0.3,0l22.5,46.9c-0.3,0.2-0.5,0.5-0.5,0.9c-0.1,0.8,0.4,1.5,1.2,1.7c0.2,0,0.3,0,0.5,0l0,0l0,0
			c0.6-0.1,1-0.6,1.1-1.2c0.1-0.5-0.1-0.9-0.4-1.2l20.2-67.6c1.1,0.1,2-0.7,2.2-1.7c0.1-0.5-0.1-1.1-0.3-1.5l42.7-41.2
			c0.3,0.2,0.7,0.3,1,0.4c0.2,0,0.5,0,0.7,0l19.9,87.8c-0.4,0.2-0.7,0.6-0.8,1.1c-0.1,0.8,0.4,1.5,1.2,1.7c0.1,0,0.1,0,0.2,0
			l0.1,0.3l0.2-0.3c0.1,0,0.2,0,0.4-0.1l21.4,18.4l0.6-0.7l-21.3-18.3c0.1-0.2,0.2-0.4,0.2-0.6c0-0.3,0-0.5-0.1-0.8l37.7-63
			c0.1,0,0.3,0.1,0.5,0.1c0.2,0,0.3,0,0.5,0l34.6,106.9l29.3-76.4c0,0,0,0,0.1,0l11.3,38.3c-0.3,0.2-0.6,0.6-0.6,1
			c-0.1,0.8,0.4,1.5,1.2,1.7c0.1,0,0.1,0,0.2,0l0.1,0.4l0.3-0.4c0,0,0.1,0,0.1,0l33.6,8.2l-19.1,11l57.7,22.9l-0.3,0.2l0.7,0.1
			l-9.3,22.8l-2.8,0.4l2.4,0.4l-0.1,0.2l0.7-0.1l107.4,16.7l0.2,0.2l0.2-0.1l1,0.1l-0.4-0.5l21.9-16.1l0.6,0.1l0-0.6l0.2-0.2
			l-0.2-0.1l2.6-35l0.1,0l0-0.2l22.5-46.1l0.2,0l0-0.2l33.5-20.3l0.1,0.4l0.5-0.6l0.8,1l-0.2-1.4l0.2-0.1l-0.1-0.2l4.6-6l-5.1,12.6
			l-2.7,0.4l2.4,0.4l-0.1,0.2l0.7-0.1l108.2,17.3l0.2,0.2l0.2-0.1l1,0.2l-0.5-0.5l21.9-16.1l0.6,0.1l0-0.6l0.2-0.2l-0.2-0.1l2.6-36
			l-48.1,24.1l-1.6-0.3l0-0.1l-0.2,0l-71.5-11.8l11.8-15.4l-29.6-7.2l44.6-11l0.2,0.2l0.2-0.3l0.6-0.1l-0.4-0.3l17.1-31.5l0.1,0.2
			l10.1-25.8c0.2,0,0.4-0.1,0.6-0.2l111.5,115.9l-38.3-142.1l54.9,12.2l0.2-0.8L549,274c0-0.1,0.1-0.2,0.1-0.3
			c0.1-0.8-0.4-1.5-1.2-1.7h0l0.4-0.1l-13.8-94.9c0.9-0.2,1.6-0.8,2-1.6l79.9,24.5l0.2,0.3l0.2-0.2l0.9,0.3l-0.2-0.3
			c0.9-0.1,1.6-0.8,1.7-1.6c0-0.3,0-0.6,0-0.8l42.6-43.7L662.3,153.4z M29.1,90.9c0.5-0.2,0.8-0.6,0.9-1.1L93,57.7l-11.8,63.9
			L29.1,90.9z M615.3,198.3c0,0.1,0,0.3,0.1,0.4l-78.7-24.1c0.2-1-0.2-2-1-2.7l26.9-52.1c0.2,0.1,0.4,0.2,0.7,0.2c0.3,0,0.5,0,0.8,0
			L615.3,198.3z M546.2,273l-61.9-49.4c0.5-0.4,0.8-1,0.9-1.7c0.1-0.5,0-0.9-0.1-1.3l46.6-44.1c0.4,0.4,0.9,0.7,1.6,0.7
			c0.1,0,0.2,0,0.3,0l13.8,94.9C546.9,272.2,546.4,272.5,546.2,273z M476.2,298.2c-0.1-0.3-0.3-0.5-0.6-0.8l4.9-24.3
			c1,0,1.9-0.7,2-1.8c0-0.1,0-0.1,0-0.2l62.6,3.4L476.2,298.2z M299.7,499.8l-72.3-12l48.9-26.8l24,38.8l-0.7-0.2L299.7,499.8z
			 M175,412.6l-33.5-9.1c-0.1-0.3-0.3-0.6-0.5-0.9l12-37.7l22.2,47.6C175.1,412.5,175,412.5,175,412.6z M-30.1,389l-8.6-93.8
			c0.3-0.2,0.6-0.4,0.9-0.6l50.6,49.8c-0.2,0.3-0.3,0.7-0.4,1.1c-0.2,1,0.2,1.9,0.8,2.6l-42.7,41.1C-29.7,389.1-29.9,389-30.1,389z
			 M-31.7,389.3l-53.4-36.7c0,0,0-0.1,0-0.1l43.7-57.1c0.2,0,0.3,0.1,0.5,0.1c0.4,0.1,0.9,0,1.3,0L-31,389
			C-31.3,389-31.5,389.2-31.7,389.3z M-83.2,308.9C-83.2,308.8-83.2,308.8-83.2,308.9l-36-31.1l75.2,14c0,0.6,0.1,1.2,0.4,1.8
			l-38.7,15.8C-82.6,309-82.9,308.9-83.2,308.9z M-84.8,309.8l-30.6,5c-0.2-0.5-0.6-1-1.2-1c-0.1,0-0.2,0-0.2,0l-3.3-34.8
			c0.2-0.1,0.3-0.2,0.5-0.4l35.4,30.6C-84.5,309.3-84.6,309.5-84.8,309.8z M-54.5,198.4c0.3,0,0.6-0.2,0.8-0.4l45.6,36.4
			c-0.1,0.3-0.2,0.5-0.3,0.8c0,0.1,0,0.2,0,0.4l-48.4,8c-0.3-0.5-0.7-0.8-1.3-0.9L-54.5,198.4z M-6.2,238.1c0.6,0.1,1.2-0.1,1.7-0.4
			L47.9,296c-0.6,0.7-1,1.6-1.2,2.6c0,0.2-0.1,0.5-0.1,0.7l-83.4-7.1c0.1-0.8-0.1-1.7-0.5-2.3L-6.7,238
			C-6.6,238-6.4,238.1-6.2,238.1z M187.8,65.1c0.7-0.3,1.2-0.9,1.3-1.6c0-0.1,0-0.2,0-0.3l24.5-11.7l-28.8,50.4
			c-0.4-0.2-0.9-0.4-1.4-0.5L187.8,65.1z M383.3,67.3l-12.1,12.2c-0.2-0.2-0.5-0.3-0.9-0.4c-0.1,0-0.2,0-0.4,0l-8.9-19
			c0.9-0.6,1.6-1.4,2.1-2.4L383.3,67.3L383.3,67.3z M409.2,88.5c0.5,0.1,0.9,0,1.3-0.2l3.3,10.6l-14.3-4.8l-0.2-0.1l8.5-6.2
			C408.3,88.2,408.7,88.4,409.2,88.5z M411.4,87.7l16.9,16l-13.4-4.5L411.4,87.7C411.4,87.8,411.4,87.8,411.4,87.7z M530.8,174.4
			c0,0.5,0.2,0.9,0.4,1.3l-46.5,44c-0.5-0.7-1.2-1.2-2.1-1.3c-0.1,0-0.2,0-0.3,0l-5.2-28.6l0.6,0.4l-10.2-29.1
			c0.7-0.4,1.4-1,1.8-1.7L530.8,174.4z M480.4,269c-1,0-1.8,0.8-1.9,1.8c0,0,0,0,0,0l-17-2.6l20.8-23.3l-0.6,11.7L480.4,269z
			 M362.9,348.3c-1.6-0.2-3,0.6-3.7,1.9L322.3,338c0-0.1,0.1-0.2,0.1-0.3c0.3-1.7-0.9-3.3-2.6-3.5s-3.3,0.9-3.5,2.6
			c-0.3,1.7,0.9,3.3,2.6,3.5c1.2,0.2,2.4-0.4,3-1.3l15.5,87.4c-0.7,0.2-1.4,0.5-2,0.9l-56.8-52.8c1.9-0.9,3.7-2.1,4-3.6
			c0.6-4-5-8.2-9-8.9c-1.9-0.3-3.1,0.3-3.9,1.3l-11.2-19.5l17.3-14.3L248,320c0.1-0.2,0.1-0.4,0.1-0.6c0.4-2.4-1.3-4.7-3.7-5.1
			c-0.9-0.1-1.8,0-2.6,0.4l-13.4-11.8l-6.4-23.6c0.8-0.4,1.4-1.1,1.5-2c0.2-1.5-0.8-2.8-2.2-3.1c-0.6-0.1-1.1,0-1.6,0.2l-13.9-19.9
			l0,0l-0.2-0.2l0.4-0.2l-13.2-23.1c0.5-0.5,0.9-1.2,1-2c0.2-1.2-0.3-2.4-1.1-3.2l10.2-36l-10.2,0.4l33-2.9L175,148.4c0,0,0,0,0-0.1
			c0-0.2,0-0.4,0-0.6l30.8-9.5c0.3,0.6,0.9,1.1,1.6,1.3c1.1,0.2,2.1-0.5,2.3-1.6l74.1,13c0,0.1-0.1,0.3-0.1,0.4
			c-0.5,2.9,1.5,5.6,4.4,6.1c1.5,0.2,2.9-0.2,4-1l27.2,48.3c-0.6,0.4-1,1-1.1,1.8c0,0,0,0.1,0,0.1l-43.9,3.7l0.1,0.9l44.1-3
			c0.2,0.3,0.4,0.6,0.6,0.8l-23.8,42.6c-0.9-0.5-1.9-0.8-3-0.9c-3.6-0.1-6.7,2.7-6.8,6.4c-0.1,3.6,2.7,6.7,6.4,6.8
			c2,0.1,3.8-0.7,5-2.1l9.8,10.8l-20,12.8l35,3.7l30.5,33.5l32.5-23.4c0.1,0.1,0.2,0.2,0.3,0.3l-21.9,48.8
			C363.2,348.3,363,348.3,362.9,348.3z M226.9,429.8l-49.3-16.4c0-0.2,0-0.3-0.1-0.5l33.8-20.7c0.2,0.3,0.5,0.5,0.9,0.5
			c0.3,0,0.6,0,0.9-0.1l14.2,36.9C227.1,429.6,227,429.7,226.9,429.8z M154.1,362.6c-0.2-0.4-0.6-0.7-1-0.7c-0.3,0-0.6,0-0.8,0.1
			l-15.9-24.4c0.1-0.1,0.2-0.2,0.2-0.4l58,4.9c0,0.3,0,0.6,0.1,0.9L154.1,362.6z M139.8,402.3l-22.9-33.5c0.2-0.2,0.3-0.5,0.4-0.8
			c0,0,0,0,0-0.1l34.4-3.7c0.1,0.1,0.2,0.2,0.4,0.3l-12,37.7C140,402.3,139.9,402.3,139.8,402.3z M79.2,371.7c0-0.2,0-0.4-0.1-0.6
			l54.9-33.6c0.2,0.3,0.5,0.5,0.9,0.5c0.2,0,0.4,0,0.6,0l16,24.5c-0.1,0.1-0.1,0.2-0.1,0.3l-34.3,4.2c-0.2-0.4-0.6-0.6-1-0.7
			c-0.7-0.1-1.4,0.3-1.6,1L79.2,371.7z M77.4,368.9l14.8-49.9c0.2-0.1,0.5-0.3,0.6-0.5l40.9,17.9c0,0,0,0.1,0,0.1c0,0.1,0,0.2,0,0.3
			l-54.9,33.5C78.6,369.6,78.1,369.1,77.4,368.9z M118.2,184.2c0.3,0.2,0.5,0.3,0.9,0.4c0,0,0,0,0,0l6,28.7c-2,0.6-3.6,2.1-4.4,4.1
			l-34.8-8.1c0-0.1,0.1-0.2,0.1-0.3c0-0.1,0-0.1,0-0.2L118.2,184.2z M174.7,149.2l48.8,37.6l-48.5,4.2c-0.3-0.3-0.7-0.6-1.2-0.7
			c0,0,0,0-0.1,0l0.2-40.6C174.2,149.6,174.5,149.4,174.7,149.2z M333.7,429.5l-63.7-9.9l2.7-42.9c0.3,0.1,0.7,0.2,1,0.3
			c-1.3-0.3,1.3-1,4-2.1l57.1,53C334.3,428.3,334,428.9,333.7,429.5z M136.6,336.3c0-0.2-0.1-0.3-0.2-0.5l27.5-34.1
			c0.4,0.2,0.9,0.4,1.4,0.5c0.3,0.1,0.7,0,1,0l29.3,37.5c-0.4,0.4-0.8,0.9-1,1.4L136.6,336.3z M93.1,317.5c0-0.2-0.1-0.5-0.2-0.7
			l0.4-1.2l15.7-33.5c0,0,0.1,0,0.1,0c0.4,0.1,0.8-0.1,1.1-0.3l51.9,17.3c0.2,0.8,0.6,1.4,1.2,2l-27.5,34c-0.1,0-0.2-0.1-0.3-0.1
			c-0.4-0.1-0.8,0.1-1.2,0.3L93.1,317.5z M88.7,253.3l32.3-28.6l0.7-0.6c0.6,0.7,1.2,1.3,2,1.7l-15.1,53.5c-0.1,0-0.2,0.1-0.3,0.2
			l-19.6-25.3c0-0.1,0-0.1,0-0.2C88.9,253.9,88.9,253.6,88.7,253.3z M121.1,183.6l50.4,8.1c0,0.1,0,0.1-0.1,0.2c0,0.1,0,0.1,0,0.2
			l-39.1,23.3c-1-1.2-2.5-2.1-4.2-2.4c-0.8-0.1-1.5-0.1-2.3,0l-5.9-28.6C120.5,184.4,120.9,184.1,121.1,183.6z M173.1,194.2
			c0.3,0,0.6,0,0.9-0.1l14.9,30.9c-1.1,0.4-2,1.4-2.3,2.6l-52.6-7.7c0-1.4-0.4-2.7-1.1-3.8l38.7-23.1
			C171.9,193.6,172.4,194.1,173.1,194.2z M219.6,279.2L198.3,339c0,0,0,0,0,0c-0.7-0.1-1.3,0-1.9,0.3L167.4,302
			c1.3-0.5,2.2-1.7,2.5-3.1c0-0.3,0.1-0.6,0-0.9l48.7-19.8C218.9,278.6,219.2,278.9,219.6,279.2z M110.6,281.2c0-0.1,0-0.1,0-0.2
			c0-0.1,0-0.2,0-0.3l44.3-23.8c0.1,0,0.2,0.1,0.3,0.1c0.5,0.1,0.9,0,1.3-0.3l7.1,38.2c-0.9,0.6-1.7,1.6-1.8,2.8c0,0.2,0,0.5,0,0.7
			L110.6,281.2z M187.5,231.1l-30.1,23.3c-0.2-0.7-0.8-1.2-1.6-1.3c-0.2,0-0.3,0-0.5,0L132,224.8c1-1,1.8-2.3,2-3.9
			c0-0.1,0-0.1,0-0.2l52.5,7.8C186.5,229.5,186.9,230.4,187.5,231.1z M126.1,226.7c1.9,0.3,3.8-0.2,5.2-1.3l23.2,27.9
			c-0.5,0.3-0.8,0.8-0.9,1.4c-0.1,0.6,0.1,1.2,0.5,1.6l-43.8,23.5c-0.1-0.2-0.3-0.3-0.5-0.4l15.2-53
			C125.4,226.6,125.7,226.7,126.1,226.7z M166.5,294.2c-0.6-0.1-1.3,0-1.8,0.2l-7.4-38.5c0.1-0.1,0.1-0.2,0.1-0.3l0,0l0,0
			c0,0,0-0.1,0-0.1l30.9-23.6c0.3,0.2,0.6,0.3,1,0.4l-22.6,62.1C166.7,294.3,166.6,294.2,166.5,294.2z M200.7,343.5l67.3,24.9
			c0,0.1,0,0.1,0,0.2c-0.1,0.8-0.1,1.6,0,2.3l-54.7,19.3c-0.2-0.2-0.4-0.3-0.7-0.3c0,0,0,0-0.1,0l-13.3-44.8
			C199.9,344.7,200.4,344.2,200.7,343.5z M213.8,391l54.4-19.2c0.5,1.9,1.8,3.5,3.6,4.5l-2.6,43l-55.3-28
			C213.8,391.2,213.8,391.1,213.8,391z M268.2,367.5L201,342.6c0.1-0.6,0-1.1-0.2-1.6l13.2-6.5l26.6-12.7c0.7,0.7,1.5,1.2,2.5,1.3
			c0.8,0.1,1.6,0,2.3-0.3l10.8,18.8l1.6,2.8l0,0l11.3,19.8C268.7,365.1,268.4,366.3,268.2,367.5z M256.9,341.2l-10.5-19
			c0.5-0.4,0.9-0.9,1.2-1.4l26.4,9.1l-16,13.2L256.9,341.2z M239.4,318c-0.2,1,0,1.9,0.5,2.7l-26.2,12.9l-13.4,6.4
			c-0.3-0.3-0.7-0.6-1.1-0.8l21.4-59.8c0,0,0.1,0,0.1,0c0.2,0,0.5,0,0.7,0l6.4,23.8l0,0.1l13.4,11.8
			C240.2,315.8,239.6,316.8,239.4,318z M218.3,276.4c-0.1,0.3,0,0.6,0,0.9l-48.6,19.7c-0.1-0.5-0.4-0.9-0.7-1.3l36.3-40.4l13.7,19.6
			C218.7,275.3,218.4,275.8,218.3,276.4z M168.5,295.1c-0.2-0.2-0.5-0.4-0.8-0.5l22.6-62.4c0.7,0,1.3-0.2,1.9-0.6l13,22.7
			L168.5,295.1z M192,225.3c-0.4-0.2-0.8-0.4-1.3-0.4c-0.3,0-0.5-0.1-0.8,0l-15.2-31.1c0.3-0.3,0.5-0.7,0.6-1.1c0-0.2,0-0.4,0-0.6
			l26.4-1.1L192,225.3z M172.9,149.8c0,0,0.1,0,0.1,0l-0.2,40.5c-0.3,0.1-0.6,0.3-0.8,0.5l-50.5-8.1c0-0.3,0-0.6,0-0.8l50.5-32.7
			C172.2,149.6,172.5,149.8,172.9,149.8z M85.2,210.1l35.2,8.2c0,0.2-0.1,0.4-0.1,0.6c-0.3,1.7,0.1,3.3,0.9,4.6l-0.7,0.6l-32.9,28.1
			l-2.7-42.1C85,210.1,85.1,210.1,85.2,210.1z M86.8,255.3c0.1,0.1,0.3,0.1,0.4,0.1c0.4,0.1,0.8-0.1,1.1-0.3l19.5,25.2
			c0,0.1,0,0.1-0.1,0.2c0,0.1,0,0.3,0,0.4l-50.3,17c-0.2-0.8-0.7-1.6-1.3-2.3L86.8,255.3z M57.6,300.3c0.1-0.5,0.1-1,0-1.4
			l50.5-17.1l-15.8,33.6l-0.3,0.9c-0.1,0-0.2-0.1-0.3-0.1c-0.4-0.1-0.8,0.1-1.2,0.3l-33.6-14.6C57.4,301.4,57.5,300.9,57.6,300.3z
			 M197.3,345.4c0.4,0.1,0.8,0,1.2,0l13.2,44.7c-0.4,0.2-0.7,0.6-0.7,1c0,0.1,0,0.2,0,0.3l-34,20.8c0,0-0.1,0-0.1-0.1L197.3,345.4
			C197.3,345.4,197.3,345.4,197.3,345.4z M228.2,429.3c-0.1,0-0.1,0-0.2,0L214,392.5l54.4,27.3l-39.1,10.1
			C229,429.6,228.7,429.4,228.2,429.3z M229.5,430.8l39.7-10.3l6.7,39.2L229.5,430.8C229.5,430.8,229.5,430.8,229.5,430.8z
			 M270.1,420.5l63.4,10c0,0,0,0,0,0c-0.1,0.7-0.1,1.5,0.1,2.2l-56.8,27.3L270.1,420.5z M248.1,50.8l2.4,11.4l40.8-12.7l-79.5,45.2
			l3.4-44L248.1,50.8z M239.8,49.9l8-0.2l0.1,0.3L239.8,49.9z M269.6,49.1l22.3-0.6l-40.7,12.7L249,50.8l22.2,0.1L269.6,49.1z
			 M248.8,49.9l-0.1-0.3l19.7-0.6l0.8,0.9L248.8,49.9z M292.5,49.9c0.1,0.2,0.2,0.3,0.4,0.5l-30.8,56.3l0.8,0.4l30.7-56.2
			c0.3,0.1,0.5,0.2,0.8,0.3l-1.2,25.4l-3.5,70.3c-2.4-0.3-4.7,1-5.6,3.2L209.8,137c-0.1-0.7-0.6-1.3-1.3-1.5l3.2-39.6L292.5,49.9z
			 M429.5,105.6l-3.1,14c0,0-0.1,0-0.1,0c-0.7-0.1-1.4,0.3-1.6,1l-39.1-4.4l43-10.6L429.5,105.6z M449.5,130.6l-14.8-2.3L429,123
			l1.5-16.9L449.5,130.6z M450.4,285.4C450.4,285.4,450.4,285.4,450.4,285.4l-10.6-34.9c0.1,0,0.2-0.1,0.3-0.2l19.6,18L450.4,285.4z
			 M389.2,291.1l-1.9-67.6c0.2,0,0.4-0.1,0.6-0.2l23.2,23c-0.1,0.2-0.1,0.4-0.2,0.6c-0.1,0.8,0.2,1.5,0.7,1.9l-21.2,42.7
			C390.1,291.3,389.7,291.2,389.2,291.1z M464.1,161.8c0.7,0.1,1.4,0.1,2.1-0.1l9.4,26l-35.5-24.1c0.2-0.4,0.4-0.8,0.4-1.3
			c0-0.1,0-0.2,0-0.4l19.6-3.2C460.8,160.3,462.3,161.5,464.1,161.8z M482.2,242.3l-25.8-15.4c0.3-0.5,0.5-1,0.6-1.5
			c0,0,0-0.1,0-0.1l13.9-1.5l8.6-0.8c0.4,0.7,1.2,1.3,2.1,1.4l1,17.6C482.5,242.1,482.4,242.2,482.2,242.3z M389,221.4
			c0-0.5-0.3-1-0.7-1.3l1.2-2l25.4-42.2l0.9-0.4l13.1,18.6l-6.7,29.5c-0.1,0.1-0.2,0.3-0.2,0.4L389,221.4z M345.4,204.2l46.2-18.9
			l20.8-8.4l-23.7,40.8l-1.2,2c-0.1,0-0.1,0-0.2,0c-0.8-0.1-1.6,0.3-2,0.9L345.4,204.2z M322.5,204.5l6-15l15,14.6l-0.3,0.1l0.7,0.3
			l0.2,0.2l0.2-0.1l37.9,15.6l-58.5-12.8c0,0,0-0.1,0-0.1C323.9,206.1,323.3,205.1,322.5,204.5z M296.4,50.9l51.5,84.8
			c-0.2,0.2-0.4,0.5-0.4,0.8c0,0,0,0,0,0l-53.7,13.2c-0.6-1.2-1.5-2.1-2.8-2.6l4.3-96C295.7,51.2,296,51.1,296.4,50.9z M369.7,83
			c0.1,0,0.3,0,0.4,0l10.8,31.7l0.1,0.3c-0.3,0.2-0.5,0.6-0.6,1c0,0.3,0,0.5,0.1,0.8l-30.8,18.9c0,0-0.1-0.1-0.1-0.1l1.3-3.5
			l18.3-49.2C369.4,83,369.5,83,369.7,83z M383,117.1l0.4,0l39.3,9.6l-3.8,6.7l-19,32.3l-9.4-5.5l-7.8-42.8
			C382.7,117.4,382.8,117.3,383,117.1z M401.1,119l23.8,2.7c0.1,0.2,0.2,0.3,0.4,0.5l-2.2,3.8l-33.3-8.1L401.1,119z M414.7,246
			l6.9-17l3.6-0.4l13.1,19.5c-0.2,0.2-0.3,0.3-0.4,0.6l-22.9-0.9c0-0.1,0-0.1,0.1-0.2C415.2,247,415,246.4,414.7,246z M380.9,188.7
			l-36.3,14.7l0.1,0.2l-0.4,0.1l-15.5-15l20-50.4c0.3,0,0.6,0,0.8-0.2l39.3,37.6c-0.4,0.5-0.7,1.1-0.8,1.8c-0.2,1.3,0.3,2.5,1.2,3.3
			c0.6,1.1,1.7,2,3.1,2.2c2.3,0.4,4.5-1.2,4.9-3.6c0.1-0.7,0-1.4-0.2-2l12.8-4.7l3.8,2.2l-0.4,0.6L380.9,188.7z M381.1,117.4
			c0.2,0.1,0.4,0.2,0.6,0.2c0,0,0,0,0,0l7.5,42L350.3,137c0,0,0,0,0,0c0-0.2,0-0.4,0-0.6L381.1,117.4z M439.1,247.7l-12.7-19.2
			l22.1-2.3c0.3,0.9,1,1.8,1.9,2.3l-9.4,16.5l-1.6,2.8C439.3,247.7,439.2,247.7,439.1,247.7z M423.1,225.9c0.1,0,0.1,0,0.2,0
			l1.3,1.9l-2.1,0.2l0.5-2.2C423,225.9,423.1,225.9,423.1,225.9z M429.7,195.3l4.4,6.3l-0.6-0.3l-9.6,20.1L429.7,195.3z
			 M441.5,182.7l9.5,38c-0.6,0.3-1.1,0.6-1.5,1.1L430,194.1l6.2-28.3c0.3,0,0.6,0,0.9-0.1l3.2,12.3L441.5,182.7z M424.2,225.6
			c0.3-0.2,0.5-0.6,0.6-1c0.1-0.6-0.2-1.2-0.7-1.5l10.2-21.4l14.6,20.7c-0.3,0.4-0.4,0.9-0.5,1.5c-0.1,0.4,0,0.9,0,1.3l-23,2.1l0,0
			L424.2,225.6z M396.7,176.5c-0.3-0.4-0.6-0.8-1-1.1l4.7-8.2l8.3,4.8L396.7,176.5z M394.5,174.7c-0.2-0.1-0.5-0.2-0.8-0.2
			c-0.3,0-0.5,0-0.8,0l-2.4-13l8.8,5.1L394.5,174.7z M389.5,175L352,139l37.4,21.7l2.4,13.6C391,174.3,390.2,174.5,389.5,175z
			 M414.9,174.5l0.1-0.2l0.2,0.3l0,0L414.9,174.5z M414.9,172.7l-0.8,1.3l-3.1-1.8l22-8.2c0.5,0.8,1.4,1.4,2.3,1.6l-6.2,27.3
			L414.9,172.7z M440.6,248.6c-0.1-0.2-0.2-0.3-0.3-0.5l11.1-19.2c0.2,0.1,0.4,0.1,0.7,0.2c1.5,0.2,3-0.3,3.9-1.4l25.4,15.4
			L440.6,248.6z M454.9,220.9c-0.5-0.3-1-0.5-1.5-0.5c-0.4-0.1-0.9,0-1.3,0l-10.6-41.2l-3.4-13.7c0.6-0.2,1.1-0.6,1.5-1.1l3.6,2.5
			l32.3,22.4l-9.8,15.2L454.9,220.9z M431.1,141L431.1,141L431.1,141l4.1,16.7c-1.5,0.5-2.6,1.7-2.9,3.3c-0.1,0.7,0,1.3,0.2,1.9
			l-22.7,8.6l-8.9-5.2l16.6-28.8l3.7-6.4l2.4-4.1l3.8,0.9l1.7,4.9L431.1,141z M424.1,126.2l2.2-3.7c0.1,0,0.1,0,0.2,0l1.1,4.6
			L424.1,126.2z M294.2,150.9l53.5-13.3c0.1,0.1,0.2,0.3,0.3,0.4l-19.9,50l-34.4-33.4c0.3-0.5,0.4-1,0.5-1.6
			C294.4,152.2,294.3,151.5,294.2,150.9z M440.7,249.6l40.8-5.6l-20.9,23.8L440.7,249.6C440.7,249.6,440.7,249.6,440.7,249.6z
			 M480.9,218.6c-0.9,0.4-1.6,1.3-1.8,2.3c-0.1,0.4,0,0.8,0,1.1l-8.3,0.9l-13.8,1.3c-0.1-1-0.5-1.9-1.2-2.6l14.7-23l5.6-8.5l1.3,7.1
			L480.9,218.6z M459.8,157.7l-19.3,3.1c-0.4-1.6-1.7-3-3.4-3.2c-0.2,0-0.5,0-0.7,0l-0.2-0.8l-3-14.6l26.7,12.9
			c-0.1,0.2-0.1,0.5-0.2,0.7C459.6,156.4,459.6,157.1,459.8,157.7z M368.1,80.6L368.1,80.6c0,0.1,0,0.1,0,0.2
			c-0.1,0.5,0.1,1,0.3,1.4l-18.3,49.6l-1.3,3.4l-51.8-84.8c0.2-0.2,0.3-0.3,0.4-0.5L368.1,80.6z M293.3,155.3l34.5,33.5l-6.1,15.4
			c-0.1,0-0.2,0-0.2-0.1c-0.4-0.1-0.9,0-1.3,0.1l-27.3-48.5C293,155.6,293.1,155.5,293.3,155.3z M320.7,209.5
			c1.1,0.1,2.2-0.4,2.7-1.3l61.8,13.5c0,0.1,0,0.1,0,0.1l-86.7,33.3c-0.4-1.3-1.2-2.3-2.2-3.1L320.7,209.5z M298.7,256l84.4-32.4
			l-66.8,42.9l-17.9-7.1c0.2-0.6,0.3-1.3,0.4-2C298.8,257,298.8,256.5,298.7,256z M298.1,260.2l17.3,6.9l-7.8,5l-10-11
			C297.8,260.8,298,260.5,298.1,260.2z M321,288.1l-31.6-3.3l18-11.6L321,288.1z M308.2,272.7l8.2-5.3l67.6,26.8
			c-0.1,0.2-0.1,0.3-0.2,0.5l-61.5-6.5L308.2,272.7z M384.3,293.5l-67-26.6l68.4-43.9c0.2,0.2,0.5,0.4,0.8,0.5l1.9,67.6
			C386.7,291.1,385.2,292,384.3,293.5z M388.6,222.8c0.1-0.2,0.2-0.3,0.3-0.5l33.1,2.6c0,0.1,0.1,0.2,0.2,0.4l-8.8,19.9
			c0,0,0,0-0.1,0c-0.6-0.1-1.2,0.1-1.7,0.5L388.6,222.8z M449.5,285.7L415,248.8l23,0.9c0.2,0.4,0.5,0.7,1,0.9L449.5,285.7
			C449.5,285.7,449.5,285.7,449.5,285.7z M460.2,154.2L433.3,141l8.6-4.7l18.6,17.4C460.4,153.8,460.3,154,460.2,154.2z M432.9,140
			l-3.4-11.6l4.7,0.7l6.8,6.4L432.9,140z M435.8,129.3l12.9,2l-6.8,3.7L435.8,129.3z M433.1,128l-3.8-0.6l-0.5-1.7l0.1-1.6
			L433.1,128z M428.1,123.4l0-0.1L428.1,123.4L428.1,123.4z M415.9,105.3l9.3,0.2l-42,10.3c0-0.1-0.1-0.2-0.1-0.3l16.2-20.6l14.9,5
			L415.9,105.3z M415.3,100.2l13.3,4.5l-12-0.2L415.3,100.2z M382.2,114.8c0,0-0.1,0-0.1,0c-0.1,0-0.2,0-0.3,0l-10.5-32.2
			c0.2-0.1,0.3-0.3,0.4-0.5l26.2,12.2L382.2,114.8z M356.5,61.2c1.3,0.2,2.5,0,3.6-0.5l8.6,18.9c0,0-0.1,0.1-0.1,0.1l-57.2-25.1
			l-13.2-5.8l53,5.8C351,57.8,353.3,60.7,356.5,61.2z M352.5,321.5l-29.3-32.2l60.5,6.4c-0.1,0.9,0.1,1.9,0.6,2.9L352.5,321.5z
			 M392.5,293c-0.4-0.4-0.8-0.7-1.2-1l21.2-42.7c0.1,0,0.1,0,0.2,0.1c0.4,0.1,0.8,0,1.1-0.2l35.1,37.3c0,0,0,0.1,0,0.1
			c0,0.1,0,0.2,0,0.3l-55.7,7.8C393.1,294.2,392.9,293.6,392.5,293z M451.6,285.5l9.2-16.5l17.6,2.7L451.6,285.5L451.6,285.5z
			 M461.8,152.3c-0.3,0.2-0.5,0.4-0.7,0.6l-18.3-17.2l7.2-4l5.8,9.6L461.8,152.3z M428.2,122.2l-0.6-0.6l0-0.1l0-0.2c0,0,0,0,0,0
			c0.1-0.4-0.1-0.8-0.3-1.2l1.9-8.8L428.2,122.2z M407.4,87.2l-8.8,6.4L373.7,82l33.5,3.1c0,0.1-0.1,0.3-0.1,0.4
			C407,86.1,407.1,86.7,407.4,87.2z M351.3,53.7L322,50.5l29.5,2.2C351.4,53.1,351.3,53.4,351.3,53.7z M292.1,47.1l-23.5,0.8
			l-25.5-30l49.1,28.9C292.2,46.9,292.1,47,292.1,47.1z M214.3,52.2l-6.7,83.1c-0.2,0-0.4,0.1-0.6,0.1l-21.4-25
			c1-0.8,1.7-1.9,1.9-3.2c0.3-1.9-0.5-3.7-2-4.8L214.3,52.2z M206.3,135.9c-0.3,0.3-0.5,0.7-0.6,1.2c0,0.1,0,0.2,0,0.3l-31,9.6
			c-0.1-0.1-0.2-0.2-0.3-0.3l7.5-35.1c1.1,0.1,2.1-0.1,3-0.5L206.3,135.9z M181,111.2l-7.6,35c-0.1,0-0.2,0-0.3,0l-19-34.5l23.8-3.4
			C178.4,109.6,179.5,110.7,181,111.2z M172.1,146.5c-0.3,0.2-0.5,0.5-0.6,0.8l-40.9,0c0-0.1,0-0.2-0.1-0.3l22.8-34.9L172.1,146.5z
			 M130.4,148.2l41,0.1c0,0.1,0,0.2,0,0.2L121,181.2c-0.2-0.2-0.4-0.4-0.7-0.6l9.4-31.9C130,148.6,130.2,148.4,130.4,148.2z
			 M128.4,148.6c0.1,0.1,0.2,0.1,0.4,0.2l-9.3,31.6c-0.5,0-1,0.2-1.4,0.5l-16.8-19.2c0.5-0.3,0.8-0.8,0.9-1.4c0.1-0.5,0-0.9-0.2-1.3
			L128.4,148.6z M99.1,161.8c0.2,0.1,0.5,0.2,0.7,0.3c0.2,0,0.4,0,0.6,0l17.2,19.6c-0.1,0.2-0.1,0.4-0.2,0.6c-0.1,0.5,0,1,0.3,1.4
			l-32,24.4c-0.1-0.1-0.2-0.2-0.3-0.3l3.7-12.5L99.1,161.8z M84.1,211.2l2.7,41.5c-0.4,0.2-0.7,0.6-0.7,1.1c-0.1,0.3,0,0.6,0.2,0.9
			l-30.6,40.5c-0.3-0.2-0.5-0.4-0.8-0.5L84.1,211.2z M-56.5,244.8c0-0.2,0-0.3,0-0.5l48.2-7.9c0.1,0.4,0.4,0.8,0.7,1.1L-37.9,289
			c-0.5-0.4-1.1-0.8-1.8-0.9c-0.2,0-0.3,0-0.5,0l-17.1-42C-56.9,245.9-56.6,245.4-56.5,244.8z M15.9,342.9c-0.8-0.1-1.7,0.1-2.3,0.6
			l-50.8-49.6c0.2-0.3,0.3-0.5,0.4-0.8l83.6,7.1c0.2,1.5,1,2.8,2.2,3.7l-31.4,39.8C17.1,343.3,16.5,343,15.9,342.9z M18.1,344.4
			l31.6-40.1c0.5,0.3,1.1,0.5,1.7,0.6c0.7,0.1,1.4,0.1,2-0.1l21,64.3c-0.6,0.4-1,1-1.2,1.7l-54.9-23.9c0.1-0.2,0.1-0.3,0.1-0.5
			C18.6,345.7,18.4,345,18.1,344.4z M54.2,304.6c1-0.4,1.9-1.1,2.5-2l33.5,14.6c0,0,0,0.1,0,0.1c-0.1,0.8,0.4,1.5,1.1,1.6
			l-14.7,49.6c-0.5-0.1-1,0-1.4,0.1L54.2,304.6z M79.1,372.6l35.4-4.4c0.2,0.5,0.6,0.9,1.1,1c0.2,0,0.3,0,0.5,0l22.9,33.5
			c-0.1,0.1-0.2,0.2-0.3,0.3l-60.1-29.6C78.9,373.2,79,372.9,79.1,372.6z M175.9,412l-22.2-47.6c0.3-0.2,0.5-0.5,0.6-0.9
			c0,0,0,0,0,0l40.7-19.7c0.3,0.6,0.8,1,1.5,1.3L175.9,412C175.9,412,175.9,412,175.9,412z M177.4,414.2l49.2,16.4
			c0,0.1,0,0.3,0,0.4l-38.7,22.3l-11.1-38.7C177.1,414.6,177.2,414.4,177.4,414.2z M228.5,432.1c0.2-0.1,0.4-0.2,0.5-0.3l46.6,28.7
			l-49.1,26.8L228.5,432.1z M277.1,460.7l56.8-27.3c0.4,0.8,1,1.5,1.7,2l-34.5,64.2L277.1,460.7z M336.4,435.8
			c0.4,0.2,0.8,0.3,1.3,0.4c0.6,0.1,1.2,0.1,1.8-0.1l9.4,39.9l-46.7,23.4L336.4,435.8z M339.2,426.3c-0.3-0.1-0.7-0.1-1-0.1
			l-15.4-87.1l36.1,11.9c0,0.1,0,0.1-0.1,0.2c-0.2,1.6,0.6,3.1,2,3.7l-21.3,71.4C339.4,426.3,339.3,426.3,339.2,426.3z M365.4,353.6
			l34.3,16.4l-0.1,0.4l0.3-0.1l5.8,36.5l-40.8-52.6C365,354,365.2,353.8,365.4,353.6z M365.7,352.8c0.1-0.2,0.1-0.3,0.1-0.5
			c0.1-0.6,0-1.1-0.1-1.6l47.9-20.2l-13.7,38.7L365.7,352.8z M365.3,349.9c-0.3-0.5-0.7-0.9-1.2-1.2l21.8-48.7
			c1.9,1.1,4,0.8,5.5-0.3l22.6,28.9c-0.2,0.2-0.3,0.4-0.3,0.6L365.3,349.9z M392.1,299.1c0.8-0.9,1.3-2.1,1.2-3.5l55.8-7.6
			l-33.4,40.2c-0.1,0-0.2-0.1-0.4-0.1c-0.2,0-0.4,0-0.6,0L392.1,299.1z M451.8,286.4l27.3-13.8c0.2,0.2,0.4,0.3,0.6,0.4l-4.9,24.1
			c-0.1,0-0.1,0-0.2,0c-0.8-0.1-1.5,0.2-2,0.8l-20.9-10.6c0-0.1,0-0.1,0-0.2C451.9,286.8,451.8,286.6,451.8,286.4z M482.4,270.3
			c-0.1-0.4-0.4-0.7-0.7-0.9l0.7-12.8l1.1-11.9c0.6-0.1,1-0.6,1.1-1.2c0.1-0.8-0.4-1.5-1.1-1.6l-1.1-17.5c0.4,0,0.7-0.1,1-0.3
			l62.2,49.6L482.4,270.3z M534.2,171.2c-1.4-0.2-2.7,0.6-3.2,1.8l-61-15c0.1-0.2,0.1-0.5,0.2-0.7c0.1-0.5,0.1-1.1,0-1.6l91.8-36.5
			L535,171.5C534.8,171.4,534.5,171.3,534.2,171.2z M604.3,26.4l-40.5,89.8c-1.1-0.1-2,0.6-2.2,1.6c0,0.2,0,0.4,0,0.6L470,154.9
			c-0.4-1.3-1.4-2.4-2.6-3.1l28.7-88c0.1,0,0.3,0.1,0.4,0.1c2.3,0.4,4.4-1.2,4.8-3.5c0.1-0.5,0.1-1,0-1.5L604.3,26.4z M493.3,61.7
			c0.4,0.8,1,1.4,1.8,1.8l-28.7,88c-0.2-0.1-0.5-0.1-0.7-0.2c-1-0.2-2,0-2.9,0.4l-6.4-10.8l-5.1-9.2l0.6,0.1l-0.6-0.7l0.3-0.2
			l-0.6-0.1l-20-25.6l0-0.2l0.7-0.2l-1.1-0.4l0-0.3l-0.3,0.1l-0.5-0.6l0,0.2L412,86.9c0.1-0.2,0.1-0.4,0.2-0.6c0-0.3,0-0.6,0-0.9
			L493.3,61.7z M408,84c-0.1,0.1-0.2,0.1-0.2,0.2L375,81.3L372,81c0-0.3-0.1-0.6-0.2-0.8L384,67.8L408,84z M319.4,8.8l52.8,3.2
			c0.1,0.3,0.4,0.5,0.7,0.6l-13.9,36.1c-0.1,0-0.3-0.1-0.5-0.1c-1.6-0.2-3.1,0.1-4.4,0.9L319.4,8.8z M299.4,17.7l52.8,33.8
			c-0.1,0.1-0.1,0.2-0.2,0.4l-53.8-4c-0.1-1.3-1-2.4-2.2-2.7L299.4,17.7z M298,17.4l-1.8,15.7l-1.8,12c-0.7,0.1-1.3,0.5-1.7,1
			l-49.9-29.4L298,17.4z M267.5,48l-19,0.7L242,17.8L267.5,48z M241,17.3l6.7,31.3L222,49.5l-6.1,0.2L241,17.3z M240,17l-24.5,31.8
			l0-0.5l-0.6,1l-10.6-24.1L240,17z M203.8,26L214,49.8l-0.1,0l0,0.5l-25,11.9c-0.1-0.1-0.1-0.3-0.2-0.4L203.8,26z M186.1,65
			c0.2,0.1,0.4,0.2,0.7,0.2c0.1,0,0.1,0,0.2,0l-4.4,36.1c-1.7,0-3.3,0.9-4.3,2.3L155.4,86L186.1,65z M155.1,86.8l22.8,17.6
			c-0.2,0.4-0.3,0.8-0.4,1.2c-0.1,0.6-0.1,1.2,0.1,1.8l-23.8,3.4L155.1,86.8z M154.2,87.1l-1.3,23.8l-0.3,0l0,0l-25.9,4L154.2,87.1z
			 M152.4,111.9L130,146.2c-0.1-0.1-0.1-0.1-0.2-0.1l-3.8-30.2L152.4,111.9z M125.2,116.8l3.6,29.1c-0.6,0.1-1.1,0.6-1.2,1.2
			c0,0.3,0,0.5,0.1,0.8l-26.5,10.4c-0.2-0.2-0.5-0.3-0.8-0.3L125.2,116.8z M97.9,161.7l-9.7,33.2l-3.7,12.4c-0.7,0-1.3,0.5-1.4,1.2
			c0,0.1,0,0.1,0,0.2l-42.9,12.7L97.9,161.7z M83.3,209.6c0.1,0.1,0.2,0.3,0.3,0.3l-29.7,84.3c-0.3-0.1-0.6-0.2-0.9-0.2
			c-0.5-0.1-0.9-0.1-1.4,0l-12.3-71.4L83.3,209.6z M38.5,222.9l12.3,71.3c-0.9,0.2-1.6,0.6-2.3,1.2l-52.4-58.2
			c0.3-0.3,0.5-0.7,0.5-1.2c0-0.2,0-0.5,0-0.7L38.5,222.9z M-55.4,198.3l-3.5,44.3c-0.7,0.2-1.3,0.8-1.5,1.5l-49.9,8.5
			c0-0.2-0.1-0.4-0.2-0.6l54.7-54C-55.6,198.2-55.5,198.2-55.4,198.3z M-153.4,242.6l39.1,10.8c0.1,0.9,0.8,1.6,1.7,1.7
			c1.1,0.2,2.1-0.5,2.3-1.6l49.9-8.5c0.2,0.7,0.8,1.3,1.6,1.5c0.2,0,0.4,0,0.6,0l17,41.7c-1.3,0.3-2.4,1.3-2.7,2.6l-75.8-14.1
			c-0.2-0.2-0.4-0.3-0.6-0.4l0-0.2l-0.2,0.2c0,0,0,0-0.1,0c-0.1,0-0.2,0-0.2,0L-153.4,242.6z M-121,279.1c0,0,0.1,0,0.1,0l3.3,34.8
			c-0.1,0.1-0.1,0.1-0.2,0.2l-10.8-5.3l-15.9-8.4c0-0.4-0.2-0.8-0.4-1.1l23.1-20.7C-121.7,278.9-121.4,279.1-121,279.1z
			 M-234.6,389.3c-0.2-0.1-0.4-0.2-0.6-0.2c-0.5-0.1-1,0.1-1.3,0.5l-66.7-30.3c0-0.1,0.1-0.2,0.1-0.3c0-0.1,0-0.3,0-0.4l130.2-17.9
			L-234.6,389.3z M-170.1,339.7c0,0,0-0.1-0.1-0.1l0.3-0.2l-0.4,0.1c0-0.1-0.1-0.1-0.1-0.1l24.2-37.5c0,0,0,0,0,0
			c0.3,0.1,0.7,0,1-0.2l16.2,8l10.8,5.7c0,0,0,0,0,0L-170.1,339.7z M-82.4,311.3c0.2-0.2,0.4-0.5,0.4-0.8c0-0.1,0-0.2,0-0.3l0.2,0
			l-0.2-0.1l38.8-15.7c0.3,0.3,0.6,0.6,0.9,0.8l-43,56.2L-82.4,311.3z M-111.8,420.1l18.4-33.2c0,0,0,0,0.1,0c0.2,0,0.4,0,0.6,0
			l16,24.5c-0.1,0.2-0.2,0.3-0.2,0.5c0,0.2,0,0.3,0,0.5l-34.5,8.3C-111.5,420.4-111.6,420.2-111.8,420.1z M-74.6,413.3
			c0.3-0.2,0.5-0.5,0.6-0.9c0,0,0,0,0,0l41.7-20.2c0.2,0.3,0.5,0.5,0.8,0.7l-20.2,67.4c0,0,0,0,0,0c-0.1,0-0.2,0-0.4,0L-74.6,413.3z
			 M36.9,436.9c-0.2-0.1-0.3-0.2-0.5-0.2c0,0,0,0,0,0l-19.5-88c0.4-0.2,0.7-0.5,1-0.9l55.2,24.1c0,1,0.6,1.9,1.4,2.4L36.9,436.9z
			 M77.1,374.6c0.4-0.1,0.7-0.3,1-0.5l60.5,29.8c0,0.5,0.3,0.9,0.7,1.1l-28.4,74L77.1,374.6z M141.4,404.3l33.3,9.1
			c0,0.3,0.1,0.5,0.2,0.7l-21.5,29.6c-0.2-0.2-0.5-0.4-0.8-0.4c-0.1,0-0.1,0-0.2,0L141,404.8C141.1,404.7,141.3,404.5,141.4,404.3z
			 M153.6,445.3c0.1-0.1,0.1-0.3,0.1-0.4c0-0.1,0-0.2,0-0.3l21.8-29.9c0.1,0.1,0.3,0.1,0.4,0.1c0,0,0,0,0.1,0l11.1,38.6L153.6,445.3
			z M169.3,465.1l18.1-10.4l0,0.1l0,0l36.4,32L169.3,465.1z M188.3,454.3l38.8-22.5c0.2,0.1,0.4,0.3,0.6,0.3l-2,55L188.3,454.3z
			 M226.2,488.8l0.2,0.2l0-0.3l1.8,0.7l-0.7-0.7l70.3,11.6l-80.7,10.6L226.2,488.8z M219.5,511.6l80.9-10.6l-0.2,0.5l0.7-0.3
			l22.2,26.5L219.5,511.6z M324.2,527.7L302,501.2l43.5,10.9L324.2,527.7z M346.4,511.4l-42.9-10.7l0.6-0.1l-1.6-0.3l46.4-23.2
			L346.4,511.4z M349.6,475.1l-9.2-39.1c1.6-0.6,2.8-2.1,3.1-3.9c0-0.3,0.1-0.6,0.1-0.9l27.9-0.8L349.6,475.1z M343.4,430.1
			c-0.4-1.6-1.5-2.9-3-3.6l21.3-71.4c0,0,0.1,0,0.1,0c0.2,0,0.3,0,0.5,0l9.4,74.2L343.4,430.1z M372.5,429.2l-9.3-74
			c0.3-0.1,0.7-0.2,1-0.4l41.8,53.9l0,0.2L372.5,429.2z M494.4,404.8l0.2,0l-0.1,0l45.6-22.9l-2.5,34.3l-44-11L494.4,404.8z
			 M536.7,416.9l-21.3,15.6L493.2,406L536.7,416.9z M491.5,405.6l22.8,26.9L410,415.8l80.1-10.5L491.5,405.6z M486.7,404.8
			l-79.1,10.4l6.1-15.1l5.1-6.6L486.7,404.8z M417.9,393.4l-2.8,3.7l1.8-4.4l0.5,0.1l-0.1,0.5L417.9,393.4z M430.1,377.5l-11.3,14.7
			l-2.2-0.4l-0.3-0.1l-3.2,8l-6.1,8l-6.2-37.4L430.1,377.5z M400.8,369.2l13.7-38.3c0.1,0.1,0.2,0.1,0.4,0.1c0.3,0.1,0.6,0,0.9-0.2
			l30.1,27.2L400.8,369.2z M446.6,357.6L416.5,330c0-0.1,0-0.1,0-0.2l46.9-3.2L446.6,357.6z M416.4,329c0,0,0-0.1-0.1-0.1l33.6-40.6
			c0.1,0,0.1,0,0.2,0c0,0,0,0,0.1,0l13.8,37.4L416.4,329z M451.4,289.1L451.4,289.1l-0.3-0.9l21.1,10.5c0,0,0,0.1,0,0.1
			c-0.2,1,0.5,2,1.4,2.3l-9.2,23.5L451.4,289.1z M584.9,413.8L475.9,300.4c0.2-0.3,0.4-0.6,0.5-1c0-0.1,0-0.2,0-0.3l70.7-24.2
			c0.1,0,0.2,0.1,0.4,0.1c0,0,0,0,0.1,0L584.9,413.8z M618.7,196.8c-0.3-0.3-0.7-0.6-1.2-0.6c-0.8-0.1-1.6,0.3-2,1l-50.7-77.4
			c0.1-0.1,0.2-0.2,0.3-0.3l95.5,34.4L618.7,196.8z"/>
		<linearGradient id="SVGID_5_" gradientUnits="userSpaceOnUse" x1="149.7585" y1="17.4227" x2="31.1284" y2="262.8109">
			<stop  offset="0.208" style="stop-color:#06409A"/>
			<stop  offset="0.278" style="stop-color:#133F96;stop-opacity:0.8747"/>
			<stop  offset="0.4075" style="stop-color:#353D8C;stop-opacity:0.6431"/>
			<stop  offset="0.5821" style="stop-color:#6C397C;stop-opacity:0.3307"/>
			<stop  offset="0.7669" style="stop-color:#AE3569;stop-opacity:0"/>
		</linearGradient>
		<rect x="0.1" y="-0.3" clip-path="url(#SVGID_3_)" fill="url(#SVGID_5_)" width="163.1" height="317"/>
	</g>
</g>
<g>
	<defs>
		<rect id="SVGID_6_" width="500" height="316"/>
	</defs>
	<clipPath id="SVGID_7_">
		<use xlink:href="#SVGID_6_"  overflow="visible"/>
	</clipPath>
	<g id="Rectangle_1" clip-path="url(#SVGID_7_)">
		<g>
			<path fill="#FFFFFF" d="M95.3,56.1l-3.7,14.3L91,72.6l-2.3-0.6l-1.3-0.3l-0.9-0.2L86,70.7c-0.7-1-1.6-1.8-2.8-2.1
				c-0.4-0.1-0.7-0.1-1.1-0.1c-2.3,0-4.4,1.8-5,4.2c-0.4,1.4-0.2,2.9,0.4,4.1c0.6,1.2,1.7,2,2.9,2.3c0.4,0.1,0.8,0.2,1.2,0.2
				c0.8,0,1.5-0.2,2.2-0.6l0.9-0.5l1,0.3l1.2,0.3l2.3,0.6l-0.6,2.3L88,84c5.1,1.9,8.8,6.8,8.8,12.6c0,7.5-6,13.5-13.5,13.5
				c-7.5,0-13.5-6-13.5-13.5c0-0.6,0-1.3,0.1-1.9l-2.4-0.6l-2.3-0.6l0.6-2.3c0,0,0.3-1.3,0.3-1.3l0.2-0.9l0.8-0.5
				c1.1-0.7,1.8-1.6,2.1-2.7c0.3-1.2,0.1-2.5-0.7-3.7c-0.8-1.2-2-2-3.4-2.4c-0.5-0.1-1-0.2-1.5-0.2c-0.9,0-1.8,0.2-2.6,0.6
				c-1.2,0.6-2,1.7-2.3,2.9c-0.3,1.2-0.2,2.4,0.5,3.4l0.5,0.9l-0.3,1l-0.3,1.3l-0.6,2.3l-2.3-0.6L42,87.4c-0.7,2.9-1,6-1,9.2
				c0,23.3,18.9,42.2,42.3,42.2c23.3,0,42.3-18.9,42.3-42.2C125.6,77.4,112.8,61.2,95.3,56.1z M57.2,87.6L57.2,87.6
				c-1-1.5-1.2-3.3-0.7-5.2c0.5-1.9,1.7-3.4,3.5-4.4c1.8-0.9,3.8-1.1,5.8-0.6c2,0.5,3.7,1.7,4.8,3.4c1.1,1.7,1.5,3.7,1,5.5
				c-0.4,1.7-1.5,3.2-3.1,4.1h0c0,0-0.3,1.3-0.3,1.3l14.4,3.8L86.4,81l-1.2-0.3c-1.6,1-3.4,1.2-5.2,0.8C78,81,76.5,79.7,75.5,78
				c-0.9-1.7-1.2-3.8-0.6-5.8c1.1-4.2,5.1-6.8,8.9-5.8c1.7,0.4,3.2,1.5,4.2,3.1l0,0l1.3,0.3L93,55.4L52.9,45L42.5,85.1l14.4,3.8
				L57.2,87.6z M87.2,251.8c-1,0-1.8,0.8-1.8,1.8s0.8,1.8,1.8,1.8s1.8-0.8,1.8-1.8S88.1,251.8,87.2,251.8z M84.2,207.3
				c-1,0-1.8,0.8-1.8,1.8s0.8,1.8,1.8,1.8s1.8-0.8,1.8-1.8S85.1,207.3,84.2,207.3z M4,164.2c-1.3,0-2.3,1-2.3,2.3s1,2.3,2.3,2.3
				s2.3-1,2.3-2.3S5.3,164.2,4,164.2z M28.1,88.2c-1,0-1.8,0.8-1.8,1.8s0.8,1.8,1.8,1.8s1.8-0.8,1.8-1.8S29,88.2,28.1,88.2z
				 M129.3,149.4c1,0,1.8-0.8,1.8-1.8s-0.8-1.8-1.8-1.8s-1.8,0.8-1.8,1.8S128.3,149.4,129.3,149.4z M52.1,294.3
				c-2.9,0-5.2,2.4-5.2,5.2s2.4,5.2,5.2,5.2c2.9,0,5.2-2.4,5.2-5.2S55,294.3,52.1,294.3z M127.2,212.5c-3.9,0-7,3.2-7,7s3.2,7,7,7
				s7-3.2,7-7S131.1,212.5,127.2,212.5z M155.8,252.9c-1.2,0-2.2,1-2.2,2.2s1,2.2,2.2,2.2s2.2-1,2.2-2.2S156.9,252.9,155.8,252.9z
				 M121.6,182.7c0-1.2-1-2.2-2.2-2.2c-1.2,0-2.2,1-2.2,2.2c0,1.2,1,2.2,2.2,2.2C120.6,184.9,121.6,183.9,121.6,182.7z M90.9,314.3
				c-1.2,0-2.1,0.9-2.1,2.1s0.9,2.1,2.1,2.1c1.2,0,2.1-0.9,2.1-2.1S92.1,314.3,90.9,314.3z M110.3,278.5c-1.1,0-1.9,0.9-1.9,1.9
				s0.9,1.9,1.9,1.9s1.9-0.9,1.9-1.9S111.3,278.5,110.3,278.5z M99.8,157.5c-1.3,0-2.3,1-2.3,2.3s1,2.3,2.3,2.3c1.3,0,2.3-1,2.3-2.3
				S101.1,157.5,99.8,157.5z M161-1v317.7h339.7V-1H161z"/>
		</g>
	</g>
</g>
</svg>
