<?xml version="1.0" encoding="utf-8"?>
<!-- Generator: Adobe Illustrator 26.0.1, SVG Export Plug-In . SVG Version: 6.00 Build 0)  -->
<svg version="1.1" id="Layer_1" xmlns="http://www.w3.org/2000/svg" xmlns:xlink="http://www.w3.org/1999/xlink" x="0px" y="0px"
	 viewBox="0 0 128 128" style="enable-background:new 0 0 128 128;" xml:space="preserve">
<g>
	<g>
		<linearGradient id="SVGID_1_" gradientUnits="userSpaceOnUse" x1="8.148" y1="76.1574" x2="96.047" y2="79.0631">
			<stop  offset="0" style="stop-color:#49D3F2"/>
			<stop  offset="0.0644" style="stop-color:#45C9EA"/>
			<stop  offset="0.3423" style="stop-color:#34A4CD"/>
			<stop  offset="0.5998" style="stop-color:#2988B7"/>
			<stop  offset="0.8271" style="stop-color:#2278AB"/>
			<stop  offset="1" style="stop-color:#1F72A6"/>
		</linearGradient>
		<path style="fill:url(#SVGID_1_);" d="M7.829,25.783v89.294l15.758,11.954V34.658L7.829,25.783L7.829,25.783z"/>
		
			<linearGradient id="SVGID_00000183236772867186547950000009265000123728807098_" gradientUnits="userSpaceOnUse" x1="88.5477" y1="15.6779" x2="86.0389" y2="34.3795">
			<stop  offset="0" style="stop-color:#49D3F2"/>
			<stop  offset="0.6309" style="stop-color:#37B5E0"/>
			<stop  offset="0.9987" style="stop-color:#30A9D9"/>
		</linearGradient>
		<polygon style="fill:url(#SVGID_00000183236772867186547950000009265000123728807098_);" points="96.761,25.782 96.761,65.63 
			73.395,65.63 73.395,17.452 		"/>
		<polygon style="fill:none;" points="96.76,25.783 23.587,34.658 23.587,127.031 96.76,109.825 		"/>
		<polygon style="fill:none;" points="96.76,25.783 23.587,34.658 23.587,127.031 96.76,109.825 		"/>
		
			<linearGradient id="SVGID_00000053510558297332505210000011889637923187705743_" gradientUnits="userSpaceOnUse" x1="3.1339" y1="17.3277" x2="82.924" y2="7.1457">
			<stop  offset="0" style="stop-color:#49D3F2"/>
			<stop  offset="0.6309" style="stop-color:#37B5E0"/>
			<stop  offset="0.9987" style="stop-color:#30A9D9"/>
		</linearGradient>
		<polygon style="fill:url(#SVGID_00000053510558297332505210000011889637923187705743_);" points="73.395,17.452 20.228,24.582 
			11.271,25.782 7.469,12.985 5.837,7.49 70.678,0.969 		"/>
		<polygon style="fill:none;" points="96.76,25.783 23.587,34.658 23.587,127.031 96.76,109.825 		"/>
		
			<linearGradient id="SVGID_00000018924065741235242370000015228906405916860047_" gradientUnits="userSpaceOnUse" x1="48.7049" y1="40.2684" x2="47.2285" y2="25.2577">
			<stop  offset="0" style="stop-color:#49D3F2"/>
			<stop  offset="0.6309" style="stop-color:#37B5E0"/>
			<stop  offset="0.9987" style="stop-color:#30A9D9"/>
		</linearGradient>
		<polygon style="fill:url(#SVGID_00000018924065741235242370000015228906405916860047_);" points="73.395,17.452 73.395,28.617 
			23.588,34.658 20.228,24.582 		"/>
		
			<linearGradient id="SVGID_00000160912385918140996680000003683167369087003286_" gradientUnits="userSpaceOnUse" x1="96.7045" y1="28.1025" x2="81.9792" y2="-2.3432">
			<stop  offset="0" style="stop-color:#49D3F2"/>
			<stop  offset="0.6309" style="stop-color:#37B5E0"/>
			<stop  offset="0.9987" style="stop-color:#30A9D9"/>
		</linearGradient>
		<polygon style="fill:url(#SVGID_00000160912385918140996680000003683167369087003286_);" points="82.633,0.969 104.368,6.403 
			96.754,25.783 73.395,17.452 		"/>
		
			<linearGradient id="SVGID_00000044162134145950733090000012253350560781326475_" gradientUnits="userSpaceOnUse" x1="0.32" y1="9.9066" x2="83.9376" y2="9.0948">
			<stop  offset="0" style="stop-color:#FFFFFF;stop-opacity:0.6"/>
			<stop  offset="0.0364" style="stop-color:#EAF2F7;stop-opacity:0.5782"/>
			<stop  offset="0.1273" style="stop-color:#BBD4E4;stop-opacity:0.5236"/>
			<stop  offset="0.2237" style="stop-color:#91BAD3;stop-opacity:0.4658"/>
			<stop  offset="0.3241" style="stop-color:#6EA4C5;stop-opacity:0.4055"/>
			<stop  offset="0.4297" style="stop-color:#5191BA;stop-opacity:0.3422"/>
			<stop  offset="0.5421" style="stop-color:#3B84B1;stop-opacity:0.2747"/>
			<stop  offset="0.6644" style="stop-color:#2B7AAB;stop-opacity:0.2013"/>
			<stop  offset="0.8042" style="stop-color:#2274A7;stop-opacity:0.1175"/>
			<stop  offset="1" style="stop-color:#1F72A6;stop-opacity:0"/>
		</linearGradient>
		<polygon style="fill:url(#SVGID_00000044162134145950733090000012253350560781326475_);" points="8.56,16.658 7.469,12.985 
			5.837,7.49 70.678,0.969 73.395,17.452 		"/>
		<polyline style="fill:none;stroke:#6493D4;stroke-width:0.1115;stroke-miterlimit:10;" points="28.861,37.625 27.82,36.346 
			26.189,34.342 		"/>
		
			<linearGradient id="SVGID_00000049932404288227182460000016597652248664350878_" gradientUnits="userSpaceOnUse" x1="29.4338" y1="35.0125" x2="-9.5022" y2="2.9641">
			<stop  offset="0" style="stop-color:#49D3F2"/>
			<stop  offset="0.6309" style="stop-color:#37B5E0"/>
			<stop  offset="0.9987" style="stop-color:#30A9D9"/>
		</linearGradient>
		<polygon style="fill:url(#SVGID_00000049932404288227182460000016597652248664350878_);" points="23.588,34.658 7.829,25.782 
			2.396,11.113 7.469,12.985 17.609,16.727 20.228,24.582 		"/>
		<polygon style="fill:none;" points="96.76,25.783 23.587,34.658 23.587,127.031 96.76,109.825 		"/>
		
			<linearGradient id="SVGID_00000047028206812858291340000003855799951713823114_" gradientUnits="userSpaceOnUse" x1="40.0736" y1="40.9155" x2="80.3909" y2="112.1064">
			<stop  offset="0" style="stop-color:#49D3F2"/>
			<stop  offset="0.0644" style="stop-color:#45C9EA"/>
			<stop  offset="0.3423" style="stop-color:#34A4CD"/>
			<stop  offset="0.5998" style="stop-color:#2988B7"/>
			<stop  offset="0.8271" style="stop-color:#2278AB"/>
			<stop  offset="1" style="stop-color:#1F72A6"/>
		</linearGradient>
		<polygon style="fill:url(#SVGID_00000047028206812858291340000003855799951713823114_);" points="96.76,25.783 23.587,34.658 
			23.587,127.031 96.76,109.825 		"/>
		<polygon style="fill:none;" points="96.76,25.783 23.587,34.658 23.587,127.031 96.76,109.825 		"/>
		
			<linearGradient id="SVGID_00000168088800477149138780000016753516420412723354_" gradientUnits="userSpaceOnUse" x1="87.0343" y1="17.9473" x2="-2.7841" y2="103.0903">
			<stop  offset="0" style="stop-color:#FFFFFF;stop-opacity:0.6"/>
			<stop  offset="0.0127" style="stop-color:#F4F8FB;stop-opacity:0.5924"/>
			<stop  offset="0.0693" style="stop-color:#C8DCE9;stop-opacity:0.5584"/>
			<stop  offset="0.1316" style="stop-color:#9FC3D9;stop-opacity:0.521"/>
			<stop  offset="0.1985" style="stop-color:#7DADCB;stop-opacity:0.4809"/>
			<stop  offset="0.271" style="stop-color:#5F9BC0;stop-opacity:0.4374"/>
			<stop  offset="0.3512" style="stop-color:#488CB6;stop-opacity:0.3893"/>
			<stop  offset="0.4422" style="stop-color:#3580AF;stop-opacity:0.3347"/>
			<stop  offset="0.5503" style="stop-color:#2978AA;stop-opacity:0.2698"/>
			<stop  offset="0.6925" style="stop-color:#2173A7;stop-opacity:0.1845"/>
			<stop  offset="1" style="stop-color:#1F72A6;stop-opacity:0"/>
		</linearGradient>
		<path style="fill:url(#SVGID_00000168088800477149138780000016753516420412723354_);" d="M96.76,25.783l-73.174,8.875v63.533
			l36.769-16.362C82.495,71.978,96.76,50.016,96.76,25.783L96.76,25.783z"/>
		
			<linearGradient id="SVGID_00000126308860297599486710000001327974344043344015_" gradientUnits="userSpaceOnUse" x1="2.8025" y1="12.1363" x2="23.6907" y2="41.4047">
			<stop  offset="0" style="stop-color:#FFFFFF;stop-opacity:0.6"/>
			<stop  offset="0.0364" style="stop-color:#EAF2F7;stop-opacity:0.5782"/>
			<stop  offset="0.1273" style="stop-color:#BBD4E4;stop-opacity:0.5236"/>
			<stop  offset="0.2237" style="stop-color:#91BAD3;stop-opacity:0.4658"/>
			<stop  offset="0.3241" style="stop-color:#6EA4C5;stop-opacity:0.4055"/>
			<stop  offset="0.4297" style="stop-color:#5191BA;stop-opacity:0.3422"/>
			<stop  offset="0.5421" style="stop-color:#3B84B1;stop-opacity:0.2747"/>
			<stop  offset="0.6644" style="stop-color:#2B7AAB;stop-opacity:0.2013"/>
			<stop  offset="0.8042" style="stop-color:#2274A7;stop-opacity:0.1175"/>
			<stop  offset="1" style="stop-color:#1F72A6;stop-opacity:0"/>
		</linearGradient>
		<polygon style="fill:url(#SVGID_00000126308860297599486710000001327974344043344015_);" points="23.588,34.658 7.829,25.782 
			2.396,11.113 		"/>
		
			<linearGradient id="SVGID_00000153682490921420794520000006622320217218871445_" gradientUnits="userSpaceOnUse" x1="104.2261" y1="4.8444" x2="73.3464" y2="10.7878">
			<stop  offset="0" style="stop-color:#FFFFFF;stop-opacity:0.6"/>
			<stop  offset="0.0364" style="stop-color:#EAF2F7;stop-opacity:0.5782"/>
			<stop  offset="0.1273" style="stop-color:#BBD4E4;stop-opacity:0.5236"/>
			<stop  offset="0.2237" style="stop-color:#91BAD3;stop-opacity:0.4658"/>
			<stop  offset="0.3241" style="stop-color:#6EA4C5;stop-opacity:0.4055"/>
			<stop  offset="0.4297" style="stop-color:#5191BA;stop-opacity:0.3422"/>
			<stop  offset="0.5421" style="stop-color:#3B84B1;stop-opacity:0.2747"/>
			<stop  offset="0.6644" style="stop-color:#2B7AAB;stop-opacity:0.2013"/>
			<stop  offset="0.8042" style="stop-color:#2274A7;stop-opacity:0.1175"/>
			<stop  offset="1" style="stop-color:#1F72A6;stop-opacity:0"/>
		</linearGradient>
		<polygon style="fill:url(#SVGID_00000153682490921420794520000006622320217218871445_);" points="82.633,0.969 104.368,6.403 
			101.628,13.376 76.406,12.079 		"/>
		
			<linearGradient id="SVGID_00000027592405965061351560000014662456322526709158_" gradientUnits="userSpaceOnUse" x1="16.1886" y1="43.648" x2="114.0547" y2="28.0736">
			<stop  offset="0" style="stop-color:#49D3F2"/>
			<stop  offset="0.6309" style="stop-color:#37B5E0"/>
			<stop  offset="0.9987" style="stop-color:#30A9D9"/>
		</linearGradient>
		<polygon style="fill:url(#SVGID_00000027592405965061351560000014662456322526709158_);" points="109.258,36.65 96.761,38.359 
			73.395,41.552 33.73,46.974 23.588,34.658 73.395,28.617 96.761,25.782 		"/>
		
			<linearGradient id="SVGID_00000170988232116395330660000013213204018984928690_" gradientUnits="userSpaceOnUse" x1="22.5936" y1="34.5363" x2="106.1481" y2="32.2212">
			<stop  offset="0" style="stop-color:#FFFFFF;stop-opacity:0.6"/>
			<stop  offset="0.0951" style="stop-color:#D3E3ED;stop-opacity:0.543"/>
			<stop  offset="0.2127" style="stop-color:#A4C5DB;stop-opacity:0.4724"/>
			<stop  offset="0.3341" style="stop-color:#7BACCA;stop-opacity:0.3995"/>
			<stop  offset="0.4576" style="stop-color:#5A97BD;stop-opacity:0.3255"/>
			<stop  offset="0.5836" style="stop-color:#4087B3;stop-opacity:0.2499"/>
			<stop  offset="0.7133" style="stop-color:#2D7BAC;stop-opacity:0.172"/>
			<stop  offset="0.8489" style="stop-color:#2374A7;stop-opacity:0.0907"/>
			<stop  offset="1" style="stop-color:#1F72A6;stop-opacity:0"/>
		</linearGradient>
		<polygon style="fill:url(#SVGID_00000170988232116395330660000013213204018984928690_);" points="28.861,41.062 23.588,34.658 
			73.395,28.617 96.761,25.782 106.968,34.658 		"/>
		
			<linearGradient id="SVGID_00000150802743683198133660000016429972721123776135_" gradientUnits="userSpaceOnUse" x1="-3.8255" y1="18.1258" x2="37.0234" y2="201.4538">
			<stop  offset="0" style="stop-color:#FFFFFF;stop-opacity:0.6"/>
			<stop  offset="0.004" style="stop-color:#FCFDFE;stop-opacity:0.5976"/>
			<stop  offset="0.0673" style="stop-color:#CEE0EB;stop-opacity:0.5596"/>
			<stop  offset="0.1348" style="stop-color:#A5C6DB;stop-opacity:0.5191"/>
			<stop  offset="0.2083" style="stop-color:#81AFCD;stop-opacity:0.475"/>
			<stop  offset="0.2873" style="stop-color:#629CC1;stop-opacity:0.4276"/>
			<stop  offset="0.3735" style="stop-color:#4A8DB7;stop-opacity:0.3759"/>
			<stop  offset="0.47" style="stop-color:#3681AF;stop-opacity:0.318"/>
			<stop  offset="0.5822" style="stop-color:#2978AA;stop-opacity:0.2507"/>
			<stop  offset="0.7249" style="stop-color:#2173A7;stop-opacity:0.1651"/>
			<stop  offset="1" style="stop-color:#1F72A6;stop-opacity:0"/>
		</linearGradient>
		<path style="fill:url(#SVGID_00000150802743683198133660000016429972721123776135_);" d="M7.829,25.783L7.829,25.783v89.294
			l15.758,11.954"/>
	</g>
	<g>
		<defs>
			<path id="SVGID_00000093153592058626185630000000997527636510697635_" d="M114.85,64.085c-14.342-14.342-37.594-14.342-51.936,0
				c-14.34,14.34-14.34,37.592,0,51.934c14.342,14.342,37.594,14.342,51.936,0C129.189,101.678,129.189,78.425,114.85,64.085z
				 M91.903,93.073c-1.667,1.665-4.376,1.665-6.044,0c-1.665-1.667-1.665-4.376,0-6.041c1.667-1.667,4.376-1.667,6.044,0
				C93.568,88.697,93.568,91.406,91.903,93.073z"/>
		</defs>
		<clipPath id="SVGID_00000175324175490338402880000002192303887124401303_">
			<use xlink:href="#SVGID_00000093153592058626185630000000997527636510697635_"  style="overflow:visible;"/>
		</clipPath>
		
			<linearGradient id="SVGID_00000176723257302050216170000007956376376940406958_" gradientUnits="userSpaceOnUse" x1="50.8374" y1="54.0233" x2="129.8284" y2="128.831">
			<stop  offset="0" style="stop-color:#E6E6E6"/>
			<stop  offset="0.2074" style="stop-color:#E9E9E9"/>
			<stop  offset="0.3682" style="stop-color:#F3F3F3"/>
			<stop  offset="0.4814" style="stop-color:#FFFFFF"/>
			<stop  offset="0.6048" style="stop-color:#F2F2F2"/>
			<stop  offset="0.7639" style="stop-color:#E9E9E9"/>
			<stop  offset="1" style="stop-color:#E6E6E6"/>
		</linearGradient>
		
			<circle style="clip-path:url(#SVGID_00000175324175490338402880000002192303887124401303_);fill:url(#SVGID_00000176723257302050216170000007956376376940406958_);" cx="88.881" cy="90.053" r="36.724"/>
		
			<linearGradient id="SVGID_00000119812137660407177560000003480037755992731832_" gradientUnits="userSpaceOnUse" x1="-4496.0249" y1="8776.0635" x2="-4372.9858" y2="8776.0635" gradientTransform="matrix(-0.7071 0.7071 -0.7071 -0.7071 3158.1504 9431.335)">
			<stop  offset="0" style="stop-color:#E6E6E6;stop-opacity:0"/>
			<stop  offset="0.2028" style="stop-color:#E3EBE9;stop-opacity:0.4077"/>
			<stop  offset="0.4558" style="stop-color:#DCFBF0;stop-opacity:0.9161"/>
			<stop  offset="0.4975" style="stop-color:#DAFEF2"/>
			<stop  offset="0.5509" style="stop-color:#DCFAF0;stop-opacity:0.8938"/>
			<stop  offset="0.7963" style="stop-color:#E3EBE9;stop-opacity:0.4054"/>
			<stop  offset="1" style="stop-color:#E6E6E6;stop-opacity:0"/>
		</linearGradient>
		
			<polygon style="clip-path:url(#SVGID_00000175324175490338402880000002192303887124401303_);fill:url(#SVGID_00000119812137660407177560000003480037755992731832_);" points="
			30.385,119.233 86.246,88.092 117.387,32.231 146.026,60.87 90.48,91.696 59.024,147.872 		"/>
		<path style="clip-path:url(#SVGID_00000175324175490338402880000002192303887124401303_);fill:none;" d="M62.915,64.084
			c-14.342,14.342-14.342,37.594,0,51.937c14.341,14.341,37.593,14.341,51.935-0.002c14.341-14.341,14.341-37.593,0-51.933
			C100.507,49.744,77.255,49.744,62.915,64.084z M91.903,93.073c-1.665,1.665-4.375,1.665-6.041,0c-1.665-1.665-1.666-4.375,0-6.041
			c1.666-1.666,4.376-1.665,6.041,0C93.569,88.698,93.569,91.407,91.903,93.073z"/>
		
			<linearGradient id="SVGID_00000088130466939271320270000010328511660593229987_" gradientUnits="userSpaceOnUse" x1="-3627.4858" y1="1146.5078" x2="-3640.282" y2="1220.5773" gradientTransform="matrix(0.7071 0.7071 -0.7071 0.7071 3492.644 1824.1127)">
			<stop  offset="0" style="stop-color:#E6E6E6;stop-opacity:0"/>
			<stop  offset="0.1774" style="stop-color:#E1E6E7;stop-opacity:0.3565"/>
			<stop  offset="0.3811" style="stop-color:#D3E4EA;stop-opacity:0.7659"/>
			<stop  offset="0.4975" style="stop-color:#C8E3ED"/>
			<stop  offset="0.6362" style="stop-color:#D7E4EA;stop-opacity:0.724"/>
			<stop  offset="0.8145" style="stop-color:#E2E6E7;stop-opacity:0.3692"/>
			<stop  offset="1" style="stop-color:#E6E6E6;stop-opacity:0"/>
		</linearGradient>
		
			<polygon style="clip-path:url(#SVGID_00000175324175490338402880000002192303887124401303_);fill:url(#SVGID_00000088130466939271320270000010328511660593229987_);" points="
			117.387,147.872 86.246,92.011 30.385,60.87 59.024,32.231 89.85,87.777 146.026,119.233 		"/>
		<g style="clip-path:url(#SVGID_00000175324175490338402880000002192303887124401303_);">
			<path style="fill:#FFFFFF;" d="M85.861,87.032c-1.666,1.666-1.666,4.376,0,6.042c1.666,1.666,4.376,1.666,6.042,0
				c1.666-1.666,1.666-4.376,0-6.042C90.236,85.366,87.526,85.366,85.861,87.032z"/>
			
				<linearGradient id="SVGID_00000109001180150074250990000007103991679765208993_" gradientUnits="userSpaceOnUse" x1="94.3027" y1="84.3925" x2="83.46" y2="95.7125">
				<stop  offset="0" style="stop-color:#C8E3ED"/>
				<stop  offset="0.0886" style="stop-color:#D9ECF3"/>
				<stop  offset="0.2315" style="stop-color:#EEF6F9"/>
				<stop  offset="0.3713" style="stop-color:#FBFDFE"/>
				<stop  offset="0.5036" style="stop-color:#FFFFFF"/>
				<stop  offset="0.6626" style="stop-color:#FBFFFD"/>
				<stop  offset="0.836" style="stop-color:#EDFFF9"/>
				<stop  offset="1" style="stop-color:#DAFEF2"/>
			</linearGradient>
			<path style="fill:url(#SVGID_00000109001180150074250990000007103991679765208993_);" d="M83.339,84.511
				c-3.056,3.056-3.056,8.028,0,11.084s8.028,3.056,11.084,0c3.056-3.056,3.056-8.028,0-11.084S86.395,81.455,83.339,84.511z
				 M92.154,93.325c-1.805,1.805-4.741,1.805-6.546,0c-1.805-1.805-1.805-4.741,0-6.546c1.805-1.805,4.741-1.805,6.546,0
				C93.959,88.584,93.959,91.521,92.154,93.325z"/>
			
				<linearGradient id="SVGID_00000151538831998656310100000012317498727987048348_" gradientUnits="userSpaceOnUse" x1="79.2612" y1="90.0525" x2="98.5015" y2="90.0525">
				<stop  offset="0" style="stop-color:#49D3F2"/>
				<stop  offset="0.0644" style="stop-color:#45C9EA"/>
				<stop  offset="0.3423" style="stop-color:#34A4CD"/>
				<stop  offset="0.5998" style="stop-color:#2988B7"/>
				<stop  offset="0.8271" style="stop-color:#2278AB"/>
				<stop  offset="1" style="stop-color:#1F72A6"/>
			</linearGradient>
			<path style="opacity:0.42;fill:url(#SVGID_00000151538831998656310100000012317498727987048348_);" d="M82.079,83.25
				c-3.757,3.757-3.757,9.848,0,13.605c3.757,3.757,9.848,3.757,13.605,0c3.757-3.757,3.757-9.848,0-13.605
				C91.927,79.493,85.836,79.493,82.079,83.25z M94.675,95.846c-3.195,3.195-8.393,3.195-11.588,0s-3.195-8.393,0-11.588
				s8.393-3.195,11.588,0C97.87,87.453,97.87,92.652,94.675,95.846z"/>
		</g>
		<path style="clip-path:url(#SVGID_00000175324175490338402880000002192303887124401303_);fill:none;" d="M114.85,64.084
			c-14.342-14.34-37.594-14.34-51.936,0c-14.34,14.342-14.34,37.594,0,51.936c14.342,14.34,37.594,14.34,51.936,0
			C129.189,101.679,129.189,78.426,114.85,64.084z M91.901,93.072c-1.665,1.667-4.374,1.667-6.041,0
			c-1.665-1.665-1.665-4.374,0-6.041c1.667-1.665,4.376-1.665,6.041,0C93.568,88.698,93.568,91.407,91.901,93.072z"/>
		
			<path style="clip-path:url(#SVGID_00000175324175490338402880000002192303887124401303_);fill:none;stroke:#16668E;stroke-width:0.437;stroke-miterlimit:10;" d="
			M114.85,64.085c-14.342-14.342-37.594-14.342-51.936,0c-14.34,14.34-14.34,37.592,0,51.934c14.342,14.342,37.594,14.342,51.936,0
			C129.189,101.678,129.189,78.425,114.85,64.085z M91.903,93.073c-1.667,1.665-4.376,1.665-6.044,0
			c-1.665-1.667-1.665-4.376,0-6.041c1.667-1.667,4.376-1.667,6.044,0C93.568,88.697,93.568,91.406,91.903,93.073z"/>
	</g>
</g>
</svg>
