<?xml version="1.0" encoding="utf-8"?>
<!-- Generator: Adobe Illustrator 26.0.1, SVG Export Plug-In . SVG Version: 6.00 Build 0)  -->
<svg version="1.1" id="Layer_1" xmlns="http://www.w3.org/2000/svg" xmlns:xlink="http://www.w3.org/1999/xlink" x="0px" y="0px"
	 viewBox="0 0 55 55" style="enable-background:new 0 0 55 55;" xml:space="preserve">
<g>
	<g>
		<linearGradient id="SVGID_1_" gradientUnits="userSpaceOnUse" x1="2.4959" y1="32.6243" x2="40.6352" y2="33.8851">
			<stop  offset="0" style="stop-color:#49D3F2"/>
			<stop  offset="0.0644" style="stop-color:#45C9EA"/>
			<stop  offset="0.3423" style="stop-color:#34A4CD"/>
			<stop  offset="0.5998" style="stop-color:#2988B7"/>
			<stop  offset="0.8271" style="stop-color:#2278AB"/>
			<stop  offset="1" style="stop-color:#1F72A6"/>
		</linearGradient>
		<path style="fill:url(#SVGID_1_);" d="M2.357,10.767v38.745l6.837,5.187V14.618L2.357,10.767L2.357,10.767z"/>
		
			<linearGradient id="SVGID_00000077325979936270763600000014440832168026720667_" gradientUnits="userSpaceOnUse" x1="37.3813" y1="6.3823" x2="36.2928" y2="14.4969">
			<stop  offset="0" style="stop-color:#49D3F2"/>
			<stop  offset="0.6309" style="stop-color:#37B5E0"/>
			<stop  offset="0.9987" style="stop-color:#30A9D9"/>
		</linearGradient>
		<polygon style="fill:url(#SVGID_00000077325979936270763600000014440832168026720667_);" points="40.945,10.767 40.945,28.056 
			30.807,28.056 30.807,7.152 		"/>
		<polygon style="fill:none;" points="40.945,10.767 9.195,14.618 9.195,54.698 40.945,47.232 		"/>
		<polygon style="fill:none;" points="40.945,10.767 9.195,14.618 9.195,54.698 40.945,47.232 		"/>
		
			<linearGradient id="SVGID_00000008870591247136532830000017941460298090064829_" gradientUnits="userSpaceOnUse" x1="0.3203" y1="7.0981" x2="34.9412" y2="2.6801">
			<stop  offset="0" style="stop-color:#49D3F2"/>
			<stop  offset="0.6309" style="stop-color:#37B5E0"/>
			<stop  offset="0.9987" style="stop-color:#30A9D9"/>
		</linearGradient>
		<polygon style="fill:url(#SVGID_00000008870591247136532830000017941460298090064829_);" points="30.807,7.152 7.737,10.246 
			3.851,10.767 2.201,5.214 1.493,2.829 29.628,0 		"/>
		<polygon style="fill:none;" points="40.945,10.767 9.195,14.618 9.195,54.698 40.945,47.232 		"/>
		
			<linearGradient id="SVGID_00000124866982674702855390000011579454182227846558_" gradientUnits="userSpaceOnUse" x1="20.0936" y1="17.0521" x2="19.4529" y2="10.5389">
			<stop  offset="0" style="stop-color:#49D3F2"/>
			<stop  offset="0.6309" style="stop-color:#37B5E0"/>
			<stop  offset="0.9987" style="stop-color:#30A9D9"/>
		</linearGradient>
		<polygon style="fill:url(#SVGID_00000124866982674702855390000011579454182227846558_);" points="30.807,7.152 30.807,11.997 
			9.195,14.618 7.737,10.246 		"/>
		
			<linearGradient id="SVGID_00000084526275151357257690000002674407469143442087_" gradientUnits="userSpaceOnUse" x1="40.9206" y1="11.7733" x2="34.5312" y2="-1.4371">
			<stop  offset="0" style="stop-color:#49D3F2"/>
			<stop  offset="0.6309" style="stop-color:#37B5E0"/>
			<stop  offset="0.9987" style="stop-color:#30A9D9"/>
		</linearGradient>
		<polygon style="fill:url(#SVGID_00000084526275151357257690000002674407469143442087_);" points="34.815,0 44.246,2.358 
			40.942,10.767 30.807,7.152 		"/>
		
			<linearGradient id="SVGID_00000039837811936992344520000011194953635844299173_" gradientUnits="userSpaceOnUse" x1="-0.9006" y1="3.8781" x2="35.381" y2="3.5259">
			<stop  offset="0" style="stop-color:#FFFFFF;stop-opacity:0.6"/>
			<stop  offset="0.0364" style="stop-color:#EAF2F7;stop-opacity:0.5782"/>
			<stop  offset="0.1273" style="stop-color:#BBD4E4;stop-opacity:0.5236"/>
			<stop  offset="0.2237" style="stop-color:#91BAD3;stop-opacity:0.4658"/>
			<stop  offset="0.3241" style="stop-color:#6EA4C5;stop-opacity:0.4055"/>
			<stop  offset="0.4297" style="stop-color:#5191BA;stop-opacity:0.3422"/>
			<stop  offset="0.5421" style="stop-color:#3B84B1;stop-opacity:0.2747"/>
			<stop  offset="0.6644" style="stop-color:#2B7AAB;stop-opacity:0.2013"/>
			<stop  offset="0.8042" style="stop-color:#2274A7;stop-opacity:0.1175"/>
			<stop  offset="1" style="stop-color:#1F72A6;stop-opacity:0"/>
		</linearGradient>
		<polygon style="fill:url(#SVGID_00000039837811936992344520000011194953635844299173_);" points="2.675,6.807 2.201,5.214 
			1.493,2.829 29.628,0 30.807,7.152 		"/>
		<polyline style="fill:none;stroke:#6493D4;stroke-width:0.1115;stroke-miterlimit:10;" points="11.483,15.905 11.031,15.35 
			10.324,14.481 		"/>
		
			<linearGradient id="SVGID_00000127013016060654318790000008607075479470088380_" gradientUnits="userSpaceOnUse" x1="11.7318" y1="14.7716" x2="-5.1625" y2="0.8658">
			<stop  offset="0" style="stop-color:#49D3F2"/>
			<stop  offset="0.6309" style="stop-color:#37B5E0"/>
			<stop  offset="0.9987" style="stop-color:#30A9D9"/>
		</linearGradient>
		<polygon style="fill:url(#SVGID_00000127013016060654318790000008607075479470088380_);" points="9.195,14.618 2.358,10.767 
			0,4.402 2.201,5.214 6.601,6.838 7.737,10.246 		"/>
		<polygon style="fill:none;" points="40.945,10.767 9.195,14.618 9.195,54.698 40.945,47.232 		"/>
		
			<linearGradient id="SVGID_00000142883147146821672050000015184125814398473654_" gradientUnits="userSpaceOnUse" x1="16.3484" y1="17.3329" x2="33.8421" y2="48.2226">
			<stop  offset="0" style="stop-color:#49D3F2"/>
			<stop  offset="0.0644" style="stop-color:#45C9EA"/>
			<stop  offset="0.3423" style="stop-color:#34A4CD"/>
			<stop  offset="0.5998" style="stop-color:#2988B7"/>
			<stop  offset="0.8271" style="stop-color:#2278AB"/>
			<stop  offset="1" style="stop-color:#1F72A6"/>
		</linearGradient>
		<polygon style="fill:url(#SVGID_00000142883147146821672050000015184125814398473654_);" points="40.945,10.767 9.195,14.618 
			9.195,54.698 40.945,47.232 		"/>
		<polygon style="fill:none;" points="40.945,10.767 9.195,14.618 9.195,54.698 40.945,47.232 		"/>
		
			<linearGradient id="SVGID_00000140008705960919320900000017102567082358390147_" gradientUnits="userSpaceOnUse" x1="36.7247" y1="7.367" x2="-2.2475" y2="44.3105">
			<stop  offset="0" style="stop-color:#FFFFFF;stop-opacity:0.6"/>
			<stop  offset="0.0127" style="stop-color:#F4F8FB;stop-opacity:0.5924"/>
			<stop  offset="0.0693" style="stop-color:#C8DCE9;stop-opacity:0.5584"/>
			<stop  offset="0.1316" style="stop-color:#9FC3D9;stop-opacity:0.521"/>
			<stop  offset="0.1985" style="stop-color:#7DADCB;stop-opacity:0.4809"/>
			<stop  offset="0.271" style="stop-color:#5F9BC0;stop-opacity:0.4374"/>
			<stop  offset="0.3512" style="stop-color:#488CB6;stop-opacity:0.3893"/>
			<stop  offset="0.4422" style="stop-color:#3580AF;stop-opacity:0.3347"/>
			<stop  offset="0.5503" style="stop-color:#2978AA;stop-opacity:0.2698"/>
			<stop  offset="0.6925" style="stop-color:#2173A7;stop-opacity:0.1845"/>
			<stop  offset="1" style="stop-color:#1F72A6;stop-opacity:0"/>
		</linearGradient>
		<path style="fill:url(#SVGID_00000140008705960919320900000017102567082358390147_);" d="M40.945,10.767l-31.75,3.851v27.567
			l15.954-7.099C34.755,30.811,40.945,21.282,40.945,10.767L40.945,10.767z"/>
		
			<linearGradient id="SVGID_00000163053932300066569600000002988287171146989206_" gradientUnits="userSpaceOnUse" x1="0.1765" y1="4.8456" x2="9.2399" y2="17.5451">
			<stop  offset="0" style="stop-color:#FFFFFF;stop-opacity:0.6"/>
			<stop  offset="0.0364" style="stop-color:#EAF2F7;stop-opacity:0.5782"/>
			<stop  offset="0.1273" style="stop-color:#BBD4E4;stop-opacity:0.5236"/>
			<stop  offset="0.2237" style="stop-color:#91BAD3;stop-opacity:0.4658"/>
			<stop  offset="0.3241" style="stop-color:#6EA4C5;stop-opacity:0.4055"/>
			<stop  offset="0.4297" style="stop-color:#5191BA;stop-opacity:0.3422"/>
			<stop  offset="0.5421" style="stop-color:#3B84B1;stop-opacity:0.2747"/>
			<stop  offset="0.6644" style="stop-color:#2B7AAB;stop-opacity:0.2013"/>
			<stop  offset="0.8042" style="stop-color:#2274A7;stop-opacity:0.1175"/>
			<stop  offset="1" style="stop-color:#1F72A6;stop-opacity:0"/>
		</linearGradient>
		<polygon style="fill:url(#SVGID_00000163053932300066569600000002988287171146989206_);" points="9.195,14.618 2.358,10.767 
			0,4.402 		"/>
		
			<linearGradient id="SVGID_00000015351210135070905770000001712232528038523048_" gradientUnits="userSpaceOnUse" x1="44.1842" y1="1.6816" x2="30.7855" y2="4.2605">
			<stop  offset="0" style="stop-color:#FFFFFF;stop-opacity:0.6"/>
			<stop  offset="0.0364" style="stop-color:#EAF2F7;stop-opacity:0.5782"/>
			<stop  offset="0.1273" style="stop-color:#BBD4E4;stop-opacity:0.5236"/>
			<stop  offset="0.2237" style="stop-color:#91BAD3;stop-opacity:0.4658"/>
			<stop  offset="0.3241" style="stop-color:#6EA4C5;stop-opacity:0.4055"/>
			<stop  offset="0.4297" style="stop-color:#5191BA;stop-opacity:0.3422"/>
			<stop  offset="0.5421" style="stop-color:#3B84B1;stop-opacity:0.2747"/>
			<stop  offset="0.6644" style="stop-color:#2B7AAB;stop-opacity:0.2013"/>
			<stop  offset="0.8042" style="stop-color:#2274A7;stop-opacity:0.1175"/>
			<stop  offset="1" style="stop-color:#1F72A6;stop-opacity:0"/>
		</linearGradient>
		<polygon style="fill:url(#SVGID_00000015351210135070905770000001712232528038523048_);" points="34.815,0 44.246,2.358 
			43.057,5.384 32.113,4.821 		"/>
		
			<linearGradient id="SVGID_00000049926489893849170640000009328424855718891151_" gradientUnits="userSpaceOnUse" x1="5.9847" y1="18.5185" x2="48.4488" y2="11.7608">
			<stop  offset="0" style="stop-color:#49D3F2"/>
			<stop  offset="0.6309" style="stop-color:#37B5E0"/>
			<stop  offset="0.9987" style="stop-color:#30A9D9"/>
		</linearGradient>
		<polygon style="fill:url(#SVGID_00000049926489893849170640000009328424855718891151_);" points="46.368,15.482 40.945,16.223 
			30.807,17.609 13.596,19.962 9.195,14.618 30.807,11.997 40.945,10.767 		"/>
		
			<linearGradient id="SVGID_00000036229438146218618440000015580868106143050682_" gradientUnits="userSpaceOnUse" x1="8.7638" y1="14.5649" x2="45.0181" y2="13.5604">
			<stop  offset="0" style="stop-color:#FFFFFF;stop-opacity:0.6"/>
			<stop  offset="0.0951" style="stop-color:#D3E3ED;stop-opacity:0.543"/>
			<stop  offset="0.2127" style="stop-color:#A4C5DB;stop-opacity:0.4724"/>
			<stop  offset="0.3341" style="stop-color:#7BACCA;stop-opacity:0.3995"/>
			<stop  offset="0.4576" style="stop-color:#5A97BD;stop-opacity:0.3255"/>
			<stop  offset="0.5836" style="stop-color:#4087B3;stop-opacity:0.2499"/>
			<stop  offset="0.7133" style="stop-color:#2D7BAC;stop-opacity:0.172"/>
			<stop  offset="0.8489" style="stop-color:#2374A7;stop-opacity:0.0907"/>
			<stop  offset="1" style="stop-color:#1F72A6;stop-opacity:0"/>
		</linearGradient>
		<polygon style="fill:url(#SVGID_00000036229438146218618440000015580868106143050682_);" points="11.483,17.396 9.195,14.618 
			30.807,11.997 40.945,10.767 45.374,14.618 		"/>
		
			<linearGradient id="SVGID_00000077292565431740080300000006896674920916843695_" gradientUnits="userSpaceOnUse" x1="-2.6994" y1="7.4444" x2="15.025" y2="86.9903">
			<stop  offset="0" style="stop-color:#FFFFFF;stop-opacity:0.6"/>
			<stop  offset="0.004" style="stop-color:#FCFDFE;stop-opacity:0.5976"/>
			<stop  offset="0.0673" style="stop-color:#CEE0EB;stop-opacity:0.5596"/>
			<stop  offset="0.1348" style="stop-color:#A5C6DB;stop-opacity:0.5191"/>
			<stop  offset="0.2083" style="stop-color:#81AFCD;stop-opacity:0.475"/>
			<stop  offset="0.2873" style="stop-color:#629CC1;stop-opacity:0.4276"/>
			<stop  offset="0.3735" style="stop-color:#4A8DB7;stop-opacity:0.3759"/>
			<stop  offset="0.47" style="stop-color:#3681AF;stop-opacity:0.318"/>
			<stop  offset="0.5822" style="stop-color:#2978AA;stop-opacity:0.2507"/>
			<stop  offset="0.7249" style="stop-color:#2173A7;stop-opacity:0.1651"/>
			<stop  offset="1" style="stop-color:#1F72A6;stop-opacity:0"/>
		</linearGradient>
		<path style="fill:url(#SVGID_00000077292565431740080300000006896674920916843695_);" d="M2.357,10.767L2.357,10.767v38.745
			l6.837,5.187"/>
	</g>
	<g>
		<defs>
			<path id="SVGID_00000160170574759445429770000015029054647470086050_" d="M48.794,27.386c-6.223-6.223-16.312-6.223-22.535,0
				c-6.222,6.222-6.222,16.311,0,22.534c6.223,6.223,16.312,6.223,22.535,0C55.016,43.697,55.016,33.608,48.794,27.386z
				 M38.837,39.964c-0.723,0.722-1.899,0.722-2.622,0c-0.722-0.723-0.722-1.899,0-2.621c0.723-0.723,1.899-0.723,2.622,0
				C39.56,38.065,39.56,39.241,38.837,39.964z"/>
		</defs>
		<clipPath id="SVGID_00000039828876224721505230000008611305717201304242_">
			<use xlink:href="#SVGID_00000160170574759445429770000015029054647470086050_"  style="overflow:visible;"/>
		</clipPath>
		
			<linearGradient id="SVGID_00000061433133182137439940000004892820261704254087_" gradientUnits="userSpaceOnUse" x1="21.0188" y1="23.0203" x2="55.293" y2="55.4794">
			<stop  offset="0" style="stop-color:#E6E6E6"/>
			<stop  offset="0.2074" style="stop-color:#E9E9E9"/>
			<stop  offset="0.3682" style="stop-color:#F3F3F3"/>
			<stop  offset="0.4814" style="stop-color:#FFFFFF"/>
			<stop  offset="0.6048" style="stop-color:#F2F2F2"/>
			<stop  offset="0.7639" style="stop-color:#E9E9E9"/>
			<stop  offset="1" style="stop-color:#E6E6E6"/>
		</linearGradient>
		
			<circle style="clip-path:url(#SVGID_00000039828876224721505230000008611305717201304242_);fill:url(#SVGID_00000061433133182137439940000004892820261704254087_);" cx="37.526" cy="38.653" r="15.934"/>
		
			<linearGradient id="SVGID_00000163775091829351272040000004224886960634564745_" gradientUnits="userSpaceOnUse" x1="-4498.5" y1="8759.125" x2="-4445.1133" y2="8759.125" gradientTransform="matrix(-0.7071 0.7071 -0.7071 -0.7071 3068.8245 9394.335)">
			<stop  offset="0" style="stop-color:#E6E6E6;stop-opacity:0"/>
			<stop  offset="0.2028" style="stop-color:#E3EBE9;stop-opacity:0.4077"/>
			<stop  offset="0.4558" style="stop-color:#DCFBF0;stop-opacity:0.9161"/>
			<stop  offset="0.4975" style="stop-color:#DAFEF2"/>
			<stop  offset="0.5509" style="stop-color:#DCFAF0;stop-opacity:0.8938"/>
			<stop  offset="0.7963" style="stop-color:#E3EBE9;stop-opacity:0.4054"/>
			<stop  offset="1" style="stop-color:#E6E6E6;stop-opacity:0"/>
		</linearGradient>
		
			<polygon style="clip-path:url(#SVGID_00000039828876224721505230000008611305717201304242_);fill:url(#SVGID_00000163775091829351272040000004224886960634564745_);" points="
			12.144,51.315 36.382,37.803 49.894,13.565 62.321,25.991 38.22,39.367 24.571,63.741 		"/>
		<path style="clip-path:url(#SVGID_00000039828876224721505230000008611305717201304242_);fill:none;" d="M26.259,27.386
			c-6.223,6.223-6.223,16.312,0,22.535c6.222,6.222,16.311,6.222,22.535-0.001c6.222-6.222,6.222-16.312,0-22.534
			C42.571,21.163,32.482,21.163,26.259,27.386z M38.837,39.964c-0.723,0.723-1.898,0.723-2.621,0c-0.723-0.723-0.723-1.899,0-2.621
			c0.723-0.723,1.899-0.723,2.621,0C39.56,38.065,39.56,39.241,38.837,39.964z"/>
		
			<linearGradient id="SVGID_00000090995899041349247280000009423316072296567213_" gradientUnits="userSpaceOnUse" x1="-3687.9338" y1="1128.8092" x2="-3693.4861" y2="1160.9479" gradientTransform="matrix(0.7071 0.7071 -0.7071 0.7071 3455.644 1839.4386)">
			<stop  offset="0" style="stop-color:#E6E6E6;stop-opacity:0"/>
			<stop  offset="0.1774" style="stop-color:#E1E6E7;stop-opacity:0.3565"/>
			<stop  offset="0.3811" style="stop-color:#D3E4EA;stop-opacity:0.7659"/>
			<stop  offset="0.4975" style="stop-color:#C8E3ED"/>
			<stop  offset="0.6362" style="stop-color:#D7E4EA;stop-opacity:0.724"/>
			<stop  offset="0.8145" style="stop-color:#E2E6E7;stop-opacity:0.3692"/>
			<stop  offset="1" style="stop-color:#E6E6E6;stop-opacity:0"/>
		</linearGradient>
		
			<polygon style="clip-path:url(#SVGID_00000039828876224721505230000008611305717201304242_);fill:url(#SVGID_00000090995899041349247280000009423316072296567213_);" points="
			49.894,63.741 36.382,39.503 12.144,25.991 24.571,13.565 37.946,37.666 62.321,51.315 		"/>
		<g style="clip-path:url(#SVGID_00000039828876224721505230000008611305717201304242_);">
			<path style="fill:#FFFFFF;" d="M36.215,37.343c-0.723,0.723-0.723,1.899,0,2.621s1.899,0.723,2.621,0
				c0.723-0.723,0.723-1.899,0-2.621C38.114,36.62,36.938,36.62,36.215,37.343z"/>
			
				<linearGradient id="SVGID_00000006689602729720226190000011803402872869122701_" gradientUnits="userSpaceOnUse" x1="39.8784" y1="36.1975" x2="35.1738" y2="41.1093">
				<stop  offset="0" style="stop-color:#C8E3ED"/>
				<stop  offset="0.0886" style="stop-color:#D9ECF3"/>
				<stop  offset="0.2315" style="stop-color:#EEF6F9"/>
				<stop  offset="0.3713" style="stop-color:#FBFDFE"/>
				<stop  offset="0.5036" style="stop-color:#FFFFFF"/>
				<stop  offset="0.6626" style="stop-color:#FBFFFD"/>
				<stop  offset="0.836" style="stop-color:#EDFFF9"/>
				<stop  offset="1" style="stop-color:#DAFEF2"/>
			</linearGradient>
			<path style="fill:url(#SVGID_00000006689602729720226190000011803402872869122701_);" d="M35.121,36.249
				c-1.326,1.326-1.326,3.483,0,4.809s3.483,1.326,4.809,0c1.326-1.326,1.326-3.483,0-4.809
				C38.605,34.923,36.447,34.923,35.121,36.249z M38.946,40.073c-0.783,0.783-2.057,0.783-2.84,0s-0.783-2.057,0-2.84
				c0.783-0.783,2.057-0.783,2.84,0S39.729,39.29,38.946,40.073z"/>
			
				<linearGradient id="SVGID_00000127013492769838294670000005850462933869637515_" gradientUnits="userSpaceOnUse" x1="33.3519" y1="38.6534" x2="41.7002" y2="38.6534">
				<stop  offset="0" style="stop-color:#49D3F2"/>
				<stop  offset="0.0644" style="stop-color:#45C9EA"/>
				<stop  offset="0.3423" style="stop-color:#34A4CD"/>
				<stop  offset="0.5998" style="stop-color:#2988B7"/>
				<stop  offset="0.8271" style="stop-color:#2278AB"/>
				<stop  offset="1" style="stop-color:#1F72A6"/>
			</linearGradient>
			<path style="opacity:0.42;fill:url(#SVGID_00000127013492769838294670000005850462933869637515_);" d="M34.575,35.702
				c-1.63,1.63-1.63,4.273,0,5.903s4.273,1.63,5.903,0s1.63-4.273,0-5.903C38.848,34.072,36.205,34.072,34.575,35.702z
				 M40.04,41.167c-1.386,1.386-3.642,1.386-5.028,0s-1.386-3.642,0-5.028s3.642-1.386,5.028,0S41.426,39.781,40.04,41.167z"/>
		</g>
		<path style="clip-path:url(#SVGID_00000039828876224721505230000008611305717201304242_);fill:none;" d="M48.794,27.386
			c-6.223-6.222-16.312-6.222-22.535,0c-6.222,6.223-6.222,16.312,0,22.535c6.223,6.222,16.312,6.222,22.535,0
			C55.016,43.698,55.016,33.609,48.794,27.386z M38.836,39.964c-0.722,0.723-1.898,0.723-2.621,0c-0.722-0.722-0.722-1.898,0-2.621
			c0.723-0.722,1.899-0.722,2.621,0C39.56,38.066,39.56,39.241,38.836,39.964z"/>
		
			<path style="clip-path:url(#SVGID_00000039828876224721505230000008611305717201304242_);fill:none;stroke:#16668E;stroke-width:0.437;stroke-miterlimit:10;" d="
			M48.794,27.386c-6.223-6.223-16.312-6.223-22.535,0c-6.222,6.222-6.222,16.311,0,22.534c6.223,6.223,16.312,6.223,22.535,0
			C55.016,43.697,55.016,33.608,48.794,27.386z M38.837,39.964c-0.723,0.722-1.899,0.722-2.622,0c-0.722-0.723-0.722-1.899,0-2.621
			c0.723-0.723,1.899-0.723,2.622,0C39.56,38.065,39.56,39.241,38.837,39.964z"/>
	</g>
</g>
</svg>
