<?xml version="1.0" encoding="utf-8"?>
<!-- Generator: Adobe Illustrator 25.4.1, SVG Export Plug-In . SVG Version: 6.00 Build 0)  -->
<svg version="1.1" id="Layer_1" xmlns="http://www.w3.org/2000/svg" xmlns:xlink="http://www.w3.org/1999/xlink" x="0px" y="0px"
	 viewBox="0 0 61.6 61.6" style="enable-background:new 0 0 61.6 61.6;" xml:space="preserve">
<path style="fill:white;" d="M37.4,25l-1.2,4.6c0.6,1,1,2.1,1,3.4c0,3.5-2.8,6.3-6.3,6.3c-2.6,0-4.9-1.6-5.8-3.9l-4.4-1.1
	c0.6,5.1,5,9,10.2,9c5.7,0,10.3-4.6,10.3-10.3C41.1,29.8,39.7,26.9,37.4,25z"/>
<path style="fill:white;" d="M31.638,8.748c13.893,0,25.196,11.303,25.196,25.196S45.531,59.14,31.638,59.14
	S6.442,47.837,6.442,33.944S17.744,8.748,31.638,8.748 M31.638,6.748c-15.02,0-27.196,12.176-27.196,27.196
	S16.618,61.14,31.638,61.14s27.196-12.176,27.196-27.196S46.657,6.748,31.638,6.748L31.638,6.748z"/>
<path style="fill:white;" d="M8.458,28.019L14.7,29.6l0.4-1.6c-0.7-1-0.9-2.2-0.6-3.4c0.6-2.3,3.1-3.5,5.6-2.9
	c2.5,0.7,4,3,3.4,5.3c-0.3,1.1-1,1.9-1.9,2.4L21,31.2L31.9,34l2.697-10.501L32.7,23c-1,0.7-2.2,0.9-3.4,0.6
	c-2.3-0.6-3.6-3.1-2.9-5.5c0.7-2.5,3-4,5.3-3.4c1.1,0.3,1.9,1,2.4,1.9l2.1,0.5l1.661-6.312l0.797-3.103
	C38.437,7.627,12.4,0.6,12.4,0.6S5.399,26.663,5.263,27.204L8.458,28.019z"/>
<path style="fill:white;" d="M13.106,1.826c4.183,1.129,20.23,5.46,24.337,6.567l-0.55,2.14l-1.413,5.367l-0.747-0.178
	c-0.666-0.989-1.617-1.673-2.782-1.991c-0.418-0.109-0.846-0.164-1.273-0.164c-2.422,0-4.529,1.713-5.24,4.252
	c-0.425,1.457-0.249,3.032,0.483,4.323c0.691,1.218,1.801,2.079,3.134,2.427c0.438,0.109,0.881,0.165,1.317,0.165
	c0.879,0,1.731-0.226,2.49-0.657l0.516,0.136l-2.201,8.569l-8.892-2.284l0.145-0.434c1.013-0.667,1.712-1.629,2.035-2.812
	c0.732-2.805-1.068-5.667-4.134-6.525c-0.5-0.12-1.011-0.181-1.517-0.181c-2.567,0-4.691,1.528-5.287,3.811
	c-0.333,1.334-0.156,2.671,0.496,3.814l-0.053,0.212L8.706,27.05l-2.216-0.565C7.462,22.844,10.965,9.798,13.106,1.826"/>
</svg>
