<?xml version="1.0" encoding="utf-8"?>
<!-- Generator: Adobe Illustrator 26.0.1, SVG Export Plug-In . SVG Version: 6.00 Build 0)  -->
<svg version="1.1" id="Layer_1" xmlns="http://www.w3.org/2000/svg" xmlns:xlink="http://www.w3.org/1999/xlink" x="0px" y="0px"
	 viewBox="0 0 55 55" style="enable-background:new 0 0 55 55;" xml:space="preserve">
<g>
	<g>
		<linearGradient id="SVGID_1_" gradientUnits="userSpaceOnUse" x1="2.4959" y1="32.6243" x2="40.6352" y2="33.8851">
			<stop  offset="0" style="stop-color:#E66966"/>
			<stop  offset="0.1096" style="stop-color:#D9575C"/>
			<stop  offset="0.374" style="stop-color:#BF3246"/>
			<stop  offset="0.6191" style="stop-color:#AC1636"/>
			<stop  offset="0.8354" style="stop-color:#A0062C"/>
			<stop  offset="1" style="stop-color:#9C0029"/>
		</linearGradient>
		<path style="fill:url(#SVGID_1_);" d="M2.357,10.767v38.745l6.837,5.187V14.618L2.357,10.767L2.357,10.767z"/>
		
			<linearGradient id="SVGID_00000129184011834227951510000016670054140968778678_" gradientUnits="userSpaceOnUse" x1="37.3813" y1="6.3823" x2="36.2928" y2="14.4969">
			<stop  offset="0" style="stop-color:#E67A78"/>
			<stop  offset="0.1793" style="stop-color:#D65F67"/>
			<stop  offset="0.557" style="stop-color:#B72C45"/>
			<stop  offset="0.8423" style="stop-color:#A30C31"/>
			<stop  offset="1" style="stop-color:#9C0029"/>
		</linearGradient>
		<polygon style="fill:url(#SVGID_00000129184011834227951510000016670054140968778678_);" points="40.945,10.767 40.945,28.056 
			30.807,28.056 30.807,7.152 		"/>
		<polygon style="fill:none;" points="40.945,10.767 9.195,14.618 9.195,54.698 40.945,47.232 		"/>
		<polygon style="fill:none;" points="40.945,10.767 9.195,14.618 9.195,54.698 40.945,47.232 		"/>
		
			<linearGradient id="SVGID_00000020396111641918588680000018279491937807629726_" gradientUnits="userSpaceOnUse" x1="0.3203" y1="7.0981" x2="34.9412" y2="2.6801">
			<stop  offset="0" style="stop-color:#E67A78"/>
			<stop  offset="0.1793" style="stop-color:#D65F67"/>
			<stop  offset="0.557" style="stop-color:#B72C45"/>
			<stop  offset="0.8423" style="stop-color:#A30C31"/>
			<stop  offset="1" style="stop-color:#9C0029"/>
		</linearGradient>
		<polygon style="fill:url(#SVGID_00000020396111641918588680000018279491937807629726_);" points="30.807,7.152 7.737,10.246 
			3.851,10.767 2.201,5.214 1.493,2.829 29.628,0 		"/>
		<polygon style="fill:none;" points="40.945,10.767 9.195,14.618 9.195,54.698 40.945,47.232 		"/>
		
			<linearGradient id="SVGID_00000061438383971571202010000002377705421460252315_" gradientUnits="userSpaceOnUse" x1="20.0936" y1="17.0521" x2="19.4529" y2="10.5389">
			<stop  offset="0" style="stop-color:#E67A78"/>
			<stop  offset="0.1793" style="stop-color:#D65F67"/>
			<stop  offset="0.557" style="stop-color:#B72C45"/>
			<stop  offset="0.8423" style="stop-color:#A30C31"/>
			<stop  offset="1" style="stop-color:#9C0029"/>
		</linearGradient>
		<polygon style="fill:url(#SVGID_00000061438383971571202010000002377705421460252315_);" points="30.807,7.152 30.807,11.997 
			9.195,14.618 7.737,10.246 		"/>
		
			<linearGradient id="SVGID_00000097466739128383224140000004342486103573118380_" gradientUnits="userSpaceOnUse" x1="40.9206" y1="11.7733" x2="34.5312" y2="-1.4371">
			<stop  offset="0" style="stop-color:#E67A78"/>
			<stop  offset="0.1793" style="stop-color:#D65F67"/>
			<stop  offset="0.557" style="stop-color:#B72C45"/>
			<stop  offset="0.8423" style="stop-color:#A30C31"/>
			<stop  offset="1" style="stop-color:#9C0029"/>
		</linearGradient>
		<polygon style="fill:url(#SVGID_00000097466739128383224140000004342486103573118380_);" points="34.815,0 44.246,2.358 
			40.942,10.767 30.807,7.152 		"/>
		
			<linearGradient id="SVGID_00000163761190344173629170000009927401606533905835_" gradientUnits="userSpaceOnUse" x1="-0.9006" y1="3.8781" x2="35.381" y2="3.5259">
			<stop  offset="0" style="stop-color:#FFFFFF;stop-opacity:0.6"/>
			<stop  offset="0.0819" style="stop-color:#EBCBD3;stop-opacity:0.5509"/>
			<stop  offset="0.1685" style="stop-color:#D89CAC;stop-opacity:0.4989"/>
			<stop  offset="0.2604" style="stop-color:#C87289;stop-opacity:0.4438"/>
			<stop  offset="0.3561" style="stop-color:#BB4F6B;stop-opacity:0.3863"/>
			<stop  offset="0.4567" style="stop-color:#AF3253;stop-opacity:0.326"/>
			<stop  offset="0.5637" style="stop-color:#A71C40;stop-opacity:0.2618"/>
			<stop  offset="0.6803" style="stop-color:#A10C33;stop-opacity:0.1918"/>
			<stop  offset="0.8134" style="stop-color:#9D032B;stop-opacity:0.1119"/>
			<stop  offset="1" style="stop-color:#9C0029;stop-opacity:0"/>
		</linearGradient>
		<polygon style="fill:url(#SVGID_00000163761190344173629170000009927401606533905835_);" points="2.675,6.807 2.201,5.214 
			1.493,2.829 29.628,0 30.807,7.152 		"/>
		<polyline style="fill:none;stroke:#6493D4;stroke-width:0.1115;stroke-miterlimit:10;" points="11.483,15.905 11.031,15.35 
			10.324,14.481 		"/>
		
			<linearGradient id="SVGID_00000137111985321793765750000012404569764720384157_" gradientUnits="userSpaceOnUse" x1="11.7318" y1="14.7716" x2="-5.1625" y2="0.8658">
			<stop  offset="0" style="stop-color:#E67A78"/>
			<stop  offset="0.1793" style="stop-color:#D65F67"/>
			<stop  offset="0.557" style="stop-color:#B72C45"/>
			<stop  offset="0.8423" style="stop-color:#A30C31"/>
			<stop  offset="1" style="stop-color:#9C0029"/>
		</linearGradient>
		<polygon style="fill:url(#SVGID_00000137111985321793765750000012404569764720384157_);" points="9.195,14.618 2.358,10.767 
			0,4.402 2.201,5.214 6.601,6.838 7.737,10.246 		"/>
		<polygon style="fill:none;" points="40.945,10.767 9.195,14.618 9.195,54.698 40.945,47.232 		"/>
		
			<linearGradient id="SVGID_00000150074844553383309880000003754824104817515185_" gradientUnits="userSpaceOnUse" x1="16.3484" y1="17.3329" x2="33.8421" y2="48.2226">
			<stop  offset="0" style="stop-color:#E66966"/>
			<stop  offset="0.1096" style="stop-color:#D9575C"/>
			<stop  offset="0.374" style="stop-color:#BF3246"/>
			<stop  offset="0.6191" style="stop-color:#AC1636"/>
			<stop  offset="0.8354" style="stop-color:#A0062C"/>
			<stop  offset="1" style="stop-color:#9C0029"/>
		</linearGradient>
		<polygon style="fill:url(#SVGID_00000150074844553383309880000003754824104817515185_);" points="40.945,10.767 9.195,14.618 
			9.195,54.698 40.945,47.232 		"/>
		<polygon style="fill:none;" points="40.945,10.767 9.195,14.618 9.195,54.698 40.945,47.232 		"/>
		
			<linearGradient id="SVGID_00000038378642232380523660000003603182831441806212_" gradientUnits="userSpaceOnUse" x1="36.7247" y1="7.367" x2="-2.2475" y2="44.3105">
			<stop  offset="0" style="stop-color:#FFFFFF;stop-opacity:0.6"/>
			<stop  offset="0.0444" style="stop-color:#EFD5DC;stop-opacity:0.5734"/>
			<stop  offset="0.0991" style="stop-color:#DEA9B7;stop-opacity:0.5405"/>
			<stop  offset="0.1596" style="stop-color:#CE8095;stop-opacity:0.5043"/>
			<stop  offset="0.2243" style="stop-color:#C05E78;stop-opacity:0.4654"/>
			<stop  offset="0.2945" style="stop-color:#B5405F;stop-opacity:0.4233"/>
			<stop  offset="0.3721" style="stop-color:#AC294B;stop-opacity:0.3767"/>
			<stop  offset="0.4602" style="stop-color:#A5163C;stop-opacity:0.3239"/>
			<stop  offset="0.5649" style="stop-color:#A00A31;stop-opacity:0.2611"/>
			<stop  offset="0.7024" style="stop-color:#9D022B;stop-opacity:0.1785"/>
			<stop  offset="1" style="stop-color:#9C0029;stop-opacity:0"/>
		</linearGradient>
		<path style="fill:url(#SVGID_00000038378642232380523660000003603182831441806212_);" d="M40.945,10.767l-31.75,3.851v27.567
			l15.954-7.099C34.755,30.811,40.945,21.282,40.945,10.767L40.945,10.767z"/>
		
			<linearGradient id="SVGID_00000067206355960570263800000001667318260230904741_" gradientUnits="userSpaceOnUse" x1="0.1765" y1="4.8456" x2="9.2399" y2="17.5451">
			<stop  offset="0" style="stop-color:#FFFFFF;stop-opacity:0.6"/>
			<stop  offset="0.0819" style="stop-color:#EBCBD3;stop-opacity:0.5509"/>
			<stop  offset="0.1685" style="stop-color:#D89CAC;stop-opacity:0.4989"/>
			<stop  offset="0.2604" style="stop-color:#C87289;stop-opacity:0.4438"/>
			<stop  offset="0.3561" style="stop-color:#BB4F6B;stop-opacity:0.3863"/>
			<stop  offset="0.4567" style="stop-color:#AF3253;stop-opacity:0.326"/>
			<stop  offset="0.5637" style="stop-color:#A71C40;stop-opacity:0.2618"/>
			<stop  offset="0.6803" style="stop-color:#A10C33;stop-opacity:0.1918"/>
			<stop  offset="0.8134" style="stop-color:#9D032B;stop-opacity:0.1119"/>
			<stop  offset="1" style="stop-color:#9C0029;stop-opacity:0"/>
		</linearGradient>
		<polygon style="fill:url(#SVGID_00000067206355960570263800000001667318260230904741_);" points="9.195,14.618 2.358,10.767 
			0,4.402 		"/>
		
			<linearGradient id="SVGID_00000096040769016287067550000008214873215147861889_" gradientUnits="userSpaceOnUse" x1="44.1842" y1="1.6816" x2="30.7855" y2="4.2605">
			<stop  offset="0" style="stop-color:#FFFFFF;stop-opacity:0.6"/>
			<stop  offset="0.0819" style="stop-color:#EBCBD3;stop-opacity:0.5509"/>
			<stop  offset="0.1685" style="stop-color:#D89CAC;stop-opacity:0.4989"/>
			<stop  offset="0.2604" style="stop-color:#C87289;stop-opacity:0.4438"/>
			<stop  offset="0.3561" style="stop-color:#BB4F6B;stop-opacity:0.3863"/>
			<stop  offset="0.4567" style="stop-color:#AF3253;stop-opacity:0.326"/>
			<stop  offset="0.5637" style="stop-color:#A71C40;stop-opacity:0.2618"/>
			<stop  offset="0.6803" style="stop-color:#A10C33;stop-opacity:0.1918"/>
			<stop  offset="0.8134" style="stop-color:#9D032B;stop-opacity:0.1119"/>
			<stop  offset="1" style="stop-color:#9C0029;stop-opacity:0"/>
		</linearGradient>
		<polygon style="fill:url(#SVGID_00000096040769016287067550000008214873215147861889_);" points="34.815,0 44.246,2.358 
			43.057,5.384 32.113,4.821 		"/>
		
			<linearGradient id="SVGID_00000139291964678486106900000005016515998685727394_" gradientUnits="userSpaceOnUse" x1="5.9847" y1="18.5185" x2="48.4488" y2="11.7608">
			<stop  offset="0" style="stop-color:#E67A78"/>
			<stop  offset="0.1793" style="stop-color:#D65F67"/>
			<stop  offset="0.557" style="stop-color:#B72C45"/>
			<stop  offset="0.8423" style="stop-color:#A30C31"/>
			<stop  offset="1" style="stop-color:#9C0029"/>
		</linearGradient>
		<polygon style="fill:url(#SVGID_00000139291964678486106900000005016515998685727394_);" points="46.368,15.482 40.945,16.223 
			30.807,17.609 13.596,19.962 9.195,14.618 30.807,11.997 40.945,10.767 		"/>
		
			<linearGradient id="SVGID_00000004547580796343131270000005759604264161210040_" gradientUnits="userSpaceOnUse" x1="8.7638" y1="14.5649" x2="45.0181" y2="13.5604">
			<stop  offset="0" style="stop-color:#FFFFFF;stop-opacity:0.6"/>
			<stop  offset="0.0355" style="stop-color:#F7ECEF;stop-opacity:0.5787"/>
			<stop  offset="0.1446" style="stop-color:#E2B5C1;stop-opacity:0.5132"/>
			<stop  offset="0.2577" style="stop-color:#D08598;stop-opacity:0.4454"/>
			<stop  offset="0.3722" style="stop-color:#C05C76;stop-opacity:0.3767"/>
			<stop  offset="0.4886" style="stop-color:#B33B5A;stop-opacity:0.3068"/>
			<stop  offset="0.6075" style="stop-color:#A92145;stop-opacity:0.2355"/>
			<stop  offset="0.7297" style="stop-color:#A20E35;stop-opacity:0.1622"/>
			<stop  offset="0.8575" style="stop-color:#9D042C;stop-opacity:0.0855"/>
			<stop  offset="1" style="stop-color:#9C0029;stop-opacity:0"/>
		</linearGradient>
		<polygon style="fill:url(#SVGID_00000004547580796343131270000005759604264161210040_);" points="11.483,17.396 9.195,14.618 
			30.807,11.997 40.945,10.767 45.374,14.618 		"/>
		
			<linearGradient id="SVGID_00000049188806258525395130000011599592563998462382_" gradientUnits="userSpaceOnUse" x1="-2.6994" y1="7.4444" x2="15.025" y2="86.9903">
			<stop  offset="0" style="stop-color:#FFFFFF;stop-opacity:0.6"/>
			<stop  offset="0.038" style="stop-color:#F2DEE3;stop-opacity:0.5772"/>
			<stop  offset="0.0989" style="stop-color:#E0B0BD;stop-opacity:0.5406"/>
			<stop  offset="0.1655" style="stop-color:#D08699;stop-opacity:0.5006"/>
			<stop  offset="0.2362" style="stop-color:#C2627B;stop-opacity:0.4581"/>
			<stop  offset="0.3123" style="stop-color:#B64361;stop-opacity:0.4124"/>
			<stop  offset="0.3954" style="stop-color:#AD2B4D;stop-opacity:0.3625"/>
			<stop  offset="0.4883" style="stop-color:#A5173D;stop-opacity:0.3067"/>
			<stop  offset="0.5964" style="stop-color:#A00A31;stop-opacity:0.2417"/>
			<stop  offset="0.7338" style="stop-color:#9D022B;stop-opacity:0.1592"/>
			<stop  offset="0.9987" style="stop-color:#9C0029;stop-opacity:0"/>
		</linearGradient>
		<path style="fill:url(#SVGID_00000049188806258525395130000011599592563998462382_);" d="M2.357,10.767L2.357,10.767v38.745
			l6.837,5.187"/>
	</g>
	<g>
		<defs>
			<path id="SVGID_00000073701800558239228430000007624358350125708178_" d="M48.794,27.386c-6.223-6.223-16.312-6.223-22.535,0
				c-6.222,6.222-6.222,16.311,0,22.534c6.223,6.223,16.312,6.223,22.535,0C55.016,43.697,55.016,33.608,48.794,27.386z
				 M38.837,39.964c-0.723,0.722-1.899,0.722-2.622,0c-0.722-0.723-0.722-1.899,0-2.621c0.723-0.723,1.899-0.723,2.622,0
				C39.56,38.065,39.56,39.241,38.837,39.964z"/>
		</defs>
		<clipPath id="SVGID_00000161605892996232617370000001027982802883469205_">
			<use xlink:href="#SVGID_00000073701800558239228430000007624358350125708178_"  style="overflow:visible;"/>
		</clipPath>
		
			<linearGradient id="SVGID_00000000221474484067942830000000251328933870596778_" gradientUnits="userSpaceOnUse" x1="21.0188" y1="23.0203" x2="55.293" y2="55.4794">
			<stop  offset="0" style="stop-color:#E6E6E6"/>
			<stop  offset="0.2074" style="stop-color:#E9E9E9"/>
			<stop  offset="0.3682" style="stop-color:#F3F3F3"/>
			<stop  offset="0.4814" style="stop-color:#FFFFFF"/>
			<stop  offset="0.6048" style="stop-color:#F2F2F2"/>
			<stop  offset="0.7639" style="stop-color:#E9E9E9"/>
			<stop  offset="1" style="stop-color:#E6E6E6"/>
		</linearGradient>
		
			<circle style="clip-path:url(#SVGID_00000161605892996232617370000001027982802883469205_);fill:url(#SVGID_00000000221474484067942830000000251328933870596778_);" cx="37.526" cy="38.653" r="15.934"/>
		
			<linearGradient id="SVGID_00000118369856537375531790000012325467952765417646_" gradientUnits="userSpaceOnUse" x1="-4498.5" y1="8759.125" x2="-4445.1133" y2="8759.125" gradientTransform="matrix(-0.7071 0.7071 -0.7071 -0.7071 3068.8245 9394.335)">
			<stop  offset="0" style="stop-color:#E6E6E6;stop-opacity:0"/>
			<stop  offset="0.2028" style="stop-color:#E3EBE9;stop-opacity:0.4077"/>
			<stop  offset="0.4558" style="stop-color:#DCFBF0;stop-opacity:0.9161"/>
			<stop  offset="0.4975" style="stop-color:#DAFEF2"/>
			<stop  offset="0.5509" style="stop-color:#DCFAF0;stop-opacity:0.8938"/>
			<stop  offset="0.7963" style="stop-color:#E3EBE9;stop-opacity:0.4054"/>
			<stop  offset="1" style="stop-color:#E6E6E6;stop-opacity:0"/>
		</linearGradient>
		
			<polygon style="clip-path:url(#SVGID_00000161605892996232617370000001027982802883469205_);fill:url(#SVGID_00000118369856537375531790000012325467952765417646_);" points="
			12.144,51.315 36.382,37.803 49.894,13.565 62.321,25.991 38.22,39.367 24.571,63.741 		"/>
		<path style="clip-path:url(#SVGID_00000161605892996232617370000001027982802883469205_);fill:none;" d="M26.259,27.386
			c-6.223,6.223-6.223,16.312,0,22.535c6.222,6.222,16.311,6.222,22.535-0.001c6.222-6.222,6.222-16.312,0-22.534
			C42.571,21.163,32.482,21.163,26.259,27.386z M38.837,39.964c-0.723,0.723-1.898,0.723-2.621,0c-0.723-0.723-0.723-1.899,0-2.621
			c0.723-0.723,1.899-0.723,2.621,0C39.56,38.065,39.56,39.241,38.837,39.964z"/>
		
			<linearGradient id="SVGID_00000156573116563362496340000003864355514101506717_" gradientUnits="userSpaceOnUse" x1="-3687.9338" y1="1128.8092" x2="-3693.4861" y2="1160.9479" gradientTransform="matrix(0.7071 0.7071 -0.7071 0.7071 3455.644 1839.4386)">
			<stop  offset="0" style="stop-color:#E6E6E6;stop-opacity:0"/>
			<stop  offset="0.1774" style="stop-color:#E1E6E7;stop-opacity:0.3565"/>
			<stop  offset="0.3811" style="stop-color:#D3E4EA;stop-opacity:0.7659"/>
			<stop  offset="0.4975" style="stop-color:#C8E3ED"/>
			<stop  offset="0.6362" style="stop-color:#D7E4EA;stop-opacity:0.724"/>
			<stop  offset="0.8145" style="stop-color:#E2E6E7;stop-opacity:0.3692"/>
			<stop  offset="1" style="stop-color:#E6E6E6;stop-opacity:0"/>
		</linearGradient>
		
			<polygon style="clip-path:url(#SVGID_00000161605892996232617370000001027982802883469205_);fill:url(#SVGID_00000156573116563362496340000003864355514101506717_);" points="
			49.894,63.741 36.382,39.503 12.144,25.991 24.571,13.565 37.946,37.666 62.321,51.315 		"/>
		<g style="clip-path:url(#SVGID_00000161605892996232617370000001027982802883469205_);">
			<path style="fill:#FFFFFF;" d="M36.215,37.343c-0.723,0.723-0.723,1.899,0,2.621s1.899,0.723,2.621,0
				c0.723-0.723,0.723-1.899,0-2.621C38.114,36.62,36.938,36.62,36.215,37.343z"/>
			
				<linearGradient id="SVGID_00000031200431987726906830000011261600542841493936_" gradientUnits="userSpaceOnUse" x1="39.8784" y1="36.1975" x2="35.1738" y2="41.1093">
				<stop  offset="0" style="stop-color:#C8E3ED"/>
				<stop  offset="0.0886" style="stop-color:#D9ECF3"/>
				<stop  offset="0.2315" style="stop-color:#EEF6F9"/>
				<stop  offset="0.3713" style="stop-color:#FBFDFE"/>
				<stop  offset="0.5036" style="stop-color:#FFFFFF"/>
				<stop  offset="0.6626" style="stop-color:#FBFFFD"/>
				<stop  offset="0.836" style="stop-color:#EDFFF9"/>
				<stop  offset="1" style="stop-color:#DAFEF2"/>
			</linearGradient>
			<path style="fill:url(#SVGID_00000031200431987726906830000011261600542841493936_);" d="M35.121,36.249
				c-1.326,1.326-1.326,3.483,0,4.809s3.483,1.326,4.809,0c1.326-1.326,1.326-3.483,0-4.809
				C38.605,34.923,36.447,34.923,35.121,36.249z M38.946,40.073c-0.783,0.783-2.057,0.783-2.84,0s-0.783-2.057,0-2.84
				c0.783-0.783,2.057-0.783,2.84,0S39.729,39.29,38.946,40.073z"/>
			
				<linearGradient id="SVGID_00000115508208731677302160000017870423079800544640_" gradientUnits="userSpaceOnUse" x1="33.3519" y1="38.6534" x2="41.7002" y2="38.6534">
				<stop  offset="0" style="stop-color:#E66966"/>
				<stop  offset="0.1096" style="stop-color:#D9575C"/>
				<stop  offset="0.374" style="stop-color:#BF3246"/>
				<stop  offset="0.6191" style="stop-color:#AC1636"/>
				<stop  offset="0.8354" style="stop-color:#A0062C"/>
				<stop  offset="1" style="stop-color:#9C0029"/>
			</linearGradient>
			<path style="opacity:0.42;fill:url(#SVGID_00000115508208731677302160000017870423079800544640_);" d="M34.575,35.702
				c-1.63,1.63-1.63,4.273,0,5.903s4.273,1.63,5.903,0s1.63-4.273,0-5.903C38.848,34.072,36.205,34.072,34.575,35.702z
				 M40.04,41.167c-1.386,1.386-3.642,1.386-5.028,0s-1.386-3.642,0-5.028s3.642-1.386,5.028,0S41.426,39.781,40.04,41.167z"/>
		</g>
		<path style="clip-path:url(#SVGID_00000161605892996232617370000001027982802883469205_);fill:none;" d="M48.794,27.386
			c-6.223-6.222-16.312-6.222-22.535,0c-6.222,6.223-6.222,16.312,0,22.535c6.223,6.222,16.312,6.222,22.535,0
			C55.016,43.698,55.016,33.609,48.794,27.386z M38.836,39.964c-0.722,0.723-1.898,0.723-2.621,0c-0.722-0.722-0.722-1.898,0-2.621
			c0.723-0.722,1.899-0.722,2.621,0C39.56,38.066,39.56,39.241,38.836,39.964z"/>
		
			<path style="clip-path:url(#SVGID_00000161605892996232617370000001027982802883469205_);fill:none;stroke:#750125;stroke-width:0.437;stroke-miterlimit:10;" d="
			M48.794,27.386c-6.223-6.223-16.312-6.223-22.535,0c-6.222,6.222-6.222,16.311,0,22.534c6.223,6.223,16.312,6.223,22.535,0
			C55.016,43.697,55.016,33.608,48.794,27.386z M38.837,39.964c-0.723,0.722-1.899,0.722-2.622,0c-0.722-0.723-0.722-1.899,0-2.621
			c0.723-0.723,1.899-0.723,2.622,0C39.56,38.065,39.56,39.241,38.837,39.964z"/>
	</g>
</g>
</svg>
