<?xml version="1.0" encoding="utf-8"?>
<!-- Generator: Adobe Illustrator 26.0.1, SVG Export Plug-In . SVG Version: 6.00 Build 0)  -->
<svg version="1.1" id="Layer_1" xmlns="http://www.w3.org/2000/svg" xmlns:xlink="http://www.w3.org/1999/xlink" x="0px" y="0px"
	 viewBox="0 0 55 55" style="enable-background:new 0 0 55 55;" xml:space="preserve">
<g>
	<linearGradient id="SVGID_1_" gradientUnits="userSpaceOnUse" x1="3.1613" y1="32.687" x2="40.6639" y2="33.9268">
		<stop  offset="0" style="stop-color:#E66966"/>
		<stop  offset="0.1096" style="stop-color:#D9575C"/>
		<stop  offset="0.374" style="stop-color:#BF3246"/>
		<stop  offset="0.6191" style="stop-color:#AC1636"/>
		<stop  offset="0.8354" style="stop-color:#A0062C"/>
		<stop  offset="1" style="stop-color:#9C0029"/>
	</linearGradient>
	<path style="fill:url(#SVGID_1_);" d="M3.025,11.195v38.098l6.723,5.1V14.981L3.025,11.195L3.025,11.195z"/>
	
		<linearGradient id="SVGID_00000057132565685308545930000003367873453350078114_" gradientUnits="userSpaceOnUse" x1="37.4643" y1="6.8831" x2="36.3939" y2="14.8623">
		<stop  offset="0" style="stop-color:#E67A78"/>
		<stop  offset="0.1793" style="stop-color:#D65F67"/>
		<stop  offset="0.557" style="stop-color:#B72C45"/>
		<stop  offset="0.8423" style="stop-color:#A30C31"/>
		<stop  offset="1" style="stop-color:#9C0029"/>
	</linearGradient>
	<polygon style="fill:url(#SVGID_00000057132565685308545930000003367873453350078114_);" points="40.969,11.194 40.969,28.195 
		30.999,28.195 30.999,7.64 	"/>
	<polygon style="fill:none;" points="40.968,11.195 9.748,14.981 9.748,54.393 40.968,47.051 	"/>
	<polygon style="fill:none;" points="40.968,11.195 9.748,14.981 9.748,54.393 40.968,47.051 	"/>
	
		<linearGradient id="SVGID_00000183224680884057934290000016877393830195834800_" gradientUnits="userSpaceOnUse" x1="1.0221" y1="7.587" x2="35.0649" y2="3.2428">
		<stop  offset="0" style="stop-color:#E67A78"/>
		<stop  offset="0.1793" style="stop-color:#D65F67"/>
		<stop  offset="0.557" style="stop-color:#B72C45"/>
		<stop  offset="0.8423" style="stop-color:#A30C31"/>
		<stop  offset="1" style="stop-color:#9C0029"/>
	</linearGradient>
	<polygon style="fill:url(#SVGID_00000183224680884057934290000016877393830195834800_);" points="30.999,7.64 8.315,10.682 
		4.494,11.194 2.872,5.734 2.175,3.39 29.84,0.607 	"/>
	<polygon style="fill:none;" points="40.968,11.195 9.748,14.981 9.748,54.393 40.968,47.051 	"/>
	
		<linearGradient id="SVGID_00000160163588781566805860000008001524060271118978_" gradientUnits="userSpaceOnUse" x1="20.4652" y1="17.3748" x2="19.8352" y2="10.9704">
		<stop  offset="0" style="stop-color:#E67A78"/>
		<stop  offset="0.1793" style="stop-color:#D65F67"/>
		<stop  offset="0.557" style="stop-color:#B72C45"/>
		<stop  offset="0.8423" style="stop-color:#A30C31"/>
		<stop  offset="1" style="stop-color:#9C0029"/>
	</linearGradient>
	<polygon style="fill:url(#SVGID_00000160163588781566805860000008001524060271118978_);" points="30.999,7.64 30.999,12.404 
		9.749,14.981 8.315,10.682 	"/>
	
		<linearGradient id="SVGID_00000066495385774631834140000015249936828299132840_" gradientUnits="userSpaceOnUse" x1="40.9445" y1="12.1842" x2="34.6618" y2="-0.8057">
		<stop  offset="0" style="stop-color:#E67A78"/>
		<stop  offset="0.1793" style="stop-color:#D65F67"/>
		<stop  offset="0.557" style="stop-color:#B72C45"/>
		<stop  offset="0.8423" style="stop-color:#A30C31"/>
		<stop  offset="1" style="stop-color:#9C0029"/>
	</linearGradient>
	<polygon style="fill:url(#SVGID_00000066495385774631834140000015249936828299132840_);" points="34.941,0.607 44.214,2.926 
		40.966,11.195 30.999,7.64 	"/>
	
		<linearGradient id="SVGID_00000181768762008151869750000007817726149650687420_" gradientUnits="userSpaceOnUse" x1="-0.1785" y1="4.4208" x2="35.4974" y2="4.0744">
		<stop  offset="0" style="stop-color:#FFFFFF;stop-opacity:0.6"/>
		<stop  offset="0.0819" style="stop-color:#EBCBD3;stop-opacity:0.5509"/>
		<stop  offset="0.1685" style="stop-color:#D89CAC;stop-opacity:0.4989"/>
		<stop  offset="0.2604" style="stop-color:#C87289;stop-opacity:0.4438"/>
		<stop  offset="0.3561" style="stop-color:#BB4F6B;stop-opacity:0.3863"/>
		<stop  offset="0.4567" style="stop-color:#AF3253;stop-opacity:0.326"/>
		<stop  offset="0.5637" style="stop-color:#A71C40;stop-opacity:0.2618"/>
		<stop  offset="0.6803" style="stop-color:#A10C33;stop-opacity:0.1918"/>
		<stop  offset="0.8134" style="stop-color:#9D032B;stop-opacity:0.1119"/>
		<stop  offset="1" style="stop-color:#9C0029;stop-opacity:0"/>
	</linearGradient>
	<polygon style="fill:url(#SVGID_00000181768762008151869750000007817726149650687420_);" points="3.337,7.301 2.872,5.734 
		2.175,3.39 29.84,0.607 30.999,7.64 	"/>
	<polyline style="fill:none;stroke:#6493D4;stroke-width:0.1115;stroke-miterlimit:10;" points="11.999,16.247 11.554,15.701 
		10.859,14.846 	"/>
	
		<linearGradient id="SVGID_00000111159183181660935070000001023478454260832645_" gradientUnits="userSpaceOnUse" x1="12.243" y1="15.1324" x2="-4.3692" y2="1.4587">
		<stop  offset="0" style="stop-color:#E67A78"/>
		<stop  offset="0.1793" style="stop-color:#D65F67"/>
		<stop  offset="0.557" style="stop-color:#B72C45"/>
		<stop  offset="0.8423" style="stop-color:#A30C31"/>
		<stop  offset="1" style="stop-color:#9C0029"/>
	</linearGradient>
	<polygon style="fill:url(#SVGID_00000111159183181660935070000001023478454260832645_);" points="9.749,14.981 3.025,11.194 
		0.707,4.936 2.872,5.734 7.198,7.331 8.315,10.682 	"/>
	<polygon style="fill:none;" points="40.968,11.195 9.748,14.981 9.748,54.393 40.968,47.051 	"/>
	
		<linearGradient id="SVGID_00000169515985355635602070000008379280919593503881_" gradientUnits="userSpaceOnUse" x1="16.7826" y1="17.6509" x2="33.9842" y2="48.0249">
		<stop  offset="0" style="stop-color:#E66966"/>
		<stop  offset="0.1096" style="stop-color:#D9575C"/>
		<stop  offset="0.374" style="stop-color:#BF3246"/>
		<stop  offset="0.6191" style="stop-color:#AC1636"/>
		<stop  offset="0.8354" style="stop-color:#A0062C"/>
		<stop  offset="1" style="stop-color:#9C0029"/>
	</linearGradient>
	<polygon style="fill:url(#SVGID_00000169515985355635602070000008379280919593503881_);" points="40.968,11.195 9.748,14.981 
		9.748,54.393 40.968,47.051 	"/>
	<polygon style="fill:none;" points="40.968,11.195 9.748,14.981 9.748,54.393 40.968,47.051 	"/>
	
		<linearGradient id="SVGID_00000011030294766833738830000008603794722590068358_" gradientUnits="userSpaceOnUse" x1="36.8186" y1="7.8514" x2="-1.5029" y2="44.1781">
		<stop  offset="0" style="stop-color:#FFFFFF;stop-opacity:0.6"/>
		<stop  offset="0.0444" style="stop-color:#EFD5DC;stop-opacity:0.5734"/>
		<stop  offset="0.0991" style="stop-color:#DEA9B7;stop-opacity:0.5405"/>
		<stop  offset="0.1596" style="stop-color:#CE8095;stop-opacity:0.5043"/>
		<stop  offset="0.2243" style="stop-color:#C05E78;stop-opacity:0.4654"/>
		<stop  offset="0.2945" style="stop-color:#B5405F;stop-opacity:0.4233"/>
		<stop  offset="0.3721" style="stop-color:#AC294B;stop-opacity:0.3767"/>
		<stop  offset="0.4602" style="stop-color:#A5163C;stop-opacity:0.3239"/>
		<stop  offset="0.5649" style="stop-color:#A00A31;stop-opacity:0.2611"/>
		<stop  offset="0.7024" style="stop-color:#9D022B;stop-opacity:0.1785"/>
		<stop  offset="1" style="stop-color:#9C0029;stop-opacity:0"/>
	</linearGradient>
	<path style="fill:url(#SVGID_00000011030294766833738830000008603794722590068358_);" d="M40.968,11.195l-31.22,3.787v27.107
		l15.688-6.981C34.882,30.904,40.968,21.534,40.968,11.195L40.968,11.195z"/>
	
		<linearGradient id="SVGID_00000114060051924409327890000016426385578334870170_" gradientUnits="userSpaceOnUse" x1="0.8807" y1="5.3721" x2="9.7927" y2="17.8596">
		<stop  offset="0" style="stop-color:#FFFFFF;stop-opacity:0.6"/>
		<stop  offset="0.0819" style="stop-color:#EBCBD3;stop-opacity:0.5509"/>
		<stop  offset="0.1685" style="stop-color:#D89CAC;stop-opacity:0.4989"/>
		<stop  offset="0.2604" style="stop-color:#C87289;stop-opacity:0.4438"/>
		<stop  offset="0.3561" style="stop-color:#BB4F6B;stop-opacity:0.3863"/>
		<stop  offset="0.4567" style="stop-color:#AF3253;stop-opacity:0.326"/>
		<stop  offset="0.5637" style="stop-color:#A71C40;stop-opacity:0.2618"/>
		<stop  offset="0.6803" style="stop-color:#A10C33;stop-opacity:0.1918"/>
		<stop  offset="0.8134" style="stop-color:#9D032B;stop-opacity:0.1119"/>
		<stop  offset="1" style="stop-color:#9C0029;stop-opacity:0"/>
	</linearGradient>
	<polygon style="fill:url(#SVGID_00000114060051924409327890000016426385578334870170_);" points="9.749,14.981 3.025,11.194 
		0.707,4.936 	"/>
	
		<linearGradient id="SVGID_00000051361858770156867610000008757047070102558593_" gradientUnits="userSpaceOnUse" x1="44.1536" y1="2.261" x2="30.9786" y2="4.7967">
		<stop  offset="0" style="stop-color:#FFFFFF;stop-opacity:0.6"/>
		<stop  offset="0.0819" style="stop-color:#EBCBD3;stop-opacity:0.5509"/>
		<stop  offset="0.1685" style="stop-color:#D89CAC;stop-opacity:0.4989"/>
		<stop  offset="0.2604" style="stop-color:#C87289;stop-opacity:0.4438"/>
		<stop  offset="0.3561" style="stop-color:#BB4F6B;stop-opacity:0.3863"/>
		<stop  offset="0.4567" style="stop-color:#AF3253;stop-opacity:0.326"/>
		<stop  offset="0.5637" style="stop-color:#A71C40;stop-opacity:0.2618"/>
		<stop  offset="0.6803" style="stop-color:#A10C33;stop-opacity:0.1918"/>
		<stop  offset="0.8134" style="stop-color:#9D032B;stop-opacity:0.1119"/>
		<stop  offset="1" style="stop-color:#9C0029;stop-opacity:0"/>
	</linearGradient>
	<polygon style="fill:url(#SVGID_00000051361858770156867610000008757047070102558593_);" points="34.941,0.607 44.214,2.926 
		43.045,5.901 32.284,5.348 	"/>
	
		<linearGradient id="SVGID_00000064351039968321761410000013689709964796524433_" gradientUnits="userSpaceOnUse" x1="6.5919" y1="18.8167" x2="48.347" y2="12.1718">
		<stop  offset="0" style="stop-color:#E67A78"/>
		<stop  offset="0.1793" style="stop-color:#D65F67"/>
		<stop  offset="0.557" style="stop-color:#B72C45"/>
		<stop  offset="0.8423" style="stop-color:#A30C31"/>
		<stop  offset="1" style="stop-color:#9C0029"/>
	</linearGradient>
	<polygon style="fill:url(#SVGID_00000064351039968321761410000013689709964796524433_);" points="46.301,15.831 40.969,16.56 
		30.999,17.922 14.076,20.236 9.749,14.981 30.999,12.404 40.969,11.194 	"/>
	
		<linearGradient id="SVGID_00000091705692601864448920000011942202270680991108_" gradientUnits="userSpaceOnUse" x1="9.3246" y1="14.9292" x2="44.9736" y2="13.9414">
		<stop  offset="0" style="stop-color:#FFFFFF;stop-opacity:0.6"/>
		<stop  offset="0.0355" style="stop-color:#F7ECEF;stop-opacity:0.5787"/>
		<stop  offset="0.1446" style="stop-color:#E2B5C1;stop-opacity:0.5132"/>
		<stop  offset="0.2577" style="stop-color:#D08598;stop-opacity:0.4454"/>
		<stop  offset="0.3722" style="stop-color:#C05C76;stop-opacity:0.3767"/>
		<stop  offset="0.4886" style="stop-color:#B33B5A;stop-opacity:0.3068"/>
		<stop  offset="0.6075" style="stop-color:#A92145;stop-opacity:0.2355"/>
		<stop  offset="0.7297" style="stop-color:#A20E35;stop-opacity:0.1622"/>
		<stop  offset="0.8575" style="stop-color:#9D042C;stop-opacity:0.0855"/>
		<stop  offset="1" style="stop-color:#9C0029;stop-opacity:0"/>
	</linearGradient>
	<polygon style="fill:url(#SVGID_00000091705692601864448920000011942202270680991108_);" points="11.999,17.713 9.749,14.981 
		30.999,12.404 40.969,11.194 45.323,14.981 	"/>
	
		<linearGradient id="SVGID_00000096060181641079216440000011775366278044022451_" gradientUnits="userSpaceOnUse" x1="-1.9472" y1="7.9275" x2="15.4812" y2="86.1454">
		<stop  offset="0" style="stop-color:#FFFFFF;stop-opacity:0.6"/>
		<stop  offset="0.038" style="stop-color:#F2DEE3;stop-opacity:0.5772"/>
		<stop  offset="0.0989" style="stop-color:#E0B0BD;stop-opacity:0.5406"/>
		<stop  offset="0.1655" style="stop-color:#D08699;stop-opacity:0.5006"/>
		<stop  offset="0.2362" style="stop-color:#C2627B;stop-opacity:0.4581"/>
		<stop  offset="0.3123" style="stop-color:#B64361;stop-opacity:0.4124"/>
		<stop  offset="0.3954" style="stop-color:#AD2B4D;stop-opacity:0.3625"/>
		<stop  offset="0.4883" style="stop-color:#A5173D;stop-opacity:0.3067"/>
		<stop  offset="0.5964" style="stop-color:#A00A31;stop-opacity:0.2417"/>
		<stop  offset="0.7338" style="stop-color:#9D022B;stop-opacity:0.1592"/>
		<stop  offset="0.9987" style="stop-color:#9C0029;stop-opacity:0"/>
	</linearGradient>
	<path style="fill:url(#SVGID_00000096060181641079216440000011775366278044022451_);" d="M3.025,11.195L3.025,11.195v38.098
		l6.723,5.1"/>
</g>
<g>
	<defs>
		<path id="SVGID_00000016059390916826030440000013555279143506650793_" d="M44.102,27.459c-6.162-6.162-16.151-6.162-22.313,0
			c-6.161,6.161-6.161,16.15,0,22.312c6.162,6.162,16.151,6.162,22.313,0C50.263,43.61,50.263,33.62,44.102,27.459z M34.244,39.913
			c-0.716,0.715-1.88,0.715-2.596,0c-0.715-0.716-0.715-1.88,0-2.596c0.716-0.716,1.88-0.716,2.596,0
			C34.959,38.033,34.959,39.197,34.244,39.913z"/>
	</defs>
	<clipPath id="SVGID_00000180348871153815613190000010964383816492831143_">
		<use xlink:href="#SVGID_00000016059390916826030440000013555279143506650793_"  style="overflow:visible;"/>
	</clipPath>
	
		<linearGradient id="SVGID_00000050632032298864006260000015298647585266950835_" gradientUnits="userSpaceOnUse" x1="16.6011" y1="23.1366" x2="50.5372" y2="55.2754">
		<stop  offset="0" style="stop-color:#E6E6E6"/>
		<stop  offset="0.2074" style="stop-color:#E9E9E9"/>
		<stop  offset="0.3682" style="stop-color:#F3F3F3"/>
		<stop  offset="0.4814" style="stop-color:#FFFFFF"/>
		<stop  offset="0.6048" style="stop-color:#F2F2F2"/>
		<stop  offset="0.7639" style="stop-color:#E9E9E9"/>
		<stop  offset="1" style="stop-color:#E6E6E6"/>
	</linearGradient>
	
		<circle style="clip-path:url(#SVGID_00000180348871153815613190000010964383816492831143_);fill:url(#SVGID_00000050632032298864006260000015298647585266950835_);" cx="32.946" cy="38.615" r="15.777"/>
	
		<linearGradient id="SVGID_00000088105977426778735030000002228184812056679561_" gradientUnits="userSpaceOnUse" x1="-4495.0269" y1="8762.3887" x2="-4442.1665" y2="8762.3887" gradientTransform="matrix(-0.7071 0.7071 -0.7071 -0.7071 3068.8245 9394.335)">
		<stop  offset="0" style="stop-color:#E6E6E6;stop-opacity:0"/>
		<stop  offset="0.2028" style="stop-color:#E3EBE9;stop-opacity:0.4077"/>
		<stop  offset="0.4558" style="stop-color:#DCFBF0;stop-opacity:0.9161"/>
		<stop  offset="0.4975" style="stop-color:#DAFEF2"/>
		<stop  offset="0.5509" style="stop-color:#DCFAF0;stop-opacity:0.8938"/>
		<stop  offset="0.7963" style="stop-color:#E3EBE9;stop-opacity:0.4054"/>
		<stop  offset="1" style="stop-color:#E6E6E6;stop-opacity:0"/>
	</linearGradient>
	
		<polygon style="clip-path:url(#SVGID_00000180348871153815613190000010964383816492831143_);fill:url(#SVGID_00000088105977426778735030000002228184812056679561_);" points="
		7.814,51.152 31.813,37.773 45.192,13.774 57.496,26.078 33.632,39.322 20.118,63.456 	"/>
	<path style="clip-path:url(#SVGID_00000180348871153815613190000010964383816492831143_);fill:none;" d="M21.79,27.459
		c-6.162,6.162-6.162,16.151,0,22.313c6.161,6.161,16.151,6.161,22.312-0.001c6.161-6.161,6.161-16.151,0-22.312
		C37.94,21.298,27.951,21.298,21.79,27.459z M34.244,39.913c-0.716,0.716-1.88,0.716-2.595,0c-0.716-0.716-0.716-1.88,0-2.595
		c0.716-0.716,1.88-0.716,2.595,0S34.959,39.198,34.244,39.913z"/>
	
		<linearGradient id="SVGID_00000050623174545566304890000007681155299781185940_" gradientUnits="userSpaceOnUse" x1="-3691.2231" y1="1132.1675" x2="-3696.7205" y2="1163.9891" gradientTransform="matrix(0.7071 0.7071 -0.7071 0.7071 3455.644 1839.4386)">
		<stop  offset="0" style="stop-color:#E6E6E6;stop-opacity:0"/>
		<stop  offset="0.1774" style="stop-color:#E1E6E7;stop-opacity:0.3565"/>
		<stop  offset="0.3811" style="stop-color:#D3E4EA;stop-opacity:0.7659"/>
		<stop  offset="0.4975" style="stop-color:#C8E3ED"/>
		<stop  offset="0.6362" style="stop-color:#D7E4EA;stop-opacity:0.724"/>
		<stop  offset="0.8145" style="stop-color:#E2E6E7;stop-opacity:0.3692"/>
		<stop  offset="1" style="stop-color:#E6E6E6;stop-opacity:0"/>
	</linearGradient>
	
		<polygon style="clip-path:url(#SVGID_00000180348871153815613190000010964383816492831143_);fill:url(#SVGID_00000050623174545566304890000007681155299781185940_);" points="
		45.192,63.456 31.813,39.457 7.814,26.078 20.118,13.774 33.362,37.638 57.496,51.152 	"/>
	<g style="clip-path:url(#SVGID_00000180348871153815613190000010964383816492831143_);">
		<path style="fill:#FFFFFF;" d="M31.648,37.318c-0.716,0.716-0.716,1.88,0,2.596s1.88,0.716,2.596,0s0.716-1.88,0-2.596
			C33.528,36.602,32.363,36.602,31.648,37.318z"/>
		
			<linearGradient id="SVGID_00000041982084145275639350000009799120575270251442_" gradientUnits="userSpaceOnUse" x1="35.2746" y1="36.1838" x2="30.6164" y2="41.0471">
			<stop  offset="0" style="stop-color:#C8E3ED"/>
			<stop  offset="0.0886" style="stop-color:#D9ECF3"/>
			<stop  offset="0.2315" style="stop-color:#EEF6F9"/>
			<stop  offset="0.3713" style="stop-color:#FBFDFE"/>
			<stop  offset="0.5036" style="stop-color:#FFFFFF"/>
			<stop  offset="0.6626" style="stop-color:#FBFFFD"/>
			<stop  offset="0.836" style="stop-color:#EDFFF9"/>
			<stop  offset="1" style="stop-color:#DAFEF2"/>
		</linearGradient>
		<path style="fill:url(#SVGID_00000041982084145275639350000009799120575270251442_);" d="M30.565,36.235
			c-1.313,1.313-1.313,3.449,0,4.762c1.313,1.313,3.449,1.313,4.762,0c1.313-1.313,1.313-3.449,0-4.762
			C34.014,34.922,31.877,34.922,30.565,36.235z M34.352,40.022c-0.775,0.775-2.037,0.775-2.812,0c-0.775-0.775-0.775-2.037,0-2.812
			c0.775-0.775,2.037-0.775,2.812,0C35.127,37.985,35.127,39.246,34.352,40.022z"/>
		
			<linearGradient id="SVGID_00000163059293967829825040000009169017508135704483_" gradientUnits="userSpaceOnUse" x1="28.8125" y1="38.6154" x2="37.0785" y2="38.6154">
			<stop  offset="0" style="stop-color:#E66966"/>
			<stop  offset="0.1096" style="stop-color:#D9575C"/>
			<stop  offset="0.374" style="stop-color:#BF3246"/>
			<stop  offset="0.6191" style="stop-color:#AC1636"/>
			<stop  offset="0.8354" style="stop-color:#A0062C"/>
			<stop  offset="1" style="stop-color:#9C0029"/>
		</linearGradient>
		<path style="opacity:0.42;fill:url(#SVGID_00000163059293967829825040000009169017508135704483_);" d="M30.023,35.693
			c-1.614,1.614-1.614,4.231,0,5.845s4.231,1.614,5.845,0s1.614-4.231,0-5.845S31.637,34.079,30.023,35.693z M35.435,41.105
			c-1.373,1.373-3.606,1.373-4.978,0c-1.373-1.373-1.373-3.606,0-4.978c1.373-1.373,3.606-1.373,4.978,0
			C36.807,37.499,36.807,39.732,35.435,41.105z"/>
	</g>
	<path style="clip-path:url(#SVGID_00000180348871153815613190000010964383816492831143_);fill:none;" d="M44.102,27.459
		c-6.162-6.161-16.151-6.161-22.313,0c-6.161,6.162-6.161,16.151,0,22.313c6.162,6.161,16.151,6.161,22.313,0
		C50.263,43.61,50.263,33.621,44.102,27.459z M34.243,39.913c-0.715,0.716-1.879,0.716-2.596,0c-0.715-0.715-0.715-1.879,0-2.596
		c0.716-0.715,1.88-0.715,2.596,0C34.959,38.033,34.959,39.197,34.243,39.913z"/>
	
		<path style="clip-path:url(#SVGID_00000180348871153815613190000010964383816492831143_);fill:none;stroke:#750125;stroke-width:0.437;stroke-miterlimit:10;" d="
		M44.102,27.459c-6.162-6.162-16.151-6.162-22.313,0c-6.161,6.161-6.161,16.15,0,22.312c6.162,6.162,16.151,6.162,22.313,0
		C50.263,43.61,50.263,33.62,44.102,27.459z M34.244,39.913c-0.716,0.715-1.88,0.715-2.596,0c-0.715-0.716-0.715-1.88,0-2.596
		c0.716-0.716,1.88-0.716,2.596,0C34.959,38.033,34.959,39.197,34.244,39.913z"/>
</g>
<g>
	<g>
		
			<linearGradient id="SVGID_00000099663326049874456190000005149791054321113756_" gradientUnits="userSpaceOnUse" x1="40.7324" y1="30.0926" x2="40.7324" y2="40.4551">
			<stop  offset="0" style="stop-color:#375D81"/>
			<stop  offset="0.003" style="stop-color:#3D6386"/>
			<stop  offset="0.0245" style="stop-color:#6686A5"/>
			<stop  offset="0.0464" style="stop-color:#88A3BF"/>
			<stop  offset="0.0687" style="stop-color:#A2BAD3"/>
			<stop  offset="0.0915" style="stop-color:#B5CAE2"/>
			<stop  offset="0.1151" style="stop-color:#C0D4EA"/>
			<stop  offset="0.1407" style="stop-color:#C4D7ED"/>
			<stop  offset="0.3989" style="stop-color:#E1E6FA"/>
			<stop  offset="0.7407" style="stop-color:#ABC8E2"/>
			<stop  offset="0.7812" style="stop-color:#A5C3DD"/>
			<stop  offset="0.8333" style="stop-color:#95B4D0"/>
			<stop  offset="0.8917" style="stop-color:#7B9CBA"/>
			<stop  offset="0.9543" style="stop-color:#567A9B"/>
			<stop  offset="1" style="stop-color:#375D81"/>
		</linearGradient>
		<path style="fill:url(#SVGID_00000099663326049874456190000005149791054321113756_);" d="M39.021,39.136
			c-0.078-1.308-0.02-2.528,0.105-3.693l0.074-0.651c0.092-0.775,0.179-1.508,0.176-2.536c-0.001-0.451-0.02-0.855-0.043-1.193
			c-0.018-0.235-0.036-0.439-0.055-0.607l-0.008-0.076h2.888l-0.008,0.075c-0.062,0.582-0.096,1.188-0.098,1.802
			c-0.003,1.028,0.084,1.761,0.176,2.536l0.074,0.651c0.125,1.165,0.184,2.385,0.174,3.626l-0.001,0.067H39.021z"/>
		<path style="fill:#750125;" d="M42.083,30.446c-0.044,0.411-0.095,1.04-0.098,1.809c-0.003,1.317,0.141,2.166,0.25,3.194
			c0.091,0.847,0.186,2.079,0.174,3.618h-3.387c-0.012-1.539,0.083-2.771,0.174-3.618c0.109-1.028,0.254-1.877,0.25-3.194
			c-0.001-0.454-0.02-0.858-0.044-1.199c-0.017-0.236-0.036-0.441-0.054-0.61H42.083 M42.235,30.309h-0.152h-2.735h-0.152
			l0.016,0.151c0.018,0.168,0.037,0.371,0.054,0.606c0.028,0.392,0.042,0.793,0.043,1.189c0.003,1.024-0.084,1.755-0.175,2.529
			c-0.025,0.213-0.05,0.427-0.074,0.65c-0.126,1.171-0.184,2.394-0.174,3.634l0.001,0.136h0.136h3.387h0.136l0.001-0.136
			c0.01-1.24-0.049-2.463-0.174-3.634c-0.024-0.223-0.049-0.437-0.074-0.65c-0.091-0.774-0.178-1.505-0.175-2.529
			c0.002-0.606,0.035-1.21,0.097-1.795L42.235,30.309L42.235,30.309z"/>
	</g>
	<g>
		<g>
			
				<linearGradient id="SVGID_00000038371156198636349900000004819839553357663373_" gradientUnits="userSpaceOnUse" x1="40.7153" y1="37.9226" x2="40.7153" y2="57.3696">
				<stop  offset="0" style="stop-color:#E66966"/>
				<stop  offset="0.1301" style="stop-color:#CC3241"/>
				<stop  offset="0.3884" style="stop-color:#CC3241"/>
				<stop  offset="0.6278" style="stop-color:#9C0029"/>
				<stop  offset="0.8392" style="stop-color:#9C0029"/>
				<stop  offset="1" style="stop-color:#9C0029"/>
			</linearGradient>
			<path style="fill:url(#SVGID_00000038371156198636349900000004819839553357663373_);" d="M40.784,54.444l-0.159,0.001
				c0,0-0.308,0.015-0.317,0.015c-0.31,0-0.878-0.024-1.56-0.207c-0.155-0.043-0.478-0.131-0.561-0.379
				c-0.025-0.076-0.026-0.161-0.002-0.251c0.026-0.091,0.068-0.162,0.085-0.188c0.423-0.83,0.745-5.205,0.812-7.923
				c0.022-0.898,0.018-1.687-0.077-2.608c-0.031-0.315-0.06-0.505-0.087-0.689c-0.024-0.165-0.048-0.326-0.073-0.566
				c-0.098-0.93-0.098-1.906,0-2.901l0,0c-0.002,0-0.021-0.138,0.075-0.244c0.038-0.042,0.08-0.064,0.108-0.075l1.688-0.011
				l1.661,0.006c0.054,0.016,0.096,0.038,0.134,0.08c0.097,0.107,0.077,0.247,0.074,0.263c0.099,0.977,0.099,1.953,0.001,2.883
				c-0.025,0.246-0.05,0.408-0.074,0.577c-0.026,0.181-0.055,0.369-0.086,0.679c-0.094,0.92-0.099,1.708-0.077,2.608
				c0.071,2.842,0.414,7.229,0.812,7.922c0.098,0.165,0.125,0.312,0.082,0.44c-0.082,0.249-0.405,0.336-0.561,0.379
				c-0.702,0.188-1.283,0.208-1.5,0.208L40.784,54.444z"/>
			<path style="fill:#750125;" d="M40.716,38.484c0.252,0.001,0.504,0.002,0.757,0.003h0.015c0.297,0.001,0.593,0.002,0.89,0.003
				c0.023,0.009,0.055,0.026,0.083,0.057c0.073,0.081,0.06,0.187,0.057,0.205c0.122,1.234,0.071,2.214,0,2.888
				c-0.053,0.51-0.099,0.66-0.16,1.256c-0.092,0.897-0.1,1.663-0.077,2.618c0.066,2.655,0.394,7.21,0.821,7.953
				c0.025,0.044,0.133,0.217,0.077,0.385c-0.068,0.204-0.341,0.287-0.513,0.334c-0.698,0.187-1.277,0.206-1.484,0.206
				c-0.053,0-0.081-0.001-0.081-0.001c-0.124-0.005-0.252-0.012-0.385-0.019c-0.133,0.007-0.261,0.014-0.385,0.019
				c0,0-0.029,0.001-0.081,0.001c-0.207,0-0.785-0.019-1.484-0.206c-0.172-0.046-0.446-0.13-0.513-0.334
				c-0.025-0.073-0.018-0.148,0-0.212c0.023-0.083,0.063-0.149,0.077-0.174c0.005-0.009,0.01-0.018,0.016-0.029
				c0.419-0.824,0.74-5.301,0.805-7.924c0.023-0.954,0.014-1.72-0.077-2.618c-0.061-0.597-0.107-0.746-0.16-1.256
				c-0.071-0.673-0.122-1.653,0-2.888c-0.003-0.018-0.016-0.124,0.057-0.205c0.029-0.031,0.061-0.049,0.083-0.057
				C39.608,38.488,40.162,38.486,40.716,38.484 M40.716,38.348L40.716,38.348L40.716,38.348l-1.164,0.004l-0.499,0.002l-0.026,0
				l-0.024,0.009c-0.036,0.014-0.088,0.041-0.134,0.092c-0.098,0.109-0.1,0.24-0.094,0.299c-0.097,0.992-0.097,1.968,0.002,2.9
				c0.025,0.243,0.049,0.405,0.074,0.572c0.027,0.183,0.054,0.371,0.086,0.683c0.094,0.918,0.098,1.704,0.077,2.6
				c-0.069,2.77-0.402,7.103-0.79,7.866c-0.033,0.058-0.077,0.133-0.103,0.229c-0.029,0.103-0.028,0.201,0.002,0.291
				c0.094,0.283,0.454,0.38,0.607,0.422c0.71,0.19,1.299,0.211,1.519,0.211c0.057,0,0.087-0.001,0.087-0.001l0.325-0.016
				l0.061-0.003l0.047,0.003l0.325,0.016c0,0,0.031,0.001,0.087,0.001c0.22,0,0.809-0.021,1.519-0.211
				c0.154-0.041,0.513-0.138,0.608-0.422c0.049-0.146,0.02-0.311-0.085-0.492c-0.396-0.69-0.736-5.061-0.806-7.894
				c-0.022-0.897-0.017-1.682,0.077-2.6c0.032-0.312,0.059-0.501,0.086-0.683c0.024-0.167,0.048-0.329,0.074-0.573
				c0.098-0.932,0.099-1.908,0.002-2.9c0.006-0.059,0.005-0.19-0.094-0.298c-0.047-0.051-0.099-0.079-0.135-0.093l-0.024-0.009
				l-0.026,0l-0.445-0.002l-0.445-0.002l-0.391-0.001L40.716,38.348L40.716,38.348z"/>
		</g>
	</g>
	<g>
		
			<linearGradient id="SVGID_00000141454885918955277920000012494323783604167572_" gradientUnits="userSpaceOnUse" x1="48.545" y1="28.2839" x2="33.9255" y2="28.2839">
			<stop  offset="0.0831" style="stop-color:#C4D7ED"/>
			<stop  offset="0.3989" style="stop-color:#E1E6FA"/>
			<stop  offset="0.7407" style="stop-color:#ABC8E2"/>
			<stop  offset="0.7595" style="stop-color:#A5C3DD"/>
			<stop  offset="0.7837" style="stop-color:#95B4D0"/>
			<stop  offset="0.8109" style="stop-color:#7B9CBA"/>
			<stop  offset="0.84" style="stop-color:#567A9B"/>
			<stop  offset="0.8612" style="stop-color:#375D81"/>
			<stop  offset="0.9812" style="stop-color:#375D81"/>
			<stop  offset="1" style="stop-color:#375D81"/>
		</linearGradient>
		<path style="fill:url(#SVGID_00000141454885918955277920000012494323783604167572_);" d="M48.158,30.863l-0.104-0.026
			c-0.115-0.054-0.195-0.171-0.21-0.308c-0.106-0.206-0.252-0.414-0.424-0.595c-0.394-0.414-0.918-0.679-1.559-0.787
			c-0.113-0.02-0.299-0.05-0.533-0.05c-0.273,0-0.543,0.042-0.801,0.124c-0.728,0.232-1.171,0.724-1.371,0.995
			c-0.267,0.171-0.53,0.29-0.805,0.371c-0.359,0.107-0.661,0.128-1.062,0.128h-0.104c-1.301-0.01-1.954-0.015-2.319-0.272
			c-0.528-0.371-0.99-0.732-0.99-0.732c-0.098-0.076-0.198-0.155-0.352-0.189c-0.049-0.011-0.097-0.016-0.145-0.016
			c-0.243,0-0.463,0.127-0.608,0.21c-0.053,0.031-0.118,0.073-0.19,0.129l-0.128,0.097l0.018-0.159l0.001-3.291l-0.029-0.174
			l0.131,0.012c0.086,0.067,0.177,0.131,0.275,0.189c0.262,0.153,0.418,0.171,0.514,0.171c0.174-0.012,0.308-0.06,0.7-0.298
			c0.248-0.15,0.376-0.24,0.47-0.307c0.091-0.064,0.15-0.106,0.254-0.158c0.352-0.179,0.686-0.202,1.054-0.212
			c0.268-0.007,0.52-0.01,0.755-0.01c1.672,0,2.561,0.164,2.569,0.165c1.354,0.255,2.032,0.382,2.845,0.855
			c0.33,0.192,0.944,0.549,1.481,1.158c0.378,0.426,0.649,0.905,0.807,1.421c0.128,0.418,0.181,0.857,0.157,1.307
			c-0.04,0.139-0.134,0.231-0.242,0.25l-0.04,0.003H48.158z"/>
		<path style="fill:#750125;" d="M40.595,25.773c1.686,0,2.558,0.164,2.558,0.164c1.347,0.254,2.021,0.381,2.823,0.847
			c0.318,0.185,0.935,0.543,1.465,1.144c0.326,0.368,0.619,0.828,0.792,1.396c0.157,0.514,0.17,0.97,0.154,1.283
			c-0.03,0.098-0.102,0.172-0.186,0.187c-0.009,0.001-0.019,0.002-0.029,0.002c-0.03,0-0.061-0.007-0.091-0.021
			c-0.085-0.039-0.157-0.13-0.17-0.252c-0.081-0.163-0.218-0.399-0.442-0.635c-0.596-0.627-1.337-0.763-1.597-0.808
			c-0.115-0.02-0.305-0.05-0.544-0.05c-0.234,0-0.515,0.029-0.822,0.127c-0.797,0.254-1.246,0.804-1.405,1.02
			c-0.171,0.105-0.431,0.245-0.77,0.346c-0.338,0.101-0.629,0.126-1.039,0.126c-0.034,0-0.07,0-0.106,0
			c-1.289-0.01-1.933-0.015-2.281-0.26c-0.526-0.37-0.988-0.731-0.988-0.731c-0.1-0.079-0.21-0.165-0.379-0.202
			c-0.001,0-0.002-0.001-0.003-0.001c-0.053-0.012-0.106-0.017-0.157-0.017c-0.263,0-0.494,0.133-0.642,0.219
			c-0.055,0.031-0.123,0.075-0.198,0.133c0.001-0.009,0.001-0.018,0.001-0.027v-3.271c0-0.037-0.003-0.073-0.009-0.109
			c0.087,0.07,0.182,0.135,0.284,0.195c0.261,0.153,0.429,0.18,0.546,0.18c0.006,0,0.012,0,0.018,0
			c0.014-0.001,0.028-0.001,0.042-0.003c0.141-0.011,0.292-0.072,0.677-0.305c0.483-0.293,0.513-0.358,0.718-0.462
			c0.338-0.172,0.653-0.195,1.026-0.205C40.109,25.776,40.36,25.773,40.595,25.773 M40.595,25.636c-0.236,0-0.489,0.003-0.756,0.011
			c-0.376,0.01-0.718,0.034-1.084,0.22c-0.105,0.053-0.168,0.097-0.261,0.163c-0.093,0.066-0.219,0.155-0.466,0.304
			c-0.378,0.229-0.509,0.277-0.616,0.285l-0.037,0.002c0,0-0.001,0-0.001,0c-0.1,0-0.243-0.017-0.489-0.161
			c-0.092-0.054-0.182-0.115-0.268-0.184l-0.281-0.224l0.061,0.354c0.005,0.028,0.007,0.056,0.007,0.085v3.271v0.278l0.22-0.143
			c0.069-0.054,0.132-0.094,0.183-0.123c0.138-0.08,0.347-0.201,0.574-0.201c0.044,0,0.087,0.005,0.128,0.014
			c0.14,0.031,0.229,0.101,0.324,0.175c0.006,0.005,0.472,0.369,0.995,0.737c0.384,0.27,1.044,0.275,2.358,0.285l0.107,0
			c0.394,0,0.712-0.022,1.078-0.131c0.278-0.083,0.548-0.204,0.802-0.36l0.023-0.014l0.016-0.021
			c0.195-0.266,0.629-0.745,1.337-0.971c0.251-0.08,0.514-0.12,0.781-0.12c0.237,0,0.422,0.032,0.521,0.048
			c0.234,0.04,0.945,0.162,1.521,0.767c0.163,0.172,0.301,0.367,0.409,0.581c0.024,0.149,0.116,0.276,0.245,0.335
			c0.048,0.022,0.099,0.033,0.148,0.033h0.011l0.039-0.004c0.137-0.023,0.249-0.131,0.295-0.281
			c0.029-0.491-0.025-0.938-0.154-1.363c-0.16-0.526-0.436-1.012-0.821-1.446c-0.544-0.616-1.164-0.977-1.498-1.171
			c-0.824-0.479-1.507-0.608-2.867-0.864C43.142,25.796,42.274,25.636,40.595,25.636L40.595,25.636z"/>
	</g>
	<g>
		
			<linearGradient id="SVGID_00000154387293783347476580000005693097632800366215_" gradientUnits="userSpaceOnUse" x1="33.4969" y1="26.3755" x2="40.6034" y2="33.4819">
			<stop  offset="0" style="stop-color:#E1E6FA"/>
			<stop  offset="0.3192" style="stop-color:#C4D7ED"/>
			<stop  offset="0.5666" style="stop-color:#ABC8E2"/>
			<stop  offset="1" style="stop-color:#375D81"/>
		</linearGradient>
		<path style="fill:url(#SVGID_00000154387293783347476580000005693097632800366215_);" d="M34.402,30.515
			c-0.415,0-0.752-0.337-0.752-0.752v-3.271c0-0.415,0.337-0.752,0.752-0.752h1.694c0.058,0,0.112,0.006,0.163,0.019
			c0.297,0.064,0.53,0.311,0.579,0.614c0.007,0.039,0.01,0.079,0.01,0.12v3.271c-0.017,0.435-0.346,0.752-0.752,0.752H34.402z"/>
		<path style="fill:#750125;" d="M36.097,25.809c0.051,0,0.1,0.005,0.148,0.016c0.272,0.059,0.482,0.281,0.527,0.558
			c0.006,0.036,0.009,0.072,0.009,0.109v3.271c0,0.01,0,0.018-0.001,0.027c-0.014,0.365-0.315,0.656-0.683,0.656h-1.694
			c-0.377,0-0.683-0.306-0.683-0.683v-3.271c0-0.377,0.306-0.683,0.683-0.683H36.097 M36.097,25.672h-1.694
			c-0.452,0-0.82,0.368-0.82,0.82v3.271c0,0.452,0.368,0.82,0.82,0.82h1.694c0.442,0,0.802-0.346,0.819-0.787l0.001-3.304
			c0-0.045-0.003-0.089-0.011-0.132c-0.053-0.328-0.307-0.597-0.632-0.669C36.218,25.679,36.158,25.672,36.097,25.672L36.097,25.672
			z"/>
	</g>
	
		<linearGradient id="SVGID_00000043436672716772990800000005129168085856495764_" gradientUnits="userSpaceOnUse" x1="46.932" y1="43.9012" x2="35.5787" y2="49.6356">
		<stop  offset="0" style="stop-color:#FFFFFF;stop-opacity:0.6"/>
		<stop  offset="0.0486" style="stop-color:#F5F4F7;stop-opacity:0.5709"/>
		<stop  offset="1" style="stop-color:#36175E;stop-opacity:0"/>
	</linearGradient>
	<path style="fill:url(#SVGID_00000043436672716772990800000005129168085856495764_);" d="M43.179,53.853
		c-0.068,0.204-0.341,0.287-0.513,0.334c-0.877,0.235-1.565,0.205-1.565,0.205c-0.124-0.005-0.252-0.012-0.385-0.019
		c-0.133,0.007-0.261,0.014-0.385,0.019c0,0-0.688,0.03-1.565-0.205c-0.172-0.046-0.446-0.13-0.513-0.334
		c-0.025-0.073-0.018-0.148,0-0.212c1.537,0.568,2.924,0.452,3.542-0.29c0.046-0.055,0.092-0.12,0.137-0.196
		c0.155-0.266,0.213-0.579,0.184-0.885c-0.491-5.18-0.487-7.425-0.379-8.502c0.103-1.02,0.107-1.508,0.116-2.482
		c0.012-1.368-0.072-1.776-0.116-1.963c-0.078-0.337-0.176-0.612-0.264-0.836h0.015c0.297,0.001,0.593,0.002,0.89,0.003
		c0.023,0.009,0.055,0.026,0.083,0.057c0.073,0.081,0.06,0.187,0.057,0.205c0.122,1.234,0.071,2.214,0,2.888
		c-0.053,0.51-0.099,0.66-0.16,1.256c-0.092,0.897-0.1,1.663-0.077,2.618c0.066,2.655,0.394,7.21,0.821,7.953
		C43.127,53.511,43.235,53.685,43.179,53.853z"/>
</g>
<g>
	<g>
		
			<linearGradient id="SVGID_00000046306719803804825810000002282928847559437735_" gradientUnits="userSpaceOnUse" x1="49.5671" y1="29.9182" x2="49.9356" y2="62.9038">
			<stop  offset="0.0831" style="stop-color:#C4D7ED"/>
			<stop  offset="0.3989" style="stop-color:#E1E6FA"/>
			<stop  offset="0.7407" style="stop-color:#ABC8E2"/>
			<stop  offset="0.7595" style="stop-color:#A5C3DD"/>
			<stop  offset="0.7837" style="stop-color:#95B4D0"/>
			<stop  offset="0.8109" style="stop-color:#7B9CBA"/>
			<stop  offset="0.84" style="stop-color:#567A9B"/>
			<stop  offset="0.8612" style="stop-color:#375D81"/>
			<stop  offset="0.9812" style="stop-color:#375D81"/>
			<stop  offset="1" style="stop-color:#375D81"/>
		</linearGradient>
		<path style="fill:url(#SVGID_00000046306719803804825810000002282928847559437735_);" d="M49.809,54.377
			c-1.566,0-2.84-1.274-2.84-2.841c0-0.671,0.238-1.322,0.671-1.834l-0.021-18.427h4.381v18.487
			c0.411,0.451,0.649,1.103,0.649,1.773C52.648,53.103,51.375,54.377,49.809,54.377z M49.809,50.42
			c-0.615,0-1.116,0.501-1.116,1.116s0.501,1.116,1.116,1.116s1.116-0.501,1.116-1.116S50.424,50.42,49.809,50.42z"/>
		<path style="fill:#750125;" d="M51.906,31.368v18.395c0.406,0.478,0.65,1.097,0.65,1.774c0,1.518-1.231,2.747-2.747,2.747
			s-2.747-1.23-2.747-2.747c0-0.677,0.244-1.296,0.65-1.774V31.368H51.906 M49.808,52.745c0.667,0,1.209-0.542,1.209-1.208
			s-0.543-1.209-1.209-1.209c-0.667,0-1.209,0.543-1.209,1.209S49.142,52.745,49.808,52.745 M52.092,31.181h-0.186h-4.195h-0.186
			v0.186v18.327c-0.42,0.519-0.65,1.17-0.65,1.841c0,1.618,1.316,2.934,2.934,2.934s2.934-1.316,2.934-2.934
			c0-0.671-0.23-1.322-0.65-1.841V31.368V31.181L52.092,31.181z M49.808,52.558c-0.564,0-1.023-0.458-1.023-1.022
			c0-0.564,0.459-1.023,1.023-1.023s1.023,0.459,1.023,1.023C50.831,52.1,50.372,52.558,49.808,52.558L49.808,52.558z"/>
	</g>
	
		<linearGradient id="SVGID_00000121263900360519887790000013065129755244478094_" gradientUnits="userSpaceOnUse" x1="48.4727" y1="41.0278" x2="52.2917" y2="41.0278">
		<stop  offset="0" style="stop-color:#9C0029"/>
		<stop  offset="0.0337" style="stop-color:#A3082D"/>
		<stop  offset="0.1604" style="stop-color:#BA1F38"/>
		<stop  offset="0.2788" style="stop-color:#C72D3F"/>
		<stop  offset="0.3801" style="stop-color:#CC3241"/>
		<stop  offset="0.7796" style="stop-color:#AA0E30"/>
		<stop  offset="0.9987" style="stop-color:#9C0029"/>
	</linearGradient>
	<path style="fill:url(#SVGID_00000121263900360519887790000013065129755244478094_);" d="M49.054,47.255V34.8
		c0-0.363,0.294-0.656,0.656-0.656h0.196c0.363,0,0.656,0.294,0.656,0.656v12.455c0,0.363-0.294,0.656-0.656,0.656H49.71
		C49.348,47.912,49.054,47.618,49.054,47.255z"/>
	<g>
		<g>
			
				<linearGradient id="SVGID_00000117634274987919536670000006989256121785586569_" gradientUnits="userSpaceOnUse" x1="49.8081" y1="20.0662" x2="49.8081" y2="37.0744">
				<stop  offset="0.0831" style="stop-color:#C4D7ED"/>
				<stop  offset="0.3989" style="stop-color:#E1E6FA"/>
				<stop  offset="0.6877" style="stop-color:#ABC8E2"/>
				<stop  offset="0.7148" style="stop-color:#A5C3DD"/>
				<stop  offset="0.7497" style="stop-color:#95B4D0"/>
				<stop  offset="0.7888" style="stop-color:#7B9CBA"/>
				<stop  offset="0.8306" style="stop-color:#567A9B"/>
				<stop  offset="0.8612" style="stop-color:#375D81"/>
				<stop  offset="0.9812" style="stop-color:#375D81"/>
				<stop  offset="1" style="stop-color:#375D81"/>
			</linearGradient>
			<path style="fill:url(#SVGID_00000117634274987919536670000006989256121785586569_);" d="M49.811,32.879
				c-2.514,0-4.568-2.044-4.58-4.558c-0.008-1.625,0.859-3.147,2.263-3.971l0.021-0.013l0.092-0.019
				c0.126,0,0.229,0.103,0.229,0.229v4.03c0,0.393,0.32,0.713,0.713,0.713h2.521c0.393,0,0.713-0.32,0.713-0.713v-4.03
				c0-0.126,0.102-0.229,0.228-0.229h0.025l0.088,0.031c1.396,0.82,2.263,2.333,2.263,3.95c0,2.485-2.02,4.539-4.503,4.578
				L49.811,32.879z"/>
			<path style="fill:#750125;" d="M52.01,24.412c0.022,0,0.045,0.006,0.067,0.018c1.326,0.779,2.216,2.22,2.216,3.869
				c0,2.453-1.969,4.446-4.412,4.485c-0.024,0-0.048,0.001-0.072,0.001c-2.45,0-4.475-2.005-4.486-4.464
				c-0.008-1.658,0.885-3.108,2.217-3.891c0.022-0.013,0.045-0.018,0.067-0.018c0.07,0,0.135,0.057,0.135,0.135v4.03
				c0,0.445,0.361,0.806,0.806,0.806h2.522c0.445,0,0.806-0.361,0.806-0.806v-4.03C51.875,24.469,51.939,24.412,52.01,24.412
				 M52.01,24.226c-0.177,0-0.321,0.144-0.321,0.321v4.03c0,0.341-0.278,0.619-0.619,0.619h-2.522c-0.341,0-0.619-0.278-0.619-0.619
				v-4.03c0-0.177-0.144-0.321-0.321-0.321c-0.056,0-0.112,0.015-0.161,0.044c-1.432,0.841-2.317,2.393-2.309,4.052
				c0.012,2.564,2.108,4.65,4.673,4.65l0.074-0.001c2.534-0.04,4.595-2.136,4.595-4.671c0-1.649-0.885-3.194-2.308-4.03
				C52.122,24.241,52.066,24.226,52.01,24.226L52.01,24.226z"/>
		</g>
	</g>
</g>
</svg>
